<?xml version="1.0" encoding="UTF-8"?>
<svg id="Camada_1" xmlns="http://www.w3.org/2000/svg" version="1.1" viewBox="0 0 1080 1080">
  <!-- Generator: Adobe Illustrator 29.8.7, SVG Export Plug-In . SVG Version: 2.1.1 Build 1)  -->
  <defs>
    <style>
      .st0 {
        fill: #023710;
      }

      .st1 {
        fill: #f2ba08;
      }

      .st2 {
        fill: #bb8306;
      }

      .st3 {
        fill: #091b05;
      }

      .st4 {
        fill: #f9f8f5;
      }

      .st5 {
        fill: #bdb383;
      }

      .st6 {
        fill: #ebe8d4;
      }

      .st7 {
        fill: #193432;
      }

      .st8 {
        fill: #f2f0e7;
      }

      .st9 {
        fill: #d6cdbd;
      }

      .st10 {
        fill: #f5ca07;
      }

      .st11 {
        fill: #0c1f0c;
      }
    </style>
  </defs>
  <path class="st6" d="M881.2,224.31c.13.18,2.8-.72,3.14,1.02,1.84,18.76,3.27,37.59,4.62,56.39-7.08-17.68-4.74-38.66-7.76-57.41-33.54-9.62-68.88-13.38-102.74-22.17-73.11-18.98-146.96-50.37-214.85-83.06-18.91-9.11-16.4-15.96-38.83-5.25-2.71,1.29-4.42,3.97-7.13,5.28-99.71,48.4-202.06,88.04-312.94,102.89-3.12,2.03-4.52,4.99-5.54,8.43-2.15,7.23-6.91,50.84-5.09,56.51.59,1.85,5.36,3.16,5.97,6.44.14.75-3.12.63-3.2,1.61-.1,1.29,1.63,3.91,1.63,6.12,0,5.77-.2,10.66-1.57,16.3-13.28-3.75-3.24,3.49-3.12,4.14.89,4.75-.27,10.33.78,16.12.47,2.6.17,5.43,3.9,4.56-8.1,123.14-.02,247.24,50.93,361.02,54.54,121.82,173.75,203.71,291.58,257.8,29.46-11.7,58.78-27.05,86.21-43.47,166.32-99.58,238.54-228.33,253.99-421.74,4.02,1.13,4.24-4.88,4.46-7.15,1.23-12.42,2.66-27.76,3.36-40.11.64-11.3-1.45-24.97-.07-35.78.29-2.26,1.18-4.81,3.1-2.29-.65,17.78.88,35.81.07,53.59-.69,15.35-4.55,32.7-4.78,48-.05,3.2-.88,4.55,3.16,3.91.27-15.73,2.36-31.54,3.18-47.25,3.17-61.02-.37-122.93-4.72-183.93,2.35,7.24,3.93,16.49,4.63,24.07,14.89,159.16-1.52,365.54-107.08,493.36-49.09,59.44-114.9,107.05-182.01,143.83-14.12,7.74-41.71,23.7-56.04,27.74-10.96,3.1-15.47-.05-25.19-4.46-80.38-36.47-171.31-101.5-228.55-168.67-118.11-138.62-124.49-359.24-103.98-532.15,1.37-11.56,2.79-25.57,5.11-36.79,1.49-7.2.97-11.35,9.25-14.02,16.88-5.43,45.66-7.14,64.77-11.26,78.53-16.93,159.64-48.19,231.76-83.22,9.51-4.62,27.85-17.89,37.54-18.33,3.92-.18,11.81,2.67,15.7,4.26,22.33,9.09,46.31,24.54,69.25,34.7,64.41,28.54,137.89,52.28,207.09,66,9.44,1.87,42.93,4.47,47.81,9.67,1.63,1.74,1.61,4,2.17,4.75ZM193.83,311.2l-1.53-15.5c2.04,4.02-5.48,16.35,1.53,15.5ZM888.95,526.89c-4.03-.68-2.78.61-3.54,3.35-1.28,4.66-1.37,8.93-1.09,13.7l4.63-17.05Z"/>
  <path class="st8" d="M881.2,224.31c3.01,18.75.68,39.73,7.76,57.41.07,1.03-.07,2.08,0,3.1,4.35,61,7.89,122.91,4.72,183.93-.82,15.72-2.9,31.52-3.18,47.25-4.04.64-3.21-.71-3.16-3.91.23-15.3,4.09-32.65,4.78-48,.8-17.78-.72-35.8-.07-53.59-1.91-2.52-2.81.03-3.1,2.29-1.38,10.81.71,24.48.07,35.78-.7,12.35-2.13,27.69-3.36,40.11-.22,2.27-.45,8.28-4.46,7.15,6.94-86.94.15-173.33-9.31-259.9-1.41-8-15.62-4.77-21.73-5.43.99-5.06-2.57-2.49-6.21-3.1-.96-.16-2.1.11-3.1,0-3.4-.36-5.86.05-6.21,0-12.67-1.8-32.88-8.98-45-9.31-1.03-.03-2.07.02-3.1,0-8.65-5.55-19.26-7.56-29.08-10.48-29.57-8.81-59.69-17.88-88.82-29.11-42.96-16.57-84.27-37.2-125.32-57.87l-6.66.39-27.87,16.39c-2.07.24-3.12,1.1-4.65,1.55-19.37,5.69-49.01,22.13-69.31,30.77-3.69,1.57-9.14,3.13-11.38,6.46-.49.11-1.05-.09-1.55,0-2.89.53-5.92-.07-7.76,3.1-.51.08-1.05-.09-1.55,0-20.42,3.71-58.49,19.91-80.71,27.13-2.44.79-5.17.95-6.18,3.91-1,.12-2.14-.16-3.1,0-15.2,2.52-30.01,7.39-45,10.86-.57.13-1.17,1.46-1.55,1.55-1.76.41-4.43-.4-6.21,0-1.37.31-2.86,1.2-4.65,1.55-8.45,1.66-19.6,5.32-27.93,4.65-1.95-.16-7.02-4.98-6.21,1.55-8.08.27-12.35-.05-20.17,3.1-.58.23-2.24-.52-2.89.21-.7,1.41-.06,3.03-.22,4.45-2.03,18.08-3.04,36.2-4.65,54.31-.16,1.75.02,2.88,0,3.1-1.35,15.47-3.63,30.98-4.65,46.55-3.73.88-3.43-1.96-3.9-4.56-1.05-5.79.11-11.37-.78-16.12-.12-.65-10.17-7.89,3.12-4.14,1.37-5.64,1.57-10.53,1.57-16.3,0-2.21-1.73-4.83-1.63-6.12.07-.98,3.33-.86,3.2-1.61-.6-3.28-5.37-4.59-5.97-6.44-1.82-5.67,2.94-49.28,5.09-56.51,1.02-3.44,2.42-6.4,5.54-8.43,110.88-14.85,213.23-54.49,312.94-102.89,2.71-1.31,4.42-3.99,7.13-5.28,22.43-10.71,19.92-3.86,38.83,5.25,67.88,32.69,141.74,64.08,214.85,83.06,33.86,8.79,69.2,12.54,102.74,22.17Z"/>
  <path class="st11" d="M786.55,218.11c-.28,0-2.17,2.19-5.28,1.65-6.07-1.06-10.87-12.09-14.89,6.1,8.71.55,16.87,4.83,25.06,6.77,8.26,1.96,37.53,9,43.94,8.82,7.53-.22,11.66-2.96,10.15-10.92-7.69.18-15.16-1.84-22.7-2.92-9.13-1.31-17.71-4.26-28.04-6.17-2.89-.53-6.04,1.31-5.13-3.33,12.12.33,32.32,7.51,45,9.31l5.26,1.21.95-1.21c1,.11,2.14-.16,3.1,0,1.45,2.24,3.74,2.84,6.21,3.1,6.11.65,20.32-2.57,21.73,5.43,9.46,86.57,16.25,172.96,9.31,259.9-15.45,193.42-87.67,322.16-253.99,421.74-27.43,16.42-56.75,31.77-86.21,43.47-117.83-54.09-237.04-135.98-291.58-257.8-50.95-113.79-59.02-237.89-50.93-361.02,1.02-15.56,3.31-31.08,4.65-46.55v-3.1c1.61-18.1,2.63-36.23,4.65-54.31,4.15.72,3.17-.98,3.1-4.65,7.82-3.15,12.09-2.83,20.17-3.1,1.55-.05,3.11.06,4.65,0-12.42,4.56-3.42,11.16,4.23,12.09,3.93.48,9.36-3.65,12.83.32-5.63,1.15-19.58,3.3-23.71,4.99-2.5,1.02-3.27,3.05-3.87,5.44-17.44,133.02-20.99,264.3,21.38,392.99,8.44,25.64,17.32,45.89,29.48,69.82.52,1.02,1.03,2.11,1.55,3.1,15.12,28.9,26.49,45.2,48.1,69.82,20.29,23.12,40.02,41.38,63.62,60.51.81.66,1.65,1.94,3.1,3.1,1.92,1.54,7.13,4.54,9.31,6.21,32.14,24.66,64.82,46.93,101.35,65.45,6.59,3.34,32.03,16.44,37.1,17.33,4.9.86,35.19-14.65,41.87-18.05,119.84-60.91,208.48-144.3,251.03-274.19,15.19-46.37,30.99-112.76,31.03-161.37.26-3.01-.37-6.4,0-9.31.02-.17,1.34-.35,1.55-3.1.2-2.55-.09-5.19,0-7.76.02-.52-.02-1.04,0-1.55,3.14-73.02-1.3-146.26-10.92-218.72-109.83-16.43-215.03-55.86-312.95-106.93-9.98,4.55-19.93,9.2-29.9,13.77-.63-5.18,5.69-4.18,7.09-6.13,1.71-2.38-.11-8.94-2.43-10.28-.34-.19-7.37-.71-7.76-.66l27.87-16.39,6.66-.39c41.05,20.67,82.36,41.3,125.32,57.87,29.12,11.23,59.24,20.3,88.82,29.11,9.82,2.92,20.43,4.93,29.08,10.48Z"/>
  <path class="st8" d="M888.95,526.89l-4.63,17.05c-.28-4.77-.19-9.04,1.09-13.7.76-2.74-.49-4.03,3.54-3.35Z"/>
  <path class="st8" d="M193.83,311.2c-7.01.85.52-11.48-1.53-15.5l1.53,15.5Z"/>
  <path class="st3" d="M508.82,137.42c.39-.04,7.42.47,7.76.66,2.32,1.33,4.14,7.89,2.43,10.28-1.4,1.95-7.72.95-7.09,6.13-1.03.47-2.01,1.06-3.1,1.55-7.9.01-15.41,3.28-20.17,9.31-.46.16-1.09-.15-1.55,0-8.91,2.96-15.85,6-24.42,8.99-2.32.81-5.9,1.59-5.06,4.97-.47.15-1.08-.14-1.55,0-2.25.67-4.25,2.99-4.65,3.1-.45.13-1.03-.1-1.55,0-1.74.35-13.11-.25-13.71.17-.53.37-.75,2.78-1.87,3.56-3.31,2.3-9.52,2.6-9.24,7.12-.52.04-1.09-.1-1.55,0-15.56,3.36-24.98,7.99-40.34,13.19-5.57,1.88-18.75,1.54-20.17,8.53-1.55.49-3.08,1.06-4.65,1.55-1.33-2.87-5.06-.67-7.14-.18-14.54,3.42-29.71,8.31-42.51,14.14-1.02.46-1.95,1.06-3.1,1.55-6.4-6.31-9.84-.5-15.42.87-8.15,2-8.69-.97-14.06,5.33-.5.59-.44,1.09-1.55,1.55.53-6.88-10.28-1.67-12.57-.85-2.47.89-5.39,0-4.5,3.95-1.4.28-3.27-.28-4.65,0-3.47-3.97-8.9.16-12.83-.32-7.65-.93-16.65-7.53-4.23-12.09.52-.02,1.03.02,1.55,0,9.89-.32,19.57,2.52,27.93-6.21,1.79-.35,3.28-1.25,4.65-1.55.96,2.56,5.09,2.18,6.21,0,.38-.09.98-1.42,1.55-1.55,2.4,1.94,8.61,3.62,11.34,3.14,1.1-.2,1.15-2.64,2.24-3.04,8.85-3.26,17.35-5.54,26.55-7.37,2.76-.55,5.78.67,4.86-3.59.97-.16,2.1.12,3.1,0,19.85-2.37,43.59-12.92,63.16-19.85,7.38-2.61,21.86-2.95,23.73-11.18.5-.09,1.05.08,1.55,0,1.1-.17,9.01,2.89,7.76-3.1.5-.09,1.06.11,1.55,0,17.76-3.82,56.49-20.7,72.75-30.43,2.68-1.6,6.08-4.25,7.93-6.81,1.53-.45,2.59-1.31,4.65-1.55Z"/>
  <path class="st3" d="M786.55,218.11c1.03.02,2.07-.03,3.1,0-.91,4.63,2.24,2.79,5.13,3.33,10.34,1.9,18.91,4.85,28.04,6.17,7.53,1.08,15.01,3.11,22.7,2.92,1.51,7.96-2.62,10.71-10.15,10.92-6.41.18-35.69-6.86-43.94-8.82-8.19-1.94-16.34-6.22-25.06-6.77,4.03-18.19,8.83-7.15,14.89-6.1,3.11.54,5-1.65,5.28-1.65Z"/>
  <path class="st11" d="M412.62,179.32c-1.87,8.23-16.35,8.57-23.73,11.18-19.57,6.93-43.31,17.48-63.16,19.85,1.02-2.95,3.74-3.11,6.18-3.91,22.21-7.22,60.29-23.42,80.71-27.13Z"/>
  <path class="st11" d="M504.16,138.98c-1.86,2.56-5.25,5.21-7.93,6.81-16.26,9.73-54.99,26.6-72.75,30.43,2.24-3.33,7.69-4.89,11.38-6.46,20.29-8.64,49.94-25.08,69.31-30.77Z"/>
  <path class="st11" d="M322.62,210.35c.91,4.26-2.11,3.04-4.86,3.59-9.2,1.83-17.7,4.11-26.55,7.37-1.09.4-1.14,2.84-2.24,3.04-2.73.49-8.94-1.2-11.34-3.14,14.99-3.47,29.8-8.35,45-10.86Z"/>
  <path class="st11" d="M265.21,224.31c-8.36,8.72-18.04,5.89-27.93,6.21v-1.55c8.33.66,19.48-3,27.93-4.65Z"/>
  <path class="st11" d="M421.93,176.21c1.25,5.99-6.66,2.94-7.76,3.1,1.83-3.17,4.87-2.57,7.76-3.1Z"/>
  <path class="st9" d="M237.28,228.97v1.55c-.52.02-1.04-.02-1.55,0-1.55.06-3.11-.05-4.65,0-.81-6.53,4.25-1.71,6.21-1.55Z"/>
  <path class="st7" d="M840.86,227.42l-.95,1.21-5.26-1.21c.35.05,2.81-.36,6.21,0Z"/>
  <path class="st7" d="M843.96,227.42c3.63.62,7.19-1.96,6.21,3.1-2.47-.26-4.76-.86-6.21-3.1Z"/>
  <path class="st9" d="M210.91,233.62c.06,3.67,1.05,5.38-3.1,4.65.16-1.42-.48-3.04.22-4.45.65-.73,2.31.03,2.89-.21Z"/>
  <path class="st11" d="M276.07,222.76c-1.11,2.18-5.24,2.56-6.21,0,1.78-.4,4.44.41,6.21,0Z"/>
  <path class="st6" d="M203.15,295.69c.02-.23-.16-1.35,0-3.1v3.1Z"/>
  <path class="st1" d="M861.03,464.81c.07.71.82,1.39,1.55,1.55,0,1.03-.03,2.07,0,3.1l-6.43,62.62c-2.53,37.39-17.14,73.59-24.25,109.22-.48,2.42-1.46,6.66,1.2,8.15-42.55,129.89-131.19,213.28-251.03,274.19-6.68,3.4-36.96,18.91-41.87,18.05-5.07-.88-30.51-13.99-37.1-17.33-36.53-18.52-69.22-40.79-101.35-65.45.79-5.51-5.06-10.62-9.31-6.21-1.45-1.16-2.29-2.45-3.1-3.1l-1.56-18.62c-1.71-1.73-18,7.93-6.2-10.86,45.76,42.37,103,76.02,159.41,102.15,102.87-44.02,205.12-119.95,253.13-224.14,17.44-37.85,32.44-86.47,40.1-127.47,1.71-9.12,4.93-21.24,1.98-29.83,1.84-12.12,1.89-23.92,3.1-35.69.87-8.47.85-16.36,1.55-24.83,5.59,1.37,1.97-4.33,3.1-6.21.09-.14,2.68.62,3.12-1.02.71-2.64-.75-12.23-.03-12.95.62-.61,11.24,1.13,13.96-1.54.17,2.04-.19,4.17.02,6.21Z"/>
  <path class="st10" d="M355.21,222.76c.14,9.3-14.96,10.57-22.31,14.15-5.13,2.5-8.44,5.8-12.4,8.63-1.36.97-3.83.28-4.08.51-.17.15-.6,3.12.79,3.12,2.13-.01,10.15-7.85,10.06-.02-1.45.39-2.95,1.1-4.65,1.55l-.78-1.53-.77,1.53c-24.59,6.41-49.11,13.26-74.32,17.22-1.83,25.03-6.41,50.06-7.9,75.12-.41,6.94.28,13.99-.02,20.93-6.32-.78-1.64,3.35-1.55,4.65.67,9.78.12,21.08,0,31.03-4.64-1.56-3.45,5.94-3.06,10.12.24,2.51,1.5,2.16,1.51,2.3.54,9.96.58,22.64,0,32.58,0,.14-1.23-.23-1.5,2.31-.44,4.08-1.45,9.94,3.05,8.55.14,8.43.57,18.1,0,26.38-.1,1.42-5.06,7.15,1.55,6.21.37,8.75-.29,17.62,0,26.38.06,1.7-.46,3.91,1.55,4.65.29,5.33,2.23,12.94,3.1,18.62-2.73,2.59-2.06,3.61,1.55,3.1.3,1.93-.32,4.3,0,6.21-2.8,2.49-2,3.65,1.55,3.1,16.43,94.16,40.35,160.97,102.41,234.29,4.43,5.23,7.84,11.99,13.96,15.52,6.11,7.78,12.16,14.19,18.62,20.17-11.8,18.79,4.49,9.14,6.2,10.86l1.56,18.62c-23.59-19.14-43.33-37.4-63.62-60.51l-48.1-69.82c-.52-.99-1.03-2.08-1.55-3.1l-25.04-69.65-2.89-.17c-.12-13.73-6.8-27.15-10.11-40.32-24.37-96.92-24.08-198.06-14.71-297.15,1.78-18.83,5.7-37.6,6.27-56.57,42.78-5.86,84.53-16.78,125.61-29.55Z"/>
  <path class="st9" d="M511.92,154.49c9.97-4.57,19.92-9.22,29.9-13.77,97.92,51.07,203.12,90.49,312.95,106.93,9.62,72.46,14.06,145.7,10.92,218.72l-1.52.78,1.52.78c-.09,2.57.2,5.2,0,7.76l-1.55,3.1c-.37,2.91.26,6.3,0,9.31,0-4.26-1.39-12.65-1.55-18.62-.03-1.03,0-2.07,0-3.1,0-.52,0-1.03,0-1.55s0-1.03,0-1.55c2.86-4.62,1.53-12.75,1.55-18.62.02-6.19,0-12.43,0-18.62,0-2.59,0-5.17,0-7.76,0-6.19.02-12.43,0-18.62-.02-6.37,1.32-15.01-1.55-20.17-2.01-42.85-5.42-85.79-12.32-128.1-77.71-12.3-154.54-35.78-226.69-66.63-2.15-.92-5.48-.43-6.15-.77-.14-.07.51-2.31-1.15-3.04-25.45-11.21-50.23-23.56-75.38-35.36-60.25,30.89-120.95,57.06-185.69,77.18-41.08,12.77-82.83,23.69-125.61,29.55-.58,18.97-4.49,37.74-6.27,56.57-9.37,99.09-9.66,200.23,14.71,297.15,3.31,13.17,9.99,26.59,10.11,40.32h-1.55c-42.37-128.69-38.82-259.97-21.38-392.99.6-2.39,1.38-4.41,3.87-5.44,4.13-1.69,18.08-3.85,23.71-4.99,1.39-.28,3.26.28,4.65,0,4.49-.89,13.53-1.62,17.07-3.1,1.11-.47,1.05-.96,1.55-1.55,8.61-1.16,21.71-2.92,29.48-6.21,1.16-.49,2.09-1.09,3.1-1.55,17.19-2.14,33.33-8.86,49.65-13.96,1.58-.49,3.1-1.06,4.65-1.55,20.31-6.47,41.55-11.61,60.51-21.72.46-.1,1.03.04,1.55,0,5.71-.4,19.41-7.56,24.83-10.86.52-.1,1.1.13,1.55,0,2.29.07,3.97-.9,4.65-3.1.48-.14,1.09.15,1.55,0,10.01-3.27,21.59-6.76,29.48-13.96.47-.15,1.09.16,1.55,0,7.21-2.47,13.34-6.26,20.17-9.31,1.09-.49,2.07-1.08,3.1-1.55Z"/>
  <path class="st5" d="M864.14,488.09c-.04,48.61-15.84,115-31.03,161.37-2.65-1.5-1.68-5.73-1.2-8.15,7.11-35.62,21.72-71.82,24.25-109.22l6.43-62.62c.16,5.97,1.56,14.36,1.55,18.62Z"/>
  <path class="st5" d="M248.14,646.35l2.89.17,25.04,69.65c-12.16-23.94-21.04-44.18-29.48-69.82h1.55Z"/>
  <path class="st5" d="M277.62,719.28l48.1,69.82c-21.61-24.62-32.98-40.92-48.1-69.82Z"/>
  <path class="st10" d="M401.75,858.93c-2.18-1.67-7.38-4.67-9.31-6.21,4.25-4.41,10.1.69,9.31,6.21Z"/>
  <path class="st5" d="M864.14,478.78l1.55-3.1c-.21,2.75-1.53,2.93-1.55,3.1Z"/>
  <path class="st5" d="M865.69,467.92l-1.52-.78,1.52-.78c-.02.52.02,1.04,0,1.55Z"/>
  <path class="st11" d="M423.48,193.28c-18.96,10.11-40.2,15.25-60.51,21.72,1.43-6.99,14.6-6.65,20.17-8.53,15.36-5.2,24.79-9.83,40.34-13.19Z"/>
  <path class="st11" d="M358.31,216.56c-16.32,5.11-32.46,11.83-49.65,13.96,12.81-5.83,27.98-10.72,42.51-14.14,2.08-.49,5.81-2.69,7.14.18Z"/>
  <path class="st11" d="M305.55,232.07c-7.77,3.29-20.87,5.05-29.48,6.21,5.37-6.3,5.91-3.33,14.06-5.33,5.59-1.37,9.02-7.19,15.42-.87Z"/>
  <path class="st11" d="M449.85,182.42c-5.42,3.3-19.11,10.47-24.83,10.86-.27-4.52,5.94-4.82,9.24-7.12,1.12-.78,1.35-3.2,1.87-3.56.6-.42,11.97.17,13.71-.17Z"/>
  <path class="st11" d="M257.45,242.93c-.89-3.96,2.03-3.06,4.5-3.95,2.29-.82,13.1-6.03,12.57.85-3.53,1.48-12.58,2.22-17.07,3.1Z"/>
  <path class="st11" d="M487.09,165.35c-7.89,7.2-19.47,10.69-29.48,13.96-.84-3.38,2.73-4.16,5.06-4.97,8.57-2.99,15.52-6.04,24.42-8.99Z"/>
  <path class="st11" d="M508.82,156.04c-6.83,3.05-12.96,6.84-20.17,9.31,4.76-6.03,12.27-9.3,20.17-9.31Z"/>
  <path class="st11" d="M451.41,182.42c.41-.12,2.41-2.43,4.65-3.1-.69,2.2-2.37,3.17-4.65,3.1Z"/>
  <path class="st3" d="M327.28,249.14c74.73-20.17,143.94-48.58,213.46-82.22,22.67,8.31,43.62,21.02,65.85,30.21,4.37,1.81,7.99,1.38,11.22,2.45,1.39.46,4.72,6.84,10.47,4.56,2.59,5.99,82.77,32.37,95.01,36.1,36.03,10.99,72.79,19.98,109.9,26.64,3.55,2.5,8.56,75.87,9.21,86.21.02.32-.08,1.64,0,3.1.06,1.03-.05,2.07,0,3.1.02.47-.06,1.79,0,3.1.35,7.97,1.47,15.11,1.55,23.27,0,.44.01,1.13,0,1.55-.08,3.08.21,6.24,0,9.31-.19,2.73-5.21,10.37,1.55,9.31.12,9.23-.18,15.79-1.55,24.83-.5,3.29-4.07,8.17,0,12.41-.1,1.02.08,2.08,0,3.1-.19,2.51.05,3.91,0,4.65-.49,7.86-.96,15.6-1.55,23.27-.1,1.24-1.34,3.61-1.55,6.21-.7,8.47-.68,16.36-1.55,24.83-.17-3.72.6-7.59-.38-11.26-1.14-4.31-9.68-13.84-10.27-16.24-.42-1.72.11-5.25-.21-8.19-.06-.51.03-1.04,0-1.55,14.68-.45,12.97-10.13,12.4-21.71-3.18-3.95-7.48,14.24-12.4,12.4-.27-13.95-.77-28.3,0-41.89l12.41,1.55c2.53-8.02-3.37-7.53-5.08-11.19-2.06-4.39.89-11.61-7.33-10.54-.76-19.01-1.65-39.23-3.12-58.17-1.44-18.62-4.64-37.74-6.47-56.36-15.18-4.27-31-6.52-46.27-10.37-80.04-20.18-157.5-49.53-230.68-87.36-88.85,42.9-181.54,78.8-278.72,97.38-6.33,10.19-3.21,21.69-4.18,32.63-.07.81-1.29,3.23-1.55,6.21-3.14,36.16-5.96,73.26-6.19,109.41-.1,15.33,1.25,30.56,3.1,45.76,4.12.38,2.51.05,3.07-2.33,2.2-9.34.18-19.38,13.98-17.86,1.55-1.29-10.27-20.16-7.59-23.12.53-.58,6.93-.09,6.03-4.01-.63-2.75-7.91-1.53-10.05-5.48-4.88-8.99-2.82-33.01,2.3-41.87,3.46-.44,5.59,2.15,8.64,3.03,6.15,1.77,7.83-3.77,6.87,7.83-2.06-1.07-3.75-1.93-6.2-1.56-2.5,8.87-1.01,14.91,0,23.28,3.27,27.36,24.45,59.35,49.65,71.37l-1.55,1.55c-.59-.33-4.1.21-6.17-.74-6.56-3.02-36.74-18.85-40.95-18-4.63.94-1.63,16.93-.98,20.29,4.05,21.02,18.78,37.53,37.74,46.82,4.51,2.21,18.33,7.79,22.77,7.49v3.1c-11.83-1.82-27.51-2.82-39.57-3.24-15.13-.53-11.15,9.81-6.98,20.3,8.32,20.94,30.14,26.48,50.48,27.95,2.96.21,6.24-1.74,5.38,3.08-11.4,4.45-34.23,11.03-39.98,22.85-.91,1.88-2.81,8.46-1.91,9.73,7.14,21.17,28.33,16.16,45,10.86-4.87,5.8-16.02,22.11-16.83,29.2-.3,2.64.51,2.16,1.31,3.39,2.27,3.49,10.26,4.67,12.24,2.92.42-.37.54-3.89,1.4-5.52,15.92-30.23,43.97-44.36,76.36-51.72,1.64-1.83-9.38-11.44-11.18-14.4-5.51-9.04-7.29-20.56-5.51-30.99,1.01-5.9,9.68-18.1,8.74-21.77l-21.52-24.37c-5.16-15.41-9.27-21.78-7.73-39.54,1.4-16.14,10.5-22.74,9.08-40.17-2.83-34.83-34.49-58.05-57.2-81.66,1.32-3.67,4.21.37,5.46,1.53,9.13,8.49,21.29,18.22,29.44,26.41,7.5,7.54,14.92,30.38,25.61,20.16.09.14,2.19-.21,2.59.43,1.42,2.22,1.24,5.73,3.6,5.77.28-10.48,2.21-21.7,6.94-31.09,7.15-14.2,8.08-18.61,13.45-33.1,4.93-13.29,17.03-32.78,29.27-39.8,2.91-4.11-10.89-6.11-13.57-7.29-1.68-.74-1.75-2.65-2.41-3.04-6.18-3.6-10.48,1.09-4.18-11.37,10.56,4.78,27.43,6.9,38.79,9.31,6.47,1.38,10.41,2.08,17.07,3.1,26.69,4.11,47.09,5.67,74.48,4.65,1.55-.06,3.11.07,4.65,0,1.54-.07,3.11.1,4.65,0,2.75-.17,2.93-1.54,3.1-1.55,3.03-.24,6.34.33,9.31,0,20.78-2.32,71.76-10.61,83.61-28.96,1.13-1.75,1.21-3.37,1.73-5.18,1.09-3.76,2.15-8.42,0-12.41,7.61,1.11,12.8,4.37,12.1,12.73-1.59,19.2-30.17,29.69-45.49,35.37-1.52.56-2.85-1.22-2.29,2.31,22.55,14.23,27.84,38.19,36.93,60.83,1.9,4.74,6.11,9.21,8.12,15.15,6.08,17.96.69,35.51-1.6,53.58,3.74.63,2.93-.4,3.81-3.08,3.54-10.69,4.08-20.91,10.38-31.58,4.82-8.16,11.51-12.46,16.83-18.08,6.16,9.01,11.74-6.41,17.73-9.42,2.21-1.11,7.97-3.31,10.2-1.45-18.57,18.29-39.56,38.32-41.87,65.97-1.5,18.02,6.82,22.63,8.88,37.62,1.98,14.4-.54,29.49-7.36,42.27-3.34,6.25-21.09,24.29-21.52,25.92-.79,3.01,6.89,13.44,8.1,19.3,2.46,11.88.95,21.38-4.91,31.87-1.43,2.56-12.38,14.69-11.15,15.99,21.83,5.62,40.89,12.65,57.41,27.94-2.14,4.88-10.92,2.67-10.86,9.31h-4.65c-.48-.55-1.06-1.01-1.55-1.55-8.63-9.53-48.12-19.68-62.06-24.83-2.15-.79-12.28-7.52-13.96-6.2-.22.96.26,2.39,0,3.1-1.57,4.08-4.24,12.24-6.21,15.52-4.84,8.08-16.28,18-24.32,23-5.05,3.14-12.77,1.82-11.14,10.09.44,2.24,2.65,3.47,2.88,4.15.88,2.55,2.92,7.14,3.1,7.76,7.47,24.69,5.73,51.53,13.96,76.03.46,1.35-.74,4.4.79,6.14l22.49,18.69c-3.67,6.76-3.68,8.75,0,15.52-7.09-5.15-14.75-7.92-21.72-13.96-.19-.16.34-1.96-.41-2.65-2.86-2.62-8.21-6.98-12.01-6.66-1.72-3.14-1-5.66-4.65-9.31l-3.1-15.52c-.06-1.03.06-2.08,0-3.1-.17-2.72-1.54-2.93-1.55-3.1-.08-1.02.07-2.08,0-3.1s.08-2.08,0-3.1c-.16-2.04.21-4.18,0-6.21-.28-2.73-1.53-2.93-1.55-3.1-.2-2.03.15-4.16,0-6.21-.2-2.7.77-5.5-1.55-7.76.26-2.54-.18-5.2,0-7.76l-29.5-96.2c-2.73-.37-4.14,1.88-6.18,3.1-.79.47-2.58-.94-3.11.78-.99,3.18.03,4.58,3.11,3.87,0,2.54-.22,5.25,0,7.76-3.56-.56-3.56.35-3.2,3.97.27,2.72,3.8,1.16,3.2,9.99-4.56,0-5.84,6.15-9.35,3.94-6.15-3.88-.48-10.06-.3-12.76.09-1.25-1.21-1.91-1.21-2.04.04-2.05.12-4.17,0-6.21-.03-.46.47-.3,0-3.1-.65-3.93-.03-4.58-3.1-7.76-.17-.17-.29-2.14-1.55-1.55l-3.1,3.1c-.24.32.22,1.12,0,1.55-.12.23-1.21.56-1.55,1.55-1.01,2.89-1.26,7.67-1.55,10.86-4.23.93-25.11,74.96-24.83,82.24.02.51-.05,1.04,0,1.55-2.11,2.24-1.73,5.02-1.55,7.76.1,1.54-.09,3.11,0,4.65-3.09,8.97-2.92,18.67-4.65,27.93-.09.5.09,1.05,0,1.55-1.4,7.36-4.03,14.58-6.21,21.72l-69.09,48.06c-3.28,3.9,5.1,4.89,7.03,6.25,9.78,6.92,20.19,13.77,29.48,20.17.14.09-.27,2.22,1.11,3.11,2.44,1.58,7.39,5.49,9.77,3.98l40.76-53.19c11.11-3.3,18.82-8.71,24.4-19.06,1.1-2.04-.03-1.48,0-1.55.3-.79-.3-2.33,0-3.1,1.09-2.8,1.51.66,1.55-4.65.01-1.54-.12-3.13,0-4.65,5,1.33,3.8-10.96,4.65-15.52-.96.13-2.54-.26-3.09,0,.11-3.09-.02-6.21,0-9.31,4.93,1.2,4.62-6.02,0-4.65-.04-6.71.01-13.46,0-20.17,5.49,1.61,4.53-11.66-1.55-10.86,0-.52,0-1.03,0-1.55,3.73-3.45,3.77-11.63,4.21-16.76.26-2.97,2.26-5.7-2.66-4.96.09-2.06-.09-4.14,0-6.21,4.05-2.83,3.08-8.15,3.11-12.42,1.1.21,6.2-.3,6.2,0v28.7c0,2.66,2.13,13.04,4.65,14.74.09,13.93-.3,27.97,0,41.89,0,.19-1.55,1.26-1.49,3.59.23,7.87,3.28,26.57,7.68,32.89,6.31,9.06,14.75,9.46,21,14.69,7.22,6.04,28.07,35.51,35.55,45.13,1.47,1.88,2.45,6.04,3.94,7.01,3.34,2.18,11.1-5.28,14-7.11,9.48-5.97,18.18-13.08,27.93-18.62-1.04,6.13-8.38,11.9,6.21,12.41-5.03,3.81-10.11,9.12-17.07,13.96,1.44-21.56-30.04-4.75-10.86,6.21-17.08,11.39-33.18,22.85-51.71,32.85-9.01,4.86-29.63,16.95-38.25,19.2-2.25.59-4.29,1.24-6.63.42-6.37-4.59-15.45-5.92-21.81-9.01-43.71-21.24-89.26-53.18-126.79-84.55-9.16-7.66-18.12-18.45-27.9-24.08-.26-.33-.47-2.39-1.47-3.89-2.45-3.68-8.99-8.49-12.5-11.62-62.06-73.32-85.98-140.13-102.41-234.29-.45-2.58-1.52-2.93-1.55-3.1-.32-1.91.3-4.28,0-6.21-.41-2.62-1.53-2.93-1.55-3.1-.87-5.68-2.81-13.29-3.1-18.62-.05-.84,4.8-5.55-1.55-4.65-.29-8.75.37-17.63,0-26.38-.1-2.29.4-4.4-1.55-6.21.57-8.28.14-17.95,0-26.38-.06-3.69,1.02-7.89-1.55-10.86.58-9.94.54-22.62,0-32.58,2.66-3.34,1.5-8.26,1.55-12.41.12-9.95.67-21.26,0-31.03,2.03-.75,1.48-2.95,1.55-4.65.29-6.94-.4-13.99.02-20.93,1.49-25.06,6.07-50.09,7.9-75.12,25.21-3.95,49.73-10.81,74.32-17.22.48-.13,1.07.13,1.55,0,1.7-.45,3.21-1.16,4.65-1.55ZM468.47,318.96c-18.22,9.32-29.78,28.73-34.13,48.09,4.22,1.54,5.19-2.53,6.2-3.1,1.46-.81,4.1-2.89,4.65-3.1,2.81-1.1,7.66.66,10.86-3.1h15.52l1.55,4.65c-6,.89-14.26-3.18-12.41,4.66-23.21,5.3-42.87,27.19-43.45,51.2-.14,5.69,1.61,7.79,3.1,12.41.82,2.55-1.4,8.24,4.65,7.75.85-29.08,17.18-44.21,44.72-49.15,31.07-5.57,59.27-1.23,82.56-27.61,5.23-5.92,23.78-35.11,11.34-39.35-7.59-2.59-39.71.36-50.93-.27-13.12-.74-27.79-3.33-40.75-5.85-2.98-.01-2.94,2.48-3.48,2.76ZM612.77,318.96c-1.51-3.84-3.01-2.44-5.88-2.17-11.4,1.07-22.87,4.62-34.46,3.73-.83,3.92,2.78,6.81,3.1,10.21.9,9.49-1.44,11.72,3.07,23.17,12.7,32.26,35.27,29.23,55.77,46.64,4.89,4.15,6.26,9.24,10.98,13.07.22,2.11,1.25,4.12,1.55,6.21.1.7,1.48,1.29,1.55,1.55.14.48-.12,1.06,0,1.55.77,3.05-2.14,7.31,3.1,6.2.09-2.05-.09-4.14,0-6.2.12-2.36.26-5.5,0-7.76-.31-2.68-1.51-2.93-1.55-3.1-2.42-11.2-9.18-25.32-18.62-32.58,1.04-8.68,3.04-.78,3.47-.4,1.07.93,2.42.2,2.74.4,16.41,10.42,16.73,19.71,20.18,38,.43,2.26,0,4.81,3.07,5.44,8.23-30.81-8.64-52.62-32.56-69.05,4.37-1.83,10,3.17,13.96,5.44,1.69.97,7.04,6.16,6.23.77-1.63-10.92-24.16-40.89-35.71-41.11ZM463.82,429.13c-.34,1.28.3,3.29,0,4.65-.02.11-1.33.32-1.55,1.55-.41,2.28.28,5.3,0,7.76-.03.24-1.45,1.23-1.55,4.65-.09,3.06-.16,6.26,0,9.31-3.12,4.38-.1,8.72,0,10.86.05,1.03-.07,2.08,0,3.1,2.26,35.12,8.41,59.32,32.58,85.34,10.5,11.3,17.26,18.83,32.58,23.27,24.49,7.1,34.15.37,52.75-13.96,21.31-16.42,32.02-32.83,39.19-59.33,7.54-27.85,6.56-46.14,2.7-74.11-.17-1.21-1.53-1.44-1.55-1.55-.15-.99.19-2.18,0-3.1-.26-1.24.55-3.73-.15-4.53-.55-.63-2.36.13-2.96-.12.05-1.03-.08-2.08,0-3.1.05-.71.48.22,0-1.55-.14-.51.17-1.14,0-1.55-.28-.68-1.28-1.1-1.55-1.55-3.94-6.74-5.17-7.29-10.86-12.41-14.1-12.68-28.21-20.73-34.91-40.31-12.44,19.98-34.18,32.58-56.88,37.74-25.02,5.69-39.76-1.71-47.86,28.95ZM438.99,430.68c-4.18-.9-2.99,2.12-3.85,4.6-7.76,22.36-28.41,35.95-31.83,54.36-1.48,7.96-1.28,10.74,1.55,18.62,3.04,8.46,9.62,18.12,17.05,23.27-.53-9.55-7.98-16.24-7.36-26.77.86-14.8,12.12-20.08,19.52-30.13,13.62-18.47,13.48-41.1,18.87-62.57-7.29,5.74-11.98,9.27-13.95,18.62ZM677.94,503.61c7.02-26.4-10.01-33.47-22.07-51.63-5.13-7.72-7.67-15.31-13.61-22.85-.45-.58-.49-2.08-1.55-3.1v-1.55l-6.19-7.76c0,18.44.11,38.81,11.76,54.17,4.78,6.31,12.39,10.79,16.21,17.93,6.9,12.9,5.41,26.4-1.57,38.86,8.17-1.47,15.12-16.87,17.03-24.07ZM257.44,480.32c-2.01-2.49-2.83.17-3.1,2.31-.43,3.4-.27,8.93-.06,12.5,3.21,55.44,33.02,175.45,64.63,220.87.84,1.21,4.39,5.48,5.24,4.83,1.17-7.58,11.32-24.69,9.44-31.66-.19-.69-7.61-2.82-9.95-4.28-11.58-7.25-8.31-19.42-5.69-30.76-23.08-1.43-40.55-24.99-25.5-46.46,3.11-4.44,7.38-6.26,10.55-9.28,3.81-3.63-1.47-2.94-3.46-4.13-5.63-3.39-18.18-10.07-18.8-17-.2-2.24,2.63-8.89,1.52-10.02-1.41-1.44-6.27,4.52-9.65-1.99-5.02-9.64-5.61-33.6,9.66-33.72-1.75-5.48-6.59-7.89-4.66-15.5-2.13.12-3.88,1.79-6.16.85-7.45-3.08-12.8-28.52-14.01-36.55ZM451.39,481.89c-17.08,1.54,1.53,27.66,6.21,23.26l-6.21-23.26ZM626.75,505.15c8.94,1.14,16.88-21.45,8.5-23.26-4.41-.95-7.77,19.45-8.5,23.26ZM653.12,592.05c-1.99,3.25-3.63,6.39-6.21,9.29,16.29-2.59,22.11-21.21,16.28-35.66-6.58-16.34-15.36-12.83-10.08-37.25.12-.54,1.29-1.62,1.55-3.1.17-.96-.11-2.1,0-3.1,4.19.08,5.08-15.54.02-17.07-.1,9.33-9.5,16.14-12.72,23.75-11.69,27.63,20.23,36.51,11.16,63.13ZM431.23,554.81c-6.68,5.07-13.97,14.63-13.96,23.27,0,7.22,5.94,20.04,13.96,21.71-2.91-10.37-7.62-16.48,0-26.37,1.03.05,2.07-.04,3.1,0-2.42,13.71-2.37,27.66,13.96,31.02-.22-4.16-4.39-6.76-5.47-10.8-3.9-14.63,4.9-17.61,8.17-29.16,2.49-8.8,1.46-16.59-1.16-25.19l-5.91,19.66c-.33.73-7.05,12.96-6.48,5.15,3.75-11.05,7.45-17.58,4.23-29.84-2.81-10.71-12.17-15.89-15.11-26.01-5.58,2.47-1.85,13.67-.45,18.31,3.56,11.79,8.94,13.62,5.12,28.24ZM632.94,542.39c-2.03-2.48-2.82.17-3.1,2.31-2.77,21.58,14.76,32.42,4.61,52.77-3.66,7.34,8.17-.58,10.68-3.31,17.61-19.11-14.39-31.93-12.2-51.77ZM490.2,581.19c-.51,11.42-2.24,20.49-3.1,31.03h-1.55c-.84.11-1.28,1.43-1.55,1.55-.43.19-1.11-.19-1.55,0-2.67,1.15-11.28,4.27-12.45,5.4-3.39,3.27-.35,4.12.03,5.46,4.01,14.12,19.73,27.07,34.12,29.48,3.8-13,7.48-27.85,12.43-40.35.97-2.46,7.36-10.52,6.13-12.29-10.53-4.76-19.31-13.57-27.17-21.81-3.62-3.79-4.77-10.97-5.33,1.52ZM611.22,629.29c1.48-2.74,4.97-5.31,4.65-9.29-6.17-.98-10.78-5.33-16.01-8.09-1.79-.94-4.87.76-5.46-2.2-1.5-11.57-2.29-23.04-1.82-34.73-11.02,9.51-20.29,20.66-32.56,28.71,6.34,2.37,5.79,7.95,7.75,13.18,4.59,12.23,8.43,24.81,12.44,37.24,9.5-2.09,22.06-10.1,27.92-17.85,1.62-2.14,1.9-4.79,3.09-6.98ZM448.3,623.08c-1.53.52-3.12,1.04-4.65,1.55-25.73,8.62-48.99,13.15-69.82,31.03-19.65,16.87-23.36,32.58-30.25,57.41-1.39,5.01-7.35,23.82-6.99,27.13.21,2.02,4.03,6.59,5.57,8.48,1.19,1.46,3.61,1.45,3.74,1.63.78,1.03,1.39,4.04,3.1,6.21,13.59,17.13,36.91,41.99,54.23,55.15,11.36,8.63,6.36-8.41,6.21-13.96-.62-22.16,1.62-43.99,1.63-66.02,0-2.07,0-4.14,0-6.21,4.63,7.31,6.02,20.9,7.54,30.48,2.46,15.49,4.14,31.5,4.88,47.1,1.72.28,3.12-.13,4.73-.69,5.19-1.8,46.62-33.91,48.77-38.19.95-1.88.46-3.22.8-4.56.23-.91-.3-2.83,0-3.1,1.13-1.03,2.43,2.6,3.1-3.1.23-1.98-.29-4.28,0-6.21.03-.17,1.17-.41,1.55-3.1,2.83-19.8,3.13-39.82,9.31-58.96.97-3.02,3.38-7.43,4.65-10.86.79-2.13,3.63-4.58,3.07-7.67-9.18-2.92-19.24-8.24-26.36-14.81-5.3-4.89-13.85-16.29-15.5-22.51-.75-2.83-1.02-6.37-1.57-9.31-3.15-.58-5.6,2.37-7.74,3.11ZM542.95,827.89c-.72-1.39,1.74-4.01-3.09-3.11-1.19,6.21-4.46,18.7-8.63,23.2-3.13,3.38-14.45,6.29-14.67,7.07-1.05,3.74,8.65,5.06,10.73,6.34,9.17,5.67,8.9,20.37,12.58,23.9,3.25,3.12,2.93-2.94,3.08-3.1.16-.17,2.08.56,3.05-1.14,6.07-10.67,5.33-21.07,21.77-23.7-3.58-4.71-11.58-5.76-15.56-10.02s-6.4-13.9-9.27-19.44ZM504.15,843.42c-1.58-1.9-9.6,7.25-10.81,8.57-6.7,7.3-18.64,19.76-1.65,20.86,2.28-10.81,13.98-17.67,12.46-29.43ZM586.39,879.07c.78-1.03-8.31-16.43-12.82-15.26-11.39,2.94-19.27,20.17-21.3,30.79l34.12-15.53ZM533.63,896.16c-.82-10.23-11.49-31.81-23.65-30.74-6.4.57-9.88,8.25-16.68,7.48-.65,3.02.94,2.97,2.74,4.23,3.07,2.14,36.16,20.58,37.59,19.03Z"/>
  <path class="st11" d="M705.87,387.23c28.44-30.1,59.65-58.07,81.99-94.11,4.07-6.57.22-12.6,10.67-8.6,9.76,3.73,18.05,26.79,19.04,36.79,1.93,19.4-.66,37.13-7.74,55.06,17.35-3.05,12.95,16.49,15.52,27.95,4.7,1.35,3.22-4.71,3.09-7.77,8.22-1.07,5.27,6.15,7.33,10.54,1.72,3.65,7.62,3.17,5.08,11.19l-12.41-1.55c.17-3.08-.11-6.22,0-9.3-7.41.16-3.94,10.51-4.81,16.12-.67,4.32-2.37,10.56-4.02,14.6-1.99,4.9-9.02,12.91-9.81,16.57-1.04,4.81,5.2-.49,9.32,1.51,3.47,1.68,3.89,6.29,4.67,9.44.93,3.74-1.82,4.39,4.65,3.81.32,2.94-.21,6.47.21,8.19.59,2.39,9.13,11.93,10.27,16.24.97,3.68.21,7.55.38,11.26-1.21,11.77-1.26,23.57-3.1,35.69-20.31,133.78-65.03,222.86-172.23,304.12-14.59-.52-7.25-6.28-6.21-12.41.07-.4.1-1.16,0-1.55,1.32-2.08,8.29-2.19,5.48-6.25-2.36-3.41-19.04-12.96-23.92-16.42-3.61-2.56-6.57-6.24-9.49-8.36-3.68-6.77-3.67-8.76,0-15.52l29.47,18.62,9.29-78.37,4.68-5.41v3.1c-4.99,12.33.5,20.93,1.66,31.7,1.89,17.47-3.58,38.46-1.73,54.49,1.1,9.53,6.81,3.14,11.67-.89,15.79-13.1,29.65-29.52,42.71-44.95,3.52-4.16,6.43-8.83,9.31-12.41.1-.13,2.04.29,3.11-1.11,1.6-2.09,5.58-7.16,5.92-9.29.9-5.62-14.49-52.8-18.06-60.48-4.79-10.29-11.56-17.5-17.35-26.88-.06-6.64,8.72-4.43,10.86-9.31,3.42,3.16,7.01,5.67,9.96,9.44,2.61,3.34,10.78,18.7,11.74,19.3,3.63,2.23,5.13.28,7.79-.81.85-.35,2.71.95,3.18-.97,2.3-9.39-11.13-26.12-17.15-33.16,12.19,2.96,38.07,10.27,43.45-6.21,1.97-6.02,2.24-13-2.05-18.13-4.56-5.45-29.19-17.74-36.74-20.66,13.42-3.27,25.23-2.54,37.71-9.61,11.41-6.46,17.03-13.4,19.7-26.08,1.02-4.83,4.99-12.88-2.71-13.59-15.53,2.18-31.83-.47-46.95,2.73l1.55-3.1c4.47.34,14.67-4.42,19.17-6.43,22.15-9.89,41.75-28.53,42.89-54.09.17-3.72,1.63-13.83-3.77-13.93-10.19-.19-35.77,20.63-48.99,20.14,5.34-8.04,19.93-15.53,27.97-24.01,14.54-15.35,23.91-35.29,24.79-56.67.12-2.87.3-6.55,0-9.31-.16-1.49-1.33-2.37-1.55-3.1-.35-1.17.28-3.23,0-4.66-1.77-.25-3.02.02-4.61.81-8.23,4.12-29.26,25.76-38.08,33.29-2.49,2.12-8.95,4.98-10.05,6.24-5.9.06-2.39-.67-.44-2.77,27.38-29.65,54.19-64.46,45.44-107.39-.7-3.43-2.68-12.21-4.55-14.56-1.19-1.5-1.31-1.21-3.19-.95-13.54,27.61-37.52,49.14-59.06,70.46-.94.93-2.74.63-3.03.91-2.23-1.86-7.99.33-10.2,1.45-5.98,3-11.57,18.43-17.73,9.42ZM825.34,494.3l-10.88,20.91c-4.27,6.15-9.14,11.48-15.48,15.56-.35,4.38,5.86,1.34,9.32,3.06,5.23,2.6,5.08,16.59,4.61,21.73-1.46,15.84-15.32,28.83-27.39,37.82-1.51,1.12-4.98,1.6-5.13,1.82-2.64,3.85,6.87,8.49,9.34,11.51,16.91,20.68-2.29,47.7-26.44,47.4,4.12,7.94,5.95,23.73-2.3,29.51-3.19,2.24-10.55,2.57-11.55,5.61-2.03,6.16,9.88,23.66,7.64,31.58,2.79.62,3.05-.83,4.39-2.58,4.12-5.37,14.3-27.7,17.6-35.15,17.49-39.43,30.3-85.47,38.09-127.93,1.39-7.56,2.27-15.26,3.56-22.84-10.24-2.65-3.52-2.73-.75-5.31,4.09-3.82,4.33-25.94,5.36-32.71Z"/>
  <path class="st10" d="M862.58,379.48c.3,6.48-1.52,14.92,1.55,20.17.02,6.19,0,12.43,0,18.62-2.45,1.02-2.45,6.74,0,7.76,0,6.19.02,12.43,0,18.62-2.87,4.63-1.52,12.75-1.55,18.62,0,.52,0,1.03,0,1.55h-1.55c-.2-2.03.16-4.17-.02-6.21-2.72,2.68-13.34.93-13.96,1.54-.73.72.73,10.31.03,12.95-.44,1.64-3.04.88-3.12,1.02h-1.55c.59-7.67,1.07-15.42,1.55-23.27l1.41-3.74-1.41-.92c.08-1.02-.1-2.09,0-3.1.26-2.5,4.3-9.15,0-12.41,1.37-9.03,1.67-15.6,1.55-24.83-.04-2.93,1.05-7.62-1.55-9.31.21-3.07-.08-6.23,0-9.31v-1.55c-.08-8.17-1.2-15.31-1.55-23.27l1.54-2.31-1.54-.79c-.05-1.03.06-2.07,0-3.1v-3.1c-.65-10.34-5.66-83.71-9.21-86.21-37.11-6.66-73.87-15.66-109.9-26.64-12.24-3.73-92.42-30.11-95.01-36.1-.31-.73.64-2.72-.35-4.26-1.31-2.05-15.81-9.43-10.51-15.91.66.34,3.99-.15,6.15.77,72.15,30.85,148.99,54.33,226.69,66.63,6.9,42.31,10.31,85.26,12.32,128.1Z"/>
  <path class="st5" d="M381.58,820.14c-6.46-5.98-12.51-12.39-18.62-20.17-6.12-3.52-9.53-10.28-13.96-15.52,3.51,3.13,10.05,7.94,12.5,11.62,1,1.5,1.21,3.57,1.47,3.89,9.79,5.63,18.74,16.42,27.9,24.08,37.53,31.36,83.07,63.3,126.79,84.55,6.36,3.09,15.44,4.43,21.81,9.01,2.33.82,4.37.17,6.63-.42,8.62-2.25,29.24-14.33,38.25-19.2,18.53-10.01,34.63-21.46,51.71-32.85,2.3-1.53,6.88-3.43,10.86-6.21,6.96-4.85,12.04-10.15,17.07-13.96,107.2-81.25,151.92-170.33,172.23-304.12,2.96,8.6-.27,20.71-1.98,29.83-7.66,41-22.66,89.62-40.1,127.47-48.02,104.18-150.26,180.11-253.13,224.14-56.41-26.13-113.65-59.77-159.41-102.15Z"/>
  <path class="st11" d="M843.96,474.12c-1.14,1.88,2.49,7.57-3.1,6.21.21-2.6,1.46-4.97,1.55-6.21h1.55Z"/>
  <path class="st5" d="M862.58,466.37c-.73-.16-1.48-.84-1.55-1.55h1.55c0,.52,0,1.03,0,1.55Z"/>
  <path class="st1" d="M355.21,222.76c64.74-20.13,125.44-46.29,185.69-77.18,25.15,11.79,49.93,24.15,75.38,35.36,1.66.73,1.01,2.96,1.15,3.04-5.3,6.48,9.21,13.86,10.51,15.91.99,1.54.03,3.53.35,4.26-5.76,2.28-9.08-4.1-10.47-4.56-3.23-1.07-6.85-.64-11.22-2.45-22.23-9.2-43.19-21.9-65.85-30.21-69.52,33.65-138.74,62.06-213.46,82.22.09-7.82-7.93.01-10.06.02-1.4,0-.96-2.96-.79-3.12.25-.22,2.72.46,4.08-.51,3.96-2.83,7.26-6.12,12.4-8.63,7.36-3.58,22.45-4.85,22.31-14.15Z"/>
  <path class="st2" d="M237.28,399.65c-.05,4.15,1.11,9.07-1.55,12.41,0-.14-1.27.21-1.51-2.3-.4-4.18-1.58-11.67,3.06-10.12Z"/>
  <path class="st2" d="M237.28,455.51c-4.51,1.39-3.49-4.47-3.05-8.55.27-2.54,1.49-2.17,1.5-2.31,2.57,2.97,1.49,7.18,1.55,10.86Z"/>
  <path class="st2" d="M238.83,488.09c-6.61.94-1.65-4.79-1.55-6.21,1.96,1.81,1.46,3.91,1.55,6.21Z"/>
  <path class="st2" d="M238.83,363.96c-.07,1.7.48,3.9-1.55,4.65-.09-1.3-4.77-5.44,1.55-4.65Z"/>
  <path class="st2" d="M238.83,514.47c6.35-.9,1.51,3.81,1.55,4.65-2.02-.75-1.49-2.95-1.55-4.65Z"/>
  <path class="st2" d="M246.59,550.15c-3.55.55-4.35-.61-1.55-3.1.03.17,1.1.52,1.55,3.1Z"/>
  <path class="st2" d="M245.04,540.84c-3.61.51-4.28-.51-1.55-3.1.03.17,1.14.48,1.55,3.1Z"/>
  <path class="st1" d="M322.62,250.69c-.48.13-1.07-.13-1.55,0l.77-1.53.78,1.53Z"/>
  <path class="st5" d="M864.14,399.65c-3.08-5.25-1.25-13.69-1.55-20.17,2.87,5.16,1.53,13.8,1.55,20.17Z"/>
  <path class="st5" d="M862.58,463.26c.03-5.87-1.32-13.99,1.55-18.62-.02,5.87,1.31,14-1.55,18.62Z"/>
  <path class="st5" d="M864.14,426.02c-2.45-1.02-2.45-6.74,0-7.76,0,2.59,0,5.17,0,7.76Z"/>
  <path class="st0" d="M259.01,314.31c.97-10.95-2.14-22.45,4.18-32.63,97.18-18.59,189.87-54.48,278.72-97.38,73.18,37.82,150.64,67.18,230.68,87.36,15.27,3.85,31.09,6.1,46.27,10.37,1.84,18.62,5.03,37.74,6.47,56.36,1.47,18.94,2.36,39.16,3.12,58.17.12,3.05,1.61,9.12-3.09,7.77-2.56-11.45,1.83-30.99-15.52-27.95,7.07-17.93,9.67-35.66,7.74-55.06-.99-10-9.28-33.06-19.04-36.79-10.45-4-6.6,2.03-10.67,8.6-22.34,36.05-53.54,64.02-81.99,94.11-5.31,5.62-12.01,9.93-16.83,18.08-6.3,10.67-6.85,20.89-10.38,31.58-.89,2.68-.08,3.71-3.81,3.08,2.3-18.07,7.68-35.62,1.6-53.58-2.01-5.94-6.22-10.41-8.12-15.15-9.08-22.65-14.38-46.61-36.93-60.83-.56-3.52.77-1.74,2.29-2.31,15.32-5.68,43.89-16.17,45.49-35.37.69-8.36-4.5-11.62-12.1-12.73-2.7-5.02-18.09-13.36-23.77-15.8-52.69-22.58-148.59-22.1-201.62-.9-15.56,6.22-40.43,20.36-22.87,38.42,3.35,3.44,2.88,2.52,6.21,4.65,1.56,1,4.29,4.49,4.65,4.65-6.3,12.46-2,7.77,4.18,11.37.66.39.73,2.3,2.41,3.04,2.68,1.17,16.48,3.18,13.57,7.29-12.23,7.01-24.34,26.51-29.27,39.8-5.38,14.49-6.3,18.89-13.45,33.1-4.73,9.39-6.66,20.61-6.94,31.09-2.36-.04-2.18-3.56-3.6-5.77-.41-.64-2.5-.28-2.59-.43-.35-.54,0-3.75-1.22-5.69-3.55-5.64-17.55-25.32-23.14-26.66-6.44-1.54-12.73,7.9-10.49-9.48-20.22-20.85-43.3-42.21-58.9-66.91-3.46-5.47-8.66-12.24-5.57-18.48-9.11-1.53-14.95,3.34-19.91,10.33-4.18,5.89-6.67,17.77-9.41,21.32-1.7,2.2-4.53.36-6.36-.62Z"/>
  <path class="st10" d="M507.26,439.99c-1.52,9.42,3.87,6.11,7.34,8.18,2.99,1.78,3.99,8.01,5.08,10.44-7.32,1.11-13.09,4.94-20.94,4.78-8.65-.18-15.99-6.34-22.51-4.78l-.79-1.54c-.82.21-1.83-.26-2.31-.02,5.42-4.2,7.99-9.68,12.73-12.83,4.49-2.98,10.45-1.01,8.99-7.34,4.26.91,8.14,2.23,12.41,3.1Z"/>
  <path class="st10" d="M479.33,418.27l6.59,2.88c20.74-10.05,51.08-14.75,69.3-28.62,3.2-2.43,10.31-11.55,13.3-11.52,4.46,5.06,7.84,12.29,12.45,17.08,5.87,6.09,21.25,17.17,28.69,21.74.17,2.19,2.68,4.71,3.1,6.21.89,3.16-.08,7.38,0,7.76-12.4-11.85-28.39-10.79-43.8-5.79-6.54,2.12-15.06,5.22-10.51,13.55-7.68,1.17-9.73,29.26-9.31,35.69.28,4.28,2.18,9.46,2.32,13.96l10.23-20.08c6.52,1.32,10.71,6.81,17.8,7.61,3.08.35,2.31-.41,2.25-3.04l-6.23-.78,6.22-2.33c1.82.24,4.26.05,6.21,0,.67-.02-.23.76,3.1,0,6.39-1.46,17.03-7.1,18.62-13.96,5.32,1.89,5.76,5.63,6.29,11.56,1.66,18.55-11.36,58.83-21.83,74.53-4.7,7.05-14.14,12.72-15.49,20.97-18.61,14.34-28.26,21.06-52.75,13.96-10.28-8.83-18.86-13.6-28.06-23.9-.75-.84-2.74-.65-2.97-.93-12.28-14.91-22.17-43.59-26.91-62.31-1.76-6.95-.94-16.18-5.68-21.48l7.69-12.91c.61-1.51,2.86-.81,3.17-1.05-.07.03-.02,1.06,0,1.55.26,7.8,15.75,14.81,22.7,15.38,6.77.56,21.1-4.12,25.4-9.18,10.54,1.37,1.59,20.07,12.41,18.62.08,4.21-.5,9.25,0,13.22.29,2.28,1.2,4.79,3.1,2.29-.84-11.78,1.13-24.95.1-36.55-.58-6.52-1.97-4.67-3.19-6.89-1.6-2.9-6.95-13.48-9.31-13.96,6.31-9.35-8.57-13.02-15.5-14.75-12.34-3.09-22.59-3.94-34.15,2.34,2.35-2.71,3.66-5.63,3.1-9.31.51-.5.99-1.13,1.55-1.55ZM560.01,505.16c-1.11-1.28-15.57,4.46-17.94,4.65-6.06.47-9-7.57-16.73-3.13-6.98,4,12.13,15.84,16.72,15.53,4.72-.32,23.14-11.08,17.95-17.04ZM572.42,533.09c-7.5,3.22-12.97-2.35-19.55-3.03s-13.03,2.23-20-.23l-22.49,5.55c2.6,2.36,6.72,4.95,10.2,5.4,7.87,1.03,30.71.85,38.72.11,5.03-.46,12.86-1.33,13.12-7.81ZM556.91,547.06c-9.24,2.44-18.43,1.57-27.83.66-7.94-.77.8,6.01,3.48,7.4,8.82,4.56,22.91,3,24.35-8.06Z"/>
  <path class="st4" d="M443.65,624.63c3.4,27.11,21.14,43.91,44.02,56.14,2.17,1.16,4.91.61,4.08,4.37-6.18,19.14-6.48,39.16-9.31,58.96-3.55-.55-4.35.61-1.55,3.1-.29,1.93.23,4.22,0,6.21-3.3-.37-3.47-.19-3.1,3.1-.3.27.23,2.2,0,3.1l-42.63,24.83-20.18-86.92-3.82.95c2.52,8.09-4.06,20.73-.09,27.01,0,2.07,0,4.14,0,6.21-4.74.86-2.94-2.38-3.1-5.36-.27-4.92.46-9.28-1.38-14.2-.8-2.14.5-2.66-3.27-2.15l-6.22,79.12-48.09-32.58c-1.72-2.17-2.32-5.18-3.1-6.21,6.47-33.01,10.69-62.63,28.86-91.4,1.55-2.46,4.42-3.55-.93-3.25,20.83-17.88,44.1-22.41,69.82-31.03Z"/>
  <path class="st4" d="M704.32,651.01v1.55c4.81,10.24,12.13,18.62,16.26,29.51,8.08,21.32,10.6,46.17,16.33,68.24-2.88,3.58-5.79,8.26-9.31,12.41-14.97,6.63-26.93,18.71-40.33,27.93l-6.23-79.14c-3.5-.61-2.48.14-3.46,1.98s-3.54,7.03-4.29,8.89v-3.1l-3.09-24.82-20.2,89.98-43.43-24.82c-8.24-24.5-6.49-51.34-13.96-76.03,5.43-5.61,13.01-7.51,19.36-12.45,13.65-10.62,25.48-28.35,30.29-44.96,13.94,5.15,53.44,15.29,62.06,24.83Z"/>
  <path class="st4" d="M277.62,323.62c.84-4.92,2.86-21.94,9.07-18.32,10.74,23.26,29.67,39.32,46.79,57.11,22.72,23.61,54.37,46.82,57.2,81.66,1.42,17.43-7.68,24.03-9.08,40.17-1.54,17.76,2.58,24.13,7.73,39.54.58,1.73.05,5.33,1.21,8.86,2.1,6.36,11.98,15.48,12.43,18.57.34,2.36-4.79,10.08-5.94,13.63-5.01,15.49-4.08,26.71,3.17,41.16-12.22,4.52-21.87,6.95-31.04-4.64.02-5.68-.58-10.66,3.1-15.52,1.05-1.39,13.32-10.09,10.85-12.41l-17.06,1.54,1.55-12.41c1.5-1.16,10.01-5.72,7.75-7.75-18.43,3.61-46.62-37.35-19.26-38.71,1.75-.09,10.22,3.54,8.39-.85-1.19-2.85-12.96-12.24-16.14-16.45-11.5-15.18-15.66-46.59,9.94-29.35,5.14-7.18-17.94-55.59-26.35-62.06.24,4.6-.38,9.38-.02,13.96-5.03-2.16-9.6-8.17-13.06-12.54-19.93-25.09-36.5-55.45-36.6-88.31l-1.53,5.42-3.11-2.32Z"/>
  <path class="st4" d="M733.8,376.37c.28-.28,2.09.02,3.03-.91,21.55-21.32,45.52-42.85,59.06-70.46,1.88-.26,2-.54,3.19.95,1.86,2.35,3.85,11.13,4.55,14.56-7.42,4.64-3.63,9.92-5.05,17.45-4.52,23.83-14.49,44.73-29.15,63.95-5.22,6.84-12.16,16.01-20.11,19.46.51-4.39-.35-9.46-.02-13.96-.35-.48-1.84.79-2.32,1.54-7.05,10.9-22.99,44.59-23.9,56.8-.76,10.12,6.92-4.85,13.78-1.76,15.82,7.14-1.66,35.19-9.27,43.49-2.23,2.44-8.08,4.94-9.29,7.79-1.55,3.67,2.13,1.61,3.21,1.57,33.44-1.5,6.03,42.84-15.63,37.99-1.9,1.64,8.38,8.84,10.12,10.84,1.86,2.13,2.6,3.86,3.84,6.22-5.22,3.07-8.94,5.91-15.51,4.66.64,4.84,2.43,6.49,6.2,7.75.86,8.89,6.1,21.6-4.65,24.83-7.63,2.29-16.86,1.25-23.23-3.98,6.97-14.13,9.75-22.02,5.05-37.57-1.24-4.09-6.95-13.99-6.72-16.56.51-5.73,19.36-19.97,12.5-28.78,6.82-12.78,9.34-27.87,7.36-42.27-2.06-14.99-10.38-19.6-8.88-37.62,2.3-27.65,23.3-47.68,41.87-65.97Z"/>
  <path class="st10" d="M547.61,644.8c3.48.98,2.75,4.14,3.38,6.71,5,20.05,9.88,40.16,15.26,60.01,2.86.86,2.64-1.33,3.08-1.55s.9-1.3,1.55-1.55c3.33-1.31,5.67,3.26,4.66-6.22l7.75,6.22c-.18,2.56.26,5.22,0,7.76-.22,2.13-5.07,8.75,1.55,7.76.15,2.04-.2,4.17,0,6.21-2.8,2.49-2,3.65,1.55,3.1.21,2.03-.16,4.16,0,6.21l-1.54,2.31,1.54.79c.07,1.03-.08,2.08,0,3.1-2.86,2.4-1.96,3.69,1.55,3.1.06,1.03-.06,2.07,0,3.1.21,3.78-2.29,8.52,0,14.47.78,2.04,2.82.75,3.11,1.04,3.66,3.65,2.93,6.17,4.65,9.31,4.74,8.64,5.63,6.15,10.86,10.86,2.05,1.85,3.25,4.3,5.44,6.21,6.19,5.41,45.02,34.19,45.77,37.24.1.39.07,1.15,0,1.55-9.75,5.54-18.45,12.64-27.93,18.62-11.23-16.17-30.17-29.34-41.9-44.21-1.89-2.39-2.82-6.78-3.13-7-.97-.7-4.17,2.1-5.9,1.32-.29-.13-.32-2.37-1.33-2.87-18.85-9.46-23.13-25.39-25.31-45.76l-3.11,2.32c-.3-13.93.09-27.96,0-41.89-.15-22.32-2.87-45.7-1.55-68.27Z"/>
  <path class="st10" d="M418.82,269.31c11.86-25.11,80.32-34.4,106.22-35.75,33.09-1.73,113.55,2.98,135.83,29.54.12,4.31-2.81,9.27-5.53,12.32-4.92,5.52-34.75,19.73-42.21,21.41-9.35,2.1-27.41-3.13-31.4,9.72-2.97.33-6.28-.24-9.31,0-2.51-2.79-3.65-2.01-3.1,1.55-1.54.1-3.11-.07-4.65,0-.22-2.33-4.44-2.33-4.65,0-27.39,1.02-47.78-.54-74.48-4.65-.69-4.26,10.35-7.71,13.96-7.76,7.23-.1,18.12,2.77,25.62,3.09,20.9.88,88.97-4.39,103.17-18.6,15.57-15.6-1.37-24.08-15.82-28.4-38.07-11.36-102.94-9.73-141.22.91-54.38,15.11-14.23,31.34,15.85,36.8l-18.62,10.86c-11.36-2.41-28.23-4.53-38.79-9.31-.36-.16-3.1-3.65-4.65-4.65l1.52-.77c-1.16-2.33-4.99-3.95-6.18-5.44-1.04-1.31-.99-3.29-1.55-4.65-.26-.63-.99-1.15-1.55-1.55-.14-.69-.15-2.43,0-3.1l1.55-1.55Z"/>
  <path class="st10" d="M535.19,682.04c-.09,2.06.09,4.14,0,6.21-.28,6.82-1.64,13.81-1.55,21.72,0,.52,0,1.03,0,1.55.02,4.18,1.55,8.03,1.55,10.86.01,6.71-.04,13.46,0,20.17,0,1.55,0,3.1,0,4.65-.02,3.1.11,6.22,0,9.31-3.04,1.42,1.05,7.19-6.19,3.1-.75,13.73-4.42,30.49-17.54,37.56-4.51,2.43-9.75,2.09-11.6,3.15-2.51,1.45-29.3,31.84-33.74,36.85-3.39,3.82-8.17,9.28-10.06,13.99-9.29-6.4-19.7-13.25-29.48-20.17-.77-3.45,1.9-3.29,3.83-4.62,16.46-11.38,46.87-32.52,58.23-48.13,2.9-3.98,7.55-12.21,8.89-16.72.72-2.42,2.2-7.62-2.68-6.55.09-.5-.09-1.05,0-1.55,6.17-.01,6.31-16.62,6.31-20.96,0-3.54-1.64-6.61-1.66-6.97-.09-1.54.1-3.11,0-4.65,6.61.98,1.78-5.58,1.55-7.76-.05-.51.02-1.04,0-1.55,4.49-5.82,6.25-14.59,7.78-21.71,3.86,1.32,0,8.47.03,11.54.01,1.29,1.43,2.04,1.51,2.41.11.51-.13,1.1,0,1.55.85,2.91,2.49,4.93,3.13,7.75,2.84.75,2.38-.69,3.08-1.54,9.14-11.19,11.62-51.66,18.62-66.72,3.61,10.18.49,25.83,0,37.24Z"/>
  <path class="st11" d="M259.01,314.31c1.83.98,4.66,2.82,6.36.62,2.74-3.54,5.23-15.43,9.41-21.32,4.97-6.99,10.8-11.86,19.91-10.33-3.1,6.24,2.11,13,5.57,18.48,15.6,24.7,38.67,46.07,58.9,66.91-2.24,17.38,4.05,7.95,10.49,9.48,5.59,1.33,19.58,21.01,23.14,26.66,1.22,1.94.87,5.15,1.22,5.69-10.69,10.22-18.11-12.61-25.61-20.16-8.15-8.2-20.31-17.92-29.44-26.41-1.25-1.16-4.14-5.19-5.46-1.53-17.13-17.8-36.05-33.85-46.79-57.11-6.2-3.62-8.23,13.41-9.07,18.32-4.36,25.61,6.05,50.67,20.46,71.86,5.35,7.86,20.82,28.43,27.64,33.65v1.55h-1.55c-15.97-5.83-33.31-31.93-46.55-38.79.95-11.6-.73-6.07-6.87-7.83-3.06-.88-5.18-3.47-8.64-3.03,3.06-5.28,3.69-3.64,8.5-4.72,1.49-.34,3.26,1.03,2.32-2.2-.95-3.26-4.66-7.9-5.7-11.39-4.18-14.09-2.61-26.01-3.55-39.93-.3-4.42-3.84-1.62-6.22-2.28.26-2.98,1.48-5.4,1.55-6.21Z"/>
  <path class="st0" d="M257.44,480.32c1.2,8.02,6.56,33.47,14.01,36.55,2.28.94,4.03-.73,6.16-.85-1.93,7.61,2.91,10.02,4.66,15.5-15.27.12-14.67,24.08-9.66,33.72,3.39,6.51,8.24.55,9.65,1.99,1.11,1.13-1.72,7.78-1.52,10.02.62,6.94,13.17,13.61,18.8,17,1.98,1.19,7.27.5,3.46,4.13-3.16,3.02-7.43,4.84-10.55,9.28-15.05,21.47,2.42,45.03,25.5,46.46-2.62,11.34-5.89,23.52,5.69,30.76,2.34,1.46,9.76,3.59,9.95,4.28,1.88,6.98-8.28,24.08-9.44,31.66-.85.66-4.39-3.61-5.24-4.83-31.62-45.42-61.42-165.43-64.63-220.87-.21-3.57-.37-9.1.06-12.5.27-2.13,1.09-4.8,3.1-2.31Z"/>
  <path class="st5" d="M331.93,421.37c-.37-4.59.25-9.36.02-13.96,8.4,6.47,31.49,54.88,26.35,62.06-25.59-17.25-21.43,14.16-9.94,29.35,3.19,4.21,14.95,13.6,16.14,16.45,1.83,4.39-6.64.76-8.39.85-27.37,1.35.82,42.31,19.26,38.71,2.26,2.03-6.25,6.59-7.75,7.75-.5.39-2.51.2-3.91,1.46-6.91,6.22-6.45,15.12-3.83,23.36l12.4-1.55c-3.69,4.86-3.09,9.83-3.1,15.52,0,.36-1.96.75-.46,4.12,1.49,3.35,7.29,6.87,7.59,8.99.19,1.34-.93,11.01-1.41,12.85-.09.32-4.54,4.89-5.71,3.51-1.79-2.12,3.29-6.61,2.99-8.35-.44-2.55-9.16-6.36-10.76-8.71-.14-.2-1.5-4.27-1.55-4.65-1.29-9.42,3.99-13.15-9.31-15.52-.39-1.64-1.53-4.41-1.55-4.65-.36-4.53.94-14.37,2.24-18.7,1.53-5.08,4.85-6.58,5.52-10.76-8.54-.07-10.4-9.82-17.07-12.43-3.96-1.55-4.29-1.02-7.76-1.55v-3.1c9.14-.62,2.22-7.38,1.55-10.86-1.08-5.59.34-12.39,4.75-16.21,2.86-2.48,6.65-1.12,6.16-4.74-.25-1.84-13.47-18.37-15.57-19.39,1.46.16,1.7-2.07,1.55-3.1-.62-4.24-1.02-8.2-1.55-12.41-.25-1.96.34-4.37,0-6.21,4.42-11,6.06-10.11,16.28-12.45,1.37-.31,3.5.6,2.32-2.27-.32-.77-5.79-10.4-6.22-10.85-3.06-3.17-9.93-4.63-13.93-10.12-.66-.9-.98-2.13-1.55-3.1v-1.55c.61.47,7.37,3.52,7.75,3.1,1.63-3.84-1.38-8.82-1.54-10.85Z"/>
  <path class="st1" d="M642.25,359.3c-3.95-2.27-9.59-7.26-13.96-5.44,23.92,16.43,40.79,38.24,32.56,69.05-3.07-.63-2.65-3.18-3.07-5.44-3.46-18.29-3.77-27.58-20.18-38,.77-3.46-1.91-3.28-3.84-4.62-7.97-5.53-15.59-9.1-25.64-9.34-.34-.79.68-3.04-.27-4.33-.48-.66-15.12-9.11-13.67-4.23,1.75,5.9,24.67,27.17,32.56,20.98,1.45.98,4.06,1.1,4.65,1.55,9.44,7.27,16.2,21.38,18.62,32.58l1.55,3.1c.26,2.26.12,5.39,0,7.76h-3.1c-.12-.49.14-1.07,0-1.55l-1.55-1.55c-.3-2.09-1.33-4.1-1.55-6.21-.02-.23,1.57-1.38,1.51-2.5-.94-18.06-38.43-28.54-50.44-40.89-5.03-5.17-16.92-26.58-17.77-33.46-.29-2.37-.18-2.67,2.31-2.3,5.02.74,9.47,5.96,14.74,6.21l-12.4-13.19c-1.87-4.52,8.96-1.62,10.44-1.12l34.54,17.42-15.47-17.93c-4.05-1.52-7.65-5.09-1.59-6.89,4.72,5.55,10.2,7.48,15.47,13.24,6.06,6.63,13.96,18.24,15.57,27.1ZM620.53,353.09c1.25-9.87-6.99-12.49-15.5-13.95-2.39,2.16,13.62,15.73,15.5,13.95Z"/>
  <path class="st2" d="M468.47,318.96c.54-.28.5-2.78,3.48-2.76,12.96,2.52,27.63,5.11,40.75,5.85,11.22.63,43.34-2.32,50.93.27,12.44,4.24-6.12,33.43-11.34,39.35-23.29,26.38-51.49,22.04-82.56,27.61-27.54,4.94-43.88,20.07-44.72,49.15-6.05.49-3.83-5.21-4.65-7.75,2.8-5.21,1.2-11.42,1.55-17.07,6.27-13.84,6.86-19.66,20.17-29.48-4.19,5.71,3.4,3.38.76,9.28,7.31-3.91,12.94-7.55,20.95-10.07,18.13-5.72,37.53-3.26,55.4-9.77,17.43-6.36,29.91-17.87,39.26-33.66l-9.3-.77c.99-1.33,1.74-2.83,3.1-3.89-2.69-3.21-3.69,2.39-5.15,3.37-3.34,2.23-14.98,8.64-18.61,10.18-2.28.97-4.3.69-5.72,1.2-1.85-3.25-2.56-2.73.35-5.12,4.2-3.46,11.19-5.34,15.16-9.63l-18.6-.78c1.14-3.53,8.7-2.22,7.74-7.74-18.37,3.97-37.56-.02-55.85-3.11.54-2.58-1.17-3.46-3.1-4.65Z"/>
  <path class="st9" d="M389.34,523.78l21.52,24.37c.95,3.67-7.73,15.87-8.74,21.77-1.78,10.43,0,21.95,5.51,30.99,1.8,2.96,12.82,12.57,11.18,14.4-32.39,7.36-60.43,21.49-76.36,51.72-.86,1.63-.98,5.15-1.4,5.52-1.98,1.75-9.97.57-12.24-2.92,7.81-9.16,12.69-20.64,20.91-29.52,4.69-5.07,13.59-7.87,13.22-15.47-10.36-1.91-10.87,6.45-14.51,10.37-.79.86-3.16.91-4.1,2.03-16.66,5.3-37.86,10.31-45-10.86.2.28,4.5-.87,3.12,4.65h1.52c-.63-6.54,4.65-.58,8.63-.07,19.54,2.53,33.07-7.43,48.8-16.99,1.6,2.35,10.32,6.16,10.76,8.71.3,1.74-4.79,6.22-2.99,8.35,1.16,1.38,5.62-3.19,5.71-3.51.48-1.84,1.6-11.51,1.41-12.85-.3-2.12-6.1-5.64-7.59-8.99-1.5-3.37.46-3.76.46-4.12,9.17,11.59,18.81,9.16,31.04,4.64-7.25-14.45-8.18-25.68-3.17-41.16,1.15-3.55,6.28-11.27,5.94-13.63-.45-3.08-10.33-12.21-12.43-18.57-1.16-3.53-.63-7.13-1.21-8.86Z"/>
  <path class="st9" d="M705.87,609.12c-2.7,4.57-1.07,13.45,3.9,15.5,4.59,1.89.69-5.67.93-6,.58-.84,8.79-4.46,9.13-4.84,15.63,7.32,27.2,18.33,45.84,17.13,5.7-.37,12.35-5.71,14.68-.06-5.38,16.47-31.25,9.17-43.45,6.21-.18-.21-1.85.12-2.51-.61-5.71-6.36-9.89-16.85-19.21-14.89,1.26,9.97,6.58,8.75,11.71,13.88,9.36,9.36,18.89,23.54,23.97,35.76-2.65,1.08-4.16,3.04-7.79.81-.96-.59-9.13-15.95-11.74-19.3-2.95-3.77-6.54-6.28-9.96-9.44-16.51-15.29-35.58-22.32-57.41-27.94-1.23-1.3,9.72-13.43,11.15-15.99,5.86-10.49,7.36-19.99,4.91-31.87-1.21-5.86-8.88-16.29-8.1-19.3.43-1.63,18.18-19.67,21.52-25.92,6.86,8.81-11.99,23.05-12.5,28.78-.23,2.57,5.49,12.47,6.72,16.56,4.7,15.55,1.93,23.44-5.05,37.57,6.37,5.23,15.6,6.26,23.23,3.98Z"/>
  <path class="st4" d="M277.62,391.89c13.24,6.86,30.58,32.97,46.55,38.79.11,1-.16,2.14,0,3.1,1.74,10.29,23.08,22.71,0,24.83-.97.88,4.27,8.78,4.65,10.85.34,1.83-.25,4.24,0,6.21-5.63.51-12.61-5.23-16.94-8.66-19.01-15.07-30.88-36.43-37.39-59.6l-3.08,6.19c-1-8.37-2.49-14.41,0-23.28,2.45-.37,4.14.49,6.2,1.56Z"/>
  <path class="st4" d="M319.52,486.54c.38.21,1.04,2.25,6.21,4.65-1.27,6.64,11.79,15.45,12.36,17.95.89,3.88-10.37,8.7-13.9,5.33-.87,3.94,3.32,3.45,4.62,5.84s1.42,6.84,1.58,9.67c-28.46-4.76-45.85-21.11-55.88-48.09l-3.08,6.19c-.65-3.36-3.65-19.35.98-20.29,4.21-.85,34.39,14.98,40.95,18,2.07.96,5.58.41,6.17.74Z"/>
  <path class="st6" d="M667.08,260c2.15,4,1.09,8.65,0,12.41-2.62-3.36-3.2-5.72-6.21-9.31-22.28-26.57-102.74-31.28-135.83-29.54-25.9,1.36-94.36,10.64-106.22,35.75-.05.11-1.29.37-1.55,1.55-.15.67-.14,2.41,0,3.1.16.77.8,1.34,1.55,1.55.56,1.37.51,3.34,1.55,4.65l-1.55,1.55c-17.57-18.07,7.3-32.2,22.87-38.42,53.03-21.2,148.94-21.67,201.62.9,5.68,2.44,21.07,10.77,23.77,15.8Z"/>
  <path class="st4" d="M331.93,545.5c3.47.53,3.8,0,7.76,1.55-3.38,7.29,7.16,12.12,7.65,14.95.57,3.29-8.09,5.92-6,12.04,1.26,3.71,7.41.4,6.11,5.59h-24.05c-9.6,0-29.32-15.74-35.69-23.27l-2.32,6.2c-4.17-10.49-8.14-20.83,6.98-20.3,12.06.42,27.74,1.41,39.57,3.24Z"/>
  <path class="st1" d="M471.58,323.62c18.29,3.09,37.48,7.08,55.85,3.11.96,5.52-6.6,4.2-7.74,7.74l18.6.78c-3.97,4.28-10.96,6.17-15.16,9.63-2.91,2.4-2.2,1.88-.35,5.12-5.45,1.95-13.05,5.34-18.62,4.65-.9-.11-3.68-4.56-3.1,1.55-1,.12-2.08-.04-3.1,0h-1.55c-1.55.03-3.1-.01-4.65,0-1.54-1.88-3.1-1.87-4.65,0-5.13-.1-10.42.35-15.52,0-1.3-.09-5.44-4.77-4.65,1.55h-3.1c-.64-2.42-5.71-2.32-6.21,0h-1.55c.33-.38.42-2.49,1.49-3.88.67-.87,8.86-8.83,2.42-6.96-4.73,1.37-13.73,8.5-14.77,13.94-.55.22-3.2,2.29-4.65,3.1-2.93-.58.88-4.27,1.57-5.41,8.33-13.72,15.75-25.73,29.46-34.93ZM517.35,334.48v1.55c1.01-.52,1.01-1.03,0-1.55ZM494.84,336.04c-10.03,5.34-24.49-2.7-27.91,10.85l13.96-1.53-3.1,4.62c2.63,1.91,31.94-4.01,34.13-6.21,1.02-1.02.84-3.35-2.18-2.97-6.99.88-14.03,2.53-21.09,2.98l6.2-7.74Z"/>
  <path class="st4" d="M350.55,593.6c1.2,5.1,3.29,14.86,9.31,15.52.05.39,1.41,4.45,1.55,4.65-15.73,9.56-29.26,19.52-48.8,16.99-3.98-.51-9.26-6.47-8.63.07h-1.52c1.38-5.51-2.92-4.36-3.12-4.65-.9-1.27.99-7.86,1.91-9.73,5.76-11.82,28.59-18.4,39.98-22.85,3.35-1.31,5.06-2.25,7.76-4.65.02.24,1.16,3.02,1.55,4.65Z"/>
  <path class="st9" d="M349,756.52l48.09,32.58,6.22-79.12c3.77-.51,2.47.01,3.27,2.15,1.84,4.92,1.11,9.28,1.38,14.2.16,2.98-1.64,6.22,3.1,5.36,0,22.03-2.25,43.86-1.63,66.02.16,5.55,5.15,22.59-6.21,13.96-17.32-13.16-40.65-38.03-54.23-55.15Z"/>
  <path class="st0" d="M257.45,320.51c2.38.66,5.92-2.14,6.22,2.28.94,13.92-.63,25.84,3.55,39.93,1.03,3.48,4.75,8.12,5.7,11.39.94,3.23-.83,1.86-2.32,2.2-4.81,1.09-5.44-.56-8.5,4.72-5.13,8.86-7.19,32.88-2.3,41.87,2.14,3.95,9.42,2.72,10.05,5.48.9,3.91-5.51,3.43-6.03,4.01-2.68,2.96,9.14,21.82,7.59,23.12-13.81-1.52-11.78,8.52-13.98,17.86-.56,2.38,1.05,2.71-3.07,2.33-1.85-15.2-3.19-30.44-3.1-45.76.23-36.15,3.05-73.24,6.19-109.41Z"/>
  <path class="st10" d="M516.57,613.77c-4.95,12.5-8.62,27.34-12.43,40.35-14.39-2.41-30.12-15.36-34.12-29.48,4.6-3.6,10.8-4.51,12.41-10.86.44-.19,1.12.19,1.55,0l1.55-1.55h1.55c-.13,1.65-1,14.94,3.08,10.86,3.84-3.85,5.38-28.14,4.68-34.13,6.99,8.43,12.62,18.39,21.72,24.83Z"/>
  <path class="st9" d="M477.78,759.62c-.34,1.34.15,2.68-.8,4.56-2.16,4.28-43.58,36.38-48.77,38.19-1.6.56-3.01.97-4.73.69-.75-15.6-2.42-31.61-4.88-47.1-1.52-9.57-2.91-23.17-7.54-30.48-3.98-6.28,2.6-18.92.09-27.01l3.82-.95,20.18,86.92,42.63-24.83Z"/>
  <path class="st1" d="M618.98,427.58c.19.92-.15,2.12,0,3.1l1.55,1.55c3.86,27.96,4.84,46.25-2.7,74.11-7.18,26.51-17.89,42.91-39.19,59.33,1.35-8.26,10.79-13.92,15.49-20.97,10.47-15.7,23.5-55.99,21.83-74.53-.53-5.93-.96-9.67-6.29-11.56-.8-.28-4.41-1.55-4.65-1.55-.07-12.4-9.9-13.51-17.07-20.17,4.67-.74,6.81-2.27,13.06-1.4,6.13.85,9.44,4.39,14.86,6.05.63-3.16-2.57-5.1-3.1-7.75-.08-.38.89-4.6,0-7.76l6.21,1.55Z"/>
  <path class="st2" d="M612.77,318.96c-.51,0-1.18-.11-1.55,0-6.07,1.8-2.47,5.37,1.59,6.89l15.47,17.93-34.54-17.42c-1.48-.5-12.31-3.41-10.44,1.12l12.4,13.19c-5.27-.25-9.72-5.47-14.74-6.21-2.48-.37-2.6-.07-2.31,2.3.85,6.89,12.74,28.29,17.77,33.46,12.01,12.35,49.5,22.83,50.44,40.89.06,1.13-1.53,2.28-1.51,2.5-4.72-3.83-6.09-8.91-10.98-13.07-20.5-17.41-43.07-14.38-55.77-46.64-4.51-11.45-2.16-13.68-3.07-23.17-.32-3.4-3.93-6.29-3.1-10.21,11.58.88,23.05-2.66,34.46-3.73,2.86-.27,4.37-1.66,5.88,2.17Z"/>
  <path class="st9" d="M673.29,719.28l-4.68,5.41-9.29,78.37-29.47-18.62-22.49-18.69c-1.53-1.74-.33-4.78-.79-6.14l43.43,24.82,20.2-89.98,3.09,24.82Z"/>
  <path class="st2" d="M549.16,754.97l3.11-2.32c2.18,20.37,6.46,36.3,25.31,45.76,1.01.51,1.04,2.74,1.33,2.87,1.73.78,4.93-2.02,5.9-1.32.31.23,1.25,4.61,3.13,7,11.73,14.87,30.67,28.04,41.9,44.21-2.9,1.83-10.65,9.29-14,7.11-1.49-.97-2.48-5.13-3.94-7.01-7.48-9.62-28.33-39.09-35.55-45.13-6.25-5.23-14.69-5.62-21-14.69-4.4-6.32-7.45-25.02-7.68-32.89-.07-2.32,1.49-3.39,1.49-3.59Z"/>
  <path class="st2" d="M533.64,772.03c-.12,1.53.01,3.12,0,4.65l-1.55,4.65c-.3.77.3,2.31,0,3.1v1.55c-5.58,10.35-13.29,15.76-24.4,19.06l-40.76,53.19c-2.37,1.51-7.32-2.4-9.77-3.98-1.38-.89-.97-3.02-1.11-3.11,1.9-4.7,6.68-10.17,10.06-13.99,4.44-5.01,31.22-35.4,33.74-36.85,1.85-1.07,7.09-.73,11.6-3.15,13.12-7.07,16.79-23.83,17.54-37.56,7.24,4.09,3.16-1.68,6.19-3.1-.18,5.24-1.14,10.28-1.55,15.52Z"/>
  <path class="st2" d="M463.82,429.13c8.1-30.66,22.83-23.26,47.86-28.95,22.7-5.16,44.44-17.76,56.88-37.74,6.7,19.58,20.81,27.63,34.91,40.31l-4.69,2.38c-11.47-9.12-24.62-17.62-30.21-31.86-11.97,14.15-28.14,24-45.38,30.65-8.18,3.16-31.27,7.26-36.09,11.23-.97.16-2.29-.24-3.1,0-2.32.69-3.05,1.91-4.65,3.1-.56.42-1.04,1.05-1.55,1.55-3.35,3.27-6.77,4.78-6.21,10.86-.47.44-1.3,1.16-1.55,1.55-4.65.96-2.92-2.22-3.12-6.2h-1.52s-1.57,3.1-1.57,3.1Z"/>
  <path class="st1" d="M438.99,430.68c1.97-9.34,6.66-12.88,13.95-18.62-5.4,21.47-5.25,44.1-18.87,62.57-7.4,10.04-18.66,15.33-19.52,30.13-.61,10.53,6.83,17.22,7.36,26.77-7.44-5.15-14.02-14.81-17.05-23.27,2.36-2.52,2.09-10.39,1.55-13.96,2.83-16.86,18.82-23.56,26.16-38.24,5.1-10.21,4.31-15.3,6.43-25.38ZM436.67,458.61v1.55c1.01-.52,1.01-1.03,0-1.55ZM435.88,461.72l-15.48,14.76-3.12,6.95c6.66-5.99,15.07-13.42,18.6-21.71ZM414.94,483.43v1.55c1.01-.52,1.01-1.03,0-1.55ZM409.49,503.59l4.66-17.06c-2.92,1.29-5.1,6.04-5.83,8.89-.39,1.51-1.78,8.26,1.17,8.17Z"/>
  <path class="st2" d="M567.78,616.87c-1.96-5.23-1.41-10.81-7.75-13.18,12.27-8.05,21.54-19.2,32.56-28.71-.47,11.69.31,23.16,1.82,34.73.59,2.96,3.67,1.26,5.46,2.2,5.23,2.76,9.84,7.11,16.01,8.09.31,3.97-3.17,6.55-4.65,9.29-3.34-.03-12.89-.31-15.15-1.91-2.17-1.54-6.23-18-7.42-18.34-6.9-2.02-4.64,2.87-5.78,4.22-1.83,2.17-6.58,4.16-8.12,8.25l-6.98-4.63ZM587.17,604.46v1.55c1.01-.52,1.01-1.03,0-1.55Z"/>
  <path class="st10" d="M567.78,616.87l6.98,4.63c1.54-4.1,6.3-6.08,8.12-8.25,1.13-1.35-1.12-6.24,5.78-4.22,1.18.35,5.25,16.81,7.42,18.34,2.26,1.6,11.81,1.88,15.15,1.91-1.18,2.19-1.46,4.84-3.09,6.98-5.86,7.75-18.43,15.75-27.92,17.85-4.01-12.43-7.84-25.01-12.44-37.24Z"/>
  <path class="st9" d="M339.69,547.05c6.67,2.61,8.53,12.36,17.07,12.43-.67,4.18-3.99,5.68-5.52,10.76-1.3,4.33-2.6,14.17-2.24,18.7-2.7,2.4-4.41,3.35-7.76,4.65.86-4.82-2.42-2.87-5.38-3.08-20.33-1.47-42.15-7.01-50.48-27.95l2.32-6.2c6.37,7.53,26.1,23.27,35.69,23.27h24.05c1.3-5.2-4.85-1.88-6.11-5.59-2.09-6.12,6.57-8.75,6-12.04-.49-2.83-11.03-7.66-7.65-14.95Z"/>
  <path class="st9" d="M710.53,652.56c5.79,9.38,12.56,16.58,17.35,26.88,3.57,7.68,18.96,54.86,18.06,60.48-.34,2.13-4.32,7.2-5.92,9.29-1.08,1.41-3.01.98-3.11,1.11-5.73-22.07-8.24-46.92-16.33-68.24-4.13-10.9-11.45-19.27-16.26-29.51h6.21Z"/>
  <path class="st9" d="M373.82,655.66c5.34-.3,2.48.8.93,3.25-18.16,28.77-22.38,58.39-28.86,91.4-.14-.18-2.56-.17-3.74-1.63-1.54-1.89-5.36-6.46-5.57-8.48-.35-3.31,5.6-22.12,6.99-27.13,6.89-24.83,10.61-40.55,30.25-57.41Z"/>
  <path class="st1" d="M487.09,415.16c4.83-3.97,27.91-8.08,36.09-11.23,17.24-6.65,33.4-16.5,45.38-30.65,5.59,14.23,18.74,22.73,30.21,31.86l4.69-2.38c5.69,5.12,6.92,5.68,10.86,12.41l1.55,1.55c.17.41-.14,1.04,0,1.55v1.55c-.08,1.02.05,2.08,0,3.1-2.48-1.05-5.84-2.88-6.21-3.1-7.44-4.56-22.83-15.64-28.69-21.74-4.61-4.78-7.99-12.02-12.45-17.08-2.99-.02-10.1,9.09-13.3,11.52-18.23,13.87-48.57,18.56-69.3,28.62l-6.59-2.88c1.61-1.19,2.34-2.42,4.65-3.1,1.79,8.9,2.77.27,3.1,0Z"/>
  <path class="st9" d="M328.83,475.68c.53,4.22.93,8.18,1.55,12.41-2.63-1.86-6.81-1.91-9.31-3.1-25.2-12.03-46.39-44.02-49.65-71.37l3.08-6.19c6.51,23.17,18.38,44.52,37.39,59.6,4.33,3.43,11.31,9.17,16.94,8.66Z"/>
  <path class="st1" d="M547.61,615.32c2.04-1.22,3.46-3.47,6.18-3.1l29.5,96.2-7.75-6.22c1.01,9.48-1.33,4.9-4.66,6.22,2.36-4.16.26-9.79-.49-14.25-1.84-10.82-8.97-46.39-14.3-53.96-4.46-6.34-7.58-2.07-8.48-12.47-.22-2.5,0-5.22,0-7.76v-4.65Z"/>
  <path class="st9" d="M330.38,529.98c.54.09,1.92,1.67,3.1,1.55.67,3.48,7.59,10.24-1.55,10.86-4.44.3-18.26-5.27-22.77-7.49-18.96-9.29-33.7-25.8-37.74-46.82l3.08-6.19c10.02,26.98,27.41,43.33,55.88,48.09Z"/>
  <path class="st10" d="M642.25,626.18c-4.81,16.61-16.64,34.34-30.29,44.96-6.35,4.94-13.93,6.84-19.36,12.45-.19-.62-2.22-5.2-3.1-7.76,20.02-7.95,25.56-19.34,34.14-37.24,1.54-3.21,9.9-10.17,4.65-15.52.27-.71-.21-2.13,0-3.1,1.68-1.32,11.8,5.41,13.96,6.2Z"/>
  <path class="st10" d="M448.3,623.08c7.84-1.95,2.94,6.67,7.76,10.86.62,15.89,25.03,37.13,40.34,40.34-1.28,3.43-3.68,7.84-4.65,10.86.83-3.76-1.91-3.21-4.08-4.37-22.88-12.23-40.62-29.03-44.02-56.14,1.54-.51,3.13-1.03,4.65-1.55Z"/>
  <path class="st11" d="M522.78,350c1.41-.51,3.44-.23,5.72-1.2,3.63-1.54,15.27-7.96,18.61-10.18,1.45-.97,2.46-6.57,5.15-3.37-1.36,1.05-2.1,2.56-3.1,3.89-5.13,6.87-15.41,15.1-23.27,18.62-2.9,1.29-10.78,3.85-13.96,4.65-17.95,4.56-34.99.95-51.2,4.65-1.86-7.84,6.41-3.78,12.41-4.66l-1.55-4.65v-1.55c5.1.35,10.39-.1,15.52,0,1.55.03,3.11.01,4.65,0s3.1.03,4.65,0c.52-.01,1.04.02,1.55,0,1.02-.04,2.1.12,3.1,0,1.32-.15,2.63,0,3.1-1.55,5.57.69,13.17-2.7,18.62-4.65Z"/>
  <path class="st1" d="M667.08,272.41c-.52,1.81-.6,3.43-1.73,5.18-11.85,18.35-62.82,26.64-83.61,28.96,3.99-12.85,22.05-7.62,31.4-9.72,7.46-1.68,37.29-15.89,42.21-21.41,2.71-3.04,5.65-8.01,5.53-12.32,3.01,3.59,3.59,5.95,6.21,9.31Z"/>
  <path class="st6" d="M511.92,362.41v3.1c-23.14,7.9-49.2,3.41-69.82,18.62-13.31,9.82-13.9,15.64-20.17,29.48-1.14,2.52-1.61,5.58-4.65,4.65.58-24.01,20.24-45.9,43.45-51.2,16.21-3.7,33.25-.09,51.2-4.65Z"/>
  <path class="st1" d="M536.74,621.53v3.1c.12,2.04.04,4.16,0,6.21-19.76,18.65-16.77,49.48-26.38,72.93-.08-.37-1.49-1.12-1.51-2.41-.03-3.07,3.83-10.23-.03-11.54-1.53,7.12-3.29,15.89-7.78,21.71-.28-7.28,20.6-81.3,24.83-82.24.09-.02,1,1.64,1.3,1.4,2.29-1.8,5.49-13.41,6.46-16.92,3.08,3.17,2.45,3.82,3.1,7.76Z"/>
  <path class="st1" d="M437.44,564.12c-1.12,3.29-1.96,2.81-3.1,9.31-1.03-.04-2.07.05-3.1,0-3.38-.18-5.25-.86-7.76-3.1,2.59-4.81,6.4-10.31,7.76-15.52,3.82-14.62-1.56-16.45-5.12-28.24-1.4-4.64-5.13-15.84.45-18.31,2.94,10.13,12.3,15.3,15.11,26.01,3.22,12.26-.47,18.79-4.23,29.84Z"/>
  <path class="st0" d="M533.63,896.16c-1.43,1.55-34.52-16.89-37.59-19.03-1.8-1.25-3.39-1.21-2.74-4.23,6.8.77,10.28-6.92,16.68-7.48,12.16-1.07,22.83,20.5,23.65,30.74Z"/>
  <path class="st1" d="M476.23,458.61c-.88.21-2.11-.14-3.1,0-.02-.49-.07-1.52,0-1.55.48-.24,1.49.22,2.31.02l.79,1.54Z"/>
  <path class="st1" d="M463.82,429.13l1.57-3.09h1.52c.2,3.97-1.53,7.15,3.12,6.19-.49.74-3.44,8.95-3.1,9.3,11.14-5.31,15.84-7.22,27.92-4.65,1.46,6.34-4.51,4.36-8.99,7.34-4.75,3.15-7.31,8.63-12.73,12.83-.31.24-2.56-.46-3.17,1.05l-7.69,12.91h-1.55c-.07-1.03.05-2.07,0-3.1.45-2.26,1.69-4.75,1.62-7.03-.11-3.6-1.61-3.62-1.62-3.83-.16-3.05-.09-6.25,0-9.31l1.55-4.65c.28-2.45-.41-5.48,0-7.76l1.55-1.55c.3-1.36-.34-3.38,0-4.65Z"/>
  <path class="st1" d="M542.95,827.89c2.87,5.54,5.43,15.33,9.27,19.44s11.98,5.31,15.56,10.02c-16.44,2.63-15.7,13.03-21.77,23.7-.97,1.7-2.89.98-3.05,1.14-3.74-11.13-.78-24.78-.58-36.2.1-5.58-2.63-11.94.58-18.11Z"/>
  <path class="st2" d="M437.44,564.12c-.57,7.81,6.15-4.43,6.48-5.15l5.91-19.66c2.63,8.59,3.65,16.39,1.16,25.19-3.27,11.55-12.07,14.53-8.17,29.16,1.08,4.04,5.25,6.65,5.47,10.8-16.33-3.36-16.38-17.31-13.96-31.02,1.15-6.5,1.99-6.02,3.1-9.31Z"/>
  <path class="st10" d="M542.95,882.2c-.15.16.17,6.22-3.08,3.1-3.68-3.53-3.41-18.23-12.58-23.9-2.07-1.28-11.78-2.6-10.73-6.34.22-.78,11.55-3.7,14.67-7.07,4.17-4.5,7.43-16.99,8.63-23.2,4.83-.91,2.37,1.71,3.09,3.11-3.21,6.17-.49,12.52-.58,18.11-.2,11.42-3.16,25.07.58,36.2Z"/>
  <path class="st1" d="M677.94,503.61c-2.59-7.95-2.06-14.6-6.45-22.25-10.02-17.42-22.42-12.47-28.44-38.95-.74-3.27-2.37-10.34-.8-13.28,5.94,7.54,8.49,15.13,13.61,22.85,12.07,18.16,29.1,25.23,22.07,51.63Z"/>
  <path class="st0" d="M586.39,879.07l-34.12,15.53c2.03-10.63,9.91-27.85,21.3-30.79,4.52-1.17,13.6,14.23,12.82,15.26Z"/>
  <path class="st2" d="M632.94,542.39c-2.19,19.84,29.81,32.66,12.2,51.77-2.52,2.73-14.34,10.65-10.68,3.31,10.15-20.36-7.38-31.19-4.61-52.77.27-2.13,1.06-4.78,3.1-2.31Z"/>
  <path class="st6" d="M488.64,776.69v1.55c-11.36,15.61-41.77,36.75-58.23,48.13-1.93,1.34-4.6,1.18-3.83,4.62-1.92-1.36-10.31-2.35-7.03-6.25l69.09-48.06Z"/>
  <path class="st6" d="M494.85,554.81l-1.55,1.55c-24.17-26.02-30.33-50.22-32.58-85.34h1.55c4.74,5.29,3.92,14.53,5.68,21.48,4.74,18.72,14.63,47.39,26.91,62.31Z"/>
  <path class="st2" d="M654.67,522.22c-.23,0-.36-1.96-1.53-1.55l1.53,4.65c-.26,1.48-1.43,2.56-1.55,3.1-2.44-4.16-3.04-.57-3.83,1.54-3.49,9.33-4.38,15.98-.92,25.7,5.26,14.77,16.56,16.38,6.93,34.67-.54,1.02-1.96,1.33-2.19,1.71,9.07-26.62-22.85-35.5-11.16-63.13,3.22-7.62,12.63-14.42,12.72-23.75,5.06,1.53,4.17,17.15-.02,17.07Z"/>
  <path class="st1" d="M653.12,528.43c-5.28,24.42,3.49,20.91,10.08,37.25,5.83,14.45,0,33.07-16.28,35.66,2.57-2.9,4.22-6.04,6.21-9.29.23-.37,1.65-.68,2.19-1.71,9.63-18.29-1.67-19.9-6.93-34.67-3.46-9.72-2.57-16.37.92-25.7.79-2.12,1.38-5.7,3.83-1.54Z"/>
  <path class="st0" d="M828.45,469.47c-6.47.58-3.72-.07-4.65-3.81-.79-3.15-1.2-7.77-4.67-9.44-4.12-1.99-10.36,3.3-9.32-1.51.79-3.66,7.83-11.68,9.81-16.57,1.64-4.04,3.34-10.28,4.02-14.6.87-5.61-2.6-15.96,4.81-16.12-.1,3.08.18,6.23,0,9.3-.77,13.59-.27,27.95,0,41.89.06,2.93-.24,5.29,0,9.31.03.51-.06,1.04,0,1.55Z"/>
  <path class="st11" d="M547.61,627.73c.9,10.4,4.01,6.14,8.48,12.47,5.33,7.57,12.46,43.14,14.3,53.96.76,4.46,2.86,10.09.49,14.25-.65.26-1.1,1.33-1.55,1.55-6.95-18.08-7.45-38.91-13.53-57.07-1.36-4.05-3.25-11.2-8.19-11.2-.07,1.03.06,2.08,0,3.1-1.32,22.57,1.4,45.95,1.55,68.27-2.52-1.7-4.65-12.08-4.65-14.74v-28.7c0-.31-5.09.21-6.2,0-.04,4.27.94,9.59-3.11,12.42.49-11.41,3.61-27.06,0-37.24-.32-.89.78-3.15-.77-3.1-2.01,1.47-2.94,3.15-3.96,5.35-6.41,13.71-9.72,40.67-13.43,56.47-.64,2.73.83,5.81-3.56,4.89-.57-.93,1.53-4.11-3.1-3.1-.13-.46.11-1.04,0-1.55,9.61-23.45,6.62-54.28,26.38-72.93,0,.13,1.29.79,1.21,2.04-.18,2.7-5.85,8.88.3,12.76,3.51,2.21,4.79-3.93,9.35-3.94.6-8.84-2.93-7.28-3.2-9.99-.36-3.62-.36-4.53,3.2-3.97Z"/>
  <path class="st6" d="M457.61,629.29c1.65,6.23,10.2,17.62,15.5,22.51,7.12,6.57,17.18,11.89,26.36,14.81.56,3.09-2.28,5.54-3.07,7.67-15.31-3.21-39.72-24.46-40.34-40.34-.07-1.7-.38-3.92,1.55-4.65Z"/>
  <path class="st6" d="M438.99,430.68c-2.12,10.08-1.32,15.17-6.43,25.38-7.34,14.68-23.32,21.38-26.16,38.24-.15-.97-2.43-3.46-3.1-4.65,3.42-18.41,24.07-32,31.83-54.36.86-2.48-.32-5.5,3.85-4.6Z"/>
  <path class="st6" d="M629.84,799.96c2.91,2.11,5.88,5.8,9.49,8.36,4.89,3.46,21.56,13.01,23.92,16.42,2.81,4.07-4.16,4.17-5.48,6.25-.75-3.05-39.58-31.83-45.77-37.24-2.18-1.91-3.38-4.36-5.44-6.21l1.55-1.55c6.98,6.04,14.63,8.82,21.72,13.96Z"/>
  <path class="st2" d="M490.2,581.19c.56-12.49,1.71-5.31,5.33-1.52,7.87,8.24,16.65,17.05,27.17,21.81,1.23,1.78-5.16,9.84-6.13,12.29-9.11-6.44-14.74-16.39-21.72-24.83-.35-3-1.5-9.46-4.65-7.76Z"/>
  <path class="st6" d="M468.47,318.96c1.93,1.2,3.65,2.08,3.1,4.65-13.72,9.2-21.13,21.2-29.46,34.93-.69,1.14-4.5,4.83-1.57,5.41-1.01.56-1.97,4.63-6.2,3.1,4.34-19.36,15.91-38.77,34.13-48.09Z"/>
  <path class="st8" d="M623.64,638.6c-8.58,17.9-14.12,29.29-34.14,37.24-.24-.68-2.44-1.91-2.88-4.15-1.63-8.27,6.1-6.95,11.14-10.09,8.04-5,19.48-14.92,24.32-23h1.55Z"/>
  <path class="st8" d="M344.34,637.04c.94-1.12,3.31-1.18,4.1-2.03,3.63-3.92,4.14-12.28,14.51-10.37.37,7.6-8.53,10.4-13.22,15.47-8.21,8.88-13.1,20.36-20.91,29.52-.8-1.23-1.61-.74-1.31-3.39.81-7.09,11.96-23.4,16.83-29.2Z"/>
  <path class="st0" d="M504.15,843.42c1.51,11.75-10.18,18.61-12.46,29.43-16.98-1.1-5.05-13.56,1.65-20.86,1.21-1.32,9.23-10.47,10.81-8.57Z"/>
  <path class="st1" d="M499.51,291.03v4.65c-3.61.05-14.66,3.5-13.96,7.76-6.66-1.03-10.6-1.73-17.07-3.1l18.62-10.86c3.35.61,8.7,1.11,12.41,1.55Z"/>
  <path class="st9" d="M612.77,318.96c11.55.22,34.08,30.19,35.71,41.11.81,5.39-4.54.21-6.23-.77-1.61-8.87-9.51-20.47-15.57-27.1-5.26-5.76-10.75-7.69-15.47-13.24.38-.11,1.04,0,1.55,0Z"/>
  <path class="st11" d="M646.91,858.93c-3.98,2.78-8.56,4.67-10.86,6.21-19.18-10.96,12.3-27.77,10.86-6.21Z"/>
  <path class="st2" d="M431.23,573.43c-7.63,9.89-2.92,16,0,26.37-8.02-1.67-13.95-14.49-13.96-21.71,4.94.31,4.5-4.59,6.21-7.76,2.51,2.25,4.38,2.92,7.76,3.1Z"/>
  <path class="st9" d="M490.2,581.19c3.15-1.7,4.3,4.75,4.65,7.76.7,6-.83,30.28-4.68,34.13-4.08,4.09-3.22-9.21-3.08-10.86.86-10.55,2.59-19.61,3.1-31.03Z"/>
  <path class="st11" d="M828.45,458.61c4.92,1.84,9.22-16.35,12.4-12.4.57,11.58,2.28,21.26-12.4,21.71-.24-4.02.06-6.38,0-9.31Z"/>
  <path class="st2" d="M451.39,481.89l6.21,23.26c-4.68,4.4-23.3-21.72-6.21-23.26Z"/>
  <path class="st2" d="M626.75,505.15c.73-3.8,4.09-24.21,8.5-23.26,8.38,1.81.44,24.4-8.5,23.26Z"/>
  <path class="st5" d="M525.88,579.63c-15.32-4.44-22.09-11.97-32.58-23.27l1.55-1.55c.23.28,2.22.09,2.97.93,9.2,10.3,17.78,15.06,28.06,23.9Z"/>
  <path class="st7" d="M608.12,365.51c10.05.24,17.67,3.81,25.64,9.34,1.92,1.34,4.61,1.16,3.84,4.62-.32-.21-1.67.53-2.74-.4-.43-.37-2.43-8.28-3.47.4-.59-.46-3.21-.57-4.65-1.55-4.1-2.77-17.34-9.42-18.62-12.41Z"/>
  <path class="st2" d="M445.2,360.86c1.04-5.44,10.04-12.57,14.77-13.94,6.43-1.87-1.75,6.09-2.42,6.96-1.06,1.38-1.16,3.5-1.49,3.88-3.2,3.76-8.05,2.01-10.86,3.1Z"/>
  <path class="st1" d="M494.85,753.42c1.74-9.26,1.57-18.96,4.65-27.93.02.36,1.66,3.43,1.66,6.97,0,4.33-.14,20.95-6.31,20.96Z"/>
  <path class="st5" d="M423.48,570.32c-1.7,3.17-1.27,8.06-6.21,7.76,0-8.64,7.28-18.21,13.96-23.27-1.36,5.21-5.17,10.71-7.76,15.52Z"/>
  <path class="st11" d="M535.19,688.25c4.92-.74,2.91,1.99,2.66,4.96-.44,5.14-.47,13.31-4.21,16.76-.09-7.91,1.27-14.9,1.55-21.72Z"/>
  <path class="st1" d="M494.85,754.97c4.89-1.06,3.4,4.14,2.68,6.55-1.34,4.51-5.99,12.74-8.89,16.72v-1.55c2.18-7.15,4.81-14.36,6.21-21.72Z"/>
  <path class="st5" d="M533.64,613.77c-.96,3.5-4.17,15.11-6.46,16.92-.3.24-1.21-1.42-1.3-1.4.29-3.19.55-7.97,1.55-10.86l1.55-1.55c.22-.43-.24-1.24,0-1.55.13-.18,2.9-3.01,3.1-3.1,1.26-.59,1.38,1.38,1.55,1.55Z"/>
  <path class="st9" d="M595.71,776.69c3.8-.31,9.15,4.04,12.01,6.66.74.68.22,2.48.41,2.65l-1.55,1.55c-5.23-4.71-6.12-2.22-10.86-10.86Z"/>
  <path class="st5" d="M406.41,494.3c.54,3.57.81,11.44-1.55,13.96-2.83-7.88-3.03-10.66-1.55-18.62.67,1.2,2.96,3.68,3.1,4.65Z"/>
  <path class="st9" d="M470.03,624.63c-.38-1.35-3.43-2.19-.03-5.46,1.17-1.13,9.77-4.25,12.45-5.4-1.61,6.35-7.81,7.27-12.41,10.86Z"/>
  <path class="st5" d="M420.37,430.68c-1.49-4.62-3.24-6.72-3.1-12.41,3.04.92,3.51-2.13,4.65-4.65-.35,5.65,1.25,11.86-1.55,17.07Z"/>
  <path class="st5" d="M448.3,623.08c2.15-.73,4.6-3.69,7.74-3.11.54,2.95.82,6.49,1.57,9.31-1.93.74-1.62,2.96-1.55,4.65-4.81-4.19.08-12.81-7.76-10.86Z"/>
  <path class="st5" d="M623.64,638.6h-1.55c1.96-3.28,4.64-11.43,6.21-15.52,5.25,5.34-3.11,12.3-4.65,15.52Z"/>
  <path class="st11" d="M535.19,756.52c.55-.26,2.13.13,3.09,0-.84,4.56.35,16.84-4.65,15.52.41-5.24,1.37-10.27,1.55-15.52Z"/>
  <path class="st1" d="M591.05,767.38c-.29-.29-2.33,1-3.11-1.04-2.28-5.95.22-10.69,0-14.47l3.1,15.52Z"/>
  <path class="st7" d="M330.38,488.09c.15,1.04-.09,3.26-1.55,3.1-.69-.33-2.4.33-3.1,0-5.17-2.4-5.83-4.44-6.21-4.65l1.55-1.55c2.5,1.19,6.68,1.25,9.31,3.1Z"/>
  <path class="st11" d="M533.64,711.52c6.08-.8,7.04,12.47,1.55,10.86,0-2.84-1.53-6.68-1.55-10.86Z"/>
  <path class="st11" d="M843.96,443.09c-4.07-4.24-.5-9.13,0-12.41,4.3,3.26.26,9.92,0,12.41Z"/>
  <path class="st2" d="M609.67,419.82c.37.23,3.72,2.05,6.21,3.1.6.25,2.4-.51,2.96.12.7.8-.11,3.3.15,4.53l-6.21-1.55c-.42-1.5-2.93-4.01-3.1-6.21Z"/>
  <path class="st11" d="M845.52,405.85c-6.76,1.06-1.74-6.58-1.55-9.31,2.6,1.69,1.51,6.38,1.55,9.31Z"/>
  <path class="st1" d="M584.84,723.93c-6.62.99-1.77-5.63-1.55-7.76,2.33,2.26,1.35,5.05,1.55,7.76Z"/>
  <path class="st1" d="M501.06,713.07c.23,2.17,5.06,8.74-1.55,7.76-.18-2.74-.55-5.52,1.55-7.76Z"/>
  <path class="st2" d="M460.72,467.92c-.1-2.14-3.12-6.48,0-10.86.01.21,1.51.23,1.62,3.83.07,2.29-1.17,4.77-1.62,7.03Z"/>
  <path class="st2" d="M651.56,422.92c-.1,2.06.09,4.15,0,6.2-5.23,1.11-2.33-3.14-3.1-6.2h3.1Z"/>
  <path class="st11" d="M535.19,742.55c4.62-1.36,4.93,5.86,0,4.65,0-1.55,0-3.1,0-4.65Z"/>
  <path class="st11" d="M547.61,615.32v4.65c-3.09.7-4.11-.69-3.11-3.87.54-1.72,2.33-.31,3.11-.78Z"/>
  <path class="st2" d="M471.58,356.2v1.55h-4.65c-.78-6.32,3.35-1.64,4.65-1.55Z"/>
  <path class="st11" d="M843.96,450.85c.05-.75-.19-2.15,0-4.65l1.41.92-1.41,3.74Z"/>
  <path class="st1" d="M586.4,733.24c-3.55.55-4.35-.61-1.55-3.1.02.17,1.27.37,1.55,3.1Z"/>
  <path class="st11" d="M842.41,362.41c-.06-1.32.02-2.64,0-3.1l1.54.79-1.54,2.31Z"/>
  <path class="st2" d="M463.82,357.75h-6.21c.5-2.32,5.56-2.42,6.21,0Z"/>
  <path class="st9" d="M480.89,753.42c-.67,5.7-1.98,2.07-3.1,3.1-.37-3.3-.2-3.47,3.1-3.1Z"/>
  <path class="st1" d="M587.95,748.76c-3.51.58-4.41-.7-1.55-3.1.01.17,1.38.38,1.55,3.1Z"/>
  <path class="st9" d="M482.44,744.11c-.38,2.69-1.53,2.93-1.55,3.1-2.8-2.49-2-3.65,1.55-3.1Z"/>
  <path class="st1" d="M572.43,306.55c-.17.01-.35,1.38-3.1,1.55-.54-3.56.6-4.34,3.1-1.55Z"/>
  <path class="st2" d="M460.72,447.75c.11-3.42,1.52-4.41,1.55-4.65l-1.55,4.65Z"/>
  <path class="st1" d="M564.67,308.1c-1.55.07-3.11-.06-4.65,0,.22-2.33,4.44-2.33,4.65,0Z"/>
  <path class="st1" d="M654.67,522.22c-.11,1,.17,2.15,0,3.1l-1.53-4.65c1.17-.41,1.3,1.55,1.53,1.55Z"/>
  <path class="st11" d="M532.09,781.34l1.55-4.65c-.04,5.31-.46,1.86-1.55,4.65Z"/>
  <path class="st1" d="M586.4,742.55l-1.54-.79,1.54-2.31c.08,1.02-.07,2.08,0,3.1Z"/>
  <path class="st11" d="M536.74,624.63v-3.1c.47,2.81-.03,2.64,0,3.1Z"/>
  <path class="st1" d="M640.7,424.47v1.55c-.23-.22-7.5-.72,0-1.55Z"/>
  <path class="st2" d="M651.56,415.16l-1.55-3.1c.04.17,1.24.42,1.55,3.1Z"/>
  <path class="st11" d="M842.41,356.2c-.08-1.46.02-2.78,0-3.1v3.1Z"/>
  <path class="st11" d="M532.09,786v-1.55c-.03.07,1.1-.49,0,1.55Z"/>
  <path class="st11" d="M705.87,652.56h-1.55v-1.55c.49.54,1.08,1,1.55,1.55Z"/>
  <path class="st11" d="M527.43,618.42c.34-.99,1.44-1.32,1.55-1.55l-1.55,1.55Z"/>
  <path class="st11" d="M528.99,615.32l3.1-3.1c-.2.09-2.97,2.93-3.1,3.1Z"/>
  <path class="st9" d="M483.99,613.77c.27-.12.71-1.44,1.55-1.55l-1.55,1.55Z"/>
  <path class="st2" d="M615.88,416.71l-1.55-1.55c.27.46,1.27.87,1.55,1.55Z"/>
  <path class="st2" d="M615.88,419.82v-1.55c.48,1.77.05.84,0,1.55Z"/>
  <path class="st2" d="M648.46,421.37c-.08-.27-1.45-.86-1.55-1.55l1.55,1.55Z"/>
  <path class="st2" d="M620.53,432.23l-1.55-1.55c.02.11,1.38.34,1.55,1.55Z"/>
  <path class="st2" d="M462.27,435.33c.22-1.23,1.53-1.44,1.55-1.55l-1.55,1.55Z"/>
  <path class="st2" d="M640.7,424.47c-7.5.83-.23,1.33,0,1.55,1.06,1.02,1.1,2.53,1.55,3.1-1.57,2.94.06,10.02.8,13.28,6.02,26.48,18.42,21.52,28.44,38.95,4.4,7.64,3.87,14.3,6.45,22.25-1.91,7.2-8.87,22.59-17.03,24.07,6.98-12.46,8.47-25.96,1.57-38.86-3.82-7.14-11.42-11.62-16.21-17.93-11.65-15.37-11.75-35.74-11.76-54.17l6.19,7.76Z"/>
  <path class="st11" d="M843.96,387.23c.01-.42,0-1.11,0-1.55v1.55Z"/>
  <path class="st5" d="M749.32,421.37c-.28,2.41-4.19,12.79-3.1,13.96l6.18-3.09c-1.12,10.54-18.16,10.83-17.05,24.82,3.15,0,6.25-.53,9.28.81.87.38,9.12,9.4,9.34,10.05.46,1.41.1,7.16,0,9.31-.19,3.92-2.01,7.71-1.74,11.71.25,3.72,3.62,1.01,3.28,3.79-7.5-1.88-7.28,4.68-11.62,9.34-2,2.15-4.13,4.21-6.25,6.23-1.04.99-7.2,2.4-2.84,4.61,3.34,1.7,8.09,1.23,10.55,6.28,4.07,8.35-3.03,22.55,5.51,23.2l-1.55,3.1c-1.38.29-3.3-.44-5.16.26-3.51,1.32-12.37,15.18-19.67,13.72-.62,2.91,2.17,4.04,3.11,6.19,5.39,12.37,3.4,15.64,1.55,27.93-.08.51.08,1.05,0,1.55-9.02.28-5.39,6.8-7.76,13.96-.32.97-1.39,4.47-1.55,4.65-.34.39-8.55,4.01-9.13,4.84-.24.34,3.66,7.9-.93,6-4.98-2.05-6.6-10.94-3.9-15.5,10.76-3.22,5.51-15.94,4.65-24.83,3.61,1.2,6.5,2.68,9.38-.69,4.68-5.46,2.13-7.54-.07-11.72-1.24-2.36-1.98-4.1-3.84-6.22-1.74-1.99-12.01-9.2-10.12-10.84,21.66,4.85,49.07-39.48,15.63-37.99-1.07.05-4.76,2.1-3.21-1.57,1.21-2.85,7.05-5.35,9.29-7.79,7.61-8.3,25.08-36.35,9.27-43.49-6.85-3.09-14.53,11.88-13.78,1.76.91-12.21,16.85-45.9,23.9-56.8.48-.75,1.97-2.02,2.32-1.54-.34,4.5.53,9.58.02,13.96Z"/>
  <path class="st0" d="M825.34,494.3c-1.03,6.77-1.28,28.89-5.36,32.71-2.77,2.59-9.49,2.66.75,5.31-1.28,7.58-2.17,15.28-3.56,22.84-7.79,42.46-20.6,88.5-38.09,127.93-3.31,7.45-13.48,29.79-17.6,35.15-1.34,1.74-1.6,3.19-4.39,2.58,2.24-7.92-9.67-25.42-7.64-31.58,1-3.04,8.37-3.38,11.55-5.61,8.24-5.79,6.42-21.57,2.3-29.51,24.15.31,43.35-26.71,26.44-47.4-2.47-3.02-11.98-7.66-9.34-11.51.15-.22,3.62-.7,5.13-1.82,12.07-8.99,25.93-21.98,27.39-37.82.47-5.14.62-19.14-4.61-21.73-3.46-1.72-9.68,1.32-9.32-3.06,6.33-4.09,11.21-9.41,15.48-15.56l10.88-20.91Z"/>
  <path class="st4" d="M758.63,430.68c1.1-1.26,7.57-4.12,10.05-6.24,8.82-7.53,29.85-29.17,38.08-33.29,1.59-.8,2.85-1.06,4.61-.81.29,1.42-.34,3.48,0,4.66l-1.54.79c-.54,2.87.45,2.46,3.09,2.31.3,2.76.12,6.44,0,9.31l-3.11,4.68-3.07-1.57c-5.22,28.25-27.11,54.64-52.78,66.72.1-2.15.46-7.9,0-9.31l4.65-10.85c-19.49-.76-10.54-6.45-4.64-16.29,1.42-2.37,3.75-9.06,4.65-10.1Z"/>
  <path class="st4" d="M812.93,481.88c-4.3-.53-4.53.48-6.31,3.78-3.35,6.22-4.94,12.28-9.47,18.45-10.14,13.81-31.03,26.34-47.83,26.65,4.53-2.7,2.21-7.29,3.09-10.52.53-1.94,5.93-2.67,6.21-5.76-4.32.95-9.24,1.57-13.01-1.45-4.17-3.35,1.99-5.39,3.44-7.29,4.35-5.71,7.22-11.76,11.12-17.65,13.21.49,38.79-20.33,48.99-20.14,5.4.1,3.94,10.21,3.77,13.93Z"/>
  <path class="st9" d="M812.93,407.4c-.88,21.38-10.24,41.32-24.79,56.67-8.04,8.48-22.63,15.97-27.97,24.01-3.91,5.89-6.78,11.94-11.12,17.65-1.45,1.91-7.61,3.94-3.44,7.29,3.77,3.02,8.69,2.4,13.01,1.45-.29,3.09-5.69,3.82-6.21,5.76-.88,3.23,1.44,7.83-3.09,10.52,16.79-.31,37.69-12.85,47.83-26.65,4.53-6.17,6.12-12.23,9.47-18.45,1.78-3.3,2.02-4.31,6.31-3.78-1.14,25.56-20.74,44.2-42.89,54.09-4.51,2.01-14.71,6.77-19.17,6.43-8.54-.65-1.44-14.85-5.51-23.2-2.46-5.05-7.21-4.58-10.55-6.28-4.36-2.21,1.8-3.63,2.84-4.61,2.13-2.02,4.26-4.09,6.25-6.23,4.34-4.66,4.12-11.22,11.62-9.34.34-2.78-3.03-.07-3.28-3.79-.27-4,1.55-7.79,1.74-11.71,25.66-12.08,47.56-38.47,52.78-66.72l3.07,1.57,3.11-4.68Z"/>
  <path class="st4" d="M749.32,545.5c15.12-3.2,31.42-.55,46.95-2.73,7.7.71,3.72,8.76,2.71,13.59l-3.12-2.29c-6.11,13.89-23.82,22.92-38.17,25.4-3.74.65-22.31,2.54-23.85.1-2.57-4.08,5.05-4.04,2.86-9.79-.15-.4-5.28-5.71-5.94-6.27-2.4-2.05-1.56,1.05-3.16,2.16-.94-2.15-3.73-3.28-3.11-6.19,7.29,1.46,16.15-12.4,19.67-13.72,1.86-.7,3.78.03,5.16-.26Z"/>
  <path class="st4" d="M741.56,592.05c7.55,2.92,32.18,15.21,36.74,20.66,4.29,5.13,4.01,12.11,2.05,18.13-2.32-5.65-8.98-.31-14.68.06-18.63,1.2-30.21-9.81-45.84-17.13.16-.18,1.23-3.68,1.55-4.65,7.86,1.47,6.92-8.97,7.76-13.96.08-.5-.08-1.05,0-1.55,3.41,1.55,4.11-4.6,5.42-4.63.22,0,1.89,2.15,3.5,2.67,1.31.43,2.81.14,3.5.4Z"/>
  <path class="st9" d="M673.29,722.38c.75-1.86,3.27-6.99,4.29-8.89s-.04-2.59,3.46-1.98l6.23,79.14c13.4-9.22,25.36-21.3,40.33-27.93-13.06,15.43-26.92,31.85-42.71,44.95-4.86,4.03-10.57,10.42-11.67.89-1.85-16.03,3.62-37.02,1.73-54.49-1.17-10.77-6.65-19.37-1.66-31.7Z"/>
  <path class="st9" d="M803.62,320.51c8.74,42.93-18.06,77.75-45.44,107.39-1.95,2.11-5.45,2.84.44,2.77-.9,1.03-3.23,7.73-4.65,10.1-5.9,9.84-14.85,15.53,4.64,16.29l-4.65,10.85c-.21-.65-8.47-9.67-9.34-10.05-3.03-1.34-6.14-.82-9.28-.81-1.11-13.99,15.94-14.27,17.05-24.82l-6.18,3.09c-1.1-1.16,2.81-11.54,3.1-13.96,7.95-3.45,14.89-12.62,20.11-19.46,14.65-19.22,24.63-40.12,29.15-63.95,1.43-7.53-2.37-12.81,5.05-17.45Z"/>
  <path class="st9" d="M798.97,556.36c-2.67,12.68-8.28,19.61-19.7,26.08-12.48,7.07-24.29,6.34-37.71,9.61-.68-.26-2.19.02-3.5-.4-1.61-.52-3.28-2.68-3.5-2.67-1.31.03-2.01,6.18-5.42,4.63,1.85-12.29,3.84-15.56-1.55-27.93,1.6-1.11.76-4.21,3.16-2.16.66.56,5.78,5.87,5.94,6.27,2.19,5.75-5.43,5.71-2.86,9.79,1.54,2.44,20.11.55,23.85-.1,14.35-2.48,32.06-11.51,38.17-25.4l3.12,2.29Z"/>
  <path class="st8" d="M750.87,671.18c-5.08-12.21-14.61-26.4-23.97-35.76-5.13-5.13-10.45-3.91-11.71-13.88,9.33-1.96,13.5,8.53,19.21,14.89.66.73,2.33.41,2.51.61,6.01,7.04,19.45,23.77,17.15,33.16-.47,1.92-2.33.62-3.18.97Z"/>
  <path class="st9" d="M812.93,398.1c-2.64.15-3.63.56-3.09-2.31l1.54-.79c.22.73,1.39,1.61,1.55,3.1Z"/>
  <path class="st9" d="M425.03,286.38c-3.32-2.14-2.86-1.21-6.21-4.65l1.55-1.55c1.19,1.49,5.02,3.11,6.18,5.44l-1.52.77Z"/>
  <path class="st11" d="M524.33,441.54c-.77-.16-3.06.96-4.81.66-4.07-.71-8.23-1.38-12.26-2.21-4.27-.87-8.15-2.2-12.41-3.1-12.08-2.57-16.78-.66-27.92,4.65-.34-.35,2.61-8.56,3.1-9.3.26-.39,1.08-1.11,1.55-1.55.57-.54,2.18-1.05,3.1-1.55,11.55-6.28,21.81-5.42,34.15-2.34,6.93,1.73,21.82,5.41,15.5,14.75Z"/>
  <path class="st11" d="M612.77,433.78c.53,2.65,3.73,4.59,3.1,7.75-5.41-1.66-8.72-5.2-14.86-6.05-6.25-.87-8.39.66-13.06,1.4-2.46.39-3.81,1.39-4.65,1.55-.5.1-1.05-.1-1.55,0-2.3.47-4.26,1.14-6.21,1.55-.49.11-1.06-.11-1.55,0-3.47.79-6.88,1.94-10.38,2.58-1.86.34-4.2-1.17-5.13-1.03-4.55-8.32,3.97-11.42,10.51-13.55,15.41-5,31.39-6.06,43.8,5.79Z"/>
  <path class="st11" d="M572.42,533.09c-.26,6.48-8.09,7.35-13.12,7.81-8.01.74-30.85.92-38.72-.11-3.48-.46-7.6-3.04-10.2-5.4l22.49-5.55c6.97,2.46,13.55-.43,20,.23s12.06,6.25,19.55,3.03Z"/>
  <path class="st1" d="M524.33,441.54c2.36.49,7.71,11.06,9.31,13.96.13,9.29-.17,18.64,0,27.93-10.82,1.45-1.87-17.25-12.41-18.62,3.87-4.55-1.06-5.11-1.55-6.21-1.09-2.43-2.08-8.66-5.08-10.44-3.47-2.07-8.86,1.24-7.34-8.18,4.03.82,8.19,1.5,12.26,2.21,1.76.3,4.05-.81,4.81-.66Z"/>
  <path class="st11" d="M519.68,458.61c.49,1.09,5.42,1.65,1.55,6.21-4.29,5.05-18.62,9.73-25.4,9.18-6.96-.57-22.44-7.59-22.7-15.38.99-.14,2.23.21,3.1,0,6.52-1.56,13.86,4.6,22.51,4.78,7.85.16,13.62-3.66,20.94-4.78Z"/>
  <path class="st11" d="M605.02,457.06c.25,0,3.86,1.27,4.65,1.55-1.59,6.87-12.23,12.5-18.62,13.96h-3.1c-1.95.05-4.39.24-6.21,0-8.67-1.16-16.4-3.15-21.72-10.86,1.38-1.43,1.34-3.43,4.65-3.1,1.29.13,3.64,2.29,5.8,2.69,11.54,2.15,15.13,2.21,26.46-.67,2.85-.72,5.18-3.57,8.07-3.57Z"/>
  <path class="st11" d="M560.01,505.16c5.19,5.96-13.23,16.72-17.95,17.04-4.59.31-23.7-11.52-16.72-15.53,7.73-4.43,10.68,3.6,16.73,3.13,2.37-.18,16.83-5.93,17.94-4.65Z"/>
  <path class="st2" d="M573.98,439.99v1.55c-5.01,4.4-9.29,10.11-9.31,17.07-3.31-.33-3.27,1.68-4.65,3.1-5.19,5.36-4.96,14.37-10.86,15.52-.42-6.43,1.63-34.52,9.31-35.69.93-.14,3.27,1.37,5.13,1.03,3.5-.64,6.92-1.79,10.38-2.58Z"/>
  <path class="st1" d="M581.74,472.57l-6.22,2.33,6.23.78c.06,2.63.83,3.39-2.25,3.04-7.09-.8-11.28-6.29-17.8-7.61l-10.23,20.08c-.14-4.5-2.04-9.67-2.32-13.96,5.9-1.14,5.67-10.15,10.86-15.52,5.32,7.71,13.05,9.7,21.72,10.86Z"/>
  <path class="st11" d="M556.91,547.06c-1.45,11.06-15.54,12.62-24.35,8.06-2.68-1.39-11.42-8.17-3.48-7.4,9.4.91,18.59,1.78,27.83-.66Z"/>
  <path class="st9" d="M533.64,455.51c1.23,2.22,2.61.37,3.19,6.89,1.03,11.6-.94,24.76-.1,36.55-1.9,2.5-2.81,0-3.1-2.29-.5-3.97.08-9.01,0-13.22-.17-9.29.13-18.64,0-27.93Z"/>
  <path class="st1" d="M474.68,429.13c-.92.5-2.53,1.01-3.1,1.55-.56-6.08,2.85-7.59,6.21-10.86.56,3.68-.75,6.6-3.1,9.31Z"/>
  <path class="st1" d="M591.05,472.57c-3.33.76-2.43-.02-3.1,0h3.1Z"/>
  <path class="st9" d="M331.93,421.37c.16,2.03,3.18,7.02,1.54,10.85-.38.43-7.14-2.63-7.75-3.1-6.83-5.21-22.3-25.79-27.64-33.65-14.41-21.19-24.81-46.25-20.46-71.86l3.11,2.32,1.53-5.42c.11,32.86,16.67,63.23,36.6,88.31,3.47,4.37,8.03,10.38,13.06,12.54Z"/>
  <path class="st9" d="M367.62,562.57l-1.55,12.41,17.06-1.54c2.47,2.32-9.8,11.02-10.85,12.41l-12.4,1.55c-2.62-8.24-3.08-17.15,3.83-23.36,1.4-1.26,3.41-1.07,3.91-1.46Z"/>
  <path class="st9" d="M710.53,584.29c-3.77-1.26-5.56-2.91-6.2-7.75,6.57,1.25,10.29-1.59,15.51-4.66,2.2,4.18,4.75,6.27.07,11.72-2.88,3.36-5.77,1.89-9.38.69Z"/>
  <path class="st5" d="M569.33,709.97c-.44.22-.22,2.41-3.08,1.55-5.37-19.85-10.25-39.96-15.26-60.01-.64-2.56.09-5.72-3.38-6.71.06-1.03-.07-2.08,0-3.1,4.94,0,6.84,7.16,8.19,11.2,6.09,18.16,6.58,38.99,13.53,57.07Z"/>
  <path class="st3" d="M487.09,289.48c-30.08-5.45-70.23-21.69-15.85-36.8,38.29-10.64,103.16-12.26,141.22-.91,14.46,4.31,31.4,12.8,15.82,28.4-41.77,10.83-85.69,16.02-128.78,10.86-3.71-.44-9.07-.94-12.41-1.55ZM614.32,269.29c3.63-4.71-20.45-10.08-22.86-10.48-29.74-4.9-69.03-3.71-98.76,1.37-9.79,1.67-19.4,4.81-28.88,7.59,5.04,5.94,16.91,7.66,24.48,8.86,24.82,3.95,56.77,4.55,81.78,1.95,5.5-.57,42.64-7.22,44.24-9.3Z"/>
  <path class="st6" d="M628.29,280.17c-14.19,14.21-82.27,19.48-103.17,18.6-7.5-.32-18.39-3.19-25.62-3.09v-4.65c43.09,5.16,87.02-.03,128.78-10.86Z"/>
  <path class="st9" d="M418.82,275.52c-.75-.21-1.39-.79-1.55-1.55.56.41,1.29.92,1.55,1.55Z"/>
  <path class="st9" d="M417.27,270.86c.27-1.18,1.5-1.44,1.55-1.55l-1.55,1.55Z"/>
  <path class="st5" d="M535.19,644.8c-7,15.06-9.48,55.53-18.62,66.72-1.81-.5-2.25-1.72-3.1-3.1,4.39.92,2.92-2.16,3.56-4.89,3.71-15.8,7.02-42.77,13.43-56.47,1.02-2.19,1.96-3.88,3.96-5.35,1.55-.06.45,2.2.77,3.1Z"/>
  <path class="st1" d="M510.37,705.32c4.64-1.01,2.53,2.18,3.1,3.1.86,1.38,1.29,2.6,3.1,3.1-.7.85-.23,2.3-3.08,1.54-.64-2.82-2.28-4.84-3.13-7.75Z"/>
  <path class="st9" d="M327.28,433.78l-.77,1.51-2.33-1.51c-.16-.96.11-2.1,0-3.1h1.55c.57.97.9,2.21,1.55,3.1Z"/>
  <path class="st6" d="M327.28,433.78c4.01,5.49,10.87,6.95,13.93,10.12.44.45,5.91,10.08,6.22,10.85,1.17,2.87-.96,1.96-2.32,2.27-10.22,2.33-11.87,1.45-16.28,12.45-.39-2.08-5.62-9.97-4.65-10.85,23.07-2.13,1.73-14.54,0-24.83l2.33,1.51.77-1.51Z"/>
  <path class="st6" d="M328.83,491.19c2.1,1.01,15.32,17.55,15.57,19.39.49,3.62-3.3,2.26-6.16,4.74-4.41,3.82-5.83,10.62-4.75,16.21-1.19.11-2.56-1.46-3.1-1.55-.16-2.82-.28-7.28-1.58-9.67s-5.49-1.9-4.62-5.84c3.53,3.38,14.79-1.44,13.9-5.33-.57-2.51-13.63-11.31-12.36-17.95.71.33,2.42-.33,3.1,0Z"/>
  <path class="st6" d="M350.55,593.6c13.3,2.36,8.02,6.1,9.31,15.52-6.02-.66-8.11-10.42-9.31-15.52Z"/>
  <path class="st6" d="M626.74,377.92c-7.89,6.19-30.82-15.08-32.56-20.98-1.44-4.88,13.19,3.57,13.67,4.23.94,1.3-.07,3.55.27,4.33,1.28,3,14.52,9.64,18.62,12.41Z"/>
  <path class="st6" d="M620.53,353.09c-1.88,1.78-17.89-11.79-15.5-13.95,8.51,1.46,16.75,4.07,15.5,13.95Z"/>
  <path class="st10" d="M549.16,339.13l9.3.77c-9.36,15.79-21.83,27.3-39.26,33.66-17.86,6.52-37.27,4.05-55.4,9.77-8,2.53-13.64,6.16-20.95,10.07,2.64-5.89-4.95-3.56-.76-9.28,20.62-15.21,46.68-10.72,69.82-18.62,5.06-1.73,11.43-2.06,13.96-7.76,7.87-3.52,18.15-11.75,23.27-18.62Z"/>
  <path class="st6" d="M494.84,336.04l-6.2,7.74c7.06-.45,14.09-2.09,21.09-2.98,3.02-.38,3.2,1.95,2.18,2.97-2.19,2.21-31.5,8.12-34.13,6.21l3.1-4.62-13.96,1.53c3.42-13.55,17.88-5.51,27.91-10.85Z"/>
  <path class="st2" d="M504.16,354.65c-.47,1.55-1.78,1.4-3.1,1.55-.58-6.11,2.2-1.66,3.1-1.55Z"/>
  <path class="st2" d="M491.75,356.2c-1.55.01-3.11.03-4.65,0,1.55-1.87,3.11-1.88,4.65,0Z"/>
  <path class="st2" d="M517.35,334.48c1.01.52,1.01,1.03,0,1.55v-1.55Z"/>
  <path class="st2" d="M497.95,356.2c-.52.02-1.03-.01-1.55,0h1.55Z"/>
  <path class="st10" d="M587.95,436.89c7.17,6.66,17,7.77,17.07,20.17-2.89,0-5.22,2.85-8.07,3.57-11.33,2.88-14.92,2.82-26.46.67-2.17-.4-4.51-2.57-5.8-2.69.02-6.96,4.3-12.67,9.31-17.07.55-.48,1.06-1.01,1.55-1.55,1.94-.42,3.9-1.09,6.21-1.55l.78,1.53.77-1.53c.84-.17,2.2-1.16,4.65-1.55Z"/>
  <path class="st10" d="M487.09,415.16c-.33.27-1.31,8.9-3.1,0,.82-.24,2.13.16,3.1,0Z"/>
  <path class="st2" d="M435.88,461.72c-3.52,8.3-11.93,15.72-18.6,21.71l3.12-6.95,15.48-14.76Z"/>
  <path class="st2" d="M409.49,503.59c-2.95.1-1.57-6.65-1.17-8.17.74-2.85,2.91-7.6,5.83-8.89l-4.66,17.06Z"/>
  <path class="st2" d="M436.67,458.61c1.01.52,1.01,1.03,0,1.55v-1.55Z"/>
  <path class="st2" d="M414.94,483.43c1.01.52,1.01,1.03,0,1.55v-1.55Z"/>
  <path class="st10" d="M587.17,604.46c1.01.52,1.01,1.03,0,1.55v-1.55Z"/>
  <path class="st9" d="M525.88,357.75c-2.53,5.7-8.9,6.03-13.96,7.76v-3.1c3.18-.81,11.07-3.36,13.96-4.65Z"/>
  <path class="st9" d="M729.15,595.15c-.83,4.99.11,15.43-7.76,13.96,2.37-7.16-1.26-13.68,7.76-13.96Z"/>
  <path class="st1" d="M581.74,438.44c.5-.1,1.05.1,1.55,0l-.77,1.53-.78-1.53Z"/>
  <path class="st1" d="M573.98,441.54v-1.55c.49-.11,1.06.11,1.55,0-.49.55-1,1.07-1.55,1.55Z"/>
  <path class="st0" d="M614.32,269.29c-1.6,2.08-38.74,8.73-44.24,9.3-25.01,2.6-56.96,1.99-81.78-1.95-7.57-1.2-19.44-2.92-24.48-8.86,9.48-2.79,19.1-5.92,28.88-7.59,29.73-5.09,69.02-6.27,98.76-1.37,2.41.4,26.48,5.77,22.86,10.48Z"/>
</svg>