<?xml version="1.0" encoding="UTF-8"?>
<svg id="Camada_1" xmlns="http://www.w3.org/2000/svg" version="1.1" viewBox="0 0 1080 1080">
  <!-- Generator: Adobe Illustrator 29.8.7, SVG Export Plug-In . SVG Version: 2.1.1 Build 1)  -->
  <defs>
    <style>
      .st0 {
        fill: #023710;
      }

      .st1 {
        fill: #f2ba08;
      }

      .st2 {
        fill: #bb8306;
      }

      .st3 {
        fill: #091b05;
      }

      .st4 {
        fill: #f9f8f5;
      }

      .st5 {
        fill: #bdb383;
      }

      .st6 {
        fill: #ebe8d4;
      }

      .st7 {
        fill: #193432;
      }

      .st8 {
        fill: #f2f0e7;
      }

      .st9 {
        fill: #1aa634;
      }

      .st10 {
        fill: #d6cdbd;
      }

      .st11 {
        fill: #f5ca07;
      }

      .st12 {
        fill: #0c1f0c;
      }

      .st13 {
        fill: #e00d0b;
      }
    </style>
  </defs>
  <path class="st8" d="M910.9,312.38c.06.54-.06,1.1,0,1.65l1.65,1.65c.13,1.07-.14,2.22,0,3.29l3.29,118.47c-.06,2.19.07,4.39,0,6.58-4.97-.92-3.19,2.52-3.29,5.69-.24,7.39.51,14.95,0,22.29-1.6,23.07-4.83,51.77-8.46,74.63-1.29,8.13-3.68,15.95-4.72,24.08-2.82.41-1.76-3.91-1.61-5.72.47-6,5.54-14.19-3.3-12.38-.03,4.97.08,12.03-4.94,14.82-.73-10.12,3.15-9.96,3.11-10.58-1.17-17.46,3.49-35.01,5.11-52.78,7.14-78.27,4.35-167.05-4.94-245.14-.58-4.83-.73-14.77-4.92-17.29.03-1.09.02-2.2,0-3.29-.17-8.46-2-16.26-1.64-24.69-97-10.32-193.73-41.68-281.96-82.5-22.63-10.47-44.38-23.94-67.57-32.66-66.65,33.86-134.42,65.17-206.28,86.72-44.65,13.39-90.53,24.76-136.82,30.18-2.5,29.35-7.53,58.59-9.96,87.95-.72,8.75-2.25,20.41-1.65,28.79-2.14.79-1.59,3.13-1.65,4.94-.26,7.64.34,15.4,0,23.04,0,.18-1.55.36-1.65,3.29-.72,22.48-.21,46.51,0,69.11.01,1.1-.01,2.19,0,3.29.13,12.55-.52,25.3,0,37.84.12,2.93,1.63,3.11,1.65,3.29.34,5.43-.36,11.02,0,16.45.12,1.9.08,3.55,1.65,4.94-1.01,10.26,3.67,36.47,5.41,48.06,15.58,103.74,54.49,210.23,127.86,285.96-6.9-3.47-6.95,1.67-7.42,1.72-6.23.75-11.19-9.55-14.93-13.18-8.36-8.12-16.94-19.08-25.37-26.39-.59-.51-1.08-1.12-1.65-1.65-.46-8.91-10.63-16.03-14.67-22.7-22.57-37.25-35.92-78.19-50.35-118.85-.93-2.62.37-5.84-4.08-4.88-.12-.52.13-1.13,0-1.65-37.03-152.91-30.2-258.64-18.1-413,.43-5.47.98-11.01,1.65-16.45,5.56-2.75,1.86-11.21,8.08-12.44,103.04-12.88,202.07-47.08,295.3-91.42,12.93-6.15,35.95-21.31,47.55-24.86,7.67-2.34,9.74-.5,16.57,2.26,34.24,13.83,69.35,35.34,104.76,49.91,77.11,31.72,158.11,53.62,240.84,65.21,3.97,2.26,4.99,6.46,5.79,10.67,5.71,30.03,7.98,66.77,11.67,97.75ZM902.66,529.58c-4.27-.71-2.95.64-3.75,3.55-1.2,4.35-1.52,8.4-1.16,12.88,4.97.81,2.63-1.24,3.32-4,1.01-4.01,1.79-8.27,1.6-12.44Z"/>
  <path class="st6" d="M914.19,471.99c-3.84,67.36-15.95,134.46-37.82,198.3-12.94,37.77-29.42,77.05-52.68,107.75-12.75,16.82-26.56,34.38-39.49,51.01-6.14,3.37-3.39,3.99-7.15,7.67-16.46,16.12-35.01,34.13-50.44,48.27-10.82,9.92-22.9,22.82-36.2,27.97-5.97,2.31-13.01,7.67-18.97,11.56-2.11,1.38-4.86,1.27-4.07,4.89-28.16,18.84-56.96,36.36-87.17,51.87-9.01,4.62-33.85,18.3-42.79,16.52-7.81-1.55-33.84-15.5-42.63-20.03-79.84-41.07-155.78-96.19-213.52-164.08l-13.73-19.21c8.43,7.31,17.02,18.27,25.37,26.39,3.74,3.63,8.69,13.93,14.93,13.18.47-.06.52-5.19,7.42-1.72,2.23,2.3,2.97,4.59,3.29,4.94-3.61,11.28-1.44,6.41,3.65,8.3,1.07.4,5.34,6.95,9.51,3.22,50.3,46.55,111.46,87.06,172.7,117.72,5.85,2.93,30.65,15.69,34.62,16.52,1.16.24,2.17.64,3.32,0,127.76-58.65,247.17-143.68,304.68-276.28,19.48-44.92,26.88-87.13,40.85-132.75,6.72.81,1.76-3.56,1.65-4.94-.05-.54.04-1.1,0-1.65,5.02-2.79,4.92-9.85,4.94-14.82,8.84-1.81,3.77,6.38,3.3,12.38-.14,1.81-1.21,6.13,1.61,5.72,1.04-8.14,3.43-15.96,4.72-24.08,3.63-22.86,6.87-51.57,8.46-74.63h1.65Z"/>
  <path class="st6" d="M180.33,215.3c.47-3.82-.75-8.49,1.51-12.07,4.15-6.57,26.11-6.55,33.64-7.89,82.32-14.71,161.27-39.36,237.45-73.54,23.82-10.69,54.05-30.06,76.96-38.21,7.78-2.76,11.28-1.54,18.48,1.43,20.94,8.64,42.34,21.83,62.56,31.2,89.37,41.41,185.33,70.52,283.41,83.55,7.67,3.67,8.57,18.53,9.76,26.44,2.61,17.39,5.59,40.05,6.77,57.4.65,9.52-.43,19.25.02,28.78-3.69-30.98-5.95-67.72-11.67-97.75-.8-4.21-1.82-8.4-5.79-10.67-82.73-11.59-163.74-33.48-240.84-65.21-35.41-14.57-70.52-36.08-104.76-49.91-6.83-2.76-8.9-4.6-16.57-2.26-11.61,3.54-34.62,18.71-47.55,24.86-93.23,44.34-192.26,78.54-295.3,91.42-6.23,1.22-2.52,9.69-8.08,12.44Z"/>
  <path class="st6" d="M196.78,644.75c-3.81-4-4.98-10.57-6.45-15.76-33.69-118.86-31.43-254.73-16.56-376.64.79-6.5,1.82-14.82,4.91-20.59-12.1,154.36-18.93,260.09,18.1,413Z"/>
  <path class="st6" d="M196.78,646.4c4.45-.96,3.15,2.27,4.08,4.88,14.44,40.66,27.78,81.61,50.35,118.85,4.05,6.68,14.21,13.79,14.67,22.7-28.59-26.87-59.77-107.57-69.11-146.44Z"/>
  <path class="st6" d="M912.54,318.96c5.02,38.56,4.31,79.54,3.29,118.47l-3.29-118.47Z"/>
  <path class="st10" d="M823.69,778.03c-.1,3.07-1.65,5.02-3.29,7.39-7.52,10.82-26.79,38.46-36.2,43.62-14.35,18.44-27.77,31.27-45.26,47.71-2.9,2.73-8.45,7-12.33,8.24,15.43-14.15,33.98-32.15,50.44-48.27,3.76-3.68,1.01-4.3,7.15-7.67,12.93-16.62,26.74-34.18,39.49-51.01Z"/>
  <path class="st10" d="M915.83,444.01c-.28,9.16-1.12,18.75-1.65,27.97h-1.65c.51-7.33-.25-14.9,0-22.29.1-3.17-1.68-6.6,3.29-5.69Z"/>
  <path class="st10" d="M690.41,912.96c-5.98,7.71-15.18,11.2-23.04,16.45-.8-3.62,1.96-3.51,4.07-4.89,5.96-3.89,13-9.25,18.97-11.56Z"/>
  <path class="st6" d="M912.54,315.67l-1.65-1.65c.01.12,1.5.47,1.65,1.65Z"/>
  <path class="st12" d="M181.98,332.12c-.6-8.37.93-20.04,1.65-28.79,2.43-29.36,7.46-58.6,9.96-87.95,46.29-5.42,92.17-16.79,136.82-30.18,71.85-21.55,139.62-52.86,206.28-86.72,23.19,8.72,44.94,22.19,67.57,32.66,88.23,40.81,184.97,72.18,281.96,82.5-.37,8.43,1.47,16.23,1.64,24.69-3.67-8.75-10.3,3.72-11.14,7.78-.69,3.32-.72,18.91,1.29,20.19,8.31,5.28,9.74-20.49,9.85-24.67,4.19,2.53,4.34,12.46,4.92,17.29,9.3,78.09,12.08,166.88,4.94,245.14-1.62,17.77-6.27,35.32-5.11,52.78.04.62-3.84.46-3.11,10.58.04.55-.05,1.1,0,1.65-2.22,1.12-1.2,3.49-1.65,4.94-13.97,45.61-21.37,87.83-40.85,132.75-57.5,132.6-176.92,217.63-304.68,276.28-1.15.63-2.16.24-3.32,0-3.96-.82-28.77-13.59-34.62-16.52-61.24-30.66-122.39-71.18-172.7-117.72-3.28-3.04-11.33-9.56-13.16-11.52-.32-.35-1.06-2.64-3.29-4.94-73.37-75.73-112.29-182.22-127.86-285.96-1.74-11.59-6.42-37.8-5.41-48.06.05-.46,5.29-5.62-1.65-4.94-.36-5.43.34-11.02,0-16.45,2.96-2.65,2.13-3.87-1.65-3.29-.52-12.55.13-25.3,0-37.84.92.14,3.11-.27,3.29-.01.31.45,1.65,10.17,1.65,10.71v29.62c0,3.59,4.18,10.42,8.32,5.01,3.56-4.64-.68-8.43-.17-13.23.34-3.18,3.27-3.88,3.36-4.13,3.2,10.95,2.85,23.31,3.29,34.55-1.78-12.07-9.4-4.65-13.35.81,4.11,24.39,5.97,49.31,10.5,73.61.93,4.97,7.36,36.01,8.55,37.51,1.72,2.16,5,1.57,7.46,1.61.72,4.15-4.67,6.78-4.58,10.39.02.92,4.89,16.81,5.41,17.57,3.78,5.53,10.78-7.15,12.33-9.86,1.27,3.89,2.06,11.57,3.29,16.45-6.95-8.77-12.34.13-10.84,8.26,2.96,16.03,11.68,19.55,14.13,1.61.63.38,1.4.96,1.65,1.65.18.52-.21,1.23,0,1.65.93,1.86,2.98,4.16,3.29,4.94,5.09,12.85,8.75,25.93,14.51,38.96,15.3,34.57,34.4,69.16,61.17,95.96,28.71,38.14,67.57,68.25,106.95,95.43,20.44,14.11,41.23,27.81,63.07,39.77,11.56,6.33,42.93,23.99,53.71,26.92,8.28,2.25,16.01-2.73,23.67-6.04,106.86-46.22,236.46-151.08,272.55-264.68,7.85-10.33,12.89-27.14,16.89-39.88,21.16-67.47,35.51-147.56,34.12-218.45-.05-16.43.07-32.93,0-49.36-.03-6.22,1.39-14.84-1.65-19.75-.13-43.72-5.24-88.22-11.83-131.32-116.5-16.99-227.71-57.73-331.51-111.84-103.07,52.88-211.53,94.38-326.91,111.78-2.02.67-2.41,1.9-2.75,3.83-2.52,14.19-.38,31.18-4.91,45.27-.35-1.77-3.95-3.56-3.39-10.68.45-5.68,4.16-7.49,4.96-11.59,2.49-12.84-6.02-16.99-4.86-28.74h-4.92s-5.08,51.96-5.08,51.96c6.76,6.06-2.1,14.83-3.13,24.59-.89,8.42,2.41,20.71,1.63,26.17-4.53,31.66-5.5,61.39-6.59,93.99-.11,3.17,1.68,6.6-3.29,5.68-.21-22.6-.72-46.63,0-69.11,3.77.58,4.61-.64,1.65-3.29.34-7.63-.26-15.4,0-23.04,6.69.83,1.75-3.53,1.65-4.94Z"/>
  <path class="st3" d="M178.69,432.5c4.97.92,3.19-2.52,3.29-5.68,1.09-32.6,2.06-62.34,6.59-93.99.78-5.46-2.52-17.75-1.63-26.17,1.03-9.76,9.89-18.53,3.13-24.59l5.08-51.95h4.92c-1.15,11.75,7.36,15.9,4.86,28.74-.8,4.1-4.51,5.91-4.96,11.59-.56,7.12,3.04,8.92,3.39,10.68.37,1.85-.15,4.48,0,6.58-5.29-.93-2.78,2.66-3.23,5.74-2.08,13.98-1.45,20.4-1.7,33.75-.01.55,0,1.1,0,1.65-2.74,4.95-2.8,16.11,0,21.39-.31,2.94-.96,4.13-1.65,6.58-3.82,13.56-1.66,10.96-1.57,23.78.16,21.83-3.09,43.89-1.82,65.98.18,3.07-.37,6.17,3.39,7.32-.07,1.08.13,2.22,0,3.29l-1.65,3.29c-.27.93.3,2.49,0,3.29-.1.25-3.02.95-3.36,4.13-.51,4.79,3.72,8.59.17,13.23-4.15,5.4-8.32-1.42-8.32-5.01v-29.62c0-.54-1.34-10.26-1.65-10.71-.18-.26-2.36.15-3.29.01-.01-1.1.01-2.19,0-3.29Z"/>
  <path class="st3" d="M887.86,241.63c-.1,4.19-1.53,29.96-9.85,24.67-2.01-1.28-1.98-16.86-1.29-20.19.84-4.06,7.47-16.53,11.14-7.78.02,1.09.03,2.2,0,3.29Z"/>
  <path class="st6" d="M902.66,529.58c.2,4.17-.59,8.43-1.6,12.44-.69,2.75,1.65,4.8-3.32,4-.35-4.48-.03-8.53,1.16-12.88.8-2.91-.52-4.27,3.75-3.55Z"/>
  <path class="st7" d="M181.98,332.12c.1,1.4,5.05,5.76-1.65,4.94.06-1.81-.49-4.15,1.65-4.94Z"/>
  <path class="st7" d="M180.33,493.38c6.93-.68,1.69,4.48,1.65,4.94-1.57-1.39-1.52-3.04-1.65-4.94Z"/>
  <path class="st7" d="M178.69,473.63c3.77-.58,4.61.64,1.65,3.29-.01-.18-1.52-.36-1.65-3.29Z"/>
  <path class="st7" d="M180.33,360.1c2.96,2.65,2.13,3.87-1.65,3.29.09-2.93,1.64-3.11,1.65-3.29Z"/>
  <path class="st8" d="M331.71,848.79c-4.17,3.73-8.44-2.82-9.51-3.22-5.09-1.89-7.27,2.99-3.65-8.3,1.83,1.96,9.88,8.48,13.16,11.52Z"/>
  <path class="st8" d="M889.51,569.07c.12,1.38,5.07,5.74-1.65,4.94.44-1.45-.58-3.82,1.65-4.94Z"/>
  <path class="st11" d="M341.58,208.72c.16,3.83-2.26,4.32-4.88,5.82-7.25,4.17-15.79,7.68-23.08,12.31l3.28,6.55c-27.58,7.31-55.31,14.91-83.77,18.25-2.58,23.73-6.44,47.64-8.36,71.44-4.91,60.91-7.26,129.84,1.2,189.65.79,5.62,2.79,13.09,2.08,18.48-.13.98-4.83,3.9,1.65,3.29,4.34,66.31,37.94,163.61,74.65,219.06,13.45,20.31,29.11,35.65,43.82,54.08,1.77,2.22,2.11,8.45,8.23,8.23.65.8,2.2,2.08,3.29,3.29,2.32,2.56.29,1.56,4.94,4.94.62.45,1.05,1.19,1.65,1.65,1.51,5.44,7.44,10.31,11.49,14.01,8.82,8.05,21.64,18.19,31.29,25.48-6.21,15.27,5.1,17.5,9.87,29.62-39.38-27.18-78.24-57.3-106.95-95.43-30.26-40.19-57.37-87.72-74.04-136.57-.17-.49.17-1.15,0-1.65-.49-1.44-1.4-2.55-1.65-3.29-34.74-106.03-40.08-223.79-31.25-334.83,2.33-29.31,7.02-58.66,10-87.9,40.08-4.94,79.58-14.54,118.3-25.74,2.91-.84,6.45-.2,8.26-.74Z"/>
  <path class="st1" d="M856.6,498.31c.16-.2,2.86.76,3.34-1.07.99-3.79.1-25.94,3.28-28.54.19-.15,4.71-.16,4.89,0,.44.4-1.62,8.4-1.29,11.84.29,3.02,3.02,15.2,7.88,14.47-6.36,73.24-20.67,126.21-42.78,195.8-36.09,113.6-165.69,218.46-272.55,264.68-7.66,3.31-15.39,8.29-23.67,6.04-10.78-2.93-42.15-20.59-53.71-26.92-21.84-11.96-42.63-25.66-63.07-39.77-4.77-12.12-16.08-14.35-9.87-29.62,40.26,30.44,86.32,56.77,132.46,77.22,62.65-28.71,123.32-65.18,173.61-112.57,72.15-67.98,114.31-156.86,129.97-254.24,1.65-10.25,9.02-74.33,11.52-77.33Z"/>
  <path class="st10" d="M203.37,281.12c4.54-14.1,2.39-31.08,4.91-45.27.34-1.93.73-3.16,2.75-3.83,115.38-17.4,223.84-58.9,326.91-111.78,103.8,54.11,215.02,94.84,331.51,111.84,6.59,43.1,11.69,87.59,11.83,131.32.02,6.22-1.39,14.84,1.65,19.75.07,16.43-.05,32.93,0,49.36,0-.22-1.64-1.86-1.71-3.98-.42-12.07,1.83-25.68-1.58-37.15-.45-22.75-1.5-47.25-3.3-69.92-.82-10.31-7.92-83.13-11.45-85.63-89.86-14.08-179.22-39.84-261.68-78.1-18.6-8.63-42.98-25.63-61.35-31.65-2.19-.72-4.07-1.88-6.51-.99-39.23,20.88-79.51,40.72-120.92,56.93-22.18,8.68-50.46,20.01-72.83,26.71-1.81.54-5.34-.11-8.26.74-38.72,11.19-78.21,20.79-118.3,25.74-2.99,29.24-7.67,58.59-10,87.9-8.83,111.04-3.49,228.8,31.25,334.83h-3.29c-.24-.69-1.01-1.26-1.65-1.65.07-.52,0-1.11,0-1.65-.04-2.74-1.49-2.91-1.65-3.29-.2-.47.21-1.2,0-1.65-.36-.77-.8-1.38-1.65-1.65-.15-.49.13-1.12,0-1.65-1.23-4.89-2.02-12.57-3.29-16.45-.48-1.47-1.16-2.22-1.65-3.29.33-3.42.25-6.8-3.29-8.23-.43-2.22-1.51-4.2-1.65-4.94-.82-4.64-.28-10.82-3.29-14.81,0-.55.02-1.1,0-1.65-.29-8.29-3.61-14.27-4.81-19.32-1.27-5.37-.48-11.94-3.42-16.88.02-.55-.03-1.1,0-1.65.15-3.01.97-8.18-1.65-9.87-.03-1.09.07-2.2,0-3.29-.24-3.7-1.53-6.99-1.65-8.23-.1-1.08.11-2.21,0-3.29-.65-6.34-.65-8.75-.17-15.75.05-.76-2.83-.52-3.11-1.78-.92-4.15,1.95-10.34-1.65-13.73-.07-1.64.06-3.3,0-4.94-.44-11.24-.09-23.6-3.29-34.55.3-.8-.27-2.36,0-3.29.05-.18,1.31-.53,1.65-3.29.13-1.07-.07-2.21,0-3.29,2.02-31.61-1.5-65.25,0-97.08.69-2.45,1.34-3.64,1.65-6.58.69-6.52-.05-14.59,0-21.39,0-.55-.01-1.1,0-1.65,2.87-1.58,2.41-3.76,2.74-6.34,1.27-9.91,2.92-23.35,2.2-33.15-.15-2.1.37-4.73,0-6.58Z"/>
  <path class="st3" d="M224.76,629.95c-1.55,2.71-8.55,15.39-12.33,9.86-.52-.76-5.39-16.65-5.41-17.57-.08-3.61,5.31-6.24,4.58-10.39-2.46-.04-5.74.55-7.46-1.61-1.2-1.51-7.63-32.54-8.55-37.51-4.53-24.3-6.4-49.22-10.5-73.61,3.95-5.46,11.57-12.88,13.35-.81.06,1.64-.07,3.3,0,4.94.44,10.18-.04,14.54,1.7,25.53.48,3.06-2.07,6.66,3.24,5.73.11,1.08-.1,2.21,0,3.29.1,2.64-1.02,6.82,1.65,8.23.07,1.09-.03,2.2,0,3.29.08,3.11-1.15,8.07,1.65,9.87-.03.55.02,1.1,0,1.65-.44,9.91-.31,6.98,1.49,15.79,1.6,7.86,2.08,13.51,6.74,20.41.02.55,0,1.1,0,1.65.02,6.9-5.42,13.25,3.29,14.81.13.74,1.21,2.72,1.65,4.94,1.13,5.77,1.05,3.34,3.29,8.23.49,1.07,1.17,1.82,1.65,3.29Z"/>
  <path class="st5" d="M882.92,432.5c1.39,70.89-12.96,150.98-34.12,218.45-4,12.74-9.03,29.55-16.89,39.88,22.11-69.6,36.42-122.56,42.78-195.8,3.09-35.54,5.66-67.41,4.94-103.66,3.4,11.48,1.16,25.08,1.58,37.15.07,2.13,1.71,3.77,1.71,3.98Z"/>
  <path class="st5" d="M237.92,662.85c16.68,48.85,43.79,96.38,74.04,136.57-26.77-26.8-45.88-61.39-61.17-95.96-5.77-13.03-9.42-26.11-14.51-38.96l1.65-1.65Z"/>
  <path class="st3" d="M231.34,656.27c-2.45,17.94-11.18,14.42-14.13-1.61-1.5-8.14,3.89-17.04,10.84-8.26.13.53-.15,1.16,0,1.65.23.75.94,1.33,1.65,1.65.21.44-.2,1.17,0,1.65l1.65,3.29c0,.53.07,1.13,0,1.65Z"/>
  <path class="st5" d="M882.92,383.13c-3.03-4.9-1.63-13.53-1.65-19.75,3.03,4.9,1.62,13.52,1.65,19.75Z"/>
  <path class="st5" d="M236.27,657.92c.24.74,1.16,1.85,1.65,3.29l-4.94-1.65c-.21-.41.18-1.13,0-1.65h3.29Z"/>
  <path class="st10" d="M237.92,661.21c.17.49-.17,1.15,0,1.65l-1.65,1.65c-.31-.77-2.36-3.07-3.29-4.94l4.94,1.65Z"/>
  <path class="st12" d="M196.78,453.89c-3.76-1.15-3.21-4.25-3.39-7.32-1.27-22.09,1.98-44.15,1.82-65.98-.09-12.82-2.25-10.22,1.57-23.78-1.5,31.83,2.02,65.47,0,97.08Z"/>
  <path class="st12" d="M203.37,287.7c.72,9.8-.93,23.24-2.2,33.15-.33,2.58.14,4.77-2.74,6.34.25-13.35-.38-19.77,1.7-33.75.46-3.08-2.06-6.67,3.23-5.74Z"/>
  <path class="st12" d="M198.43,350.22c-2.8-5.28-2.74-16.44,0-21.39-.05,6.8.69,14.87,0,21.39Z"/>
  <path class="st12" d="M195.14,460.47l1.65-3.29c-.34,2.76-1.59,3.11-1.65,3.29Z"/>
  <path class="st1" d="M603.2,157.71c-10.44,8.67,7.29,15.46,12.4,19.68,3.7,3.06,8.17,9.02,10.64,11.58-7.44-3.43-13.17-7.78-21.39-11.52-.11-.05-.42-1.16-1.65-1.65-.8-.32-2.41.3-3.29,0-.11-.04-.37-1.27-1.65-1.65-.9-.26-2.32.24-3.29,0-2.22-.54-3.12-1.21-6.58-1.65-.54-.07-1.1.05-1.65,0-.52-.57-1.06-1.13-1.65-1.65-5-4.43-26.81-14.83-33.96-17.87-13.87-5.89-13.5-6.33-27.54-.04-4.28,1.92-9.91,6.87-14.18,8.03-2.16.59-6.88-1.38-8.23,1.65-1.09.06-2.21-.09-3.29,0l-6.58,1.65c-1.05.14-2.3-.19-3.29,0-2.6.5-3.11,1.6-3.29,1.65-.51.14-1.14-.15-1.65,0-2.08.63-2.91,1.5-3.29,1.65-.5.18-1.2-.2-1.65,0-1.15.5-1.51,1.58-1.65,1.65-2.34,1.15-10.95,3.03-11.53,5.8-.51,2.43,4.28,4.23,3.3,7.35-20.37,1.31-40.65,7.57-55.94,21.4-31.48,11.09-63.14,21.06-95.43,29.62l-3.28-6.55c7.29-4.63,15.83-8.14,23.08-12.31,2.62-1.5,5.04-1.99,4.88-5.82,22.37-6.7,50.66-18.03,72.83-26.71,41.41-16.21,81.7-36.05,120.92-56.93,2.43-.9,4.32.27,6.51.99,18.38,6.02,42.76,23.02,61.35,31.65Z"/>
  <path class="st5" d="M409.04,865.24c-9.65-7.29-22.47-17.43-31.29-25.48-4.06-3.7-9.98-8.57-11.49-14.01,33.11,25.13,61.18,49.37,97.22,71.44,25.11,15.38,51.16,29.54,77.99,41.47,96.8-45.88,190.6-108.94,244.66-203.95,16.04-28.19,29.66-61.1,39.65-91.99,7.17-22.15,11.49-45.16,19.31-67.08-15.65,97.38-57.82,186.26-129.97,254.24-50.29,47.39-110.97,83.86-173.61,112.57-46.14-20.44-92.2-46.78-132.46-77.22Z"/>
  <path class="st5" d="M356.39,815.88c-6.12.22-6.46-6.01-8.23-8.23,3.73,1.83,5.73,5.17,8.23,8.23Z"/>
  <path class="st2" d="M229.69,534.51c-6.48.61-1.77-2.31-1.65-3.29,1.6.43,1.55,1.9,1.65,3.29Z"/>
  <path class="st5" d="M359.68,819.17l4.94,4.94c-4.65-3.37-2.62-2.38-4.94-4.94Z"/>
  <path class="st11" d="M879.63,391.36c.72,36.26-1.85,68.12-4.94,103.66-4.87.73-7.6-11.45-7.88-14.47-.33-3.44,1.73-11.44,1.29-11.84-.18-.17-4.7-.16-4.89,0-3.18,2.6-2.3,24.75-3.28,28.54-.48,1.83-3.17.87-3.34,1.07l3.36-46.83c1.35-67.03-3.24-133.58-11.61-199.96-57.06-7.64-113.19-23.56-167.43-42.36-16.68-5.78-39.08-12.99-54.68-20.19-2.47-2.56-6.93-8.52-10.64-11.58-5.11-4.22-22.83-11.01-12.4-19.68,82.45,38.27,171.82,64.02,261.68,78.1,3.53,2.5,10.63,75.32,11.45,85.63,1.8,22.67,2.85,47.17,3.3,69.92Z"/>
  <path class="st12" d="M206.66,560.84c2.93,4.94,2.15,11.51,3.42,16.88,1.19,5.04,4.52,11.03,4.81,19.32-4.66-6.89-5.13-12.54-6.74-20.41-1.8-8.81-1.94-5.88-1.49-15.79Z"/>
  <path class="st12" d="M198.43,503.25c3.6,3.4.74,9.58,1.65,13.73.28,1.26,3.16,1.03,3.11,1.78-.48,7-.47,9.41.17,15.75-5.31.93-2.76-2.68-3.24-5.73-1.73-10.99-1.26-15.35-1.7-25.53Z"/>
  <path class="st12" d="M218.18,613.49c-8.71-1.56-3.27-7.91-3.29-14.81,3.01,3.99,2.47,10.17,3.29,14.81Z"/>
  <path class="st12" d="M223.11,626.65c-2.24-4.89-2.16-2.45-3.29-8.23,3.54,1.42,3.62,4.81,3.29,8.23Z"/>
  <path class="st12" d="M206.66,559.19c-2.8-1.81-1.56-6.76-1.65-9.87,2.62,1.7,1.8,6.87,1.65,9.87Z"/>
  <path class="st12" d="M205.01,546.03c-2.67-1.4-1.55-5.59-1.65-8.23.12,1.23,1.4,4.53,1.65,8.23Z"/>
  <path class="st12" d="M231.34,654.63l-1.65-3.29c.16.38,1.6.55,1.65,3.29Z"/>
  <path class="st12" d="M229.69,649.69c-.71-.32-1.42-.9-1.65-1.65.84.27,1.29.88,1.65,1.65Z"/>
  <path class="st0" d="M720.03,791.2c6.7-12.6,17.11-42.73,18.16-56.71.16-2.14,1.22-10.29-1.68-10.74-3.8,16.96-10.11,36.11-18.55,51.39-9.02,16.32-29.19,36.57-34.13,52.26-2.72,8.64-63.11,49.46-75.46,57-9.49,5.79-21.62,12.64-31.46,17.91-3.28,1.75-23.27,12.05-24.71,10.65,1.2-23.69,10.92-21.02,25.26-29.85,12.31-7.58,7.74-9.69.45-16.07-4.11-3.6,8.45-13.19,11.5-14.76,9.66-4.96,23.81-7.73,34.71-14.65,5.84-3.7,16.1-14.85,21.06-16.79,5.1-1.99-.67,16.6,7.4,12.35,6.3-3.32,17.97-19.91,23.76-25.61,21.92-21.61,53.55-47.99,53.55-83.02v-27.97c0-.28-4.08-6.07.8-4.09,3.22,1.3,14.07,11.64,17.3,14.79.56.55-1.58,4.71,3.28,3.28,2.3-14.81.34-23.99-3.28-37.84-.99-3.8-1.95-7.82-3.29-11.52-4-11.01-8.42-19.77-14.81-29.62,2.93-.85-4.39-9.88-6.59-12.4-2.09-2.4-5.03-1.22-4.95-4.73.27-11.74,8.03-1.74,13.89-2.54,4.61-.63,9.85-7.53,6.81-11.73-1.72-2.38-6.28.44-5.88-3.92.66-7.11,8.13-8.94,8.36-10.21.44-2.45-1.63-5.53-1.45-7.95.25-3.39,2.54-20.63,3.23-22.77.93-2.89,5.94-3.45,7.2-6,.34-.69.84-14.68.61-15.42-1.24-3.93-7.34-2.09-8.01-2.75-.41-.41-.14-8.53-.8-11.55-1.43-6.53-7.32-16.42-7.52-20.64-.2-4.07,6.03-2.36,4.96-7.24-8.82,1.57-6.72-3.59-9.82-7.52-1.15-1.46-3.82-1.71-4.53-2.81-.44-.68-5.47-14.18-5.51-15.22-.2-4.77,3.66-9.8,3.31-11.32-1.03-4.41-11.28-1.22-7.77-11.32,4.13-11.89,12.16,1.05,14.19-5.56.67-2.19.8-9.04.07-11.07-1.28-3.57-9.64.38-6.36-13.08.39-1.58,3.5-.22,3.13-3.31-.66-5.64-5.57-3.91-6.17-4.56-.47-.51-2.15-12.44-1.98-13.71.45-3.46,6.89-8.21,8.94-12.59,1.18-2.53,9.21-20.86,9.16-22.06-.11-2.43-3.25-4.39-3.36-8.16-.11-3.95,2.92-7.8,3.28-11.71,1.19-12.91-.38-28.3-5.63-40.24-1.62-3.69-1.14-3.81-5.76-3.23-.36-1.1.33-3.35-.4-5.3-2.02-5.39-7.71-10.9-7.85-17.73l-9.84,6.58c-1.43-13.56-7.12-29.88-14.83-41.13l5.55-3.3c44.09,14.13,88.62,26.47,134.41,33.64,2.49,1.68,2.71,30.77,3.21,36.28,1.96,21.77,5.52,43.96,6.64,65.76,6.75,132.3-17.51,299.47-103.77,404.8-4.9,5.98-10.85,14.73-18.05,17.32Z"/>
  <path class="st4" d="M445.24,348.58c13.75-3.43,26.78-6.09,41.13-4.94,3.44-2.76-11.97-7.91-11.51-11.49,20.86-.83,41.69,3.36,60.87,11.49,2.18-2.28-5.99-12.35-8.21-13.99,8.06.06,19.3,6.73,26.82,11.02,6.37,3.64,24.38,20.23,14.31,2.99,5.65-4.3,34.22,26.28,37.61,32.3,5.07,8.99,8.35,24.87,10.12,35.15,6.82,1.28,1.13-10,4.1-13.16,4.84,6.04,8.51,13.43,7.42,21.37,4.01,5.32,4.36-16.57,9.86-4.93.86,1.82.81,4.74,1.65,6.58.09,8.04-9.9,7.14-12.31,9.91-1.69,1.94-1.17,5.31-4.92,8.23-7.49,5.83-14.8,1.43-19.68-5.09-2.48-3.31-6.82-15.63-7.54-16.34-5.67-5.53-.57,15.63-6.53,11.48l-38.72-44.38c-5.09-2.57-.09,14.19,2.49,14.8-.36.34.34,3.01,0,3.28-2.53,1.94-4.79-3.83-6.57-4.92,3.64-3.36-4.74-8.28-6.69-8.96-3.61-1.26-7.08.61-9.77.73-.86.04-3.18.12-3.29,0-.38-.44.36-2.89-.01-3.28-.89-.92-3.1,1.65-3.28,1.64-7.95-.71-9.28-1.71-18.1,0l-.84-1.63c-3.04-.57-2.61.48-2.45,3.27-3.23.86-18.54,5.01-19.74,6.6-4.07,5.41,7.32,3.25,8.22,3.27-2.39,16.02-19.62,25.66-29.61,37.03,6,2.8,15.09-4.47,19.89,1.49,1.69,2.11.26,6.12,3.12,5.89l3.31-9.86c-.83,10.77.76,18.21,4.93,27.96-12.54-1.17-24.3,3.47-36.19,6.59-2.06.54-5.07-.29-8.26.75-5.44,1.77-39.34,27.38-34.52,32.15,14.25-5.4,28.64-12.3,44.42-11.49-12.39,19.19-11.1,41.02,2.61,59.08,4.47,5.89,12.77,14.89,20.42,14.96.56,6-8.07,4.97-9.87,9.84l24.67-4.91c2.18,2.07-16.74,28.76-16.59,35.41.07,3.1,2.52,4.99,2.63,6.52.18,2.39-1.25,5.23-.93,8.17,1.73,15.98,15.02,17.56,16.36,21.76.75,2.37-5.03,26.8-4.85,34.31,1.31,53.74,48.43,91.5,100.44,74.82,5.33,24.28,2.71,52.86-13.98,72.39-12.26-35.79-56.95-43.62-68.3-80.61-2.87-.39-1.55,3.74-1.62,5.73-.61,15.26,3.12,28.55,3.28,43.61l-6.57-3.28c-2.38-3.54-5.36-7.77-9.87-8.23-9.53-18.03-19.61-30.2-24.68-51.01-6.82-27.97-5.92-57.31-1.65-85.55-3.22-.56-4.68,2.15-6.52,4.16-14.78,16.13-28.72,43.48-32.96,64.94-2.99,15.13-3.51,30.8-2.46,46.06-6.05-8.39-12.05-18.95-15.93-28.49-1.56-3.84-7.46-19.61-7.93-22.51-.56-3.44-1.55-18.88-1.65-23.04-.04-1.63-.09-3.31,0-4.94.27-4.98,2.6-16.27,3.75-21.76,4.79-22.87,14.81-44.23,25.84-64.65-22.76,14.34-41.66,34.24-55.91,56.79-7.35,11.63-11.29,18.91-16.45,32.1-.77,1.96,1.24,3.11-3.29,2.45-8-50.95,8.35-100.25,41.09-139.05-19.94,5.65-40.32,20.17-54.27,35.39-1.6,1.75-5.28,3.29-6.69,5.68-3.19,5.4,1.44,6.61-6.51,8.27-1.72.36-2.08,2.36-1.58-1.55,5.64-44.07,39.37-97.87,73.18-125.94,2.26-1.88,12.02-6.36,12.35-7.42,1.45-4.65-10.06-.69-11.86-.32-18.31,3.77-41.4,11.62-55.02,24.78-.84.81-7.53,8-3.88,9.29-1.28.68-2.67,6.21-6.57,4.93,9.5-44.62,43.57-78.38,83.91-97.07,5.52-.42,10.55-1.2,15.64-3.29,1.88-.77,3.13,1.29,2.46-3.28-14.84-1.8-34.29-5.67-47.86,2.37-3.13,1.86-3.95,1.06-3.15,5.85-12.42,1.29-17.38,3.7-4.06-8.18,20.44-18.24,49.12-30.28,76.46-31.31.19,0,1.09,1.44,2.4,1.42,5.77-.12,11.64-3.48,18.14.26,1.77-.43,1.03-2.22.06-3.35-3.36-3.9-22.56-7.82-28.55-9.37-2.87-.74-6.19,1.01-5.21-3.75Z"/>
  <path class="st0" d="M366.26,763.22c1.2,1.17,2.72,9.42,8.22,8.22.96-1.09-4.84-20.93,3.35-15.68,1.47.94,12.03,25.87,15.11,30.97,1.96,3.25,15,23.76,19.39,19.26-3.31-20.87,1.41-8.81,10.02-2.6,4.77,3.43,10.8,7.4,15.79,10.53,5.72,3.59,39.35,23.03,43.3,20.03-.09-1.59-10.55-15.89-4.14-13.13,2.23.96,9.83,10.11,13.47,12.87,6.87,5.22,16.3,11.17,23.74,15.75,4.87,3,13.02,1.66,4.68,8.3-5,3.98-16.31,8.43-22.49,12.02-1.37.79-2.66-.32-2.14,2.87,1.33,8.17,19.01,12.54,24.81,18.03,6.23,5.89,10.91,15.69,13.08,23.93-4.33.37-7.88-2.25-11.54-4.08-94.35-47.17-189.75-125.22-232.27-223.51-42.99-99.4-53.95-209.42-49.15-316.29.61-13.49.78-27.58,1.74-41.04,1.4-19.69,5.41-39.33,6.77-59.04,1.32-4.06,18.65-5.21,23.21-6.41,30.66-8.08,62.03-15.47,92.41-24.41,7.43-2.19,18.47-8.27,25.32-9.43,3.71-.63,3.57.2,5.29,3.03-.77,3.01-3.66,17.22-3.19,18.73.88,2.83,3.95,1.95,5.32,2.66,3.83,1.98-5.86,7.39-8.75,10.66-9.7,10.95-27.03,41.38-23.11,55.92.64,2.37,6.02-1.18,4.99,3.28-1.12,4.87-7.33,13.23-9.07,20.56-.8,3.34-2.4,12.61-2.37,15.7.04,4.71,3.84,14.22,3.01,17.78-.3,1.31-14.69,16.5-17.53,20.37-5.36,7.29-19.22,28.22-21.67,35.93-1.83,5.75,13.47-3.35,11.47,3.23-1.49,4.88-11.76,16.33-15.08,22.77-9.58,18.61-13.11,39.05-16.15,59.54-2.77,18.74-4.49,36.38-8.24,55.11-1.26,6.28-6.17,16.33-4.94,24.68-3.37,10.63,8.99,77.3,15.65,80.61l9.01-9.86c-1.64,15.64,3.56,28.6,8.24,42.78,5.32,16.13,9.73,25.05,18.1,39.49,7.05,12.16,17.22,30.03,27.12,39.64,1.48,1.44,5.03-1.45,4.16,3.12l1.61.02c.66-7.44.67-.9,3.29,0-.05-2.31.53-5.01-.24-7.19-1.14-3.24-10.24-10.45-12.52-12.89-.2-.22-.73-5.51-.93-5.83-2.55-4.03-10.83-7.12-6.05-15.22,3.5,4.19,6.92,5.35,9.87,8.23ZM375.31,773.1v1.65c1.07-.55,1.07-1.1,0-1.65Z"/>
  <path class="st12" d="M522.58,172.52c12.01,2.56,30.54,13.66,40.26,21.44.99.79,13.08,13.59,10.72,5.74-1.2-3.97-4.6-8.89-5.84-13.92-.78-3.19-2.42-5.77,2.57-5.03,3.67.6,8.22-.62,12.16.18,22.81,4.59,44.51,18.4,57.63,37.81,2.33,3.44,6.95,15.66,7.57,16.31,2.66,2.86,2.78-.67,3.32-2.4,1.36-4.39,1.74-9.47,1.6-14.06,33.27,10.04,47.94,49.84,46.08,82.27,4.11-.73,11.08-15.89,14.77-13.16,2.07,5.73,3.55,10.75,4.96,16.45.63,2.57.63,5.02,3.29,6.58.05,2.19.04,4.39,0,6.58-.04,2.35-1.46.56,0,6.58.33,1.36-.22,3.4,0,4.94-1.54,1.3-5.82,33.6-8.23,39.49-1.31,3.22-9.71,11.85-11.52,14.81-4.15,1.18-5.16-5.01-5.1-7.5.07-2.81,2.58-2.19,2.86-2.8.49-1.08.74-5.61,1-5.88.85-.91,3.54.86,2.88-1.89l-4.92-4.96c5.25-13.16,7.27-30.29,6.57-44.42-4.22-1.04-4.24,3.84-6.57,6.57-8.58,10.07-18.24,19.11-27.97,27.97.57-1.39,1.68-5.27,1.65-6.58,10.94-22.52,14.88-55.23,5.74-78.96-.9-2.34-9.86-19.01-10.7-19.76-4.05-3.59-3.14,5.2-3.26,6.57-.19,2.16.2,4.42,0,6.58-.39,4.27-1.57,7.73-1.65,13.16-3.65,13.97-8.01,27.82-14.39,40.8-1.08,2.21,1.07,4.54-3.7,3.61,4.62-24.43-1.3-75.56-21.4-92.14-9.89-10.68-20.45-23.87-36.2-24.66-.5.34,1.3,2.27,1.65,3.27,8.38,24.07,15.06,48.2,13.16,74.04-.97-2.7-3.55-6.88-4.94-9.87-4.26-9.17-8.59-14-13.16-21.39-5.57-9-9.32-17.49-17.25-26.35-15.37-17.17-38-31.59-61.73-31.22-.19,1.97,2.66,2.4,3.29,3.27,7.16,9.92,13.64,20.64,19.75,31.26-.94-.57-3.28-.74-4.94-1.65-25.47-13.95-53.45-20.33-80.65-5.79-3.95,2.11-14.8,9.54-16.41,13.21-1.39,3.16,1.79,2.3,3.28,2.45,39.1,3.94,79.45,8.5,100.37,47.72l-14.81-6.58c-37.78-22-91.93-13.52-116.82,23.87.99,1.63,4.68.75,6.57.81,16.5.56,28.34.24,43.7,8.13,2.84,1.46,5.31,1.35,2.38,5.03-9.46-.38-11.63,1.11-19.75,3.29-17.62,4.74-38.51,15.33-42.78,34.55-.35,1.59-1.59,3.71-.84,4.9l73.23-16.43c2.38-4.84-10.22-4.5-6.57-8.2,6.53-6.6,48.94-4.94,59.22-1.68,2.28-2.06-10.29-14-11.51-16.43,8.21,2.05,16.77,4.35,24.65,7.42,5.51,2.15,22.12,11.83,25.51,12.35,4.59.7,1.57-4.12,2.49-4.97,3.81-3.53,36.74,20.49,40.32,26.29l-8.26-24.62c12.88,11.01,20.33,26.55,27.48,41.61,4.05,8.53,4.31,18.97,13.69,25.81l2.46-6.57c5.33,1.04,3.81,14.68,5.21,16.18,2.71,2.92,1.51-1.35,6.3,6.85.57,2.73-1.24,3.67-3.29,4.94-5.5-11.64-5.86,10.25-9.86,4.93,1.09-7.95-2.58-15.34-7.42-21.37-2.97,3.16,2.73,14.44-4.1,13.16-1.77-10.28-5.05-26.16-10.12-35.15-3.39-6.02-31.96-36.61-37.61-32.3,10.07,17.24-7.93.65-14.31-2.99-7.52-4.29-18.76-10.96-26.82-11.02,2.22,1.64,10.39,11.71,8.21,13.99-19.18-8.14-40.01-12.33-60.87-11.49-.46,3.58,14.94,8.73,11.51,11.49-14.35-1.14-27.38,1.51-41.13,4.94-4.04,1.01-8.66,1.37-12.49,3.14-1.33.62-5.38.86-2.32,3.43.9.76,18.55,2.85,23.06,4.18,2.72.8,5.85-.35,4.91,4.05-27.34,1.03-56.03,13.08-76.46,31.31-13.31,11.88-8.35,9.47,4.06,8.18,11.18-1.16,22.09-.81,32.91-1.65-40.34,18.7-74.4,52.45-83.91,97.07,3.9,1.28,5.3-4.25,6.57-4.93,7.92-4.21,26.04-13.26,34.36-15.84,2.12-.66,4.98-1.13,3.48,1.83-.53,1.04-14.31,12.26-17.29,15.63-30.79,34.79-48.88,81.61-46.86,128.36,6.65.43,8.52-11.34,9.86-13.16.76-1.03,7.6-9.21,8.23-9.87,1.75-1.83,12.03-10.82,14.81-13.16,1.08-.91,6.85-2.13,9.87-4.94h1.65c-25.17,43.06-29.26,103.1-.02,144.8.26-1.55-.32-3.57.02-4.93,11.68,2.65-.08,13.3-.08,15.63,0,3.17,4.26,4.56,4.8,6.9.57,2.47-1.55,4.72-1.46,6.11.05.82,14.4,11.13,3.32,12.49-2.95-2.88-6.37-4.04-9.87-8.23-2.17-2.59-6.74-7.58-8.23-9.87-4.17-6.43-13.41-25.14-16.08-32.46-3.57-9.77-4.13-20.61-8.6-30.07-1.23-13.9-1.18-27.28-.02-41.14-5.48.99-12.12,18.94-13.18,19.75-.23.17-4.71-1.71-4.97-2.76-.58-2.39.37-6.22-.14-9.38-6.31-39.17-4.54-50.09,1.85-88.23.17-1.04-.17-2.25,0-3.29l14.8-32.1-9.86,4.12c6.26-33.05,8.97-56.56,28.94-85.41,3.26-4.71,16.33-17.2,17.11-19.09,1.36-3.3-1.99-2.42-3.91-2.28-3.87.29-8.14,2.52-12.52,1.47-1.85-1.79,7.34-15.33,9.19-17.94,10.42-14.69,25.49-30.16,41.8-38.01.45-2.6-2.32-1.73-4.15-1.7-6.35.1-12.43,2.62-18.88,1.73-2.04-21.78,6.7-42.65,24.67-55.15.61-3.79-1.25-2.28-3.68-2.04-4.57.43-9.36,2.27-14.41,1.24,3.66-28.38,26.72-54.14,54.29-60.89.39-2.33-2.92-2.39-4.57-2.79-7.59-1.87-15.86-1.43-23.35-3.86,4.3-40.78,50.7-59.53,87.15-52.57,2.73-2.42-15.28-11.54-7.09-16.14,3.11-1.75,19.07-4.97,22.91-5.07,2.41-.06,14.94,1.01,17.09,1.47Z"/>
  <path class="st10" d="M455.12,468.69c-6.65,5.78-14.47,10.23-21.57,15.5-1.84,1.36-4.1-.03-3.1,4.24,12.39-4.28,24.7-5.8,37.83-4.92-1.86,6.16-7.32,9.17-9.93,15.56-6.12,14.99-2.43,31.16,8.21,42.99,1.68,1.87,4.47,1.84,5.01,2.32.14.12-.3,2.28,1.15,3.32,7.04,5.06,17.81,8.65,26.42,9.43,4.4.4,11.26-4.33,11.93,2.91.05.52-2.7.77-3.2,2.02-3.08,7.8-4.91,14.19-9.13,21.84-3.42,6.21-15.6,21.38-15.6,26.88,0,14.06,17.2,23.56,29.55,19.16v3.29c-9.86,11.37-9.1,53.41-4.19,67.54,1.67,4.8,5.5,4.48,5.84,11.44.17,3.42-2.97,3.32,2.58,9.77,21.08,24.49,65.24,27.77,91.06,9.01,2.92-2.12,9.05-9.91,11.08-10.31,4.44-.86,14.46,10.34,17.04,11.27,1.39,4.31-.9,22.91-6.71,15.45-2.18-2.8-6.31-16.09-10.74-17.02-8.5,5.34-14.73,14.5-25.32,16.4-.52,2.3.33,2.7,1.6,4.14,4.51,5.12,12.52,8.66,17.86,15.04,6.38,7.64,12.99,20.06,13.46,30.16,15.85-15.79,25.57-40.23,21.37-62.53,4.79.46,9.96-.32,14.81,0-.65,26.25-5.4,46.18-23.08,66.59-2.52,2.91-18.32,18.74-21.33,15.67,1.57-16.55-3.92-34.8-16.45-46.06,4.76,20.78-2.7,44.34-15.79,60.74-1.63,2.04-9.92,11-11.4,11.64-2.99,1.29-2.13-1.23-2.48-2.39-8.86-29.41-32.78-33.88-50.17-56.79.14,11.97,5.99,23.85,7.36,35.43.3,2.49.26,2.81-2.42,2.41-5.88-.86-26.74-15.95-32.09-20.58-9.45-8.17-14.67-15.34-21.37-25.52,3.21-4.72-4.63-10.6-4.89-15.71-.14-2.68,2.08-5.96,1.52-7.98-.77-2.76-5.14-1.81-6.64-3.71-1.36-1.73-4.65-14.99-4.83-17.85-.34-5.65,8.86.67,11.54-.82,5.07,20.81,15.15,32.97,24.68,51.01,2.19,4.14,2.65,12.77,9.87,8.23l6.57,3.28c-.16-15.06-3.89-28.35-3.28-43.61.08-1.99-1.24-6.12,1.62-5.73,11.35,36.98,56.04,44.81,68.3,80.61,16.69-19.53,19.3-48.11,13.98-72.39-52.01,16.68-99.13-21.08-100.44-74.82-.18-7.51,5.6-31.94,4.85-34.31-1.33-4.19-14.63-5.77-16.36-21.76-.32-2.94,1.11-5.78.93-8.17-.12-1.52-2.56-3.41-2.63-6.52-.15-6.65,18.77-33.35,16.59-35.41l-24.67,4.91c1.8-4.87,10.43-3.85,9.87-9.84-7.65-.08-15.95-9.07-20.42-14.96-13.71-18.06-15-39.89-2.61-59.08-15.78-.81-30.17,6.09-44.42,11.49-4.82-4.77,29.08-30.38,34.52-32.15,3.19-1.04,6.2-.21,8.26-.75Z"/>
  <path class="st13" d="M557.13,557.55c.88-2.55,9.62-19.49,10.74-19.75,2.53-.59,8.82,6.75,9.06,9.12.34,3.36-8.61,20.28-10.39,25.8-5.52,17.11-9.18,38.43-9.53,56.38-.11,5.52,1.49,10.28,1.79,15.65l13.6-56.31,14.4-35.83,19.72,4.95c-1.86,7.04-2.62,14.14-3.3,21.38-4.83,1.82-4.55,11.68-1.65,14.81-.17,2.11-.05,4.44,0,6.58.05,1.81-.48,4.15,1.65,4.94-.14.98-.17,4.76,0,4.94l1.65,3.29c-.08,17.8,10.94,33.61,7.81,57.99-4.26,33.2-33.96,59.3-67.42,43.58-25.02-11.75-27.8-39.98-24.3-63.73l4.11,6.55,7.39-14.78c.54,6.61-1.94,11.68-1.25,18.46.21,2.01,5.45,22.11,9.48,17.73.61-.67-4.32-13.47-4.72-17.47-3.31-33.1,22.21-68.99,27.46-102.15.67-4.2-4.06-1.45-6.28-2.13ZM542.33,682.61c8.52,19.14,33.49,21.74,48.52,8.21,28.97-26.08,2.86-75.16,2.46-106.93-2.88-.38-1.54,3.73-1.63,5.73-1.16,26.35,20,94.6-20.66,101.11-14.25,2.28-17.19-2.96-28.69-8.11Z"/>
  <path class="st13" d="M484.73,486.79c8.58-3.44-7.07-8.31-9.77-9.15-1.68-.52-14.18-.15-9.97-4,1.03-.95,24.82-6.89,27.18-6.74,7.65.47,21.71,21.6,33.69,19.88l-22.09-18.2c-15.31-17.45-10.34-63.28,15.13-67.04,6.06-.9,25.29,7.61,26.69,13.7,1.24,5.41-9.41-1.35-11.39-1.77-5.41-1.16-10.28-1.24-15.35,1.29-8.17,4.08-.55,5.82-1.18,8.64-.3,1.33-3.93,1.57-4.91,3.78-3.76,8.51-3.23,23.04.93,31.46,11.68,23.68,46.95,25.92,64.33,7.9,1.8-1.87,1.9-6.79,4.84-7.65,2.26-.67,8.2,3.79,12.12,4.85,1.84.5,7.46-.82,8.22,2.49.57,2.49-6.04,7.41-8.22,9.02-1.35,1-5.6,0-4.94,4.94-8.2,3.74-28.51,14.3-36.06,19.06-19.56,12.35-26.56,32.66,3.16,33.6,1.73,1.67-12.5,40.6-14.51,45.55-6.44,15.93-17.86,43.24-38.87,39.9-9.99-1.59-9.94-7.5-5.87-14.71h1.65c14.17-11.01,22.9-27.73,26.34-45.24-1.19-.21-5.87,1.97-6.59,2.46v-4.94c0-1.59.21-3.44,0-4.94,2.27-.88,4.37-7.07,3.28-8.22-1.39-1.47-4.67,1.61-4.93,1.64-3.66.4-11.79-1.53-13.16,1.65-2.21-.45-4.36-1.27-6.58-1.65-7.72-1.29-17.83-5.53-23.04-11.52-6.48-7.45-6.94-17.58-4.94-26.33,2.1,3.3,4.61-3.86,6.14-4.99,3.2-2.36,19.71-7.15,21.83-4.88.68.73-1.92,6.57,3.32,10.67,11.08,8.69,39.09-5.98,49.33-13.15-7.51-2.13-14.01,1.33-21.77.42-10.57-1.24-17.33-7.23-25.94-11.11.28,12.2-11.29,2.54-18.11,3.29ZM511.88,419.33v1.65c1.07-.55,1.07-1.1,0-1.65Z"/>
  <path class="st8" d="M501.19,162.65c.94-.05,6.39-.02,8.23,0,6.6.08,11.6.31,18.1,1.65l.03,2.18c-2.02,2.1-5.44,2.34-4.97,6.05-2.15-.46-14.68-1.54-17.09-1.47-3.84.1-19.8,3.32-22.91,5.07-8.19,4.6,9.82,13.71,7.09,16.14-36.45-6.95-82.85,11.79-87.15,52.57,7.49,2.42,15.76,1.99,23.35,3.86,1.65.41,4.96.47,4.57,2.79-27.57,6.75-50.64,32.51-54.29,60.89,5.05,1.03,9.84-.8,14.41-1.24,2.43-.23,4.29-1.75,3.68,2.04-17.97,12.5-26.71,33.37-24.67,55.15,6.45.89,12.53-1.63,18.88-1.73,1.83-.03,4.6-.9,4.15,1.7-16.31,7.86-31.38,23.33-41.8,38.01-1.85,2.61-11.04,16.16-9.19,17.94,4.38,1.05,8.65-1.18,12.52-1.47,1.92-.14,5.28-1.02,3.91,2.28-.78,1.9-13.85,14.39-17.11,19.09-19.97,28.85-22.68,52.36-28.94,85.41-1.75,9.22-3.57,19.65-4.94,27.97-.17,1.04.17,2.26,0,3.29-5.57,1.18-9.02,6.45-9.87,11.52-.78.2-1.51.87-1.65,1.65-.26,1.51.22,3.38,0,4.94l-1.65-3.29c3.76-18.72,5.47-36.37,8.24-55.11,3.03-20.5,6.57-40.94,16.15-59.54,3.32-6.44,13.59-17.89,15.08-22.77,2-6.58-13.3,2.52-11.47-3.23,2.45-7.71,16.31-28.64,21.67-35.93,2.84-3.87,17.23-19.06,17.53-20.37.83-3.57-2.97-13.08-3.01-17.78-.03-3.09,1.58-12.36,2.37-15.7,1.74-7.33,7.95-15.69,9.07-20.56,1.03-4.47-4.35-.91-4.99-3.28-3.92-14.54,13.41-44.97,23.11-55.92,2.89-3.26,12.58-8.68,8.75-10.66-1.38-.71-4.44.17-5.32-2.66-.47-1.51,2.42-15.72,3.19-18.73,2.93-11.43,9.37-21.72,18.1-29.62,15.29-13.83,35.57-20.09,55.94-21.4.98-3.12-3.81-4.93-3.3-7.35.58-2.78,9.2-4.65,11.53-5.8l1.65-1.65c.45-.2,1.15.18,1.65,0l3.29-1.65c.5-.15,1.13.14,1.65,0l3.29-1.65c.99-.19,2.24.14,3.29,0,2.59-.35,5.98-1.59,6.58-1.65,1.08-.09,2.2.06,3.29,0Z"/>
  <path class="st12" d="M522.58,388.07l3.29,1.65c.11.12,2.43.04,3.29,0,4.3,3.51,12.12,5.56,16.45,8.23,1.78,1.1,4.04,6.86,6.57,4.92.35-.26-.35-2.94,0-3.28,3.92-3.66,22.48,29.63,26.28,32.14,1.24.82,1.79,1.04,3.33.76l1.63-3.27c-.16,1.26.3,2.4,1.23,3.24,3.51,3.14,12.81,13.4,15.24,14.84-2.5,4.91-5.09,10.94-4.94,16.45-3.92-1.06-9.86-5.52-12.12-4.85-2.94.87-3.03,5.78-4.84,7.65-17.38,18.02-52.65,15.79-64.33-7.9-4.16-8.42-4.69-22.95-.93-31.46.98-2.22,4.61-2.46,4.91-3.78.63-2.82-7-4.57,1.18-8.64,5.07-2.53,9.94-2.45,15.35-1.29,1.97.42,12.63,7.18,11.39,1.77-1.4-6.1-20.62-14.6-26.69-13.7-25.46,3.76-30.43,49.59-15.13,67.04l22.09,18.2c-11.98,1.72-26.04-19.41-33.69-19.88-2.36-.15-26.15,5.8-27.18,6.74-4.21,3.85,8.3,3.48,9.97,4,2.7.84,18.35,5.71,9.77,9.15-9.62,1.06-13.04,12.01-14.81,19.75-2,8.75-1.55,18.87,4.94,26.33-4.49,4.7,3.69,12.8-3.29,11.52-.54-.48-3.33-.45-5.01-2.32-10.64-11.84-14.33-28.01-8.21-42.99,2.61-6.39,8.07-9.4,9.93-15.56-13.12-.88-25.44.64-37.83,4.92-1-4.27,1.27-2.87,3.1-4.24,7.09-5.27,14.92-9.72,21.57-15.5,11.9-3.13,23.65-7.76,36.19-6.59-4.17-9.75-5.76-17.19-4.93-27.96.89-11.46,6.37-23.82,13.16-32.91.07-.09,1.92.21,1.64-1.63-1.08-.09-2.2.06-3.29-.02-2.7-.2-5.5.05-8.23,0-.9-.02-12.29,2.14-8.22-3.27,1.2-1.6,16.51-5.74,19.74-6.6,1.45-.39,2.86-1.56,3.29-1.65,8.82-1.71,10.15-.71,18.1,0ZM527.51,427.56c-24.43,22.58,12.46,57.42,38.66,36.19,4.44-3.6,6.78-5.85,5.38-11.89-.2-.85-3.11-6.03-3.74-6.21-3.37-.97-4.32,7.3-6.65,9.8-7.84,8.42-21.13.83-20.6-10.58.1-2.23,3.96-11.83,5.05-12.37.84-.42,3.01.41,4.09,0,4.13-1.52-7.51-8.94-10.2-9.56-8.41-1.94-7.72.67-11.99,4.61ZM560.41,450.59c.45-2.86-.6-6.08-3.26-7.42-8.76-4.4-8.7,11.39,3.26,7.42Z"/>
  <path class="st13" d="M641.05,600.33c.78,5.73-.4,11.62,6.56,13.16-1.3-7.5-3.63-53.4.26-55.7,1.48-.88,4.42,0,6.33-.23-6.44,27.38,16.79,52.5,21.4,77.32.25,1.34-.03,2.82,1.65,3.29-.12.73-.12,3.18,0,3.29l1.65,3.29c.97,11.78,1.99,15.47,0,27.97v1.65c-4.02,15.62-12.59,29.28-30.51,28.05-9.96-.68-19.85-10.8-20.38-20.79-.16-2.89,1.51-5.87,1.53-8.91l1.45-2.25-1.45-1.04c.27-4.35-.3-8.82,0-13.16.14-1.98,5.44-9.34-1.65-8.23.06-1.09-.09-2.21,0-3.29.11-1.41,5.06-5.75-1.65-4.94-.14-1.61.21-3.36,0-4.94,2.99-2.62,2.11-3.88-1.65-3.29-.09-1.08.11-2.21,0-3.29-.21-2.16,2.89-11.36-3.29-9.87-.21-1,.2-2.28,0-3.29,3.81-11.7,2.14-4.07,4.1-3.64,1.38.31,3.13-4.28,2.5,3.64.43.54,3.27-2.1,3.27-2.47v-26.33c0-5.07,5.34-6.11,6.58.82.09,2.67-.32,5.7,0,8.23.31,2.49.64,4.14,3.29,4.94ZM649.29,661.21c5.77,15.51,18.9,8.12,22.25-4.89,3.6-13.98-2.83-22.44-7.47-34.59-3.23-.34-.96,3.19-.8,4.91,1.12,12.07,6.84,42-13.97,34.57Z"/>
  <path class="st6" d="M720.03,368.32c-.57.56-1.84,8.52-2.99,11.01-1.41,3.06-6.77,11.01-6.83,12.84-.11,3.25,9.7,16.76,9.93,27.96.29,14-5.95,14.63-8,21.76-.37,1.29-1.89,17.76-1.81,19.5.14,3.08,11.69,17.1,14.31,21.62,21.69,37.25,21.59,86.78-.5,123.88-6.2-10.28-16.84-15.88-24.69-24.64-.03,17.3,18.14,30.21,23.87,46.06.56,5.39-.91,2.48-4.92,1.65v4.93c-1.79-2.49-6.7-9.15-9.89-8.23-5.56-13.14-14.83-24.07-19.34-37.42-1.41-4.17-5.79-21.2-5.22-24.19.25-1.31,2-2.47,3.7-2.32,8.52.75,30.98,24.94,33.17,24.44,6.66-1.51,9.13-39.16,9.09-46.08-.07-13.13-1.31-23.71-5.79-36.16-2.62-7.28-18.69-38.27-25.47-39.52,2.4-9.47,4.33-18,3.29-27.97,9.55-6.09,10.45-17.09,6.84-27.34-.94-2.67-4.01-3.22-5.2-5.57-.65-1.27-4.95-11.8-4.98-12.48-.08-1.81,2.3-7.21,3.34-8.91,1.8-2.96,10.2-11.59,11.52-14.81h6.58Z"/>
  <path class="st10" d="M341.58,580.58c13.95-15.23,34.32-29.74,54.27-35.39-32.75,38.8-49.09,88.09-41.09,139.05,4.53.66,2.52-.49,3.29-2.45,5.16-13.19,9.09-20.47,16.45-32.1l9.87,4.94c-7.55,13.55-11.63,23.47-16.45,37.84-.28.84-1.21,1.86-1.65,3.29-2.84,9.27-3.35,13.9-4.94,23.04-.07.41-1.28,1.83-1.65,3.29-.34,1.36.24,3.38-.02,4.93-29.25-41.69-25.16-101.73.02-144.8,3.36,2.08,6.42-6.65,4.1-6.6-3.79-.59-4.24,5.21-5.74,6.6-3.02,2.8-8.8,4.03-9.87,4.94l-6.58-6.58ZM367.1,570.74l-2.45,2.45c-.03,1.73,4.12-.98,2.45-2.45Z"/>
  <path class="st1" d="M687.12,493.38c.72,2.07.84,4.6,1.65,6.58.27.67,1.05,1.22,1.65,1.65,1.99,2.5,2.22,3.9,3.29,6.58,2.41,6.02,4.45,14.9,9.86,19.74,2.42-7.7-8.36-14.33-3.27-21.39,3.95,8.64,6.08,13.54,8.23,23.04,1.91,8.47,1.06,16.67,4.94,24.68-.23.83.66,8.33-3.26,4.92-.21-.18-.75-3.22-2.39-4.96-2.61-2.77-5.03-5.31-7.51-8.19l-3.29-3.29c-1.2-1.49-3.59-1.7-4.94-4.94-.6-1.45.59-3.97-1.55-7.47-8.79-14.38-62.52-22.77-81.12-34.09-3-1.83-6.64-3.75-5.55-7.84,2.61-9.8,9.85-4.93,14.8-5.41,2.86-.27,5.66-2.77,8.47-2.67,3.21.12,8.39,5.7,12.98,4.93,1.95-.1.59-2.56.96-3.4,4.09-9.31,11.13-6.68,6.59,3.28,12.86.22,9.76-3.55,11.51-11.51.1-.43,1.88-3.84,3.26-3.28,3.28,5.99,11.73,18.08,17.24,21.47,3.48,2.14,4.59,1.07,7.47,1.56Z"/>
  <path class="st5" d="M514.35,712.22l25.69,19.56c29.51,12.37,64.04,1.17,78-27.78,8.78,4,12.72,12.46,24.22,14.41,38.5,6.53,56.04-31.73,53.06-64.57-.92-10.11-6.68-18.54-6.53-28.83,9.05,9.31,24.91,27.04,29.25,39.02,3.71,10.24-11.83-5.14-12.78-4.47.13,1.85-1.2,3.35-1.67,4.94-3.52,11.96-.61,26-6.58,39.49-1.62,3.66-11.75,17.47-14.81,19.75s-10.05,3.64-13.16,6.58c-.27-.33-5.63-2.42-6.57-4.94-.08,2.73.05,5.49-.02,8.23-4.84-.32-10.02.46-14.81,0-1.71-.16-10.96-1.44-11.52-1.65-2.58-.94-12.6-12.14-17.04-11.27-2.02.39-8.16,8.19-11.08,10.31-25.82,18.76-69.98,15.48-91.06-9.01-5.55-6.45-2.42-6.35-2.58-9.77Z"/>
  <path class="st8" d="M583.46,170.87c.52,1.61,1.88,1.51,3.29,1.65.54.05,1.11-.07,1.65,0l6.58,1.65c.97.24,2.4-.26,3.29,0l1.65,1.65c.88.3,2.49-.32,3.29,0l1.65,1.65c8.22,3.74,13.95,8.08,21.39,11.52,6.54,6.8,13.16,13.87,18.93,21.38,1.71-1.16.75-6.02,3.32-6.58,1.12-.24,14.48,6.6,16.7,7.96,8.47,5.16,21.27,16.79,26.87,24.96,7.71,11.26,13.4,27.57,14.83,41.13l9.84-6.58c.14,6.83,5.83,12.34,7.85,17.73.73,1.94.04,4.2.4,5.3,4.67,14.22,7.54,22.19,6.58,37.84-7.13,1.22-4.7-2.21-4.95-8.22h-1.61c1.31,6.95-2.57,4.31-3.31,4.93-.22-1.54.33-3.57,0-4.94,2.56-.68,2.46-6.05,0-6.58.04-2.19.05-4.39,0-6.58-.09-4.15,1.54-7.62-3.29-6.58-1.4-5.7-2.88-10.72-4.96-16.45-3.69-2.73-10.66,12.43-14.77,13.16,1.86-32.43-12.81-72.23-46.08-82.27.14,4.59-.25,9.67-1.6,14.06-.53,1.73-.65,5.25-3.32,2.4-.61-.66-5.24-12.87-7.57-16.31-13.12-19.41-34.82-33.22-57.63-37.81-3.94-.79-8.5.42-12.16-.18-2.85-.47-12.34-7.49-4.9-7.6l-.04-2.27c5.94-.5,12.13.35,18.1,0ZM726.6,307.45c-1.79-1.79-5.07,1.48-3.27,3.27s5.07-1.48,3.27-3.27Z"/>
  <path class="st10" d="M392.59,680.95c.06-4.37-.06-8.78.02-13.16,2.97.33,2.36,5.12,3.87,7.66.58.98,3.76,2,4.34,3.85-.09,1.62-.04,3.31,0,4.94l-8.23-3.29Z"/>
  <path class="st10" d="M402.46,707.28c.47,2.9,6.37,18.67,7.93,22.51,3.88,9.54,9.89,20.1,15.93,28.49-1.05-15.26-.53-30.94,2.46-46.06l11.52,4.94c-1.49,7.76-2.1,24.01-1.62,32.06.95,15.96,6.97,31.36,9.84,46.91-2.18,2.39-25.47-18.96-27.96-21.38-4.13-4.02-5.81-10.18-11.52-11.52-.75-7.42-11.64-20.81-14.81-29.62-.47-1.32-1.48-2.72-1.65-3.29-.86-3.02-1.95-11.7-1.65-14.81.04-.46,5.29-5.62-1.65-4.94-.14-1.51-.12-3.41,0-4.94.02-.3,1.61-1.82,1.71-3.98.31-6.59-.38-13.27-.05-19.87l1.63-.83c-.11,8.97-2.79,25.53,9.87,26.33Z"/>
  <path class="st11" d="M624.59,465.4c-6.03,10.11.47,8.95,4.94,11.52,3.88,2.23,5.85,6.36,11.52,4.94-.37.84.99,3.3-.96,3.4-4.6.78-9.77-4.81-12.98-4.93-2.81-.1-5.62,2.4-8.47,2.67-4.94.47-12.19-4.39-14.8,5.41-1.09,4.09,2.55,6.01,5.55,7.84,18.61,11.32,72.34,19.71,81.12,34.09,2.14,3.5.95,6.02,1.55,7.47-17.46-9.83-38.33-20.64-58.59-22.86-7.3-.8-16.06.95-22.77-.27-9.42-1.71-10.79-5.89-24.75-4.81-8.89.68-34.13,11.99-36.18,11.47-4.19-1.05-.68-5.52.79-7.38,9.28-11.76,28.6-17.78,42.77-20.58,1.7-.34,6.59.89,6.6-.82l-6.6-2.47c.2-1.32-.72-3.37.33-4.55,8.12-1.8,11.88-10.63,21.06-8.62.66,6.3.63,3.32,1.65,0,1.71-5.6,1.67-8.41,4.94-13.16l3.29,1.65Z"/>
  <path class="st6" d="M428.79,712.22c4.24-21.46,18.18-48.81,32.96-64.94,1.84-2,3.3-4.72,6.52-4.16-4.27,28.24-5.17,57.58,1.65,85.55-2.68,1.48-11.88-4.83-11.54.82.17,2.86,3.47,16.12,4.83,17.85,1.5,1.91,5.87.96,6.64,3.71.56,2.02-1.65,5.29-1.52,7.98.26,5.11,8.09,10.99,4.89,15.71-19.9-30.25-22.9-57.88-18.12-93.78-2.57,1.32-4.61,7.17-5.72,9.89-2.54,6.24-7.92,20.29-9.08,26.3l-11.52-4.94Z"/>
  <path class="st10" d="M703.57,664.5c16.94,22.87,12.23,59.23.62,83.71-.99,2.09-16.61,29.52-20.35,24.88.59-7.06-1-13.98-3.24-20.62-1.49-4.43-8.87-18.81-11.58-22.15,3.12-2.94,10.12-4.31,13.16-6.58,2.93,6.71,4.99,13.37,6.63,20.56.45,1.96.41,5.29,3.22,2.48,2.51-2.52,12.28-38.62,4.96-42.78,5.97-13.49,3.07-27.53,6.58-39.49Z"/>
  <path class="st12" d="M698.64,465.4c6.78,1.25,22.85,32.25,25.47,39.52,4.49,12.45,5.72,23.04,5.79,36.16-5.03-1.52-2.43,3.72-3.44,4.7-.83.8-9.02.26-11.37,1.89.15-3.15.21-6.74,0-9.87-1.52-22.56-14.78-50.2-31.26-67.46,6.53,1.96,9.07-6,14.81-4.94Z"/>
  <path class="st1" d="M683.81,544.38c-24.54-11.29-48-.45-71.76,1.44-21.07,1.68-29.31-6.88-41.75-21.99,13.51-11.74,28.44.31,40.46.66,21.22.61,30.01-2.97,52.11,5.47,2.08.8,24.46,10.91,20.94,14.42ZM632.82,536.14c.15-12.03-12.69-6.14-20.53-6.57-6.46-.36-37.62-12.17-22.34,4.21,11,11.8,29.67,4.46,42.87,2.36Z"/>
  <path class="st10" d="M552.2,399.59c-2.57-.6-7.57-17.37-2.49-14.8l38.72,44.38c5.96,4.15.86-17.01,6.53-11.48.72.7,5.06,13.03,7.54,16.34,4.88,6.52,12.2,10.92,19.68,5.09,3.75-2.92,3.23-6.29,4.92-8.23,2.41-2.77,12.39-1.87,12.31-9.91,1.77,3.9,5.45,2.38,4.8,12.11-.57,8.48-3.21,6.12-8.09,10.92-5.16,1.37-2.21-5.54-6.56-6.58-.55,1.64-.93,5.56-1.67,6.58-1,1.38-7.13,6.15-9.08,6.54-4.53.92-14.98-.93-18.89-3.25-2.43-1.44-11.73-11.7-15.24-14.84-.94-.84-1.4-1.98-1.23-3.24l-1.63,3.27c-1.54.28-2.1.06-3.33-.76-3.79-2.5-22.35-35.8-26.28-32.14Z"/>
  <path class="st2" d="M557.13,557.55c2.22.68,6.94-2.07,6.28,2.13-5.25,33.16-30.77,69.05-27.46,102.15.4,4,5.33,16.81,4.72,17.47-4.04,4.38-9.28-15.72-9.48-17.73-.69-6.78,1.79-11.85,1.25-18.46l-7.39,14.78-4.11-6.55c.23-1.54-.33-3.58,0-4.94l1.65-3.29c1.7-5.22,7-20.41,9.34-24.24,1.58-2.59,4.37-2.68,5.71-6.09,1.04-2.65-.48-6.89-.09-7.29.35-.36,3.14-.52,4.79-1.87,4.48-3.66,2.1-4.2,3.29-6.58,7.78-15.51,6.65-25.42,11.52-39.49Z"/>
  <path class="st9" d="M720.03,791.2c-2.82,5.29-11.16,15.06-15.61,19.69-4.9,5.09-14.36,12.79-20.59,16.51,4.94-15.69,25.11-35.94,34.13-52.26,8.44-15.28,14.75-34.43,18.55-51.39,2.9.46,1.84,8.61,1.68,10.74-1.05,13.98-11.46,44.11-18.16,56.71Z"/>
  <path class="st8" d="M695.35,407.81c.74,1.36,3.09,9.26,3.21,10.84.68,9-9.38,11.13-8.16,2.33l-1.63,3.28c-6.99,2.5-11.51,8.78-16.45,13.16-2,1.77-4.42,3.35-6.58,4.94,1.81-7.6-6.87-8.11-6.63-15.5.03-1.04,4.64-.93,3.34-4.24.53-.1,1.11.08,1.65,0,1.77-.26,5.52.61,6.48-.15.65-.52-.18-2.54.1-3.15,1.07-2.25,1.67-3.1,3.29-4.94,3.61.27,5.79.85,4.94-3.29,2.89-2.83,5.44-7.4,9.15-9.82,1.46-.32,6.81,5.61,7.31,6.53Z"/>
  <path class="st6" d="M650.92,450.59c.95.1,5.15,1.25,6.58,1.65,4.15,1.14,11.36,4,14.81,6.58.91.68,3.07,3.36,4.94,4.94,1.37,1.16,5.06,4.99,6.58,6.58,16.48,17.26,29.74,44.9,31.26,67.46l-1.67,3.28h-1.61c.05-4.03.55-8.93-3.31-11.5-2.14-9.49-4.28-14.4-8.23-23.04-7.86-17.2-31.46-52.66-52.65-52.65l-3.29-3.29c2.13,0,4.53-.23,6.58,0Z"/>
  <path class="st12" d="M621.3,615.14c-3.12-15.89-5.04-29.71-1.64-46.08h4.92s.03,15.63.03,15.63l3.26,12.35c.22-9.56.47-26.27,6.1-34.14,1.12-1.56.1-2.89,3.78-2.04-1.02,8.03.92,16.55,1.11,24.22.03,1.27-1.11,1.98-1.11,2.1-1.24-6.93-6.58-5.89-6.58-.82v26.33c0,.37-2.84,3.01-3.27,2.47.63-7.92-1.12-3.33-2.5-3.64-1.96-.44-.28-8.06-4.1,3.64Z"/>
  <path class="st12" d="M395.88,643.11c-1.6,1.86-7.83,33.99-8.21,38.69-.56,6.92-1.03,17.37,1.62,23.84-.12,1.53-.14,3.42,0,4.94.17,1.74.87,3.39,1.65,4.94-.3,3.11.79,11.79,1.65,14.81-5.74-.01-7.62-14.99-8.03-19.12-.77-7.88,1.13-13.44,1.3-19.67.02-.84-2.75-.38-2.88-1.44-.78-6.11,5.22-20.48-3.55-20.64,3.03,10.16-4.06,10.42-6.15,13.59-1.75,2.65.52,10.45-5.38,9.44,4.83-14.37,8.9-24.3,16.45-37.84,2.24-4.03,7.13-8.31,9.87-13.16l1.65,1.65Z"/>
  <path class="st11" d="M540.68,906.38c-1.67.71-.12,3.32-2.01-.42-7.86-15.56-8.56-26.32-29.25-30.86.24-3.05,3.61-2.51,4.93-3.27,17.3,6.23,16.78-8.96,24.68-18.1,1.93,13.06,1.91,13.99,1.58,27.08-.22,8.51.29,17.08.07,25.57Z"/>
  <path class="st1" d="M550.55,865.24c-.51.14-7.98,7.42-4.96,9.08,3,1.65,15.38.97,19.77.8-1.34,5.99-8.67,5.35-13.19,10.67-4.68,5.51-5.35,12.45-7.94,18.33-1.61,3.64-2.05,1.63-3.56,2.26.22-8.49-.28-17.06-.07-25.57.33-13.09.35-14.02-1.58-27.08-.15-1.05.11-2.22,0-3.29,4.94,1.03,3.09-2.44,3.29-6.58,2.61,7.09,8.02,13.83,8.23,21.39Z"/>
  <path class="st12" d="M703.57,404.52c1.19,2.35,4.26,2.9,5.2,5.57,3.61,10.25,2.71,21.26-6.84,27.34-1.96,1.25-7.67.58-9.87,6.58-.28-1.35-2.63-3.4-3.29-4.94,10.75-2.66-1.18-7.3,0-14.81l1.63-3.28c-1.21,8.8,8.84,6.67,8.16-2.33-.12-1.58-2.47-9.48-3.21-10.84l8.23-3.29Z"/>
  <path class="st10" d="M729.9,631.59c6.39,9.84,10.81,18.61,14.81,29.62l-3.25,1.64c.52-1.94-4.06-7.47-4.96-6.58l-1.66,4.93c-2.97-5.85-12.48-20.75-16.45-26.33v-4.93c4.03.83,5.5,3.74,4.94-1.65l6.58,3.29Z"/>
  <path class="st5" d="M698.64,322.25c2.33-2.73,2.36-7.62,6.57-6.57.7,14.12-1.32,31.26-6.57,44.42-1.37,3.43-6.16,11.28-8.23,14.81-5.33.51-2.65-1.03-1.6-4.06,5.27-15.16,13.06-32.16,9.82-48.6Z"/>
  <path class="st2" d="M499.54,603.62v-1.65c1.77-3.23,3.25-6.66,4.94-9.87.67-1.29,2.2-2.7,3.29-4.94,3.09-6.33,4.82-9.51,6.58-16.45l1.65-3.29c.13-.69.11-3.17,0-3.29,1.75-.3,2.56-2.8,3.29-3.29s5.41-2.67,6.59-2.46c-3.44,17.51-12.17,34.22-26.34,45.24Z"/>
  <path class="st12" d="M409.04,763.22c5.71,1.34,7.39,7.5,11.52,11.52-2.05,2.15-14.26-1.15-14.81-1.66-2.96-2.75,3.03-3.34,3.32-4.41.38-1.43.14-3.84-.02-5.44-2.3-.54-4.88.64-8.16-.85-5.4-2.46-12.12-17.78-11.64-22.93.27-2.96,2.55-4.67,5-5.83,3.17,8.81,14.06,22.2,14.81,29.62Z"/>
  <path class="st2" d="M748,672.73c3.62,13.84,5.58,23.02,3.28,37.84-4.86,1.43-2.72-2.74-3.28-3.28-3.24-9.28-3.68-22.37-6.58-31.26l6.58-3.29Z"/>
  <path class="st12" d="M672.31,437.43c-1.19,4.3,4.91,4.99,8.23,4.94l3.29,6.58c-.95,1-.98,6.95-1.65,8.23-.47.91-5.82,2.77-4.94,6.58-1.86-1.58-4.02-4.25-4.94-4.94,2.53-.45-1.33-14.05-1.9-14.58-.24-.23-4.12-.84-6.33-1.87h1.65c2.16-1.58,4.59-3.17,6.58-4.94Z"/>
  <path class="st12" d="M366.26,695.76c13.44,5.44,10.17,23.16-4.94,23.04,1.59-9.14,2.09-13.76,4.94-23.04Z"/>
  <path class="st11" d="M568.65,871.82v3.29c-1.05.13-2.21-.04-3.29,0-4.4.17-16.77.85-19.77-.8-3.02-1.66,4.45-8.94,4.96-9.08,2.68-.72,14.62,5.03,18.1,6.58Z"/>
  <path class="st5" d="M539.03,850.43c.11,1.07-.15,2.25,0,3.29-7.9,9.14-7.38,24.33-24.68,18.1,19.23-11.08,15.5-10.5,24.68-29.62.18,2.71-.27,5.53,0,8.23Z"/>
  <path class="st10" d="M662.44,422.62c1.3,3.32-3.31,3.21-3.34,4.24-.24,7.39,8.44,7.91,6.63,15.5h-1.65c-4.76-2.21-13.49-3.62-13.2-10.8.14-3.54,8.2-8.34,11.56-8.95Z"/>
  <path class="st5" d="M734.84,661.21l1.66-4.93c.89-.9,5.47,4.64,4.96,6.58l3.25-1.64c1.34,3.7,2.3,7.72,3.29,11.52l-6.58,3.29c-.26-.79-5.71-13.08-6.58-14.81Z"/>
  <path class="st10" d="M644.34,450.59l3.29,3.29c-9.51,0-10.81,3.98-16.45,8.23-1.15.86-4.76.24-6.58,3.29l-3.29-1.65c3.37-4.9,8.35-6.56,13.16-9.87,1.79-1.23,2.3-1,4.94-3.29h4.94Z"/>
  <path class="st5" d="M708.51,529.58c3.86,2.57,3.36,7.47,3.31,11.51h1.61s1.67-3.28,1.67-3.28c.21,3.13.15,6.72,0,9.87-.18,3.88-.94,4.04-1.65,6.58-3.88-8.02-3.02-16.21-4.94-24.68Z"/>
  <path class="st12" d="M708.51,626.65c3.39,8.01,9.4,9.99-4.94,9.86,1.9-2.14,2.83-9.25,4.94-9.86Z"/>
  <path class="st12" d="M657.5,452.24c-1.43-.39-5.63-1.54-6.58-1.65l-4.93-4.11c5.9-4.26,11.14-1.43,11.51,5.75Z"/>
  <path class="st12" d="M601.56,593.75c-2.9-3.13-3.18-12.99,1.65-14.81-.46,4.86-1.29,10.48-1.65,14.81Z"/>
  <path class="st12" d="M519.29,555.9v4.94c-.73.49-1.54,2.99-3.29,3.29-.18-.19-3.12.68-3.42-1.03-.65-3.79,2.16-9,6.71-7.2Z"/>
  <path class="st12" d="M634.47,453.89c-1.91-8.22,3.7-7.43,9.87-8.21-.68,2.09-3.24,3.45-4.94,4.92-2.64,2.29-3.15,2.06-4.94,3.29Z"/>
  <path class="st12" d="M627.88,444.01c.74-1.02,1.11-4.94,1.67-6.58,4.35,1.04,1.4,7.95,6.56,6.58-1.54,2.53-6.86,2.7-8.23,0Z"/>
  <path class="st11" d="M539.03,842.2c.32-.67-.4-2.95,0-3.29,4.11-3.39,2.82,3.68,3.28,4.93-.2,4.14,1.65,7.61-3.29,6.58-.27-2.69.18-5.51,0-8.23Z"/>
  <path class="st12" d="M517.64,544.38c.26-.03,3.54-3.11,4.93-1.64,1.08,1.15-1.02,7.34-3.28,8.22-.15-1.1-2.94-3.94-1.65-6.58Z"/>
  <path class="st12" d="M621.3,618.43c6.18-1.49,3.08,7.71,3.29,9.87-3.1-2.61-2.58-6.45-3.29-9.87Z"/>
  <path class="st12" d="M627.88,648.05c7.08-1.12,1.78,6.24,1.65,8.23-2.21-2.4-1.82-5.31-1.65-8.23Z"/>
  <path class="st12" d="M594.98,475.28c1.23,7.85-2.2,3.69-4.94,4.94-.66-4.93,3.59-3.94,4.94-4.94Z"/>
  <path class="st12" d="M504.48,546.03c-.3.7.39,2.98,0,3.29-1.26.99-8.46-1.9-6.57-4.93,2.22.37,4.37,1.2,6.58,1.65Z"/>
  <path class="st12" d="M545.61,597.04c-1.19,2.38,1.19,2.92-3.29,6.58.2-4.14-1.65-7.61,3.29-6.58Z"/>
  <path class="st12" d="M507.77,587.16c-1.09,2.24-2.62,3.65-3.29,4.94-3.59-4.54-1.87-5.63,3.29-4.94Z"/>
  <path class="st10" d="M670.67,419.33c-.28.6.55,2.62-.1,3.15-.95.76-4.7-.11-6.48.15.86-3.02,3.71-3.57,6.58-3.29Z"/>
  <path class="st12" d="M601.56,600.33c6.59-.75,1.89,3.14,1.65,4.94-2.13-.79-1.6-3.13-1.65-4.94Z"/>
  <path class="st12" d="M512.71,629.95c.32-.11.29-2.55,3.28-1.64,1.54,6.65-2.84,4.41-3.28,4.93v-3.29Z"/>
  <path class="st12" d="M626.24,639.82c6.7-.82,1.76,3.53,1.65,4.94-2.21-.81-1.49-3.16-1.65-4.94Z"/>
  <path class="st12" d="M637.76,595.39c5.01-.8,2.81,1.38,3.29,4.94-2.65-.8-2.98-2.45-3.29-4.94Z"/>
  <path class="st10" d="M678.89,411.1c.86,4.14-1.33,3.56-4.94,3.29,2.65-3.01,4.57-2.94,4.94-3.29Z"/>
  <path class="st12" d="M593.33,490.08l6.6,2.47c0,1.72-4.9.49-6.6.82-1.87-1.78-.09-2.72,0-3.29Z"/>
  <path class="st1" d="M568.65,871.82c.84.37,3.4-.89,3.3.84.53,3.58-.73,2.13-3.3,2.45v-3.29Z"/>
  <path class="st12" d="M629.53,672.73c0-.81-.14-1.11,0-3.29l1.45,1.04-1.45,2.25Z"/>
  <path class="st12" d="M677.25,641.46c.43.38,2.89-.36,3.28.01.92.89-1.65,3.1-1.64,3.28l-1.65-3.29Z"/>
  <path class="st12" d="M675.6,634.88c6.48-.59,1.81,2.26,1.65,3.29-1.67-.47-1.4-1.95-1.65-3.29Z"/>
  <path class="st12" d="M624.59,631.59c3.75-.59,4.63.67,1.65,3.29-.02-.18-1.4-.43-1.65-3.29Z"/>
  <path class="st12" d="M603.2,610.2c.27.29,2.33-.19,3.28.01.59,1.53-1.64,3.01-1.64,3.28l-1.65-3.29Z"/>
  <path class="st12" d="M545.6,590.46c1.79,1.79-1.48,5.07-3.27,3.27s1.48-5.07,3.27-3.27Z"/>
  <path class="st12" d="M520.93,646.4c.42-1.72,1.41-2.58,1.65-3.29l-1.65,3.29Z"/>
  <path class="st12" d="M514.35,570.71c.59-2.33,1.61-3.11,1.65-3.29l-1.65,3.29Z"/>
  <path class="st12" d="M616.37,476.92c-1.01,3.32-.99,6.3-1.65,0h1.65Z"/>
  <path class="st12" d="M678.89,674.37v-1.65c-.01.08.41.04,0,1.65Z"/>
  <path class="st12" d="M499.54,603.62h-1.65c.35-.61,1.33-1.08,1.65-1.65v1.65Z"/>
  <path class="st11" d="M700.28,546.03c-.83-.96-2.04-1.74-3.29-3.29l3.29,3.29Z"/>
  <path class="st12" d="M585.1,170.87h-1.65c-5.97.35-12.16-.5-18.1,0-4.14.35-8.07,3.5-12.24,3.25s-17.87-8.24-25.61-9.83c-6.5-1.34-11.5-1.57-18.1-1.65v-1.65c4.28-1.16,9.9-6.11,14.18-8.03,14.04-6.29,13.68-5.86,27.54.04,7.15,3.04,28.97,13.43,33.96,17.87Z"/>
  <path class="st10" d="M509.41,161v1.65c-1.84-.02-7.28-.05-8.23,0,1.35-3.02,6.07-1.06,8.23-1.65Z"/>
  <path class="st10" d="M497.9,162.65c-.6.05-3.99,1.29-6.58,1.65l6.58-1.65Z"/>
  <path class="st10" d="M594.98,174.16l-6.58-1.65c3.46.43,4.36,1.1,6.58,1.65Z"/>
  <path class="st10" d="M586.75,172.52c-1.41-.14-2.77-.04-3.29-1.65h1.65c.58.52,1.12,1.07,1.65,1.65Z"/>
  <path class="st10" d="M483.09,165.94l-3.29,1.65c.38-.14,1.22-1.02,3.29-1.65Z"/>
  <path class="st10" d="M488.02,164.29l-3.29,1.65c.18-.05.69-1.14,3.29-1.65Z"/>
  <path class="st10" d="M604.85,177.46l-1.65-1.65c1.22.48,1.54,1.6,1.65,1.65Z"/>
  <path class="st10" d="M599.91,175.81l-1.65-1.65c1.28.38,1.54,1.61,1.65,1.65Z"/>
  <path class="st10" d="M476.51,169.23c.14-.07.49-1.14,1.65-1.65l-1.65,1.65Z"/>
  <path class="st3" d="M626.24,188.97c15.6,7.2,37.99,14.41,54.68,20.19,54.25,18.79,110.37,34.72,167.43,42.36,8.37,66.39,12.96,132.93,11.61,199.96l-3.36,46.83c-2.5,3.01-9.87,67.08-11.52,77.33-7.82,21.92-12.14,44.93-19.31,67.08-9.99,30.88-23.61,63.8-39.65,91.99-54.06,95-147.86,158.07-244.66,203.95-26.82-11.93-52.87-26.09-77.99-41.47-36.04-22.07-64.11-46.31-97.22-71.44-.6-.45-1.03-1.2-1.65-1.65l-4.94-4.94c-1.09-1.21-2.64-2.49-3.29-3.29-2.5-3.05-4.5-6.39-8.23-8.23-14.71-18.43-30.37-33.78-43.82-54.08-36.71-55.44-70.32-152.74-74.65-219.06-.09-1.39-.05-2.86-1.65-3.29.7-5.39-1.29-12.86-2.08-18.48-8.45-59.81-6.11-128.73-1.2-189.65,1.92-23.8,5.78-47.72,8.36-71.44,28.46-3.34,56.19-10.94,83.77-18.25,32.3-8.56,63.95-18.53,95.43-29.62-8.73,7.9-15.17,18.19-18.1,29.62-1.72-2.83-1.58-3.65-5.29-3.03-6.85,1.16-17.89,7.25-25.32,9.43-30.38,8.94-61.75,16.33-92.41,24.41-4.55,1.2-21.89,2.35-23.21,6.41-1.36,19.72-5.37,39.35-6.77,59.04-.96,13.46-1.14,27.55-1.74,41.04-4.8,106.87,6.16,216.89,49.15,316.29,42.52,98.29,137.91,176.34,232.27,223.51,3.66,1.83,7.21,4.44,11.54,4.08-2.17-8.24-6.84-18.04-13.08-23.93-5.8-5.49-23.48-9.86-24.81-18.03-.52-3.19.78-2.08,2.14-2.87,6.18-3.59,17.49-8.04,22.49-12.02,8.34-6.64.2-5.3-4.68-8.3-7.44-4.58-16.87-10.53-23.74-15.75-3.63-2.76-11.24-11.91-13.47-12.87-6.42-2.75,4.05,11.54,4.14,13.13-3.95,3-37.58-16.44-43.3-20.03-5-3.13-11.03-7.1-15.79-10.53-8.62-6.21-13.33-18.27-10.02,2.6-4.39,4.5-17.43-16.01-19.39-19.26-3.08-5.1-13.63-30.02-15.11-30.97-8.19-5.25-2.39,14.59-3.35,15.68-5.5,1.2-7.02-7.05-8.22-8.22,11.07-1.36-3.27-11.68-3.32-12.49-.09-1.39,2.04-3.65,1.46-6.11-.54-2.34-4.8-3.73-4.8-6.9,0-2.33,11.76-12.98.08-15.63.36-1.46,1.57-2.89,1.65-3.29,15.11.12,18.38-17.59,4.94-23.04.44-1.43,1.36-2.45,1.65-3.29,5.9,1.01,3.63-6.79,5.38-9.44,2.09-3.17,9.18-3.43,6.15-13.59,8.77.16,2.76,14.53,3.55,20.64.14,1.06,2.91.6,2.88,1.44-.17,6.23-2.08,11.79-1.3,19.67.41,4.14,2.29,19.11,8.03,19.12.16.57,1.17,1.97,1.65,3.29-2.44,1.16-4.73,2.88-5,5.83-.47,5.15,6.25,20.47,11.64,22.93,3.28,1.49,5.86.31,8.16.85.16,1.6.4,4.02.02,5.44-.28,1.07-6.28,1.67-3.32,4.41.55.51,12.76,3.81,14.81,1.66,2.49,2.43,25.79,23.77,27.96,21.38-2.87-15.55-8.89-30.95-9.84-46.91-.48-8.06.13-24.31,1.62-32.06,1.15-6.01,6.54-20.06,9.08-26.3,1.11-2.72,3.15-8.57,5.72-9.89-4.78,35.9-1.79,63.53,18.12,93.78,6.7,10.18,11.92,17.36,21.37,25.52,5.35,4.63,26.21,19.72,32.09,20.58,2.69.39,2.72.08,2.42-2.41-1.37-11.58-7.23-23.46-7.36-35.43,17.39,22.92,41.3,27.38,50.17,56.79.35,1.16-.52,3.68,2.48,2.39,1.48-.64,9.78-9.6,11.4-11.64,13.08-16.4,20.54-39.97,15.79-60.74,12.53,11.26,18.01,29.51,16.45,46.06,3.02,3.06,18.81-12.76,21.33-15.67,17.69-20.41,22.44-40.34,23.08-66.59.07-2.74-.07-5.5.02-8.23.94,2.51,6.29,4.6,6.57,4.94,2.71,3.34,10.09,17.72,11.58,22.15,2.24,6.64,3.83,13.56,3.24,20.62,3.74,4.64,19.36-22.78,20.35-24.88,11.62-24.48,16.32-60.84-.62-83.71.47-1.59,1.8-3.09,1.67-4.94.95-.67,16.49,14.71,12.78,4.47-4.34-11.98-20.2-29.71-29.25-39.02-.14,10.29,5.62,18.72,6.53,28.83,2.98,32.84-14.56,71.1-53.06,64.57-11.49-1.95-15.44-10.41-24.22-14.41-13.96,28.95-48.49,40.15-78,27.78l-25.69-19.56c-.34-6.96-4.17-6.64-5.84-11.44-4.91-14.13-5.67-56.17,4.19-67.54.45-.52,4.82,1.72,3.28-4.93-3-.91-2.96,1.52-3.28,1.64-12.35,4.4-29.56-5.1-29.55-19.16,0-5.5,12.18-20.67,15.6-26.88,4.22-7.65,6.05-14.04,9.13-21.84.5-1.25,3.25-1.5,3.2-2.02-.67-7.25-7.53-2.51-11.93-2.91-8.61-.78-19.39-4.37-26.42-9.43-1.46-1.05-1.01-3.2-1.15-3.32,6.98,1.28-1.19-6.82,3.29-11.52,5.21,5.99,15.32,10.22,23.04,11.52-1.88,3.03,5.32,5.92,6.57,4.93.4-.31-.3-2.59,0-3.29,1.38-3.18,9.51-1.25,13.16-1.65-1.29,2.64,1.49,5.48,1.65,6.58.21,1.49,0,3.35,0,4.94-4.55-1.8-7.36,3.41-6.71,7.2.29,1.71,3.24.84,3.42,1.03.11.12.13,2.6,0,3.29-.03.18-1.05.96-1.65,3.29-1.76,6.94-3.49,10.13-6.58,16.45-5.16-.69-6.88.4-3.29,4.94-1.68,3.21-3.17,6.65-4.94,9.87-.31.57-1.3,1.03-1.65,1.65-4.07,7.21-4.12,13.13,5.87,14.71,21.01,3.33,32.43-23.98,38.87-39.9,2-4.95,16.23-43.89,14.51-45.55-29.72-.94-22.71-21.24-3.16-33.6,7.55-4.77,27.86-15.32,36.06-19.06,2.74-1.25,6.17,2.91,4.94-4.94,2.18-1.62,8.79-6.54,8.22-9.02-.76-3.31-6.38-2-8.22-2.49-.15-5.51,2.44-11.54,4.94-16.45,3.92,2.32,14.36,4.17,18.89,3.25,1.95-.39,8.07-5.16,9.08-6.54,1.37,2.7,6.69,2.53,8.23,0,4.88-4.81,7.52-2.44,8.09-10.92.65-9.73-3.03-8.21-4.8-12.11-.83-1.84-.78-4.76-1.65-6.58,2.05-1.27,3.87-2.21,3.29-4.94.08.14,2.22-.23,2.73.49,3.35,4.71,2.53,10.83,10.9,6.07,9.87-5.62,29.66-30.76,35.74-41.11,2.07-3.53,6.86-11.38,8.23-14.81l4.92,4.96c.66,2.75-2.03.99-2.88,1.89-.25.27-.51,4.8-1,5.88-.28.62-2.79,0-2.86,2.8-.06,2.49.95,8.68,5.1,7.5-1.04,1.7-3.42,7.1-3.34,8.91.03.67,4.34,11.2,4.98,12.48l-8.23,3.29c-.5-.92-5.84-6.86-7.31-6.53-3.71,2.42-6.26,6.99-9.15,9.82-.36.35-2.28.28-4.94,3.29-1.62,1.84-2.23,2.69-3.29,4.94-2.87-.28-5.73.27-6.58,3.29-.54.08-1.12-.1-1.65,0-3.35.61-11.41,5.41-11.56,8.95-.28,7.18,8.44,8.58,13.2,10.8,2.21,1.03,6.09,1.65,6.33,1.87.57.54,4.43,14.13,1.9,14.58-3.45-2.58-10.66-5.44-14.81-6.58-.37-7.18-5.61-10.01-11.51-5.75l4.93,4.11c-2.05-.23-4.45,0-6.58,0h-4.94c1.69-1.47,4.25-2.83,4.94-4.92-6.17.78-11.78-.01-9.87,8.21-4.81,3.32-9.8,4.97-13.16,9.87-3.26,4.75-3.23,7.56-4.94,13.16h-1.65c-9.18-2.01-12.94,6.81-21.06,8.62-1.04,1.18-.12,3.23-.33,4.55-.09.57-1.87,1.51,0,3.29-14.17,2.8-33.49,8.82-42.77,20.58-1.47,1.87-4.98,6.33-.79,7.38,2.06.52,27.29-10.79,36.18-11.47,13.96-1.07,15.34,3.1,24.75,4.81,6.71,1.22,15.47-.54,22.77.27,20.26,2.23,41.13,13.03,58.59,22.86,1.35,3.24,3.74,3.45,4.94,4.94s2.46,2.33,3.29,3.29c2.49,2.88,4.9,5.43,7.51,8.19,1.64,1.74,2.18,4.78,2.39,4.96,3.92,3.41,3.03-4.09,3.26-4.92.71-2.54,1.46-2.7,1.65-6.58,2.35-1.63,10.54-1.09,11.37-1.89,1.01-.97-1.59-6.22,3.44-4.7.04,6.91-2.43,44.56-9.09,46.08-2.19.5-24.65-23.69-33.17-24.44-1.7-.15-3.45,1.01-3.7,2.32-.57,2.99,3.81,20.02,5.22,24.19,4.52,13.36,13.78,24.29,19.34,37.42-2.1.61-3.04,7.71-4.94,9.86,14.33.13,8.33-1.85,4.94-9.86,3.18-.92,8.1,5.74,9.87,8.23,3.98,5.57,13.49,20.47,16.45,26.33.88,1.73,6.32,14.02,6.58,14.81,2.91,8.89,3.34,21.98,6.58,31.26-3.23-3.15-14.09-13.49-17.3-14.79-4.88-1.98-.8,3.82-.8,4.09v27.97c0,35.02-31.63,61.41-53.55,83.02-5.79,5.7-17.45,22.3-23.76,25.61-8.07,4.24-2.3-14.35-7.4-12.35-4.96,1.94-15.23,13.08-21.06,16.79-10.9,6.92-25.05,9.69-34.71,14.65-3.05,1.56-15.61,11.16-11.5,14.76,7.29,6.38,11.85,8.49-.45,16.07-14.34,8.83-24.06,6.16-25.26,29.85,1.44,1.4,21.43-8.9,24.71-10.65,9.84-5.26,21.97-12.11,31.46-17.91,12.35-7.54,72.74-48.36,75.46-57,6.23-3.72,15.69-11.41,20.59-16.51,4.45-4.63,12.8-14.4,15.61-19.69,7.2-2.59,13.16-11.34,18.05-17.32,86.27-105.33,110.53-272.5,103.77-404.8-1.11-21.81-4.68-43.99-6.64-65.76-.5-5.52-.72-34.61-3.21-36.28-45.79-7.16-90.32-19.51-134.41-33.64l-5.55,3.3c-5.6-8.17-18.4-19.8-26.87-24.96-2.22-1.35-15.58-8.2-16.7-7.96-2.57.56-1.61,5.42-3.32,6.58-5.77-7.52-12.39-14.59-18.93-21.38ZM683.81,544.38c3.52-3.5-18.86-13.62-20.94-14.42-22.1-8.44-30.89-4.86-52.11-5.47-12.02-.34-26.95-12.4-40.46-.66,12.44,15.11,20.68,23.66,41.75,21.99,23.75-1.89,47.22-12.74,71.76-1.44ZM557.13,557.55c-4.87,14.07-3.74,23.98-11.52,39.49-4.94-1.03-3.09,2.44-3.29,6.58-1.65,1.35-4.44,1.51-4.79,1.87-.39.4,1.13,4.63.09,7.29-1.34,3.41-4.12,3.5-5.71,6.09-2.34,3.83-7.64,19.03-9.34,24.24-.23.71-1.23,1.57-1.65,3.29-.33,1.36.23,3.39,0,4.94-3.5,23.74-.71,51.97,24.3,63.73,33.46,15.72,63.16-10.38,67.42-43.58,3.13-24.38-7.89-40.19-7.81-57.99,0-.26,2.23-1.75,1.64-3.28-.95-.2-3.01.28-3.28-.01-.17-.18-.14-3.95,0-4.94.25-1.8,4.95-5.69-1.65-4.94-.05-2.14-.17-4.47,0-6.58.35-4.33,1.19-9.94,1.65-14.81.68-7.24,1.44-14.34,3.3-21.38l-19.72-4.95-14.4,35.83-13.6,56.31c-.3-5.37-1.9-10.12-1.79-15.65.36-17.95,4.02-39.27,9.53-56.38,1.78-5.52,10.73-22.44,10.39-25.8-.24-2.36-6.53-9.7-9.06-9.12-1.12.26-9.85,17.2-10.74,19.75ZM675.6,634.88c-4.6-24.82-27.83-49.95-21.4-77.32-1.92.24-4.85-.65-6.33.23-3.89,2.3-1.56,48.2-.26,55.7-6.96-1.54-5.79-7.44-6.56-13.16-.48-3.56,1.72-5.73-3.29-4.94-.32-2.53.09-5.55,0-8.23,0-.12,1.14-.83,1.11-2.1-.2-7.66-2.13-16.19-1.11-24.22-3.69-.85-2.67.48-3.78,2.04-5.63,7.87-5.87,24.58-6.1,34.14l-3.26-12.35-.03-15.62h-4.92c-3.4,16.37-1.48,30.2,1.64,46.08.2,1.01-.21,2.29,0,3.29.71,3.42.19,7.26,3.29,9.87.11,1.08-.09,2.21,0,3.29.25,2.87,1.62,3.11,1.65,3.29.21,1.58-.14,3.33,0,4.94.15,1.78-.56,4.12,1.65,4.94-.09,1.08.06,2.2,0,3.29-.17,2.91-.56,5.83,1.65,8.23-.3,4.34.27,8.82,0,13.16-.14,2.18,0,2.48,0,3.29-.03,3.04-1.69,6.02-1.53,8.91.54,9.99,10.42,20.11,20.38,20.79,17.92,1.22,26.49-12.44,30.51-28.05.41-1.61-.01-1.56,0-1.65,1.99-12.5.97-16.19,0-27.97-.01-.18,2.56-2.39,1.64-3.28-.39-.38-2.85.37-3.28-.01-.12-.11-.12-2.56,0-3.29.17-1.03,4.84-3.89-1.65-3.29ZM545.6,590.46c-1.79-1.79-5.07,1.48-3.27,3.27s5.07-1.48,3.27-3.27ZM539.03,842.2c-9.18,19.11-5.46,18.53-24.68,29.62-1.32.76-4.7.22-4.93,3.27,20.69,4.54,21.39,15.3,29.25,30.86,1.89,3.74.34,1.13,2.01.42,1.51-.64,1.95,1.38,3.56-2.26,2.59-5.87,3.25-12.81,7.94-18.33,4.52-5.32,11.85-4.69,13.19-10.67,1.08-.04,2.24.13,3.29,0,2.57-.32,3.83,1.13,3.3-2.45.1-1.73-2.46-.47-3.3-.84-3.48-1.55-15.42-7.3-18.1-6.58-.21-7.56-5.61-14.3-8.23-21.39-.46-1.25.82-8.32-3.28-4.93-.41.34.32,2.61,0,3.29Z"/>
  <path class="st12" d="M724.96,294.28c4.62-.58,4.13-.46,5.76,3.23,5.25,11.94,6.82,27.33,5.63,40.24-.36,3.91-3.39,7.76-3.28,11.71s3.25,5.72,3.36,8.16c.05,1.2-7.98,19.53-9.16,22.06-2.05,4.38-8.49,9.13-8.94,12.59-.17,1.28,1.51,13.21,1.98,13.71.6.64,5.5-1.09,6.17,4.56.36,3.1-2.75,1.73-3.13,3.31-3.29,13.46,5.07,9.51,6.36,13.08.73,2.03.6,8.88-.07,11.07-2.03,6.61-10.05-6.33-14.19,5.56-3.51,10.1,6.73,6.92,7.77,11.32.35,1.51-3.5,6.55-3.31,11.32.04,1.03,5.06,14.54,5.51,15.22.72,1.09,3.38,1.35,4.53,2.81,3.1,3.93,1,9.09,9.82,7.52,1.07,4.88-5.16,3.17-4.96,7.24.2,4.21,6.09,14.11,7.52,20.64.66,3.02.39,11.15.8,11.55.67.67,6.78-1.17,8.01,2.75.23.74-.26,14.73-.61,15.42-1.27,2.55-6.27,3.11-7.2,6-.69,2.14-2.98,19.38-3.23,22.77-.18,2.42,1.9,5.49,1.45,7.95-.23,1.27-7.7,3.1-8.36,10.21-.4,4.36,4.15,1.54,5.88,3.92,3.04,4.2-2.2,11.1-6.81,11.73-5.86.8-13.62-9.19-13.89,2.54-.08,3.51,2.86,2.33,4.95,4.73,2.2,2.52,9.52,11.55,6.59,12.4l-6.58-3.29c-5.73-15.86-23.89-28.76-23.87-46.06,7.85,8.76,18.49,14.36,24.69,24.64,22.1-37.09,22.19-86.63.5-123.88-2.63-4.51-14.17-18.54-14.31-21.62-.08-1.74,1.44-18.2,1.81-19.5,2.05-7.13,8.29-7.75,8-21.76-.23-11.2-10.04-24.7-9.93-27.96.06-1.83,5.42-9.78,6.83-12.84,1.15-2.49,2.42-10.44,2.99-11.01,7.33-7.29,10.77-23.89,11.52-36.2.96-15.66-1.91-23.62-6.58-37.84Z"/>
  <path class="st6" d="M341.58,493.38c-3.65-1.29,3.04-8.48,3.88-9.29,13.63-13.16,36.72-21,55.02-24.78,1.81-.37,13.32-4.33,11.86.32-.33,1.06-10.09,5.55-12.35,7.42-33.81,28.07-67.55,81.87-73.18,125.94-.5,3.91-.14,1.91,1.58,1.55,7.94-1.67,3.32-2.87,6.51-8.27,1.41-2.39,5.09-3.93,6.69-5.68l6.58,6.58c-2.78,2.34-13.06,11.33-14.81,13.16-.63.66-7.46,8.84-8.23,9.87.35-.74-.89-3.32.38-4.57.72-.7,3.2.05,4.12-.8.73-.68.26-2.77,1.01-3.92.66-1,2.64-.47,2.72-.59.93-1.29-1.54-4.92-2.47-4.9-1.13.02-14.78,14.06-10.68,18.06l4.92-3.28c-1.34,1.81-3.21,13.59-9.86,13.16-2.01-46.75,16.07-93.57,46.86-128.36,2.98-3.37,16.76-14.59,17.29-15.63,1.51-2.96-1.36-2.49-3.48-1.83-8.32,2.58-26.44,11.63-34.36,15.84ZM381.89,475.28v1.65c1.07-.55,1.07-1.1,0-1.65Z"/>
  <path class="st6" d="M400.82,679.31c-.58-1.85-3.76-2.87-4.34-3.85-1.51-2.54-.9-7.33-3.87-7.66-.07,4.37.04,8.78-.02,13.16l-1.63.83c-.33,6.6.37,13.28.05,19.87-.1,2.16-1.69,3.68-1.71,3.98-2.66-6.47-2.18-16.91-1.62-23.84.38-4.7,6.61-36.83,8.21-38.69.18-.21,2.09.91,3.44-.99.53-.74,7.05-16.44,6.42-17.1-2-2.11-9.81,8.37-10.62,9.99-1.28,2.54-.57,5.89-.89,6.45-2.74,4.85-7.63,9.14-9.87,13.16l-9.87-4.94c14.25-22.54,33.15-42.44,55.91-56.79-11.03,20.42-21.04,41.77-25.84,64.65-1.15,5.49-3.47,16.78-3.75,21.76Z"/>
  <path class="st6" d="M400.82,684.24c.09,4.16,1.09,19.6,1.65,23.04-12.66-.79-9.99-17.36-9.87-26.33l8.23,3.29Z"/>
  <path class="st10" d="M497.9,399.59l1.65,1.65c-6.79,9.09-12.27,21.44-13.16,32.91l-3.31,9.86c-2.86.22-1.43-3.79-3.12-5.89-4.8-5.97-13.89,1.3-19.89-1.49,9.98-11.37,27.22-21.01,29.61-37.03,2.72.05,5.52-.2,8.23,0Z"/>
  <path class="st10" d="M386.01,402.88c-.8-4.78.02-3.99,3.15-5.85,13.57-8.04,33.02-4.17,47.86-2.37.67,4.57-.58,2.51-2.46,3.28-5.1,2.09-10.13,2.87-15.64,3.29-10.82.83-21.73.49-32.91,1.65Z"/>
  <path class="st10" d="M445.24,348.58c-.98,4.76,2.35,3.01,5.21,3.75,5.99,1.56,25.2,5.48,28.55,9.37.97,1.13,1.7,2.92-.06,3.35-6.51-3.73-12.37-.37-18.14-.26-1.31.03-2.21-1.42-2.4-1.42.94-4.4-2.2-3.25-4.91-4.05-4.51-1.33-22.17-3.43-23.06-4.18-3.06-2.58.99-2.82,2.32-3.43,3.83-1.77,8.46-2.13,12.49-3.14Z"/>
  <path class="st10" d="M545.61,397.94c-4.33-2.67-12.15-4.72-16.45-8.23,2.69-.13,6.15-2,9.77-.73,1.95.68,10.33,5.6,6.69,8.96Z"/>
  <path class="st6" d="M504.48,787.91c-7.23,4.54-7.69-4.09-9.87-8.23,4.52.45,7.49,4.69,9.87,8.23Z"/>
  <path class="st10" d="M522.58,388.07c.18.02,2.39-2.56,3.28-1.64.38.39-.37,2.85.01,3.28l-3.29-1.65Z"/>
  <path class="st10" d="M504.48,388.07c-.43.08-1.84,1.26-3.29,1.65-.16-2.8-.59-3.85,2.45-3.27l.84,1.63Z"/>
  <path class="st5" d="M307.03,560.84c-6.39,38.15-8.16,49.07-1.85,88.23.51,3.16-.44,6.99.14,9.38.26,1.05,4.74,2.94,4.97,2.76,1.06-.81,7.7-18.76,13.18-19.75-1.17,13.86-1.22,27.24.02,41.14.57,6.42,2.02,10.4,2.91,16.08.55,3.45-3.47,5.98,2.01,5.32v1.61c-8.43,1.01-1.16,9.53-1.65,14.82l-4.92-6.57c-4.68-14.18-9.88-27.14-8.24-42.78l-9.01,9.86c-6.66-3.31-19.02-69.98-15.65-80.61l3.27,14.8c-.34-12.11,1.61-24.22,3.31-36.19.22-1.56-.26-3.42,0-4.94.79-.18,1.52-.88,1.65-1.65.85-5.07,4.31-10.33,9.87-11.52Z"/>
  <path class="st2" d="M348.16,745.12l-2.47,6.6c-4.43-9.14-2.05-.15-5.76,1.63-8.37-14.44-12.78-23.36-18.1-39.49l4.92,6.57c.48-5.29-6.78-13.81,1.65-14.82v-1.61c-5.48.65-1.46-1.88-2.01-5.32-.9-5.69-2.34-9.66-2.91-16.08,4.46,9.46,5.03,20.3,8.6,30.07,2.67,7.32,11.91,26.03,16.08,32.46Z"/>
  <path class="st9" d="M356.39,755c-4.78,8.1,3.5,11.19,6.05,15.22.2.31.73,5.61.93,5.83,2.28,2.44,11.37,9.65,12.52,12.89.77,2.18.18,4.88.24,7.19-2.62-.89-2.63-7.43-3.29,0l-1.61-.02c.86-4.57-2.68-1.68-4.16-3.12-9.91-9.62-20.08-27.48-27.12-39.64,3.71-1.78,1.33-10.77,5.76-1.63l2.47-6.6c1.49,2.29,6.06,7.28,8.23,9.87Z"/>
  <path class="st10" d="M295.51,578.94c-1.7,11.97-3.65,24.08-3.31,36.19l-3.27-14.8c-1.23-8.35,3.68-18.4,4.94-24.68l1.65,3.29Z"/>
  <path class="st3" d="M375.31,773.1c1.07.55,1.07,1.1,0,1.65v-1.65Z"/>
  <path class="st10" d="M565.36,170.87l.04,2.27c-7.45.11,2.04,7.14,4.9,7.6-5-.74-3.35,1.85-2.57,5.03,1.24,5.03,4.64,9.95,5.84,13.92,2.36,7.84-9.73-4.95-10.72-5.74-9.73-7.78-28.25-18.88-40.26-21.44-.47-3.71,2.95-3.95,4.97-6.05l-.03-2.18c7.74,1.59,21.35,9.57,25.61,9.83s8.1-2.9,12.24-3.25Z"/>
  <path class="st5" d="M622.95,223.53c20.1,16.57,26.02,67.71,21.4,92.14,4.77.93,2.62-1.41,3.7-3.61,6.37-12.99,10.74-26.83,14.39-40.8-.03,1.89,1.61,9.85,1.65,11.52.03,1.38.3,3.98,0,4.94-1.68-.19-2.71-.17-3.29,1.65-.47,1.46.19,4.08-.77,6.56-3.89,9.93-11.15,19.32-18.97,26.35v-33.73c0-22.98-16.8-53.04-29.62-71.58,2.62,1.51,9.79,5.16,11.52,6.58Z"/>
  <path class="st5" d="M514.35,271.24l-13.16-1.65c-31.3-10.97-61.35-5.18-85.56,14.81-3.24,2.68-11.19,4.72-11.52,11.52-1.9-.06-5.59.82-6.57-.81,24.89-37.39,79.04-45.87,116.82-23.87Z"/>
  <path class="st5" d="M664.08,251.5c.12-1.37-.79-10.16,3.26-6.57.84.75,9.8,17.42,10.7,19.76,9.15,23.72,5.2,56.44-5.74,78.96-.02-.9-3.23-5.41-1.65-8.23,7.82-26.88,9.92-51.91-1.56-78.25-1.16-2.66-2.14-4.58-5.02-5.67Z"/>
  <path class="st5" d="M522.58,220.24l-1.65,3.29c-26.3-14.9-70.43-16.84-92.14,6.58-1.48-.15-4.66.72-3.28-2.45,1.61-3.67,12.46-11.1,16.41-13.21,27.2-14.54,55.18-8.16,80.65,5.79Z"/>
  <path class="st10" d="M507.77,190.62c-.63-.87-3.48-1.3-3.29-3.27,23.73-.37,46.36,14.05,61.73,31.22,7.93,8.86,11.68,17.35,17.25,26.35v1.65c-6.9-5.02-10.73-12.92-16.41-18.96-16.57-17.62-35.57-30.92-59.28-36.98Z"/>
  <path class="st2" d="M527.51,221.88c11.66,7.06,30,27.54,39.57,32.01,2.36,1.11,15.77,3.55,16.39,4.2.49.52-.61,12.51-7.32,6.47-7.79-7.02-18.36-9.27-26.51-14.62-7.88-5.18-15.39-18.87-28.71-26.41l1.65-3.29c1.66.91,4,1.08,4.94,1.65Z"/>
  <path class="st10" d="M721.67,328.83c.74-.62,4.62,2.02,3.31-4.93h1.61c.25,6.01-2.18,9.44,4.95,8.22-.75,12.3-4.18,28.91-11.52,36.2h-6.58c2.41-5.89,6.68-38.19,8.23-39.49Z"/>
  <path class="st5" d="M430.43,312.38l3.29,1.65c-16.72,4.74-24.59,9.23-36.22,22.2-2.73,3.05-4.27,10.41-9.85,10.71,4.27-19.22,25.16-29.82,42.78-34.55Z"/>
  <path class="st10" d="M622.95,223.53c-1.73-1.42-8.9-5.07-11.52-6.58-1.05-.61-2.28-.99-3.29-1.65-.44-.59-.98-1.36-1.65-1.65-7.41-3.2-10.3-9.54-18.1-11.52-.35-1-2.14-2.94-1.65-3.27,15.75.8,26.31,13.98,36.2,24.66Z"/>
  <path class="st5" d="M311.96,529.58l9.86-4.12-14.8,32.1c1.37-8.32,3.19-18.75,4.94-27.97Z"/>
  <path class="st2" d="M664.08,258.08c4.43-.97,3.32,2.21,3.8,5.15,1.35,8.26,2.11,12.54-3.8,19.53-.04-1.67-1.67-9.63-1.65-11.52.08-5.43,1.25-8.89,1.65-13.16Z"/>
  <path class="st1" d="M514.35,271.24l14.81,6.58c1.4,2.62,3.78,4.84,3.27,8.23-4.14-3.06-9.07-5.1-13.15-8.23-.24-.77-.86-1.48-1.65-1.65-.5-.11-1.1.05-1.65,0-4.32-2.21-10.34-5.02-14.81-6.58l13.16,1.65Z"/>
  <path class="st5" d="M596.62,266.31h-3.29c-3.07-6.11-9.29-12.73-9.87-19.75v-1.65c4.57,7.39,8.9,12.22,13.16,21.39Z"/>
  <path class="st2" d="M672.31,343.64c.03,1.31-1.07,5.19-1.65,6.58-1.29,3.11-5.88,9.53-9.84,9.07,3.66-7.82,7.41-15.56,9.84-23.88-1.59,2.82,1.62,7.32,1.65,8.23Z"/>
  <path class="st1" d="M596.62,266.31c1.39,2.99,3.97,7.17,4.94,9.87.73,2.04,4.07,9.15.02,9.86-2.58-6.18-5.3-13.87-8.25-19.73h3.29Z"/>
  <path class="st2" d="M450.18,309.09c1.17.05,5.1-.51,2.45,1.64-6.29.99-12.77,1.56-18.9,3.3l-3.29-1.65c8.12-2.18,10.28-3.67,19.75-3.29Z"/>
  <path class="st5" d="M358.04,582.23c1.5-1.39,1.95-7.19,5.74-6.6,2.32-.05-.74,8.68-4.1,6.6h-1.65Z"/>
  <path class="st10" d="M721.67,323.9c-1.46-6.02-.04-4.23,0-6.58,2.46.53,2.56,5.9,0,6.58Z"/>
  <path class="st10" d="M718.38,304.15c4.83-1.04,3.2,2.43,3.29,6.58-2.66-1.57-2.66-4.01-3.29-6.58Z"/>
  <path class="st13" d="M507.77,190.62c23.7,6.06,42.71,19.36,59.28,36.98,5.68,6.04,9.51,13.94,16.41,18.96.58,7.02,6.8,13.63,9.87,19.75,2.94,5.87,5.67,13.55,8.25,19.73,4.05-.71.71-7.82-.02-9.86,1.9-25.84-4.78-49.98-13.16-74.04,7.8,1.98,10.69,8.32,18.1,11.52.51.57,1,1.23,1.65,1.65,1.01.66,2.24,1.04,3.29,1.65,12.81,18.54,29.62,48.6,29.62,71.58v33.73c7.82-7.04,15.09-16.42,18.97-26.35.97-2.47.31-5.1.77-6.56,1.69.16,2.7.2,3.29-1.65.3-.95.03-3.56,0-4.94,5.91-6.99,5.15-11.28,3.8-19.53-.48-2.94.63-6.12-3.8-5.15.2-2.16-.19-4.42,0-6.58,2.88,1.09,3.87,3.01,5.02,5.67,11.48,26.34,9.38,51.36,1.56,78.25-2.42,8.32-6.18,16.06-9.84,23.88,3.96.46,8.55-5.96,9.84-9.07,9.74-8.87,19.39-17.9,27.97-27.97,3.23,16.44-4.55,33.44-9.82,48.6-1.05,3.03-3.73,4.57,1.6,4.06-6.08,10.35-25.87,35.49-35.74,41.11-8.36,4.77-7.55-1.36-10.9-6.07-.51-.72-2.65-.35-2.73-.49-4.78-8.21-3.58-3.93-6.3-6.85-1.39-1.5.12-15.15-5.21-16.18l-2.46,6.57c-9.38-6.84-9.64-17.27-13.69-25.81-7.15-15.06-14.6-30.6-27.48-41.61l8.26,24.62c-3.59-5.81-36.51-29.83-40.32-26.29-.92.85,2.1,5.67-2.49,4.97-3.39-.52-20-10.2-25.51-12.35-7.89-3.07-16.44-5.36-24.65-7.42,1.22,2.43,13.79,14.37,11.51,16.43-10.28-3.26-52.69-4.92-59.22,1.68-3.65,3.69,8.95,3.35,6.57,8.2l-73.23,16.43c-.74-1.19.49-3.31.84-4.9,5.58-.31,7.11-7.66,9.85-10.71,11.63-12.96,19.5-17.46,36.22-22.2,6.13-1.74,12.61-2.31,18.9-3.3,2.65-2.14-1.27-1.59-2.45-1.64,2.93-3.68.46-3.57-2.38-5.03-15.35-7.89-27.2-7.57-43.7-8.13.33-6.8,8.28-8.84,11.52-11.52l39.48-3.31-14.79-5.73c3.31-4.55,11.7-5.28,17.29-5.74,23.65-1.95,37.17,4.68,58.39,6.56.55.05,1.15-.11,1.65,0,.52.57,1.03,1.18,1.65,1.65,4.08,3.12,9,5.17,13.15,8.23.5-3.38-1.88-5.61-3.27-8.23-20.92-39.22-61.27-43.77-100.37-47.72,21.71-23.42,65.85-21.48,92.14-6.58,13.32,7.54,20.83,21.23,28.71,26.41,8.15,5.36,18.72,7.61,26.51,14.62,6.71,6.04,7.81-5.95,7.32-6.47-.62-.65-14.02-3.09-16.39-4.2-9.57-4.48-27.91-24.96-39.57-32.01-6.1-10.62-12.58-21.34-19.75-31.26Z"/>
  <path class="st2" d="M501.19,269.6c4.47,1.57,10.49,4.37,14.81,6.58-21.21-1.88-34.74-8.5-58.39-6.56-5.59.46-13.98,1.2-17.29,5.74l14.79,5.73-39.48,3.31c24.21-19.99,54.26-25.77,85.56-14.81Z"/>
  <path class="st2" d="M664.08,287.7c-.59,1.85-1.6,1.8-3.29,1.65.58-1.81,1.61-1.83,3.29-1.65Z"/>
  <path class="st2" d="M519.29,277.83c-.61-.47-1.12-1.08-1.65-1.65.78.17,1.4.88,1.65,1.65Z"/>
  <path class="st5" d="M608.14,215.3c-.65-.42-1.14-1.08-1.65-1.65.66.29,1.2,1.06,1.65,1.65Z"/>
  <path class="st4" d="M647.63,733.61c4.2,22.3-5.52,46.74-21.37,62.53-.47-10.1-7.08-22.52-13.46-30.16-5.34-6.39-13.35-9.92-17.86-15.04-1.26-1.43-2.12-1.84-1.6-4.14,10.59-1.9,16.82-11.06,25.32-16.4,4.43.93,8.56,14.21,10.74,17.02,5.81,7.46,8.1-11.14,6.71-15.45.56.2,9.81,1.48,11.52,1.65Z"/>
  <path class="st2" d="M542.33,682.61c11.5,5.16,14.44,10.39,28.69,8.11,40.67-6.51,19.5-74.75,20.66-101.11.09-2-1.25-6.12,1.63-5.73.39,31.77,26.51,80.86-2.46,106.93-15.03,13.53-40,10.94-48.52-8.21Z"/>
  <path class="st2" d="M484.73,486.79c6.82-.75,18.38,8.9,18.11-3.29,8.6,3.87,15.36,9.86,25.94,11.11,7.76.91,14.26-2.55,21.77-.42-10.24,7.16-38.25,21.83-49.33,13.15-5.24-4.11-2.63-9.94-3.32-10.67-2.12-2.27-18.63,2.53-21.83,4.88-1.53,1.13-4.04,8.29-6.14,4.99,1.77-7.73,5.18-18.69,14.81-19.75Z"/>
  <path class="st12" d="M511.88,419.33c1.07.55,1.07,1.1,0,1.65v-1.65Z"/>
  <path class="st10" d="M295.51,574c.13-.78.86-1.45,1.65-1.65-.13.76-.86,1.47-1.65,1.65Z"/>
  <path class="st8" d="M545.61,432.5c-1.09.55-4.95,10.14-5.05,12.37-.54,11.41,12.76,19,20.6,10.58,2.33-2.5,3.28-10.77,6.65-9.8.64.18,3.55,5.36,3.74,6.21,1.4,6.04-.94,8.29-5.38,11.89-26.2,21.23-63.09-13.61-38.66-36.19l18.1,4.94Z"/>
  <path class="st10" d="M527.51,427.56c4.26-3.94,3.57-6.55,11.99-4.61,2.7.62,14.33,8.04,10.2,9.56-1.08.4-3.25-.43-4.09,0l-18.1-4.94Z"/>
  <path class="st5" d="M560.41,450.59c-11.96,3.97-12.03-11.82-3.26-7.42,2.66,1.34,3.71,4.56,3.26,7.42Z"/>
  <path class="st4" d="M497.9,399.59c1.09.08,2.2-.07,3.29.02.28,1.84-1.57,1.54-1.64,1.63l-1.65-1.65Z"/>
  <path class="st2" d="M649.29,661.21c20.82,7.43,15.09-22.5,13.97-34.57-.16-1.72-2.43-5.25.8-4.91,4.64,12.15,11.07,20.61,7.47,34.59-3.35,13.01-16.47,20.4-22.25,4.89Z"/>
  <path class="st3" d="M701.93,437.43c1.04,9.97-.89,18.5-3.29,27.97-5.73-1.06-8.28,6.9-14.81,4.94-1.52-1.59-5.21-5.42-6.58-6.58-.88-3.82,4.46-5.67,4.94-6.58,5.01,2.1,7.39,1.82,9.87-3.29,1.04-2.13-.03-1.16,0-1.65.14-2.19.39-6.36,0-8.23,2.2-6,7.92-5.34,9.87-6.58Z"/>
  <path class="st5" d="M367.1,570.74c1.66,1.47-2.48,4.18-2.45,2.45l2.45-2.45Z"/>
  <path class="st11" d="M647.63,453.89c21.2,0,44.8,35.45,52.65,52.65-5.08,7.06,5.69,13.69,3.27,21.39-5.41-4.85-7.44-13.73-9.86-19.74,5.28,3,2.22.18,1.33-2.15-1.28-3.35-3.81-11.79-6.3-13.62-1.05-.77-1.52.98-1.61.96-2.88-.49-4,.58-7.47-1.56-5.51-3.38-13.95-15.48-17.24-21.47-1.39-.56-3.17,2.85-3.26,3.28-8.65-7.18-20.75-10.17-29.62-1.65-.41-4.4,1.73-5.76,1.65-9.87,5.64-4.25,6.95-8.22,16.45-8.23Z"/>
  <path class="st12" d="M659.15,473.63c-1.75,7.96,1.35,11.73-11.51,11.51,4.54-9.96-2.49-12.59-6.59-3.28-5.66,1.42-7.64-2.71-11.52-4.94-.1-1.63.15-3.32,0-4.94,8.86-8.53,20.97-5.53,29.62,1.65Z"/>
  <path class="st10" d="M693.7,508.18c-1.07-2.68-1.3-4.08-3.29-6.58-.48-.61-1.08-1.12-1.65-1.65-.81-1.98-.93-4.51-1.65-6.58.09.02.56-1.74,1.61-.96,2.49,1.83,5.02,10.27,6.3,13.62.89,2.33,3.95,5.15-1.33,2.15Z"/>
  <path class="st11" d="M690.41,501.6c-.6-.43-1.37-.97-1.65-1.65.57.52,1.16,1.04,1.65,1.65Z"/>
  <path class="st8" d="M696.99,703.99c7.32,4.16-2.45,40.26-4.96,42.78-2.8,2.82-2.77-.51-3.22-2.48-1.64-7.18-3.7-13.85-6.63-20.56,3.06-2.28,13.19-16.09,14.81-19.75Z"/>
  <path class="st10" d="M726.6,307.45c1.79,1.79-1.48,5.07-3.27,3.27s1.48-5.07,3.27-3.27Z"/>
  <path class="st6" d="M389.3,710.57c6.93-.68,1.69,4.48,1.65,4.94-.77-1.54-1.48-3.2-1.65-4.94Z"/>
  <path class="st1" d="M631.18,462.11c.08,4.11-2.05,5.47-1.65,9.87.15,1.62-.1,3.31,0,4.94-4.47-2.56-10.97-1.41-4.94-11.52,1.82-3.05,5.43-2.43,6.58-3.29Z"/>
  <path class="st11" d="M632.82,536.14c-13.2,2.09-31.87,9.44-42.87-2.36-15.27-16.38,15.88-4.57,22.34-4.21,7.84.43,20.67-5.46,20.53,6.57Z"/>
  <path class="st3" d="M688.76,439.08c-7.94,1.96-3.19,1.73-4.94,3.29-.21.19-2.36-.02-3.29,0-3.32.06-9.42-.64-8.23-4.94,4.95-4.38,9.46-10.66,16.45-13.16-1.18,7.51,10.75,12.15,0,14.81Z"/>
  <path class="st5" d="M394.23,641.46c.32-.56-.39-3.91.89-6.45.82-1.63,8.62-12.1,10.62-9.99.63.66-5.89,16.36-6.42,17.1-1.35,1.9-3.27.79-3.44.99l-1.65-1.65Z"/>
  <path class="st1" d="M688.76,439.08c.66,1.53,3.01,3.59,3.29,4.94.39,1.87.14,6.04,0,8.23v1.65c-2.48,5.11-4.86,5.39-9.87,3.29.66-1.27.7-7.23,1.65-8.23.46-.48,2.85,1.57,3.37-2.38.5-3.78.3-4.82-3.37-4.2,1.75-1.57-3-1.33,4.94-3.29Z"/>
  <path class="st10" d="M683.83,442.37c3.68-.62,3.87.42,3.37,4.2-.52,3.94-2.91,1.9-3.37,2.38l-3.29-6.58c.93-.02,3.08.19,3.29,0Z"/>
  <path class="st10" d="M333.35,600.33c-.08.11-2.07-.41-2.72.59-.75,1.14-.27,3.24-1.01,3.92-.92.85-3.4.1-4.12.8-1.27,1.25-.03,3.83-.38,4.57l-4.92,3.28c-4.1-4,9.54-18.04,10.68-18.06.93-.02,3.4,3.62,2.47,4.9Z"/>
  <path class="st12" d="M381.89,475.28c1.07.55,1.07,1.1,0,1.65v-1.65Z"/>
  <path class="st12" d="M692.06,453.89v-1.65c-.03.49,1.04-.49,0,1.65Z"/>
</svg>