<?xml version="1.0" encoding="UTF-8"?>
<svg id="Camada_1" xmlns="http://www.w3.org/2000/svg" version="1.1" viewBox="0 0 1080 1080">
  <!-- Generator: Adobe Illustrator 29.8.7, SVG Export Plug-In . SVG Version: 2.1.1 Build 1)  -->
  <defs>
    <style>
      .st0 {
        fill: #023710;
      }

      .st1 {
        fill: #f2ba08;
      }

      .st2 {
        fill: #bb8306;
      }

      .st3 {
        fill: #091b05;
      }

      .st4 {
        fill: #f9f8f5;
      }

      .st5 {
        fill: #bdb383;
      }

      .st6 {
        fill: #ebe8d4;
      }

      .st7 {
        fill: #193432;
      }

      .st8 {
        fill: #f2f0e7;
      }

      .st9 {
        fill: #1aa634;
      }

      .st10 {
        fill: #d6cdbd;
      }

      .st11 {
        fill: #f5ca07;
      }

      .st12 {
        fill: #081b11;
      }

      .st13 {
        fill: #0c1f0c;
      }
    </style>
  </defs>
  <path class="st6" d="M524.16,141.44c2.47-1.57,3.34-3.33,7.48-5.19,3.84-1.72,9.36-3.85,13.41-3.17,91.31,43.8,186.7,81.38,287.14,98.83,9.21,1.6,24.18.78,31.64,4.11,12.4,5.53,9.08,35.82,10.43,47.67,20.96,183.14,13.66,378.72-119.16,519.98-12.62,13.42-36.74,37.82-52.18,45.4-8.8,4.32-22.34,15.94-31.47,22.91-2.03,1.55-4.49,1.99-4.29,5.4-.4.2-1.12-.21-1.49,0-20.77,11.84-40.31,26.17-61.24,37.83-13.44,7.49-42.01,23.81-55.37,28.05-3.49,1.11-5.36,1.52-9.12,1.07-6.53-.79-29.32-13.2-36.68-17-36.39-18.8-76.49-44.32-109.68-68.36-9.66-7-16.94-15.02-27.35-21.8-1.33-3.61-9.62-10.66-13.5-14.1-4.15-3.68-10.79-7.89-14.81-11.23-11.27-14.96-26.15-27.32-36.37-43.33l-6.84-4.34c-104.5-134.15-107.6-314.86-89.38-477.46,1.24-11.08,3.34-34.46,6.63-44.02.5-1.47,1.2-2.57,2.35-3.61,5.07-4.55,37.11-6.92,46.41-8.71,61.05-11.8,123.8-30.81,181.43-53.95,27.49-11.04,53.97-25.95,81.98-34.96-22.98,14.65-54.56,27.64-80.46,37.97-64.48,25.72-132.05,45.25-200.57,57.16-25.63,4.45-26.91-5.01-31.63,24.98-8.89,56.53-15.22,141.34-12.17,198.01.19,3.49,1.17,17.03,1.8,19.05s2.18,2.89,4.21,2.48c.89-4.04-3.14-12.11,4.48-10.42,3.45,70.13,22.07,154.53,52.35,218.04,54.04,113.3,169.42,194.08,280.61,245.17,105.71-48.85,210.21-122.07,266.18-226.82,34.67-64.89,52.69-139.4,59.33-212.55,3.91,1.28,4.13-6.45,4.28-8.38.98-12.63,1.82-24.52,3.14-37.09.33-3.12-.82-18.14.78-18.61,3.46-.99,2.14,3.2,2.22,5.21.76,18.85-1.87,37.98-2.8,56.74l2.79,2.11c-.02-26.1,3.1-52.16,3.06-78.28-.07-42.5-4.11-85.68-8.99-128.07-1.41-12.29-1.29-26.7-3.08-38.63-1.05-6.98-6.76-9.41-12.96-10.88-19.72-4.68-42.96-6.35-63.53-10.96-64.81-14.52-135.42-39.09-196.04-66.16-18.77-8.38-37.26-21.13-56.99-25.79-5.26,2.97-10.6,3.95-16.03,5.7ZM205.34,484.1h-2.96v4.45h2.96v-4.45ZM203.12,491.54v1.49c.97-.5.97-.99,0-1.49Z"/>
  <path class="st10" d="M294.74,764.16l6.84,4.34c10.22,16.02,25.1,28.38,36.37,43.33,4.01,3.33,10.65,7.55,14.81,11.23,3.88,3.44,12.17,10.49,13.5,14.1,10.42,6.78,17.69,14.8,27.35,21.8,33.19,24.04,73.28,49.55,109.68,68.36,7.36,3.8,30.16,16.21,36.68,17,3.77.46,5.63.04,9.12-1.07,13.36-4.23,41.93-20.56,55.37-28.05,20.93-11.66,40.47-25.99,61.24-37.83l-6.83,7.29c-31.62,17.58-65.23,42.97-99.42,57.03-16.78,6.9-17.88,7.34-34.79,0-24.52-10.63-55.99-30.21-79.07-44.5-12.99-8.05-76.39-52.08-79.32-60.05-10.97-7.15-20.91-15.5-28.31-25.33-16.54-13.74-29.66-30.29-43.2-47.67Z"/>
  <path class="st10" d="M702.93,849.08l-9.63,10.48c-9.57,4.69-16.46,13.02-26.12,17.83-.21-3.41,2.26-3.85,4.29-5.4,9.13-6.97,22.67-18.59,31.47-22.91Z"/>
  <path class="st13" d="M862.33,294.89l1.49,2.98c-.24,3.52-.33,8.46,0,11.92.24,2.52,1.05,5.65,2.98,7.45.79,23.88,2.49,47.57,2.98,71.51v1.49c.49,25.34.73,52.18,0,77.47v1.49c-.21,5.87-1.12,10.79-1.49,16.39v1.49c-.19,2.45.22,5,0,7.45-6.65,73.15-24.66,147.65-59.33,212.55-55.96,104.75-160.47,177.98-266.18,226.82-111.19-51.09-226.57-131.86-280.61-245.17-30.29-63.5-48.9-147.91-52.35-218.04-1.53-30.98,1.25-64.8,2.96-96.1,2.29-42.02,5.73-84.09,12.08-125.71,110.72-12.32,215.96-52.88,315.31-101.18,7.05-1.38,29.04,12.19,37.09,15.89,79.71,36.63,179.49,74.39,266.42,83.67,5.46.58,14.5.71,15.62,6.72,2.3,12.31,2.19,28.24,3.02,40.93ZM254.51,621.14c2.31,11.65,6.86,23.21,11.22,34.22,14.08,35.52,33.2,71.43,58.8,99.86,27.33,39.43,79.19,79.33,119.18,105.77,31.27,20.67,63.66,39.24,97.82,54.79,38.08-16.25,75.8-37.31,109.72-61.02,69.23-48.41,123.33-107.03,157.71-184.94,4.51-10.22,11.9-26,13.15-36.76,9.33-23.78,15.63-49.09,20.39-74.21,5.61-29.65,10.84-65.54,10.9-95.62.54-49.54.34-98.92-4.48-148.22-.63-6.46-5.14-49.26-7.34-50.76-85.94-12.77-170.6-40.07-249.89-74.88-11.92-5.23-34.75-19.21-45.14-21.93-2.16-.57-4.12-1.19-6.36-.4-76.2,36.34-156.99,68.15-239.75,86.6-19.91,4.44-40.09,7.45-60.08,11.42-1.06,2.17-1.66,4.49-2.07,6.87-13.92,80.39-16.25,192.03-2.88,272.23,4.34,26.04,10.23,52.16,19.12,76.97Z"/>
  <path class="st8" d="M524.16,141.44c5.42-1.75,10.76-2.73,16.03-5.7,19.74,4.65,38.22,17.4,56.99,25.79,60.62,27.07,131.23,51.64,196.04,66.16,20.56,4.61,43.81,6.28,63.53,10.96,6.19,1.47,11.91,3.9,12.96,10.88,1.79,11.93,1.67,26.33,3.08,38.63,4.87,42.39,8.91,85.57,8.99,128.07.05,26.11-3.07,52.18-3.06,78.28l-2.79-2.11c.93-18.76,3.56-37.89,2.8-56.74-.08-2,1.24-6.2-2.22-5.21-1.6.46-.46,15.49-.78,18.61-1.32,12.56-2.17,24.46-3.14,37.09-.15,1.92-.37,9.66-4.28,8.38.22-2.45-.19-4.99,0-7.45.06-.81-.01-1.28,0-1.49.37-5.6,1.28-10.51,1.49-16.39.02-.58-.01-1.04,0-1.49.73-25.29.49-52.13,0-77.47,0-.47.01-.96,0-1.49-.49-23.93-2.19-47.62-2.98-71.51-.13-3.99,1.6-8.58-2.98-7.45-.33-3.46-.24-8.4,0-11.92.01-.17,2.08-1.41,1.48-2.97h-2.97c-.83-12.69-.72-28.63-3.02-40.94-1.12-6.02-10.17-6.14-15.62-6.72-86.93-9.28-186.71-47.04-266.42-83.67-8.05-3.7-30.04-17.27-37.09-15.89-99.34,48.3-204.59,88.86-315.31,101.18-6.35,41.62-9.79,83.69-12.08,125.71-1.71,31.3-4.49,65.13-2.96,96.1-7.62-1.68-3.59,6.38-4.48,10.42-2.03.41-3.6-.52-4.21-2.48s-1.62-15.57-1.8-19.05c-3.05-56.67,3.28-141.48,12.17-198.01,4.72-29.99,6-20.53,31.63-24.98,68.52-11.91,136.08-31.44,200.57-57.16,25.91-10.33,57.48-23.33,80.46-37.97Z"/>
  <rect class="st8" x="202.38" y="484.1" width="2.96" height="4.45"/>
  <path class="st8" d="M203.12,491.54c.97.5.97.99,0,1.49v-1.49Z"/>
  <path class="st11" d="M363.27,241.26c0,9.31-16.72,10.89-14.9,20.86-7.32,2.03-14.57,5.12-22.04,7.01-22.08,5.6-44.85,9.36-66.67,15.27-2.71,25.03-6.41,50.18-8.12,75.31-1.52,22.38-2.87,46.15-3.07,68.44-.16,18.94-.65,75.15,3.08,90.67,7.51,31.23,13.26,66.57,23.41,99,16.75,53.52,38.83,92.32,73.39,135.92,22.22,28.02,48.12,52.27,77.47,74.49-2.03,1.45-.05,12.37.37,13.07.4.67,2.63.83,3.23,1.88,1.18,2.08.68,4.37,2.39,6.62,2.9,3.8,13.05,5.47,11.89,11.2-39.99-26.44-91.85-66.34-119.18-105.77-29.54-42.62-50.41-83.12-66.27-132.61-.75-2.35-.92-4.96-3.75-5.94-20.19-93.14-27.39-162.21-20.84-258.46,1.99-29.25,6.49-58.5,9.13-87.71l2.31-2.16c39.91-6.8,79.37-15.72,118.16-27.1Z"/>
  <path class="st1" d="M831.05,497.5c.4-.97,2.73-.92,3.09-3.69,1.04-7.94-.42-30.66,2.15-36.5,2.07-4.7,11.57-7.32,14.12-1.52-1.53,37.36-6.17,81.27-14.1,117.74-4.45,20.46-11.85,39.16-14.21,59.54-1.24,10.76-8.64,26.54-13.15,36.76-34.38,77.9-88.48,136.53-157.71,184.94-33.92,23.72-71.64,44.78-109.72,61.02-34.16-15.54-66.56-34.12-97.82-54.79,1.17-5.73-8.99-7.41-11.89-11.2-1.72-2.25-1.21-4.54-2.39-6.62-.6-1.06-2.83-1.22-3.23-1.88-.42-.71-2.4-11.63-.37-13.07,28.51,21.58,60.48,41.12,92.33,57.39,4.3,2.19,20.01,10.93,23.24,11.13,4.81.3,49.2-23.71,56.75-28.04,135.97-77.81,203.08-178.25,228.42-332.47,2.37-14.43,6.29-21.85,4.47-37.24-.05-.43-.11-1.23,0-1.49Z"/>
  <path class="st10" d="M853.39,463.23c.03-16.19-1.25-34.51-1.46-51.42-.03-2.52.95-6.62-1.52-8.17-.31-13.63-2.51-27.22-1.51-40.95-3.23-31.38-4.7-62.89-10.32-93.96-64.62-10.74-128.18-28-189.29-51.31-13.23-5.05-26.72-10.53-39.74-16.13-22.89-9.83-45.19-21.63-68.05-31.16-57.17,28.79-116.71,53.07-178.24,71.12-38.78,11.37-78.24,20.3-118.16,27.1l-2.31,2.16c-2.64,29.21-7.14,58.45-9.13,87.71-6.55,96.24.65,165.31,20.84,258.46.74,3.44-.05,4.23,0,4.47-8.89-24.81-14.78-50.93-19.12-76.97-13.37-80.2-11.04-191.84,2.88-272.23.41-2.38,1.01-4.69,2.07-6.87,20-3.97,40.18-6.99,60.08-11.42,82.75-18.45,163.55-50.26,239.75-86.6,2.24-.79,4.2-.17,6.36.4,10.4,2.72,33.22,16.7,45.14,21.93,79.28,34.81,163.95,62.11,249.89,74.88,2.2,1.5,6.71,44.3,7.34,50.76,4.82,49.3,5.03,98.67,4.48,148.22Z"/>
  <path class="st5" d="M853.39,463.23c-.06,30.07-5.29,65.97-10.9,95.62-4.75,25.13-11.05,50.44-20.39,74.21,2.36-20.37,9.76-39.08,14.21-59.54,7.93-36.48,12.56-80.38,14.1-117.74.69-16.79.38-35.28,0-52.14,2.47,1.55,1.48,5.65,1.52,8.17.21,16.91,1.5,35.23,1.46,51.42Z"/>
  <path class="st5" d="M324.53,755.22c-25.6-28.43-44.72-64.34-58.8-99.86-4.36-11.01-8.91-22.56-11.22-34.22-.05-.24.74-1.03,0-4.47,2.83.98,3,3.59,3.75,5.94,15.86,49.49,36.73,90,66.27,132.61Z"/>
  <path class="st10" d="M863.82,309.79c4.58-1.13,2.85,3.46,2.98,7.45-1.93-1.79-2.74-4.93-2.98-7.45Z"/>
  <path class="st10" d="M862.33,294.89h2.97c.6,1.57-1.47,2.81-1.48,2.98l-1.49-2.98Z"/>
  <path class="st5" d="M869.78,390.23v-1.49c.01.53,0,1.02,0,1.49Z"/>
  <path class="st5" d="M868.29,487.07v-1.49c-.01.21.06.68,0,1.49Z"/>
  <path class="st5" d="M869.78,469.19v-1.49c-.01.45.02.91,0,1.49Z"/>
  <path class="st3" d="M647.81,235.3c8.44,6.06,32.74,10.78,43.26,14.1,43.5,13.73,87.18,26.77,132.46,33.65.63,13.19,3.31,26.3,4.54,39.42,1.89,20.24,3.68,43.07,4.48,63.31.04.97-.06,3.8,0,5.96.65,21.94-1.48,45.42,0,67.04-1.94.72-1.44,2.83-1.49,4.47-.22,6.57-.44,14.37,0,20.86-.77,1.37-1.37,2.88-1.49,4.47-.22,2.92,0,6,0,8.94v4.47c-2.63,9.57-2.68,22.46-4.47,32.77-10.5,60.58-29.44,123.54-61.37,176.25-49.92,82.42-135.91,142.24-221.78,182.05-20.16-9.44-40.59-19.39-59.76-30.75-13.03-7.72-30.89-19.78-44.89-29.88-32.39-23.35-62.33-49.27-88.92-78.68-34.56-43.6-56.65-82.4-73.39-135.92-10.15-32.42-15.89-67.77-23.41-99-3.73-15.52-3.25-71.73-3.08-90.67.19-22.29,1.55-46.06,3.07-68.44,1.71-25.13,5.4-50.28,8.12-75.31,21.82-5.9,44.59-9.67,66.67-15.27,7.46-1.89,14.72-4.98,22.04-7.01,66.5-18.48,130.49-42.46,193.11-71.46,6.38-.41,27.75,11.86,35.31,15.11,23.54,10.13,47.56,19.24,71.02,29.54ZM418.39,268.07c1.27-1.98,3.38-3.39,2.97-5.95-5.2-1.55-4.76,3.14-6.98,4.54-3.33,2.1-9.66.74-10.69,1.63-1.25,1.07-.71,9.56-9.14,7.23,1.39-1.86,2.49-3.93,3.92-5.84.98-1.3,9.04-7.16-.08-5.99-14.05,1.8-33.39,12.7-46.65,15.94-3.14.77-6.69-.09-9.69.73-22.48,6.13-44.92,12.72-68.12,16.05-.4,9.95-2.79,19.86-3.8,29.71-11.98,117.89-7.87,266.42,56.17,369.96,4.05,6.55,8.38,14.64,14.62,18.9v-21.6c0-8.2,24.65-15.38,30.84-18.32,5.38-2.56,10.98-8.72,18.32-9.24.48,4.65,1.47,10.56,1.49,14.9,0,1.36-1.5,6.39-1.49,10.43.03,8.91-.22,17.91,0,26.82-2.12-2.12-8.64.34-8.93,0-2.3-2.72,2.88-16.42-10.44-16.39,6.6-5.28,10.93-2.56,8.93-13.4-1.13-1.22-21.33,7.04-23.18,8.84-5.28,5.14-.55,13.43-.65,17.97-.14,6.27-4.03,14.73-.08,21.68,1.21,2.14,4.91,3.72,6.04,5.14,10.48,13.15,35.84,41.66,49.84,50.72,1.83,1.18,2.96,1.84,5.28,1.41,1.84-6.71-1.85-10.12-3.46-15.15-.9-2.8-.65-5.84-1.85-8.58-4.02-9.21-20.83-17.03-27.55-24.59-.93-1.04-7.1-10.1-7.25-10.73-.46-1.95,3.04-3.75,4.03-6.14,1.85-4.46-2.62-6.19,6.28-3.34l2.99-4.48c.13,5.04-1.2,13.3,1.38,17.24l30.66,27.44c1.28,6.19.87,13.06.73,19.38-.13,5.7-1.53,10.63-1.19,16.09,12.55,8.87,24.64,18.81,37.35,27.45,11.1,7.55,22.32,13.55,33.43,20.21,5,3,18.41,14.2,23.45,13.8,3.67-.3,4.43-5.07,8.26-4.54-2.64,5.46-.67,10.17,5.25,11.89,3.39.99,1.9-1.35,1.63-3.11-.87-5.5-5.69-13.27-9.8-17.03-6.61-6.05-30.13-11.36-29.83-20.85.1-3.16,6.33-5.44,4.52-11.87-.46-1.65-4.13-.36-4.54-.75-.34-.32.66-4-.3-5.62-.65-1.09-5.74-2.41-7.14-4.08-4.77-5.73,1.49-36.41-2.28-45.39-1.8-4.29-27.93-22.31-33.49-29.83l.78-1.5,6.66,2.99c-.57-2.12,1.38-4.54,1.5-5.96,4.06-1.26,4.83,2.47,7.45,4.47.07.05-.16,1.51.74,1.46.91-.25.62-.84.74-1.46.39-1.92.4-19.75,0-20.86,2.77-.53,1.95-5.05,4.96-4.32,2.53.61,21.85,14.97,23.33,13.25-1.22-5.82,1.57-11.72,1.55-17.05-.05-12.51-19.57-16.35-17.92-29.11,9.17,3.9,16.12,11.26,26.16,13.3-.22,3.88,1.81,9.02,2.14,12.02.8,7.33-3.67,16.2,5.96,16.39-.52.75.36,5.75,0,7.45-2.9-.88-3.67-1.85-5.96,0-2.01,1.62.15.92,0,1.49-.21.8.12,2.02,0,2.98-.01.1-1.42.4-1.49,1.49-.47,6.97,1.19,16.85-.02,23.07-.7,3.58-4.28,4.21-4.6,8.94-.4,6.07,4.01,8.06,4.69,13.36.82,6.38-1.52,40.98-.06,42.52,1.62-.1,8.28-1.1,8.76-1.65,1.18-1.38-.38-30.77.2-36.31.88-8.5,6.9-12.22,4.05-18.97-1.04-2.45-3.48-3.49-4.05-6.4-1.59-8.12,1.11-20.36-.02-29.03.61.33,2.85-.92,3.06.87l.03,22.91c1.34.5,3.29-.26,4.36.06.7.21,1.56,1.36,2.98,1.49l-2.98,10.42c3.9.3,8.06-.39,11.92,0,.05,2.56,1.46,4.07,1.49,4.47.5,6.27-1.12,15.34,0,20.86.13.62-.16,1.21.74,1.46.91.05.68-1.4.74-1.46,1.94-1.77,4.95-6.61,8.05-5.85.67.16,4.39,5.45,6.85,7.34.07.05-.29.95.74,1.48l.77-.78c.68-1.38-1.5-2.01-1.52-2.19-.23-2.17-.16-5.23,0-7.45.02-.31,1.22-3.18,1.49-5.96.09-.98-.1-2,0-2.98.37-3.7,2.72-2.34,0-8.94-.31-.75.93-2.58-.96-3.04s-5.59.11-7.98.06l-1.49-7.45c4.58-.03,19.67,1.13,21.68-1.47,1.01-1.31.32-3.35.67-4.49.93-3.07,1.73-3.29,1.49-7.45-.14-2.51-1.6-9.44-3.92-10.24-7.76-2.67-28.45,1.58-37.8-.19-1.1-4.15-2.03,1.04-1.49-8.94,12.93,2.5,25.68,3.05,38.73,1.49,4.05-.48,8.02-1.85,11.92-2.98,1.2-.35,3.57.4,4.47,0-.72,1.73-.72,4.46-1.49,5.96-6.08,11.9-.8,18.99-3.01,30.51-.76,3.97-4.09,4.49-5.16,6.75-3.51,7.44,2.7,10.07,3.63,15.7,1.76,10.76-2.25,29.03.01,38.41.37,1.53,5.86,2.67,7.51,3.98v-43.95c0-3.29,8.98-5.7,4.94-15.34-.71-1.69-3.15-1.6-3.42-2.83-.93-4.21-.45-19.24-.03-24.29.01-.17,1.09-.47,1.49-2.98.14-.88,0-2.02,0-2.98v-2.98c2.32.29,5.03,2.39,7.46.85,2.09-1.32,2.11-5.66,3.29-6.49.96-.68,7.05-1.59,10.58-3.57,5.86-3.29,9.57-9.33,14.42-13.13,5.3-4.15,20.37-10.25,20.86-17.88h1.49c15.56-5.98,5.52-30.05,10.41-43.2l-5.94,2.98c.78-7.67-1.12-8.68-7.45-11.92,15.87-15.17,25.81-30.45,31.28-52.14,2.23,8.42,1.07,17.55-.02,26.04-.02,1.3,3.04,1.04,3.75.81,2.77-.89,8.53-24.45,10.53-28.23.62-1.16,18.03-17.42,19.18-18.07,5.06-2.85,18.41-1.9,25.38-4.42,6.38-2.31,11.51-10.5,20.15-8.9-4.38,3.95-4.12,9.94-4.53,10.36-.37.38-6.91-.11-9.27.42-8.6,1.93-16.06,7.41-24.92,8.6-.36,2.59,3.39,1.4,5.19,1.47,10.13.38,20.42,0,30.56,0h17.88c.19.45-.21,1.15,0,1.49,1.34,9.46-13.33,4.46-16.97,4.86-2.56.28-4.58,3.5-7.71,4.05-5.48.97-15.42-1.2-23.73.06-1.43.22-3.31-.51-2.23,2.18.33.82,6.21,9.56,6.79,9.68,1.49.31,15.09-8.65,19.28-2.9,2.3,3.15.06,6.88,10.17,4.48,1.67-.4,2.28-8.39,7.94-8.74,1.79-.11,3.06,1.85,4.65,2.3,1.97.56,5.3.04,6.13.62.69.49-.08,2.47.15,2.77-4.94-.85-7.9,4.64-11.53,5.6-4.27,1.13-40.99,1.26-45.79.33-2.44-.47-6.21-4.1-8.23-5.93-.44-.4.11-3.18-3.33-4.87-8.19-4.02-7.12,4.47-9.47,9.2-1.35,2.73-9.72,9.88-1.29,10.66,1.97.18,3.46-1.6,3.66-1.59,5.25.32,11.35,1.18,14.9,4.47-1.56,4.59-18.57,5.31-19.36,5.97l4.45,8.93c-6.97-3.5-8.9,1.9-12.39,3.97-3.39,2.01-6.97-.12-9.54,6.12-1.75,4.24-1.79,19.18.3,22.72.46.78,13.03,9.21,15.67,8.91,1.13,6.23,1.53,9.96,1.49,16.39-.02,3.53.02,8.29,0,11.92,0,1.01-1.48,3.88-1.55,6.6-.24,9.34,1.88,31.3-.24,38.53-1.14,3.89-26.01,23.55-30.57,28.31l-.41,2.53c-1.22.67.01,1.41,0,1.49-.19,1.4.06,3.01,0,4.47-.04,1.1.02,2.69,0,2.98-.27,4.43.32,8.99,0,13.41-.22,3.05-3,8.82-1.5,13.4-3.66,1.02-6.14-3.64-9.37-2.83-2.23.56-9.58,11.04-11.47,8.79,1.8-13.59-3.17-28.11-.04-40.98l-5.93.77c2.83,6.47-2.2,6.17-2.95,14.17-.93,9.75,4.2,37.86-7.04,40.71-2.36.6-4.68-1.31-6.39-1.25-.47-3.18,3.87-5.03,4.25-6.92.31-1.53-2.54-5.36-2.81-8.68-.51-6.3-1.03-32.27.35-36.98,2.14-7.3,35.79-27.02,38.12-34.87,3.34-11.26-2.03-32.91-1.92-45.12-12.49,8.94-4.54,28.63-6.68,42.14-.34,1.39-4.43,2.75-5.99,4.04.6-4.93-.4-8.14-5.96-7.45.68-2.01-.85-5.78.73-8.98.88-1.79,3.71-2.2,4.72-3.45,4.57-5.7,3.68-10.36,3.48-17.37-4.16,3.2-16.79,9.16-18.58,13.44-1.8,4.32-.56,11.42-.78,16.36-7.62,1.68-3.59-6.39-4.48-10.42-10.48,2.9-22.54,10.71-22.37,23.12.09,6.52,4.76,10.15,11.06,8.26,1.45-.44.65-3.58,2.41-5.25,3.89-3.69,12.76-2.48,13.39-8.26.89.19,2.37-.28,2.98,0,1.9.88,4.69,3.67,4.47,5.96-.2.17-.18,2.37-1.55,3.6-3.43,3.08-20.91,17.5-21.64,20.09-3.18,11.28,1.56,29.62-.67,41.08-1.1,5.65-13.9,7.19-4.44,17.16-3.27,19.77-25.94,18.49-35.77,32.02-1.55,2.14-8.65,15.82-7.43,17.14,15.04-5.61,28.21-14.74,41.85-22.95,27.8-16.73,57.17-36.37,81.82-58.22,7.77-6.88,41.99-39.43,43.18-46.95,13.23-6.03,8.47-18.86,7.45-29.8-.43-4.63,1.45-12.38-1.47-15.66-1.22-1.38-21.52-10.61-22.36-9.66.02,3.21-.37,8.31,1.34,11.04,1.01,1.61,2.34.56,3.12.87-1.82,1.8-4.15.34-4.59,3.63-.6,4.46-.28,14.66.21,19.38.61,5.98,5.68,7.71,1.21,16.28-.87,1.66-19.35,20.52-20.7,21.11-2.96,1.3-7.79-2.29-11.88-2.31,3.34-3.15,20.78-18.77,21.53-20.78.35-.95-.79-16.72-.75-20.24.1-8.11-.18-16.27.07-24.52.08-2.59,2.4-5.98,1.49-10.43-.23-1.13-.63-1.09-1.49-1.49-.27-2.74-.06-6.1,0-8.94.01-.55,0-.98,0-1.49,0-.99-.04-1.99,0-2.98,7.9.05,13.6,6.11,19.85,9.2,4.76,2.36,24.25,9.82,26.33,12.41,2.85,3.55,2.38,17.19,2.98,22.37.91,7.79,3.65-1.9,4.38-3.04,18.32-28.58,33.02-62.27,43.29-94.57,1.43-4.5,3.19-8.8,4.47-13.41,27.36-98.4,24.34-199.19,14.6-299.89-1.5-5.23-15.3-5.01-20.61-6.2-35.46-7.97-70.7-17.05-105-29.1-3.45-.97-1.45,2.53-.72,4.46.87.58,2.58.44,4.54,2.1,2.43,2.05,2.9,4.84,4.39,6.84-4.82,1.38-7.44-4.97-8.94-8.94-10.39-6.93-14.56-17.19-27.18-22.71-5-2.19-10.78-2.36-10.06,4.84-1.19-.88-5.52-4.23-5.96-4.47,3.15.49,6.26-6.9,5.95-8.93-3.79-1.71-2.34,2.6-3.94,3.01-3.87.99-7.63-2.77-6.48,4.43-68.78-36.18-159.35-29.43-217.5,23.84ZM676.11,686.69c-.7-9.12,3.39-15.99-8.29-19.29-3.03-.86-1.74.65-2.18,2.07-4.22,13.75.66,8.01,6.55,12.65,1.55,1.22.67,2.67.93,3.08l-13.49,3.84c1.05,5.47-1.15,14.15.02,19.01.22.93,13.88,6.86,10.51,14.39,2.59.59.94-2.22,1.61-2.79.45-.39,4.14,1.91,5.82,1.3-.04-11.45-.6-22.82-1.48-34.26ZM494.36,726.92c-6.62.85-12.11-7.39-17.17-8.91-3.01-.91-1.82.86-2.24,2.15-3.09,9.53,1.24,12.6,6.45,19.71l12.96,7.91v-20.86ZM570.33,728.41c-1.62-1.62-4.59,1.34-2.96,2.96,1.62,1.62,4.59-1.34,2.96-2.96ZM527.13,771.6c.88-1.07.26-9.92-3.69-8.92-6.12,1.54,1.82,11.19,3.69,8.92ZM510.75,832.69c14.05,5.49,18.23,6.24,25.11,20.32.72,1.48,5.68,17.55,7.65,15.43.28-1.3-.37-3.58.01-4.47,6.52-15.01,10.31-22.56,25.33-29.8,1.19-.58,12.13-2.15,7.48-5.24-.99-.66-21.2-8.32-22.38-8.16-3.18-7.41-6.08-14.79-8.94-22.35-.45-1.18-1.84-8.73-4.45-5.96-.87.92-4.47,18.33-8.31,23.74-7.38,10.39-17.16,7.83-24.51,12.74-3.7,2.47,1.67,3.23,3.01,3.75Z"/>
  <path class="st1" d="M649.3,217.42c.47,4.17-4.09,1.86-3,6.64.12.51,7.39,4.74,5.97,8.25l-8.92-1.47c-.48,2.77,2.77.74,4.17,1.77.81.6.14,2.58.29,2.68-23.46-10.3-47.48-19.4-71.02-29.54-7.56-3.25-28.93-15.52-35.31-15.11-62.62,29.01-126.61,52.99-193.11,71.46-1.82-9.97,14.89-11.54,14.9-20.86,61.53-18.04,121.08-42.33,178.24-71.12,22.86,9.53,45.16,21.32,68.05,31.16,13.02,5.59,26.51,11.08,39.74,16.13Z"/>
  <path class="st5" d="M826.58,536.23c-25.34,154.22-92.45,254.66-228.42,332.47-7.55,4.32-51.94,28.33-56.75,28.04-3.23-.2-18.94-8.94-23.24-11.13-31.85-16.27-63.83-35.81-92.33-57.39-29.34-22.21-55.25-46.46-77.47-74.49,26.58,29.41,56.52,55.33,88.92,78.68,14.01,10.09,31.86,22.16,44.89,29.88,19.17,11.36,39.6,21.31,59.76,30.75,85.87-39.81,171.86-99.63,221.78-182.05,31.92-52.71,50.87-115.67,61.37-176.25l1.49,1.49Z"/>
  <path class="st11" d="M850.41,403.64c.38,16.86.69,35.35,0,52.14-2.55-5.79-12.04-3.18-14.12,1.52-2.58,5.84-1.11,28.56-2.15,36.5-.37,2.77-2.7,2.72-3.09,3.69h-1.49c0-2.94-.22-6.02,0-8.94,6.07.75,1.58-3.22,1.49-4.47-.44-6.48-.22-14.28,0-20.86,6.06.75,1.58-3.22,1.49-4.47-1.48-21.62.65-45.1,0-67.04,2.53-.87,1.8-4.48,0-5.96-.79-20.23-2.59-43.06-4.48-63.31-1.22-13.12-3.91-26.22-4.54-39.42-45.28-6.88-88.96-19.92-132.46-33.65-10.52-3.32-34.82-8.04-43.26-14.1-.15-.11.52-2.09-.29-2.68-1.4-1.03-4.65,1-4.17-1.77l8.92,1.47c1.41-3.5-5.86-7.74-5.97-8.25-1.08-4.79,3.47-2.47,3-6.64,61.11,23.31,124.67,40.57,189.29,51.31,5.63,31.06,7.09,62.58,10.32,93.96-1.01,13.73,1.2,27.33,1.51,40.95Z"/>
  <path class="st11" d="M826.58,536.23l-1.49-1.49c1.79-10.31,1.84-23.21,4.47-32.77.19-.68,1.56-1.79,1.49-2.98,1.82,15.4-2.1,22.81-4.47,37.24Z"/>
  <path class="st2" d="M831.05,498.99c.07,1.19-1.3,2.3-1.49,2.98v-4.47h1.49c-.11.26-.05,1.06,0,1.49Z"/>
  <path class="st12" d="M646.32,250.2c-.72-7.19,5.06-7.02,10.06-4.84,12.62,5.52,16.79,15.78,27.18,22.71,1.5,3.97,4.12,10.32,8.94,8.94,3.42,4.57,6.48,8.7,9.46,13.63,1.47,2.43,6.37,14.15,7.04,14.6,1.36.92,5.61-2.3,7.33-2.91,3.28,4.82,7.69.86,7.45,10.43-.04,1.49.09,2.99,0,4.47l-8.92-1.49c2,20.91,4.87,5.14,8.36,4.55,1.79-.3,4.72,4.62,8.6,1.53,2.01-1.6-.23-8.4,5.37-7.57.05,5-2.78,11.22-2.9,15.92-.05,2.23,1.42,3.25,1.42,3.44-.16,12.93-4.6,11.34-5.74,17.49-.6,3.22,1.52,6.25,1.27,7.84-.16,1.02-7.45,9.99-5.96,11.91.18.24,4.66,1.64,5.93.85,2.19-1.35,5.29-9.17,5.99-9.78,4.47-3.91,4.43-1.96,10.43-8.94s13.92-16.48,22.35-20.86c.71,5.05-1.63,9.23-1.49,13.41-17-1.56-10.7,5.49-14.17,13.39-2.04,4.66-16.62,12.86-15.73,18.53.1.64,6.59,3.84,8.3,5.34,1.6,1.39,2.26,3.83,3.83,5.1,9.68,7.85,14.83,6.96,20.36,21.35,4.7,12.23-1.11,30.67,2.07,39.64.92,2.6,10.74,3.6,8.75,11.36-5.58.32-4.57,4.31-4.46,8.93,11.35-4.72,13.14,13.24,0,7.46-1.68,7.74,3.37,11.85,10.42,8.93,3.85-1.47,3.68,3.71,2.98,4.44-1.9,1.98-9.5-.3-10.91-.05-1.25.22-1.38,2.72-2.66,3.65s-3.47.61-4.45,1.89c-1.16,1.51-1.35,24.77-5.19,31.67-4.31,7.77-14.6,11.63-19.99,16.51-8.64-1.59-13.77,6.6-20.15,8.9-6.97,2.52-20.31,1.56-25.38,4.42-1.15.65-18.56,16.9-19.18,18.07-2,3.78-7.76,27.34-10.53,28.23-.71.23-3.76.49-3.75-.81,1.09-8.49,2.24-17.62.02-26.04,1.55-6.15,1.7-12.87,2.98-19.37,1.58-8.05,5.28-16.93,4.47-25.33-.13-1.34.63-4.24-2.22-2.97-1.55.69-25.15,20.17-26.13,21.55-3.77,5.27-4.38,16.73-4.43,23.13-4.27,10-4.97,29.14-9.1,36.34-2.6,4.53-28.67,25.84-34.11,29.21.03.99-.05,1.99,0,2.98-.57.33-1.05,1.31-1.49,1.49-1.36.56-3.01.5-4.47,1.49.48-.34,1.08-3.4,2.26-4.46,1.67-1.51,3.05-1.1,3.7-1.5,5.81-36.13,10.15-72.7,16.39-108.75,13.16-1.49,34.38-13.3,43.2-23.1,8.52-9.46,14.89-36.5,13.05-48.8-.95-6.34-9.68-16.11-15.74-18.51-5.73-2.28-25.78-.61-27.1-1.95-.67-.68,1.81-8.97-3.41-8.7-9.76.49-6.68,9.34-7.02,16.15-.05.99.06,1.99,0,2.98-6.71-.9-12.83,1.04-18.37,4.72-12.1,8.03-25.93,26.06-27.64,40.88-2.79,24.27,10.54,35.92,34.09,31.87-5.09,36.8-13.64,79.18-16.38,115.49-.16,2.14-.02,5.8,2.97,3.69-3,2.02-7.64,6.3-10.43,8.94-8.49.34-19.95,2.98-27.56,2.98h-23.84c-2.9,0-11.61-1.12-15.64-1.49-4.09-.38-6.97.27-11.29-1.38-2.85-1.09-17.06-13.71-18.5-12.02.63,3.61.62,16.99,1.78,19.07,1.62,2.9,15.01,8.43,19.06,9.23,19.15,3.78,50.78,3.49,70.02,0,7.42-1.35,13.62-4.68,19.81-8.93,1.33-.91.9-2.92,1.05-2.99.64-.32,3.09.68,4.18-.27.79-.68.09-2.53.29-2.71,7.13-6.54,18.55-13.46,26.82-20.86l2.97,1.48v-4.46c2.04-1.86,4.2-2.71,4.48-2.98,6.33,3.24,8.22,4.25,7.45,11.92-.32,3.16-2.62,8.48-2.95,12.69-.73,9.13.76,18.43-1.51,27.53h-1.49c.17-2.64-1.58-5.34-1.33-8.01.36-3.95,6.4-22.05-1.45-17.11-.53.34-2.91,8.07-6.08,11.04s-8.71,3.96-10.51,5.92c-2.19,2.38-.02,6.52-5.95,5.19,6.6,5.85,4.18,12.92,4.47,20.84-4.85,3.8-8.56,9.85-14.42,13.13-3.53,1.98-9.62,2.89-10.58,3.57-1.18.83-1.2,5.17-3.29,6.49-2.43,1.54-5.14-.57-7.46-.85-.49-.06-1,.05-1.49,0-1.47-.13-2.99.09-4.47,0,.77-1.5.77-4.23,1.49-5.96.29-.13,4.24-4.11,4.47-4.47,1.55-2.42,3.13-5.28,0-7.45,0-.5,0-.99,0-1.49,0-4.87.66-10.21-.77-14.92l-6.5,1.7c.92,5.13-1.31,10.46-1.68,14.71-.34,3.91.24,7.99,0,11.92-3.9,1.13-7.87,2.5-11.92,2.98-1.2-3.77,1.24-8.67,1.2-11.56-.08-6.27-9.14-.69-12.48-.52-.73.04.01-2.76-2.81-3-6.66-.55-16.99,3.57-24.65,1.66-.15,3.95.22,7.98,0,11.93-.54,9.98.39,4.79,1.49,8.94.63,2.39-2.61,18.27-2.98,22.35-1.08-.32-3.03.43-4.36-.06l-.03-22.91c-.21-1.78-2.45-.54-3.06-.87-1.4-.76-1.39-1.46-1.49-1.49.36-1.69-.52-6.69,0-7.45.1-.15,2.89.52,3.03-.85.07-.7-2.13-12.76-2.55-13.74-1.38-3.2-3.97-1.59-6.43-1.8-.33-3-2.35-8.14-2.14-12.02-10.04-2.04-16.99-9.4-26.16-13.3-1.66,12.77,17.87,16.61,17.92,29.11.02,5.34-2.77,11.23-1.55,17.05-1.48,1.72-20.8-12.63-23.33-13.25-3.01-.73-2.19,3.78-4.96,4.32-.34-.95-15.33-13.15-16.38-11.91-3.79,11.13,4.59,12.34,6.64,17.97.22.59.88,9.46.8,10.33-.12,1.41-2.07,3.84-1.5,5.96l-6.66-2.99-.78,1.5c-.64-.87-2.39-.49-2.96-3.7-1.67-9.41,2.08-25.59,0-33.98-.11-.45-6.76-5.33-7.47-5.52-7.63-2.1-.21,5.63-10.43,4.47-2.33-.27-5.68-2.58-8.93-1.5-1.25-4.77,5.5-4.01,5.95-4.48,2.63-2.71-2.84-3.07-2.86-3.61s1.29-3.17,1.37-5.31c.12-3.46-.08-6.96,0-10.42-.31-.36-4.88.97-5.95,1.48-.22-4.23,7.11-6.19,7.54-9.61.39-3.1,1.05-17.48-4.56-17.2.36-3.83-.44-8.15,0-11.92.15-1.32,3.41-3.72,2.72-7.89-.51-3.1-6.53-10.14-8.23-14.17-2.1-4.97-5.21-13.29-6.88-18.44-1.5-4.62-1.1-12.71-3.89-16.59-.83-1.15-22.07-15.41-23.47-15.57-1.15-.13-1.79,1.13-1.96,1.14-1.01.05-4.31.15-4.47,0-.26-.24.17-2.11-.01-2.97-1.57-.6-2.8,1.47-2.97,1.48-1.9.15-4.05.09-5.96,0,.48-3.52-.22-3.28-3.72-2.96l-.75,1.47c-1.93-.15-4.01-.06-5.96,0,1.51-6.52-8.23-6.88-12.39-8.93-.97-.48-.94-2.6-1.3-2.83-1.24-.77-2.44,1.36-2.7,1.33-2.12-.25-19.02-15.97-20.52-18.96-3.96-7.84-2.51-19.53-5.07-26.27-.92-2.42-6.99-3.31-4.2-11.39.9-.61,1.98-3.41,2.98-4.47.31-.32,3.11.84,3.05-.83-.05-1.43-1.5-12.27-1.76-13.15-.81-2.69-3.36-1.82-4.27-2.4-2.26-1.45-2.37-2.62-5.96-2.98-1.31-7.7,7.93-9.04,8.75-11.36,2.97-8.36-2.05-28.88,1.34-40.37,5.14-17.41,20.52-21.54,31.56-34.08.96-4.53-11.44-9.78-12.99-11.38-2.55-2.65-5.04-16.01-7.13-19.01-1.01-1.45-3.39-1.24-3.65-1.51-4.53-4.83,8.5-2.25,11.91,4.5.78,1.55.05,4.42,2.25,7.42,1.53,2.08,5.54,4.66,8.18,7.48,6.28,6.71,4.56,11.03,14.9,7.43.71-4.92-3.88-7.92-7.45-10.41.09-.28-1.72-2.07-1.25-2.74.52-.73,3.15-.48,4.23-3.22,3.25,2.66,5.51,7.32,10.42,7.44l3-28.29c-10.15.37.12-4.02,2.11-10.56,6.55-21.45,12.81-32.6,26.19-50.53,8.44,2.33,7.89-6.16,9.14-7.23,1.03-.88,7.36.48,10.69-1.63,2.22-1.4,1.78-6.1,6.98-4.54.4,2.56-1.7,3.97-2.97,5.95-7.23,11.26-16.69,20.71-23.12,32.74-23.22,43.42-14.07,89.88-14.12,137.09l.02,4.47,1.47-1.49c6.01-4.39,8.35-11.11,13.41-16.39,3.41-3.55,20.47-16.41,24.4-16.3,6.06.17,27.26,7.9,34.47,10.32,17.65,5.91,49.86,23.41,64.78,25.35.4,1.46,1.72,1.39,2.98,1.49,2.44.2,4.99-.03,7.45,0,17.32.2,29.03,1.01,44.69-4.47,24.99-8.74,49.95-22.65,75.98-29.8,3.85-1.06,14.87-3.42,18.27-2.73,2.26.46,19.91,12.54,21.96,14.65,3.68,3.79,8.58,12.47,8.94,17.88-2.83.96-2.43,2.72-2.98,4.47-1.57,4.97-2.41,11.86-2.97,17.14-.82,7.78-2.02,21.56-1.5,29.04-1.81,1.76-1.51,3.71-1.49,5.96.03,3.38,1.29,6.81,0,10.43-1.22,3.89-9.5,12.25-10.13,14.45-1.87,6.5-1.38,18.67-1.79,25.77-.07,1.16-3.79,10.82.73,8.93,2.91-1.22,17-14.58,17.99-17.78,1.05-19.95,6.48-41.33,5.13-61.17,1.43-.4,1.45-1.71,1.49-2.98.37-11.29-.36-22.9,0-34.26,1.24-39.54,6.32-82.15-5.96-120.67-9.06-28.42-28.31-52.31-52.14-70.02ZM720.82,345.54c1.8.11,3.58-.64,5-1.68,12.44-9.07-12.85-17.97-5,1.68ZM366.24,400.66c-.08-3.96.07-7.96,0-11.91-15.5,4.78-17.09,3.41-17.87,19.36-.1,1.98.05,3.98,0,5.96-.26,10.85-.18,21.92,0,32.77.1,6.29,1.25,13.88,1.49,20.86.67,19.33-.46,39,2.98,58.1.7,3.91-.16,9.21,3.98,11.67,1.84,1.09,17.71,5.41,18.36,4.71.57-3.15-1.07-6-1.48-8.93s.49-7.74-1.84-10.09-14.82-4.02-15.77-5.09c-4.07-4.57.44-32.56-3.26-39.93,3-2.3,15.82-.93,16.4-1.5.23-.23-.04-4.59,0-5.97.03-1.48.04-2.99,0-4.47s.09-2.99,0-4.47c-.15-2.46-1.46-4.99-1.49-5.96-.05-1.49.06-2.98,0-4.47-.23-5.43.22-10.95,0-16.39-.28-7.03-1.2-13.82-1.49-20.86-.18-4.45.09-8.96,0-13.41ZM719.32,399.17c-.96,8.04-1.35,13.9-1.49,22.35-.11,6.23,1.59,13.19,1.49,17.88-.07,3.33-1.34,8.71-1.49,13.41-.02.5.02.99,0,1.49-.09,2.28.05,4.77,0,5.96-.09,1.98.07,3.98,0,5.96-.05,1.51-3.09,6.94-1.5,10.43h14.9s0,30.53,0,30.53c0,4.17-14.01,4.28-15.69,6.65-.48.67-3.1,14.04-3.36,16.19-.25,2.03,1.19,3.05,1.18,3.23-.15,2.14-2.65,5.78-1.48,8.93,17.93-4.85,18.35-3.13,20.85-20.85s2.28-34.46,2.98-52.14c.36-9.01,1.35-17.77,1.49-26.82.12-7.9.19-15.94,0-23.84-.12-5.17-1.21-9.25-1.49-13.41-.06-.9,2.09-3.58,1.51-6.39-.2-.96-2.03-1.07-2.4-1.71-.74-1.28-.46-2.97-1.57-3.9-1.6-1.34-12.61-5.7-13.92-4.39-.3,3.38.39,7.13,0,10.43ZM340.92,467.7c-.63-20.79.47-41.76,0-62.56-8.59,1.31-12.72,9.26-13.47,17.05-1.96,20.21.28,46.75,1.55,67.13.62,10-2.04,19.98,3.81,28.96,3.24,4.96,15.93,15.59,12.59,2.3-.87-3.48-2.9-3.33-4.47-5.21,3.35-1.03,2.96-3.89,3.11-6.67.67-12.83-2.73-28.47-3.11-41ZM744.64,466.21c-.17.24-2.82-.5-2.82.63,0,3.81-.16,8.4-.16,12.04v28.31c0,1.44-1.19,8.35-1.49,11.17-.32,3.04-1.44,5.86-1.48,8.93,13.73-1.96,16.84-14.07,17.85-26.09,2.29-27.23-1.07-58.12-.68-85.68-1.24-4.72-6.17-9.73-11.2-10.38-1.38,7.77,1.79,58.61,0,61.07ZM460.1,442.37c.22,2.44-.29,5.03,0,7.45-5.97.61-.47-6.74-5.99-9.65-3.05-1.6-13.7-2.6-16.47-.19-4.26,3.7-4.39,3.66-8.83,6.86-2.7,1.95-4.56,5.6-4.47,8.94-12.06.58-8.47,23.4-6.79,31.37,3.01,14.3,18.83,35.47,34.43,35.72,4.91.08,10.24-2.65,15.57-1.54,9.54,36.69,11.82,77.73,19.69,115.13l8.6,7.03-19.36-128.12c6.71-.87,22.74,3.28,23.84-5.96,1.82-.79,5.27,2.26,5.95.69,6.85-15.92.62-36.29-11.89-47.64-4.78-4.33-16.55-11.36-23.07-9.75-1.82.45,1.02,5.89-3.76,4.55-.42-2.65.19-6.08,0-8.94-.41-6.37-.25-12.97-.69-19.35-.54-7.92-6.5-4.91-7.91,1.04s.81,8.58,1.15,12.34ZM385.61,445.35c-.76.42-4.07-.98-4.56.79-1.16,4.17,1.52,7.94,1.58,9.64.07,1.98-.07,3.98,0,5.96.31,8.69-.72,19.14,0,28.31.21,2.65,1.48,2.81,1.49,2.98.97,11.47,1.59,37.82,5.59,47.3,2.64,6.26,13.27,11.39,17.52,16.75,4.64,1.95.83-9.51.72-10.42-.71-6.36-.47-17.32-1.85-22.73-1.12-4.4-7.95-9.18-9.71-15.61-3.17-11.56-3.41-33.44-4.83-46.57-.52-4.83-.51-8.28-1.49-13.41-.6-3.15,1.78-7.82-3.72-6-1,.33-.61,2.95-.75,3.02ZM410.94,534.74c1.84,6.55,2.96,14.1,4.47,20.86,3.33,14.91,7.14,40.91,15.74,53.53,5.95,8.73,43.7,43.03,52.79,46.28,1.19.43,2.19,2.03,2.95.76-3.38-5.16.16-11.87-2.23-17.12-2.99-6.56-26.89-21.44-31.82-30.75-4.07-7.69-3.7-21.45-7.63-30.36-.42-.94-.23-2.29-1.49-2.98.1-.97-.05-2,0-2.98.35-7.53-2.82-5.73-3.03-6.96-.72-4.21,2.97-8.81-1.37-14.72-5.51-1.9-27.55-24.46-31.35-21.51.67,2.08,2.39,3.84,2.98,5.94ZM442.22,680.74c.56.63.8,2.89,1.49,0,3.56-4.3.04-34.65-2.91-39.54-.82-1.36-3.41-3.75-5.26-3.67l.87,31.91c.44,4.41,2.97,8.12,5.82,11.31ZM452.62,659.89c-.18-.15-3.13-.55-2.96.74,1.98,5.55-3.85,19.14-2.26,23.05.48,1.18,18.1,16.12,19.43,16.43.24-5.6,7.62.55,9.66-1.51,3.58-3.62-4.16-4.91-5.14-5.98-3.91-4.25-2.98-12.54-5.44-16.95-1.62-2.91-6.14-4.76-8.77-7.61-1.97-2.13-4.15-7.87-4.51-8.18ZM513.73,689.69c-3.54-2.5-8,.97-5.95,5.94,3.67,1.08,3.68-3.19,5.95-5.94Z"/>
  <path class="st0" d="M390.08,665.84c-7.34.52-12.94,6.68-18.32,9.24-6.19,2.94-30.84,10.13-30.84,18.32v21.6c-6.24-4.25-10.57-12.35-14.62-18.9-64.04-103.54-68.15-252.07-56.17-369.96,1-9.86,3.4-19.76,3.8-29.71,23.2-3.33,45.63-9.92,68.12-16.05,3.01-.82,6.56.03,9.69-.73,13.26-3.24,32.6-14.13,46.65-15.94,9.13-1.17,1.06,4.68.08,5.99-1.43,1.9-2.53,3.97-3.92,5.84-13.38,17.93-19.64,29.08-26.19,50.53-2,6.54-12.26,10.93-2.11,10.56l-3,28.29c-4.91-.12-7.17-4.79-10.42-7.44.13-.32-.02-.97,0-1.49,8.7-1.68.3-2.7,0-2.98-.82-.76-5.96-6.26-5.96-6.7v-26.07c-13.82,3.72-3.31,23.88-14.9,31.28-3.4-6.75-16.44-9.32-11.91-4.5.26.28,2.64.06,3.65,1.51,2.09,3,4.58,16.37,7.13,19.01,1.54,1.6,13.95,6.86,12.99,11.38-11.04,12.54-26.42,16.67-31.56,34.08-3.39,11.49,1.62,32.01-1.34,40.37-.82,2.32-10.06,3.66-8.75,11.36-8.94-.89-13.71,4.66-13.41,13.41.35,10.04,11.44,15.82,19.37,10.43-2.79,8.08,3.28,8.97,4.2,11.39,2.56,6.73,1.11,18.43,5.07,26.27,1.51,2.99,18.4,18.71,20.52,18.96l2.98,11.92c-1.88-.27-4.09.29-5.96,0,.48-3.52-.22-3.28-3.72-2.96l-.75,1.47c-3.82-2.32-4.39-6.64-11.32-7.41-18.04-1.99-16.7,22.73-8.05,25.29.56,8.86-8.13,9.12-11.73,14.34-3.35,4.87-2.29,12.62-6.18,17.67-1.19,5.6,11.84-.69,13.44-.73,3.04-.07,6.23,2.7,9.45,2.56,5.98-.27,8.14-6.43,12.23-7.06,3.6-.56,6.51,1.5,9.02,1.39,10.43-.46,21.18-2.45,31.86-1.34.67,2.58-1.07,2.98-2.22,4.47-1.84,2.39-17.39,19.64-18.67,20.15-3.84,1.55-13.6-4.18-18.2,7.04-6.3,15.37,12.9,27.45,22.73,15.3,6.15-7.6.2-12.71,2.14-17.1,8.62-6.64,18.27-23.77,27.62-28.37.95,1.82,1.97,4.93,3.6,6.08,3.01,2.12,7.35-.24,6.81,3.59-1.94,4.72-18.36,14.15-17.86,16.39,1.07,4.76,13.07-.61,16.38.77-4.49,6.96-12.71,9.72-7.26,19.93,1.27,2.38,4.73,3.97,5.47,6.44,1.02,3.44-.06,7.38.3,10.87ZM351.35,311.28c.45,1.77.12,9.41,1.51,10.42,4.39,3.2,3.24-5.3,3.4-5.67.09-.22,1.07-.02,2.55-3.27.3-.67-.29-2.22,0-2.98.06-.15,1.12-1.18,1.49-1.49,2.12-1.8,5.18-1.7,7.28-5.38,7.62-13.34-10.38-27.28-21.34-15.39-10.13,10.97,3.23,16.22,5.13,23.75ZM312.61,339.58c7.75-.72,12.87-9.44,4.47-13.41,15.06-16.96-16.1-31.8-21.69-14.99-5.03,15.13,7.03,16.23,8.07,20.48.56,2.3-1.58,5.75-1.42,8.67.46,8.37.71,10.75.13,19.36-.16,2.3,1.84,4.93,1.3,7.19-1,4.24-15.28,7.45-7.86,20.25,8.44,14.57,29.17,5.06,23.77-11.87-1.64-5.14-8.02-5.82-8.32-9.59-.19-2.39,1.72-5.14,1.61-7.54-.32-7.45-.19-11.55-.07-18.55ZM334.95,545.18h-5.95s0,4.45,0,4.45c3.24-.37,7.04-.95,5.94-4.45Z"/>
  <path class="st0" d="M795.29,598.8l-10.32-1.61,1.37-8.81-11.91,4.46c-.72-3.08-5.62-5.05-7.45-7.45-.23-.3.55-2.28-.15-2.77-.83-.59-4.15-.06-6.13-.62-1.59-.45-2.86-2.41-4.65-2.3-5.66.35-6.27,8.34-7.94,8.74-10.11,2.4-7.87-1.33-10.17-4.48-4.19-5.75-17.79,3.21-19.28,2.9-.58-.12-6.46-8.86-6.79-9.68-1.08-2.68.8-1.96,2.23-2.18,8.31-1.26,18.24.91,23.73-.06,3.13-.55,5.15-3.76,7.71-4.05,3.65-.4,18.31,4.59,16.97-4.86.78,1.25,6.22,4.48,7.45,5.96.29.35.89,6.98,4.05,7.46,7.23,1.1,17.27-4.83,18.35-12.62,1.38-10-2.3-7.31-3.04-8.25-1.69-2.16-2.29-5.92-4.44-8.23-6.62-7.09-21.59-4.36-23.87,5.25-7.7-1.15-14.42.95-16.39,8.94-10.13,0-20.43.38-30.56,0-1.8-.07-5.54,1.12-5.19-1.47,8.86-1.2,16.32-6.67,24.92-8.6,2.36-.53,8.9-.04,9.27-.42.41-.42.15-6.41,4.53-10.36,5.39-4.87,15.68-8.74,19.99-16.51,3.83-6.91,4.03-30.16,5.19-31.67.98-1.28,3.17-.95,4.45-1.89s1.41-3.43,2.66-3.65c1.41-.25,9.01,2.03,10.91.05.7-.73.87-5.9-2.98-4.44,11.48-4.74,9.06-26.2-5.96-25.33,1.99-7.76-7.83-8.76-8.75-11.36-3.18-8.97,2.63-27.41-2.07-39.64-5.53-14.39-10.68-13.5-20.36-21.35-1.57-1.27-2.23-3.71-3.83-5.1-1.71-1.49-8.19-4.7-8.3-5.34-.89-5.67,13.69-13.87,15.73-18.53,3.47-7.9-2.83-14.95,14.17-13.39.06,1.82,2.37,15.87,3.08,16.31,2.45,1.53,5.86-1.1,5.86-3.65v-28.31c0-.92,7-4.13,8.17-6.72,9.69-21.36-25.65-27.3-24.67-6.72.46,9.61,8.26,10.05,9.05,15.67-8.42,4.38-16.12,13.62-22.35,20.86,2.26-8.45-2.09-7.91-3.69-10.4-2.83-4.41,4.47-21.69-8.23-8.97,0-.19-1.47-1.21-1.42-3.44.12-4.7,2.95-10.92,2.9-15.92-5.6-.83-3.36,5.96-5.37,7.57-3.87,3.09-6.81-1.83-8.6-1.53-3.49.59-6.36,16.36-8.36-4.55l8.92,1.49c.1-1.49-.03-2.98,0-4.47,11.19,1.58,7.07-1.17,10.36-5.22,5.21-6.42,11.75-9.67,4.33-19.15-10.83-13.85-30.94,1.03-22.14,13.95-1.72.61-5.97,3.83-7.33,2.91-.67-.46-5.57-12.18-7.04-14.6-2.99-4.93-6.04-9.06-9.46-13.63-1.5-2-1.96-4.79-4.39-6.84-1.97-1.65-3.67-1.52-4.54-2.1-.73-1.94-2.73-5.43.72-4.46,34.3,12.04,69.54,21.12,105,29.1,5.31,1.19,19.11.97,20.61,6.2,9.74,100.7,12.76,201.49-14.6,299.89ZM764.53,386.73c11.06,11.09,29.3-3.27,21.01-15.81-12.32-18.63-33.7,3.08-21.01,15.81Z"/>
  <path class="st0" d="M705.91,603.27c2.91,2.71,20.68,21.85,21.6,23.87,2.62,5.74-4.73,16.91,8.57,22.67,15.42,6.68,26.33-17.74,13.03-25.69,2.65-2.25,2.07-6.2,3.8-8.86,3.49-5.38,6.95-1.44,11.85-1.42s12.35,1.1,14.63,1c3.04-.13,7.42-3.76,11.43-2.64-10.27,32.3-24.97,65.99-43.29,94.57-.73,1.14-3.47,10.83-4.38,3.04-.6-5.18-.13-18.82-2.98-22.37-2.08-2.59-21.57-10.05-26.33-12.41-6.24-3.1-11.95-9.16-19.85-9.2.15-3.35-.36-10.26.26-12.35.98-3.35,6.97-5.35,6.97-12.23,0-7.73-5.33-7.74-6.83-10.08-1.21-1.89.12-6.03-3.34-7.84-7.33-3.84-5.07,5.72-6.33,7.92-1.63,2.87-11.09,4.92-6.35,15.19,2.79,6.04,4.51,1.48,6.68,13.43-2.65.3-15.21-8.13-15.67-8.91-2.1-3.54-2.05-18.48-.3-22.72,2.57-6.24,6.15-4.11,9.54-6.12,3.49-2.07,5.42-7.47,12.39-3.97l-4.45-8.93c.79-.66,17.8-1.38,19.36-5.97Z"/>
  <path class="st6" d="M635.89,244.24c1.9,1,3.91,1.18,4.47,1.49.44.24,4.77,3.59,5.96,4.47,23.83,17.71,43.08,41.59,52.14,70.02-3.09-1.68-5.85,8.13-5.96,10.43-5.87-16.28-12.88-31.28-23.84-44.69-.95-1.16-1.43-2.75-2.98-4.47-57.81-64.33-170.01-64.2-234.59-10.39-6.92,5.76-10.19,8.33-14.42,15.34-9.04,14.98-13.21,21.68-19.14,38.25-.49,1.36-2.04,2.68-2.98,5.96-8.17,28.48-3.21,58.52-4.18,87.43l4.18.47c0,.26,1.67,1.89,1.49,2.98-.25.74.17,2.05,0,2.98-5.06,5.27-7.4,12-13.41,16.39l-1.49-2.98c.05-47.21-9.1-93.67,14.12-137.09,6.43-12.03,15.89-21.48,23.12-32.74,58.16-53.26,148.73-60.02,217.5-23.84Z"/>
  <path class="st0" d="M479.47,822.26c1.03-.02,2.66,2.4,5.9.81,2.32-1.14,3.85-5.11,6.02-6.77.41.39,4.07-.9,4.54.75,1.81,6.43-4.42,8.71-4.52,11.87-.3,9.49,23.23,14.8,29.83,20.85,4.11,3.76,8.93,11.54,9.8,17.03.28,1.76,1.77,4.1-1.63,3.11-5.92-1.72-7.89-6.43-5.25-11.89-3.83-.53-4.59,4.24-8.26,4.54-5.04.41-18.45-10.8-23.45-13.8-11.1-6.66-22.33-12.66-33.43-20.21-12.71-8.64-24.8-18.58-37.35-27.45-.34-5.47,1.06-10.39,1.19-16.09,1.04,2.66,2.71,2.24,4.47,2.98.59,1.7.52,4.16,2.96,4.47.83-5.74-.77-3.54-2.96-4.47-.5-1.43-.48-3.05-1.49-4.45h5.96c.43,5.77.38,8.15,7.44,8.93,1.3-1.16-.62-11.9,4.47-10.42.64,4.87-1.28,11.95.77,16.35.2.43,5.48,7.37,5.93,7.51,6.97,2.23,2.24-5.23,2.24-6.74v-32.77c0-6.16,6.9-2.44,8.91.03,4.91,6.01-.96,38.86.99,48.42,6.72,8.87,7.83,7.61,16.91,7.42Z"/>
  <path class="st0" d="M370.71,701.59c13.32-.04,8.14,13.67,10.44,16.39.29.34,6.81-2.12,8.93,0,.02.99-.03,1.99,0,2.98l-2.99,4.48c-8.9-2.86-4.43-1.12-6.28,3.34-.99,2.39-4.5,4.18-4.03,6.14.15.63,6.32,9.69,7.25,10.73,6.72,7.55,23.53,15.38,27.55,24.59,1.2,2.74.95,5.77,1.85,8.58,1.61,5.02,5.31,8.44,3.46,15.15-2.32.43-3.45-.23-5.28-1.41-14-9.07-39.35-37.57-49.84-50.72,2.65-6.6,1.61-16.35,1.49-23.84-.03-1.98.06-3.98,0-5.96-.03-.98.1-2.01,0-2.98v-5.96c.34-.16,6.85-1.49,7.45-1.49Z"/>
  <path class="st9" d="M766.99,585.39c1.83,2.4,6.73,4.37,7.45,7.45,1.78,7.63-4.61,13.64-11.98,11.31-3.62-1.14-4.49-5.07-9.61-5.5-3.91-.33-7.29,1.72-10.52,1.69-3.67-.03-6.92-1.75-10.36-1.67-5.02.12-10.23,2.68-15.63,1.62-.66,2.57,1.06,2.98,2.21,4.48,6.4,8.28,11.59,15.6,21.61,17.86.89.2,2.11-.21,2.98,0,1.15.28,5.7,1.33,5.96,1.49,13.3,7.95,2.39,32.37-13.03,25.69-13.31-5.77-5.95-16.93-8.57-22.67-.92-2.02-18.69-21.16-21.6-23.87-3.55-3.29-9.65-4.15-14.9-4.47,1.75-5.08,6.02-10.5,10.43-13.41,2.01,1.83,5.79,5.46,8.23,5.93,4.81.93,41.53.8,45.79-.33,3.63-.96,6.59-6.45,11.53-5.6ZM739.72,630.24c-6.13,1.53-6.24,15.03,3.98,11.58,5.12-1.73,2.34-13.15-3.98-11.58Z"/>
  <path class="st9" d="M609.07,819.28c-5.31.16-5.66,8.09-11.92,1.49-9.46-9.97,3.34-11.51,4.44-17.16,2.23-11.46-2.51-29.8.67-41.08.73-2.6,18.21-17.01,21.64-20.09,1.38-1.24,1.35-3.43,1.55-3.6,1.49-1.29,5.73-3.31,8.94-5.96,1.56-1.29,5.64-2.65,5.99-4.04,2.15-13.51-5.81-33.2,6.68-42.14-.11,12.22,5.27,33.87,1.92,45.12-2.33,7.86-35.98,27.57-38.12,34.87-1.38,4.71-.87,30.68-.35,36.98.27,3.31,3.13,7.15,2.81,8.68-.39,1.9-4.72,3.74-4.25,6.92Z"/>
  <path class="st9" d="M437.75,688.18c.72.2,7.36,5.07,7.47,5.52,2.08,8.4-1.67,24.57,0,33.98.57,3.21,2.31,2.83,2.96,3.7,5.56,7.52,31.69,25.53,33.49,29.83,3.77,8.98-2.5,39.66,2.28,45.39,1.39,1.67,6.48,2.99,7.14,4.08.97,1.62-.03,5.3.3,5.62-2.17,1.66-3.7,5.63-6.02,6.77-3.24,1.59-4.87-.84-5.9-.81-.49-1.93-1.66-3.11-2.98-4.47l-1.49-1.49c-1.31-1.55-4.07-1.5-4.53-5.22-.41-3.35,3.04-1.99,3.04-2.23v-42.46c0-2.43-32.23-28.03-36.26-32.38-.29-14.9,1.15-30.54.51-45.83Z"/>
  <path class="st13" d="M774.44,592.84l11.91-4.46-1.37,8.81,10.32,1.61c-1.28,4.61-3.04,8.91-4.47,13.41-4.01-1.12-8.39,2.51-11.43,2.64-2.28.1-9.91-.97-14.63-1s-8.36-3.96-11.85,1.42c-1.73,2.67-1.14,6.62-3.8,8.86-.26-.16-4.81-1.21-5.96-1.49-.13-7.71,16.71-15.05-.74-14.99-16.37.06-1.84,6.42-2.23,14.99-10.03-2.26-15.21-9.58-21.61-17.86-1.16-1.5-2.88-1.9-2.21-4.48,5.4,1.06,10.61-1.51,15.63-1.62,3.44-.08,6.69,1.64,10.36,1.67,3.22.03,6.61-2.02,10.52-1.69,5.12.43,5.98,4.35,9.61,5.5,7.37,2.33,13.76-3.68,11.98-11.31Z"/>
  <path class="st7" d="M565.87,735.86c-4.33-1.45-4.08,4.93-1.49,7.45-.34,1.14.34,3.18-.67,4.49-2.01,2.6-17.09,1.44-21.68,1.47-5.68.03-12.39.52-17.88,0-1.42-.13-2.27-1.28-2.98-1.49.37-4.08,3.61-19.95,2.98-22.35,9.35,1.77,30.04-2.48,37.8.19,2.32.8,3.77,7.73,3.92,10.24Z"/>
  <path class="st9" d="M399.02,689.67c0,.99,0,1.99,0,2.98,0,3.97-.05,7.95,0,11.92.12,9.58-.32,19.22.23,28.81,3.04,2.92,5.47,3.77,8.71,6.94,3.85,3.77,22.01,20.06,23.06,22.37,2.08,4.59.35,15.09.77,20.83h-5.96c1.01,1.42.99,3.04,1.49,4.47,2.2.93,3.79-1.27,2.96,4.47-2.45-.31-2.37-2.77-2.96-4.47-1.76-.74-3.43-.32-4.47-2.98.14-6.32.55-13.19-.73-19.38l-30.66-27.44c-2.58-3.93-1.26-12.19-1.38-17.24-.03-.99.02-1.99,0-2.98-.22-8.9.03-17.9,0-26.82,2.85,2.21,5.48-1.06,8.94-1.49Z"/>
  <path class="st9" d="M512.24,722.45c.1.03.09.73,1.49,1.49,1.13,8.67-1.57,20.91.02,29.03.57,2.91,3.01,3.95,4.05,6.4,2.86,6.75-3.17,10.47-4.05,18.97-.57,5.53.99,34.93-.2,36.31-.47.55-7.13,1.55-8.76,1.65-1.46-1.55.88-36.15.06-42.52-.68-5.3-5.09-7.28-4.69-13.36.32-4.73,3.9-5.36,4.6-8.94,1.21-6.22-.45-16.1.02-23.07l1.49-1.49c.12-.96-.21-2.18,0-2.98v-1.49c2.29-1.85,3.06-.88,5.96,0Z"/>
  <path class="st9" d="M693.99,691.16c-.25,8.25.03,16.41-.07,24.52-.04,3.53,1.1,19.3.75,20.24-.75,2.01-18.2,17.63-21.53,20.78-2.08,1.97-10.51,7.87-11.17,8.95-3.17,5.2,3.56,18.26-8.2,20.85.32-4.42-.27-8.98,0-13.41v-2.98c.06-1.46-.19-3.07,0-4.47v-1.49l.41-2.53c4.56-4.76,29.43-24.42,30.57-28.31,2.12-7.24,0-29.19.24-38.53.07-2.72,1.55-5.59,1.55-6.6l7.45,2.98Z"/>
  <path class="st11" d="M540.55,807.36l1.5,20.85c1.65,1.9,10.15-7.2,11.91-7.44,1.18-.16,21.39,7.5,22.38,8.16,4.65,3.1-6.29,4.67-7.48,5.24.61-5.16-1.61-2.1-4.16-1.94-7.9.52-14.87.95-22.65-1.04-.35,11.01,0,21.88,1.48,32.77-.39.89.27,3.16-.01,4.47-1.97,2.13-6.92-13.95-7.65-15.43-6.88-14.08-11.06-14.84-25.11-20.32,5.51-5.17,13.91-3.38,20.13-8.92,2.29-2.04,8.31-13.21,9.67-16.4Z"/>
  <path class="st9" d="M580.77,720.96l1.49,2.98c0,.96.14,2.1,0,2.98l-1.49,2.98c-.42,5.05-.9,20.08.03,24.29.27,1.23,2.71,1.14,3.42,2.83,4.04,9.64-4.94,12.04-4.94,15.34v43.95c-1.65-1.3-7.14-2.44-7.51-3.98-2.26-9.37,1.75-27.65-.01-38.41-.92-5.64-7.14-8.27-3.63-15.7,1.07-2.26,4.4-2.78,5.16-6.75,2.21-11.52-3.07-18.6,3.01-30.51,1.48.09,3-.13,4.47,0Z"/>
  <path class="st9" d="M402,625.61c.67,2.5-2.86,7.68,5.96,8.94-.08,5.39,3.67,12.22-1.88,17.48-3.38,3.2-6.2-.46-7.06,7.84-.57,5.53.11,12.13,0,17.88l-7.45,2.98c-.02-4.33-1.01-10.24-1.49-14.9-.36-3.49.72-7.44-.3-10.87-.73-2.46-4.2-4.05-5.47-6.44-5.45-10.21,2.77-12.97,7.26-19.93,1.45-2.25,2.67-4.85,4.47-7.45,1.93-.53,5.62,3.2,5.96,4.47ZM393.98,637.64c-4.12,1.34-4.17,12.39,3.99,10.08,7.45-2.11,3.08-12.37-3.99-10.08Z"/>
  <path class="st9" d="M685.05,659.88c-2.17-11.95-3.89-7.39-6.68-13.43-4.74-10.27,4.72-12.32,6.35-15.19,1.25-2.2-1-11.76,6.33-7.92,3.46,1.81,2.13,5.95,3.34,7.84,1.5,2.34,6.83,2.35,6.83,10.08,0,6.88-5.99,8.88-6.97,12.23-.61,2.1-.11,9.01-.26,12.35-.04.99,0,1.99,0,2.98v1.49c-.06,2.84-.27,6.2,0,8.94-1.7-.8-5.56-.26-7.45-2.98.04-6.43-.36-10.15-1.49-16.39Z"/>
  <path class="st6" d="M671.64,557.09c-1.28,6.5-1.43,13.22-2.98,19.37-5.47,21.69-15.42,36.97-31.28,52.14-.29.27-2.44,1.12-4.47,2.98-1.13,1.03-2.12,2.21-2.98,2.98-8.26,7.4-19.69,14.32-26.82,20.86-.72-.16-1.4-.79-1.49-1.49l48.39-44.72c6.92-15.95,10.36-32.08,17.58-48.04,1-2.21.2-4.88,4.04-4.08Z"/>
  <path class="st7" d="M618.01,698.61c-.29-7.93,2.13-14.99-4.47-20.84,5.93,1.33,3.76-2.81,5.95-5.19,1.8-1.96,7.43-3.04,10.51-5.92s5.55-10.71,6.08-11.04c7.85-4.94,1.82,13.16,1.45,17.11-.25,2.67,1.5,5.37,1.33,8.01-.48,7.62-15.56,13.72-20.86,17.88Z"/>
  <path class="st7" d="M522.67,716.49c.22-3.94-.16-7.98,0-11.93,7.66,1.91,17.99-2.21,24.65-1.66,2.83.23,2.09,3.04,2.81,3,3.34-.17,12.4-5.75,12.48.52.04,2.89-2.4,7.79-1.2,11.56-13.05,1.56-25.8,1.01-38.73-1.49Z"/>
  <path class="st12" d="M618.01,732.88c-.62,5.78-9.5,4.57-13.39,8.26-1.76,1.66-.96,4.81-2.41,5.25-6.3,1.89-10.96-1.74-11.06-8.26-.17-12.41,11.89-20.22,22.37-23.12.89,4.03-3.15,12.11,4.48,10.42-.11,2.44.25,5.08,0,7.45Z"/>
  <path class="st0" d="M673.13,685.2c.86,1.36,1.23,1.75,2.98,1.49.88,11.44,1.44,22.81,1.48,34.26-1.67.61-5.37-1.69-5.82-1.3-.66.57.99,3.39-1.61,2.79,3.37-7.53-10.29-13.46-10.51-14.39-1.17-4.86,1.03-13.54-.02-19.01l13.49-3.84ZM672.39,688.18v1.49c.97-.5.97-.99,0-1.49Z"/>
  <path class="st9" d="M789.33,558.58c-2.5,10.2-8.62,15.18-19.37,13.41-1.23-1.48-6.67-4.71-7.45-5.96-.21-.34.19-1.04,0-1.49-1.15-2.74-2.19-5.98-1.49-8.94,2.28-9.61,17.25-12.34,23.87-5.25,2.15,2.31,2.75,6.07,4.44,8.23ZM772.38,554.22c-4.12,1.34-4.17,12.39,3.99,10.08,7.45-2.11,3.08-12.37-3.99-10.08Z"/>
  <path class="st7" d="M543.53,756.71c2.39.05,6.08-.53,7.98-.06s.65,2.3.96,3.04c-9.3-.72-2.42,4.53,0,8.94-.1.98.09,2,0,2.98l-1.49,5.96c-.16,2.22-.23,5.28,0,7.45v1.49c-2.46-1.89-6.18-7.18-6.85-7.34-3.1-.76-6.11,4.09-8.05,5.85h-1.49c-1.12-5.51.5-14.59,0-20.86l5.95-1.51v-1.46c-2.54.12-5.08-1.26-7.44-1.51-.02-.99-.03-1.99-.01-2.98,3.47.02,6.97-.07,10.44,0Z"/>
  <path class="st7" d="M618.01,725.43c.21-4.93-1.02-12.04.78-16.36,1.78-4.28,14.42-10.24,18.58-13.44.21,7.01,1.09,11.66-3.48,17.37-1,1.25-3.83,1.66-4.72,3.45-1.58,3.2-.05,6.97-.73,8.98-.58,1.71-8.84,3.96-7.45,7.45-.61-.28-2.09.19-2.98,0,.25-2.37-.11-5.01,0-7.45Z"/>
  <path class="st12" d="M494.36,726.92v20.86l-12.96-7.91c-5.21-7.11-9.55-10.19-6.45-19.71.42-1.29-.77-3.05,2.24-2.15,5.05,1.52,10.55,9.77,17.17,8.91Z"/>
  <path class="st1" d="M543.53,863.97c-1.49-10.88-1.83-21.76-1.48-32.77,7.78,1.99,14.74,1.55,22.65,1.04,2.55-.17,4.77-3.22,4.16,1.94-15.01,7.23-18.81,14.79-25.33,29.8Z"/>
  <path class="st10" d="M355.82,715c.1-4.54-4.63-12.83.65-17.97,1.85-1.8,22.05-10.06,23.18-8.84,1.99,10.84-2.33,8.12-8.93,13.4-.6,0-7.1,1.33-7.45,1.49-3.91,1.83-.1,4.98,0,5.96s-.03,2,0,2.98l-2.98,4.47c-1.44-.72-2.82-1.4-4.47-1.49Z"/>
  <path class="st5" d="M728.25,712.02l-7.45,4.47c-.08-3.42.84-11.2-.68-13.47-1.07-1.58-8.79-3.45-11.23-4.41-.78-.31-2.11.74-3.12-.87-1.72-2.73-1.32-7.83-1.34-11.04.84-.96,21.13,8.28,22.36,9.66,2.92,3.28,1.04,11.03,1.47,15.66Z"/>
  <path class="st7" d="M466.06,710.53c.4,1.11.39,18.94,0,20.86h-1.49c-2.61-2-3.39-5.73-7.45-4.47.08-.87-.59-9.74-.8-10.33-2.05-5.63-10.43-6.84-6.64-17.97,1.05-1.24,16.04,10.96,16.38,11.91Z"/>
  <path class="st9" d="M640.36,680.74c2.28-9.11.79-18.4,1.51-27.53.33-4.21,2.63-9.53,2.95-12.69l5.94-2.98c-4.89,13.16,5.15,37.22-10.41,43.2Z"/>
  <path class="st1" d="M545.02,798.43c2.86,7.55,5.76,14.94,8.94,22.35-1.76.24-10.26,9.35-11.91,7.44l-1.5-20.85c1.64-3.85-.08-10.2,4.47-8.94Z"/>
  <path class="st7" d="M728.25,712.02c1.02,10.94,5.78,23.76-7.45,29.8,1.01-6.39.17-18.28,0-25.33l7.45-4.47Z"/>
  <path class="st7" d="M360.29,716.49c.83.41,1.62,1.62,2.98,1.49.12,7.49,1.16,17.24-1.49,23.84-1.13-1.42-4.83-3-6.04-5.14-3.95-6.95-.06-15.41.08-21.68,1.65.09,3.03.77,4.47,1.49Z"/>
  <path class="st5" d="M510.75,832.69c-1.33-.52-6.71-1.28-3.01-3.75,7.35-4.91,17.13-2.35,24.51-12.74,3.84-5.41,7.44-22.82,8.31-23.74,2.61-2.77,4.01,4.78,4.45,5.96-4.55-1.26-2.83,5.09-4.47,8.94-1.36,3.2-7.38,14.36-9.67,16.4-6.22,5.54-14.62,3.75-20.13,8.92Z"/>
  <path class="st12" d="M542.04,749.26l1.49,7.45c-3.47-.07-6.97.02-10.44,0-.02.99,0,1.98.01,2.98,2.36.24,4.9,1.62,7.44,1.51v1.46s-5.95,1.51-5.95,1.51c-.03-.39-1.44-1.91-1.49-4.47-3.86-.4-8.02.3-11.92,0l2.98-10.42c5.49.52,12.19.03,17.88,0Z"/>
  <path class="st0" d="M701.44,585.39c-4.41,2.91-8.68,8.33-10.43,13.41-.2-.01-1.69,1.77-3.66,1.59-8.43-.78-.06-7.93,1.29-10.66,2.35-4.73,1.28-13.22,9.47-9.2,3.44,1.69,2.89,4.47,3.33,4.87Z"/>
  <path class="st7" d="M676.11,686.69c-1.75.26-2.12-.13-2.98-1.49-.26-.41.62-1.86-.93-3.08-5.89-4.64-10.77,1.11-6.55-12.65.44-1.42-.86-2.93,2.18-2.07,11.67,3.3,7.58,10.17,8.29,19.29Z"/>
  <path class="st7" d="M761.03,555.6c-.7,2.95.34,6.2,1.49,8.94h-17.88c1.96-7.99,8.69-10.09,16.39-8.94Z"/>
  <path class="st12" d="M634.4,732.88c-3.2,2.65-7.45,4.67-8.94,5.96.22-2.29-2.57-5.08-4.47-5.96-1.39-3.49,6.87-5.73,7.45-7.45,5.56-.69,6.56,2.52,5.96,7.45Z"/>
  <path class="st9" d="M506.28,698.61c2.46.21,5.05-1.41,6.43,1.8.42.97,2.63,13.04,2.55,13.74-.14,1.38-2.92.7-3.03.85-9.63-.19-5.16-9.06-5.96-16.39Z"/>
  <path class="st10" d="M693.99,679.25c.07.68.79,1.34,1.49,1.49.91,4.44-1.41,7.84-1.49,10.43l-7.45-2.98c.02-3.63-.02-8.39,0-11.92,1.89,2.72,5.74,2.18,7.45,2.98Z"/>
  <path class="st10" d="M399.02,677.76c-.06,2.98.03,5.96,0,8.94-.01.99,0,1.99,0,2.98-3.46.43-6.09,3.7-8.94,1.49-.01-4.03,1.5-9.06,1.49-10.43l7.45-2.98Z"/>
  <path class="st9" d="M582.26,701.59c0,.5,0,.99,0,1.49v7.45c-.23.36-4.18,4.34-4.47,4.47-.9.4-3.27-.35-4.47,0,.24-3.93-.34-8.01,0-11.92l8.94-1.49Z"/>
  <path class="st12" d="M635.89,244.24c-1.15-7.2,2.61-3.45,6.48-4.43,1.6-.41.15-4.72,3.94-3.01.31,2.03-2.8,9.42-5.95,8.93-.56-.31-2.57-.49-4.47-1.49Z"/>
  <path class="st12" d="M527.13,771.6c-1.87,2.27-9.81-7.38-3.69-8.92,3.95-.99,4.57,7.86,3.69,8.92Z"/>
  <path class="st12" d="M552.46,759.69c2.72,6.6.37,5.24,0,8.94-2.42-4.41-9.3-9.66,0-8.94Z"/>
  <path class="st12" d="M565.87,735.86c.24,4.16-.56,4.38-1.49,7.45-2.59-2.52-2.84-8.9,1.49-7.45Z"/>
  <path class="st2" d="M832.54,391.72c-.06-2.16.04-4.99,0-5.96,1.8,1.48,2.53,5.09,0,5.96Z"/>
  <path class="st2" d="M832.54,458.76c.09,1.25,4.58,5.22-1.49,4.47.05-1.63-.45-3.75,1.49-4.47Z"/>
  <path class="st2" d="M831.05,484.09c.09,1.25,4.58,5.22-1.49,4.47.12-1.59.72-3.1,1.49-4.47Z"/>
  <path class="st12" d="M550.97,777.57l1.49-5.96c-.27,2.78-1.47,5.65-1.49,5.96Z"/>
  <path class="st12" d="M570.33,728.41c1.62,1.62-1.34,4.59-2.96,2.96-1.62-1.62,1.34-4.59,2.96-2.96Z"/>
  <path class="st0" d="M653.77,773.1c.02-.29-.04-1.88,0-2.98v2.98Z"/>
  <path class="st12" d="M550.97,785.02c.02.19,2.19.82,1.52,2.19l-.77.78c-1.03-.53-.68-1.43-.74-1.48v-1.49Z"/>
  <path class="st0" d="M582.26,723.94l-1.49-2.98c.49.05,1-.06,1.49,0v2.98Z"/>
  <path class="st0" d="M580.77,729.9l1.49-2.98c-.4,2.51-1.48,2.81-1.49,2.98Z"/>
  <path class="st0" d="M720.81,716.49c.17,7.05,1.01,18.94,0,25.33-1.19,7.52-35.42,40.06-43.18,46.95-24.64,21.84-54.01,41.48-81.82,58.22-13.63,8.2-26.8,17.33-41.85,22.95-1.22-1.32,5.87-15,7.43-17.14,9.82-13.53,32.5-12.25,35.77-32.02,6.26,6.6,6.61-1.33,11.92-1.49,1.71-.05,4.02,1.85,6.39,1.25,11.25-2.85,6.12-30.96,7.04-40.71.76-8,5.79-7.69,2.95-14.17l5.93-.77c-3.13,12.86,1.84,27.39.04,40.98,1.89,2.25,9.24-8.22,11.47-8.79,3.23-.82,5.71,3.85,9.37,2.83-1.5-4.58,1.27-10.35,1.5-13.4,11.77-2.59,5.03-15.65,8.2-20.85.66-1.07,9.08-6.98,11.17-8.95,4.09.01,8.92,3.61,11.88,2.31,1.35-.6,19.83-19.45,20.7-21.11,4.47-8.58-.6-10.3-1.21-16.28-.48-4.72-.8-14.92-.21-19.38.44-3.28,2.77-1.82,4.59-3.63,2.45.96,10.17,2.82,11.23,4.41,1.52,2.27.6,10.05.68,13.47Z"/>
  <path class="st0" d="M653.77,765.65c.01-.08-1.22-.82,0-1.49v1.49Z"/>
  <path class="st12" d="M504.79,728.41c.07-1.09,1.48-1.39,1.49-1.49l-1.49,1.49Z"/>
  <path class="st12" d="M464.57,731.39h1.49c-.13.62.16,1.21-.74,1.46-.91.05-.68-1.41-.74-1.46Z"/>
  <path class="st12" d="M534.59,785.02h1.49c-.07.06.16,1.51-.74,1.46-.91-.25-.62-.84-.74-1.46Z"/>
  <path class="st12" d="M506.28,723.94c.15-.57-2.01.13,0-1.49v1.49Z"/>
  <path class="st0" d="M695.48,680.74c-.7-.15-1.42-.81-1.49-1.49.86.4,1.26.36,1.49,1.49Z"/>
  <path class="st0" d="M693.99,670.31v-1.49c0,.51.01.94,0,1.49Z"/>
  <path class="st7" d="M424.35,400.66c-2.74-13.94-2.24-28.24-3.14-42.3-.22-3.49-2.56-7.18-2.56-10.59,0-2.24,4.58-21.66,5.58-23.96s1.62-4.15,4.58-3.6c1.38,7.04,2.8,14.31,4.91,21.17.66,2.15,2.01,7.79,4.03,8.62-.03-11.68-7-22.46-5.93-34.25,2.42-.64,1.04,2.05,1.75,2.56,5.91,4.25,3.72-5.43,4.36-9.12,11.8-68.33,116.32-78.97,168.2-53.81,8.19,3.97,47.77,29.42,49.66,36.45.65,2.39-1.61,5.46,1.72,7.51,1.97-6.33,3.95-12.61,8.19-17.87,1.55,1.72,2.03,3.31,2.98,4.47-8.12,11-10.53,24.92-15.03,37.57-.45,1.26-2.57,1.17-2.8,2.21-2.73,12.32-3.84,51.18-11.89,59.04-1.37,1.34-3.36.75-4.07,1.36-1.06.91-7.42,11.92-6.41,13.04,3.87-4.49,8.32,4.73,7.43,5.95-.19.26-5.22,1.6-6.39,1.3-3.36-.86-2.56-5.64-10.01-3.61-6.14,1.67-12.11,7.32-10.41,14.24-.49.07-1-.06-1.49,0s-1-.06-1.49,0c-.97.12-2-.09-2.98,0-7.28.66-7.39-1.11-12.93,4.97-.74.82-.29,2.28-.48,2.47-5.32,5.45-14.55,8.15-14.9,16.39-15.67,5.48-27.37,4.67-44.69,4.47.9-4.4-2.19-2.63-4.73-3.38-12.85-3.77-29.48-16.52-44.45-22.67-10.16-4.18-47.82-18.47-56.59-18.64ZM525.66,279.98c-11.36.33-22.58-2.96-29.81,8.2-6.99,10.78-.09,29.26-2.97,39.89-.1.38-5.19,5.46-5.57,5.57-1.76.5-5.88-.47-6.37-.02-.66.59-.4,17.05.19,17.72.33.37,7.13,1.41,9.2,3.07,7.39,5.92-4.97,44.41,12.89,50.07,2.99.95,17.5,2.78,19.98,1.95,3.49-1.17,3.12-17.03,2.45-17.68-.81-.79-10.22,2.09-12.68-2.97-3.88-7.99,2.83-24.75-3.94-36.29-1.39-2.37-6.03-5.21-5.64-7.47.29-1.66,5.13-4.65,6.48-7.03,5.65-9.96-.55-32.47,2.2-36.24,1.87-2.57,10.62,1.01,12.91-2.28,1.95-2.8-.04-12.56.66-16.49ZM605.95,333.77c-.83-.96-9.89-.33-11.49-5.64-2.13-7.1.69-22.44-.29-31-2-17.51-18.47-18.25-32.78-17.14.44,2.67-.59,15.83,0,16.4.48.46,11.7-.74,13.21,1.69,1.42,2.28-.56,25.27.56,31.46,1.25,6.89,8.13,10.47,8.48,12.47.44,2.55-5.04,5.58-6.48,8.11-5.7,10.07.67,27.9-3.09,35.64-2.46,5.05-11.86,2.17-12.68,2.97-.63.61-.5,15.91,1.4,17.23,5.76,4.01,22.96-1.14,27.43-7.18,8.31-11.21-.22-41.58,6.94-45.05,2.38-1.15,6.92-.21,8.29-2.14,1.01-1.43,1.08-17.16.49-17.84ZM651.53,296.38v1.49c.97-.5.97-.99,0-1.49ZM642.59,361.93v1.49c.97-.5.97-.99,0-1.49ZM642.59,366.4v1.49c.97-.5.97-.99,0-1.49Z"/>
  <path class="st3" d="M437.75,688.18c.65,15.29-.8,30.93-.51,45.83,4.03,4.35,36.26,29.95,36.26,32.38v42.46c0,.24-3.45-1.13-3.04,2.23.45,3.72,3.21,3.68,4.53,5.22.45.53,1,.99,1.49,1.49,1.32,1.36,2.49,2.54,2.98,4.47-9.08.19-10.2,1.45-16.91-7.42-1.95-9.56,3.92-42.41-.99-48.42-2.01-2.46-8.91-6.18-8.91-.03v32.77c0,1.51,4.74,8.97-2.24,6.74-.46-.15-5.73-7.08-5.93-7.51-2.05-4.4-.14-11.48-.77-16.35-5.09-1.48-3.18,9.26-4.47,10.42-7.06-.77-7.01-3.16-7.44-8.94s1.31-16.24-.77-20.83c-1.05-2.31-19.22-18.6-23.06-22.37,10.35-3.03,3.44-17.06,8.27-25.25,2.24-3.8,8.05-3.63,9.33-7.06s1.21-11.29,1.77-15.36c10.22,1.17,2.8-6.57,10.43-4.47Z"/>
  <path class="st9" d="M619.5,445.35l7.43-2.98.02,13.4c10.55-1.67,34.64-18.89,34.37.76-.22,16.37-4.75,36.92-18.99,46.68-4.7,3.22-21.76,8.54-22.58,9.45-.6.67-2.77,14.85-3.24,17.61-6.23,36.05-10.58,72.62-16.39,108.75-.64.4-2.03-.01-3.7,1.5-1.18,1.06-1.78,4.12-2.26,4.46-2.99,2.11-3.13-1.56-2.97-3.69,2.73-36.31,11.28-78.69,16.38-115.49.25-1.78,3.79-9.7,2.97-10.42-23.94-.25-29.72,2.45-21.54-22.3,3.58-10.83,7.67-17.93,16.37-25.34,10.77-9.17,13.15-3.34,14.11-19.41.06-.99-.05-1.99,0-2.98ZM652.27,455.79c-28.83,7.42-53.98,19.97-59.58,52.13,33.59-.53,63.04-13.36,59.58-52.13Z"/>
  <path class="st9" d="M467.55,448.33c.19,2.86-.42,6.29,0,8.94.82,5.2,8.29,6.86,12.63,10.46,2.98,2.47,7.34,6.74,9.47,9.89,3.53,5.21,11.37,25.97,10.67,31.78-1.1,9.24-17.13,5.1-23.84,5.96l19.36,128.12-8.6-7.03c-7.87-37.41-10.15-78.44-19.69-115.13-.58-2.21,1.23-6.24-1.45-8.23-19.96-5.26-33.49-13.77-38.1-34.89-1.07-4.88-3.54-18.08-3.65-22.42-.09-3.34,1.77-6.99,4.47-8.94l32.77,8.93c.82-2.3-1.31-4.53-1.48-5.95-.29-2.42.22-5.01,0-7.45,3.91-.06,5.02,3.57,7.45,5.96ZM494.36,507.91c-4.68-10.12-8.1-24.29-16.36-32.04-4.65-4.37-42.03-22.94-44.71-20.08-2.96,38.71,26.46,53.71,61.07,52.12Z"/>
  <path class="st3" d="M378.16,558.58c.17,0,.81-1.26,1.96-1.14,1.4.15,22.64,14.42,23.47,15.57,2.79,3.88,2.39,11.97,3.89,16.59,1.68,5.16,4.78,13.47,6.88,18.44,1.7,4.03,7.72,11.06,8.23,14.17.69,4.17-2.57,6.56-2.72,7.89l-8.79-4.37c-1.21,3.27-3.07,5-3.12,8.84-8.81-1.26-5.29-6.44-5.96-8.94,5.75.43,7.88-12.17,3.68-13.4-6.13-.49-7.38,5.66-9.64,8.93-1.8,2.6-3.01,5.2-4.47,7.45-3.31-1.38-15.31,4-16.38-.77-.5-2.23,15.92-11.67,17.86-16.39.54-3.83-3.81-1.47-6.81-3.59-1.63-1.15-2.65-4.26-3.6-6.08.35-.17.98.13,1.49,0,1.15-.29,2.51.06,2.98-1.49,4.83-.21,5.72.26,10.43-1.49,2.1-.78,6.65-1.96,5.95-5.19s-6.73-1.89-8.93-2.26c-.55-3.58,1.39-8.99-2.97-11.24-6.04-3.12-6.17,3.93-7.46,5.28-.72.76-5.58,5-5.99,5.19-4.65,2.14-25.12.6-32.07.71-6.32.1-15.67,3.8-21.96.04-1.65-.99-.77-2.38-1.06-2.96-5.86-.4-10.36-3.91-15.75,2.86-3.98,5.01-1.21,7.94-.64,13.53-1.59.04-14.62,6.33-13.44.73,3.89-5.06,2.83-12.81,6.18-17.67,3.6-5.22,12.29-5.48,11.73-14.34,1.46.43,4.16-.28,5.96,0,.21.71.78,1.32,1.49,1.49.85.2,2.03-.13,2.98,0-2.51,5.47-1.03,8.45,1.49,13.41,8.76.6,4.85-2.71,8.97-5.16s20.38-2.56,23.91-.14c1.74,1.19,1.14,5.05,1.4,5.3,2.3,2.16,22.01-12.73,15.58-13.42-4.07,1.01-8.37-1.54-11.94-1.54-8.42,0-23.91,6.52-26-7.39,5.5-.57,12.15.08,17.88,0,8.92-.12,17.89.09,26.81,0l-1.48-7.44Z"/>
  <path class="st0" d="M619.5,445.35c.34-6.81-2.74-15.66,7.02-16.15,5.22-.26,2.74,8.02,3.41,8.7,1.32,1.35,21.38-.32,27.1,1.95,6.05,2.41,14.78,12.17,15.74,18.51,1.85,12.29-4.53,39.34-13.05,48.8-8.82,9.8-30.04,21.6-43.2,23.1.48-2.76,2.65-16.94,3.24-17.61.82-.92,17.88-6.23,22.58-9.45,14.24-9.76,18.76-30.31,18.99-46.68.27-19.64-23.83-2.43-34.37-.76l-.02-13.4-7.43,2.98Z"/>
  <path class="st5" d="M671.64,557.09c-3.85-.8-3.05,1.87-4.04,4.08-7.22,15.96-10.66,32.09-17.58,48.04l-48.39,44.72c-.4-3.01-1.39-9.76-1.49-11.92-.05-.99.03-1.99,0-2.98,5.44-3.37,31.51-24.68,34.11-29.21,4.13-7.2,4.82-26.34,9.1-36.34.06-.14,2.01.51,2.95-1.07,2.28-3.87,1.24-12.44,4.46-17.59,3.83-6.13,20.6-15.84,25.37-23.05.81,8.39-2.89,17.28-4.47,25.33Z"/>
  <path class="st0" d="M619.5,448.33c-.96,16.07-3.34,10.24-14.11,19.41-8.7,7.42-12.79,14.51-16.37,25.34-8.19,24.75-2.4,22.05,21.54,22.3.82.72-2.73,8.63-2.97,10.42-23.56,4.06-36.88-7.6-34.09-31.87,1.7-14.82,15.54-32.86,27.64-40.88,5.54-3.67,11.66-5.62,18.37-4.72Z"/>
  <path class="st6" d="M340.92,515.37c1.57,1.89,3.6,1.74,4.47,5.21,3.34,13.29-9.36,2.66-12.59-2.3-5.86-8.99-3.19-18.96-3.81-28.96-1.27-20.38-3.51-46.92-1.55-67.13.76-7.79,4.88-15.74,13.47-17.05.48,20.81-.62,41.77,0,62.56-2.29.63-5.68-2.06-5.97,2.19-.72,10.63-.38,29.7,1.81,39.96.79,3.7,2.65,3.71,4.16,5.52Z"/>
  <path class="st8" d="M698.46,320.22c12.28,38.52,7.2,81.13,5.96,120.67-1.33.24-3.41-.36-4.47,0-.36-5.41-5.25-14.09-8.94-17.88-.26-1.84.38-4.3,0-5.96,1.97,1.15,4.2,3.72,4.47-.72,1.77-28.7,1.4-51.21-1.49-79.73,2.69-2.4,1.92-3.51-1.49-2.98-.07-.97-.04-2.01,0-2.98.11-2.29,2.87-12.11,5.96-10.43Z"/>
  <path class="st8" d="M744.64,466.21c1.8-2.47-1.38-53.3,0-61.07,5.03.66,9.97,5.66,11.2,10.38-.38,27.56,2.97,58.44.68,85.68-1.01,12.01-4.11,24.13-17.85,26.09.05-3.07,1.16-5.89,1.48-8.93,10.21-2.98,9.59-15.3,10.41-24.6s-.84-18.36,1.5-27.54h-7.44Z"/>
  <path class="st0" d="M424.35,455.78c.11,4.34,2.58,17.55,3.65,22.42,4.62,21.12,18.14,29.64,38.1,34.89,2.68,1.99.88,6.02,1.45,8.23-5.32-1.12-10.66,1.61-15.57,1.54-15.6-.24-31.42-21.42-34.43-35.72-1.68-7.97-5.27-30.79,6.79-31.37Z"/>
  <path class="st5" d="M583.75,653.92c.87-.04,4.8,1.58,7.44,0,1.03.92-4.15,11.58-5.99,12.64-2.58,1.49-5.05.42-7.41.76-18.61,2.71-51.41,2.86-70.02,0-9.75-1.5-13.2-13.26-3.35-10.87,2.35.57,12.96,5.44,12.28-1.05,4.04.37,12.74,1.49,15.64,1.49h23.84c7.61,0,19.08-2.64,27.56-2.98Z"/>
  <path class="st9" d="M424.35,400.66c8.77.17,46.43,14.47,56.59,18.64,14.97,6.15,31.59,18.9,44.45,22.67,2.55.75,5.63-1.02,4.73,3.38-2.46-.03-5.01.2-7.45,0-.37-1.5-1.74-1.33-2.98-1.49-14.92-1.94-47.13-19.44-64.78-25.35-7.21-2.41-28.41-10.14-34.47-10.32-3.93-.11-21,12.75-24.4,16.3.17-.92-.25-2.24,0-2.98.83-2.48,3.78-5.21,2.98-8.94,1.04-.92,1.89-2.13,2.98-2.98,2.08-1.62,7.18-3.43,9.38-6.33,1.1-.56,2.92-1.41,4.03-1.12,1.02.27,1.25,4.1,3.71,2.98,2.42-2.64,1.21-4.54,5.23-4.46Z"/>
  <path class="st0" d="M422.86,677.76c-.08,2.14-1.39,4.76-1.37,5.31s5.5.9,2.86,3.61c-.46.47-7.2-.29-5.95,4.48,3.25-1.08,6.61,1.23,8.93,1.5-.55,4.07-.49,11.94-1.77,15.36s-7.09,3.26-9.33,7.06c-4.83,8.2,2.08,22.22-8.27,25.25-3.23-3.17-5.67-4.02-8.71-6.94-.55-9.59-.11-19.23-.23-28.81,13.72-5.33,9.28-9.58,8.94-20.86,5.03-1.96,9.84-4.13,14.9-5.96Z"/>
  <path class="st7" d="M643.34,406.62c4.48-1.33,15.68-6.93,19.91-6.08,2.29.46.92,6.24,3.9,6.07,6.86-17.58,1.21-35.97,4.86-53.99.64-3.16,10.21-32.27,16-27.93,4.37,8.45-2.39,11.27-5.19,17.88-7.49,17.65-5.23,37.08-6.79,55.94.92,8.99,13.07,10.27,14.98,18.54.38,1.66-.26,4.12,0,5.96-2.05-2.11-19.69-14.2-21.96-14.65-3.4-.68-14.42,1.68-18.27,2.73l-7.45-4.47Z"/>
  <path class="st0" d="M467.55,457.27c4.77,1.34,1.94-4.1,3.76-4.55,6.52-1.62,18.3,5.42,23.07,9.75,12.51,11.34,18.74,31.71,11.89,47.64-.68,1.57-4.13-1.48-5.95-.69.69-5.81-7.14-26.57-10.67-31.78-2.14-3.16-6.5-7.42-9.47-9.89-4.34-3.6-11.8-5.27-12.63-10.46ZM502.56,504.94v1.49c.97-.5.97-.99,0-1.49Z"/>
  <path class="st5" d="M385.61,445.35c.14-.08-.26-2.69.75-3.02,5.51-1.82,3.12,2.85,3.72,6-3.17,3.54-.85,10.22-1.47,14.9l2.96-1.49c1.42,13.13,1.66,35.01,4.83,46.57,1.76,6.43,8.59,11.21,9.71,15.61,1.38,5.42,1.14,16.37,1.85,22.73-18.89-5.03-16.1-26-17.89-40.96-1.54-12.89-2.81-25.88-4.53-38.74-.37-2.78,1.9-6.05-2.91-5.22-.07-1.98.07-3.98,0-5.96,5.28,1.29,2.3-6.15,2.98-10.43Z"/>
  <path class="st7" d="M720.81,452.8c1.05-2.46,11.42-.35,11.83.08.52.53,0,8.94.08,11.17.1,2.87-1.52,5.97,2.98,5.14-.7,17.68-.49,34.42-2.98,52.14-5.21-.69-2.98,5.67-5.99,8.17-2.2,1.82-10.13,3.21-13.38,3.75.01-.17-1.42-1.2-1.18-3.23.26-2.16,2.88-15.52,3.36-16.19,1.68-2.37,15.69-2.48,15.69-6.65v-30.54h-14.9c-1.59-3.49,1.44-8.92,1.5-10.43h13.42c-1.57-1.98.19-9.89-.17-10.25s-8.39-2.6-10.26-3.15Z"/>
  <path class="st9" d="M769.97,332.13c-.79-5.62-8.59-6.06-9.05-15.67-.98-20.58,34.36-14.64,24.67,6.72-1.18,2.59-8.17,5.81-8.17,6.72v28.31c0,2.55-3.41,5.18-5.86,3.65-.7-.44-3.02-14.5-3.08-16.31-.14-4.18,2.2-8.35,1.49-13.41ZM770.18,311.49c-3.49,2.2-.87,12.95,5.75,9.54,7.36-3.8.65-13.57-5.75-9.54Z"/>
  <path class="st7" d="M367.73,451.31c.06,1.49-.05,2.98,0,4.47-11.31-1.12-13.1.46-11.91,11.91,3.6-.34,6.73-1.3,10.42-1.48-.6,3.35-.5,5.27,2.98,4.47-.03,1.38.24,5.74,0,5.97-.59.58-13.4-.8-16.4,1.5,3.7,7.37-.81,35.36,3.26,39.93.95,1.07,13.53,2.83,15.77,5.09s1.44,7.21,1.84,10.09c-4.32.17-10.54-.93-14.31-2.85-3.39-1.73-2.98-4.96-6.54-4.6-3.44-19.1-2.31-38.77-2.98-58.1,4.54.83,2.82-2.28,2.99-5.14.13-2.24-.58-8.73.16-9.6,1.02-1.2,12.16-1.95,14.73-1.65Z"/>
  <path class="st7" d="M369.22,466.21c-.99.03-1.99-.05-2.98,0,.29-1.64,1.65-3.43,2.98-4.47.09,1.48-.04,2.98,0,4.47Z"/>
  <path class="st5" d="M698.46,445.35h2.97c.13,27.48-3.84,54.83-6.4,82.23-.81,8.86-7.88,17.2-15.94,20.56.41-7.1-.09-19.27,1.79-25.77.63-2.2,8.92-10.56,10.13-14.45l2.96,1.49c1.64-21.34,5.32-42.58,4.48-64.06Z"/>
  <path class="st9" d="M643.34,406.62l7.45,4.47c-26.03,7.14-50.99,21.06-75.98,29.8.35-8.23,9.58-10.94,14.9-16.39,4.01-.56,13.73-2.94,13.41-7.45.98-.09,2.01.12,2.98,0l.74,1.46.74-1.46c.49-.06,1,.07,1.49,0,8.9-1.21,24.47-7.51,34.26-10.43Z"/>
  <path class="st6" d="M415.41,555.6c11.24,12.33,11.9,31.87,17.82,46.98,5.7,14.55,35.36,33.83,47.64,46.22,2.15,2.17,3.62,3,3.07,6.61-9.09-3.25-46.84-37.55-52.79-46.28-8.6-12.63-12.41-38.63-15.74-53.53Z"/>
  <path class="st7" d="M452.62,659.89c.36.3,2.53,6.04,4.51,8.18,2.64,2.85,7.15,4.69,8.77,7.61,2.45,4.41,1.53,12.7,5.44,16.95.99,1.07,8.73,2.35,5.14,5.98-2.04,2.06-9.41-4.09-9.66,1.51-1.32-.32-18.95-15.26-19.43-16.43-1.59-3.91,4.24-17.49,2.26-23.05-.17-1.29,2.78-.89,2.96-.74Z"/>
  <path class="st6" d="M704.42,440.88c-.36,11.36.37,22.97,0,34.26-5.89-.6-1.54,2.3-1.49,2.98,1.35,19.83-4.07,41.22-5.13,61.17-.98,3.2-15.07,16.55-17.99,17.78-4.51,1.9-.79-7.76-.73-8.93,8.06-3.36,15.13-11.7,15.94-20.56,2.57-27.4,6.53-54.76,6.4-82.24h-2.97s-1.49,0-1.49,0c.55-1.75.15-3.51,2.98-4.47,1.06-.36,3.14.24,4.47,0Z"/>
  <path class="st3" d="M419.88,642c5.61-.27,4.95,14.1,4.56,17.2-.43,3.42-7.76,5.38-7.54,9.61-2.24,1.08-4.67,4.98-8.71,4.68-.71.84-.3,8.06-.23,10.22-.62.24-2.17-.37-3.41.03-1.13.36-1.5,4.64-5.52,2.95.03-2.98-.06-5.96,0-8.94.11-5.75-.57-12.35,0-17.88,9.97,1.16,19.99-8.56,20.86-17.88Z"/>
  <path class="st9" d="M331.98,351.5c11.59-7.4,1.08-27.56,14.9-31.28v26.07c0,.45,5.14,5.95,5.96,6.7-.02.99.04,1.99,0,2.98-.02.52.13,1.17,0,1.49-1.08,2.74-3.72,2.49-4.23,3.22-.47.66,1.34,2.46,1.25,2.74-.23.72-5.68,3.76-7.45,2.98-2.63-2.82-6.65-5.4-8.18-7.48-2.2-3-1.47-5.87-2.25-7.42Z"/>
  <path class="st6" d="M382.63,461.74c4.82-.83,2.54,2.44,2.91,5.22,1.72,12.86,2.98,25.86,4.53,38.74,1.79,14.96-1,35.93,17.89,40.96.1.9,3.91,12.37-.72,10.42-4.25-5.36-14.88-10.49-17.52-16.75-4-9.48-4.62-35.82-5.59-47.3,2.68-2.4,1.92-3.5-1.49-2.98-.72-9.17.31-19.62,0-28.31Z"/>
  <path class="st9" d="M716.34,302.34c-8.8-12.92,11.31-27.8,22.14-13.95,7.42,9.48.88,12.73-4.33,19.15-3.29,4.05.83,6.81-10.36,5.22.24-9.56-4.17-5.61-7.45-10.43ZM726.32,290.66c-4.56,1.29-5.48,7.23-1.04,9.46,9.56,4.81,10.78-12.22,1.04-9.46Z"/>
  <path class="st7" d="M744.64,466.21h7.44c-2.34,9.18-.7,18.53-1.5,27.55s-.21,21.61-10.41,24.6c.3-2.83,1.49-9.73,1.49-11.17v-28.31c0-3.64.16-8.22.16-12.04,0-1.12,2.65-.39,2.82-.63Z"/>
  <path class="st5" d="M735.7,405.13c.28,4.16,1.36,8.24,1.49,13.41-4.75-1.15-3.88,5.86-5.31,6.08-4.4.66-9.44-3.44-14.06-3.1.14-8.45.53-14.31,1.49-22.35l16.39,5.96Z"/>
  <path class="st9" d="M735.7,333.62c12.71-12.72,5.4,4.56,8.23,8.97,1.6,2.49,5.95,1.95,3.69,10.4-6,6.98-5.95,5.03-10.43,8.94l-5.96-2.98c.25-1.59-1.87-4.61-1.27-7.84,1.14-6.14,5.58-4.55,5.74-17.49Z"/>
  <path class="st8" d="M737.19,418.54c.19,7.89.12,15.94,0,23.84l-17.88-2.98c.1-4.68-1.6-11.65-1.49-17.88,4.62-.34,9.66,3.75,14.06,3.1,1.43-.21.56-7.22,5.31-6.08Z"/>
  <path class="st0" d="M419.88,630.08c-.44,3.76.36,8.09,0,11.92-.86,9.31-10.89,19.03-20.86,17.88.86-8.31,3.68-4.64,7.06-7.84,5.55-5.27,1.8-12.09,1.88-17.48.06-3.84,1.92-5.56,3.12-8.84l8.79,4.37Z"/>
  <path class="st7" d="M340.92,467.7c.38,12.54,3.78,28.17,3.11,41-.14,2.78.24,5.64-3.11,6.67-1.51-1.81-3.37-1.82-4.16-5.52-2.2-10.27-2.53-29.34-1.81-39.96.29-4.24,3.69-1.55,5.97-2.19Z"/>
  <path class="st8" d="M351.35,420.03c.04,1.49-.06,2.99,0,4.47,2.18-.6,12.89-1.05,13.39-1.51.35-.32-.1-4.49.01-5.94.09-1.26.04-2.58,1.49-2.98.29,7.03,1.21,13.82,1.49,20.86-4.03-.3-11.05,2.27-14.01,4.61-4.09,3.24-.14,8.05-5.36,7.31-.18-10.86-.26-21.92,0-32.77l2.96-1.49c.08,2.47-.05,4.97.01,7.45Z"/>
  <path class="st5" d="M781.89,460.25c15.02-.87,17.44,20.58,5.96,25.33-7.05,2.91-12.1-1.19-10.42-8.93,13.14,5.78,11.35-12.18,0-7.46-.11-4.62-1.12-8.61,4.46-8.93Z"/>
  <path class="st0" d="M428.81,446.84c4.44-3.2,4.57-3.16,8.83-6.86,2.77-2.41,13.42-1.41,16.47.19,5.52,2.9.02,10.26,5.99,9.65.17,1.42,2.3,3.65,1.48,5.95l-32.77-8.93Z"/>
  <path class="st6" d="M516.71,655.41c.68,6.49-9.93,1.62-12.28,1.05-9.85-2.39-6.41,9.37,3.35,10.87v2.98c-4.06-.8-17.44-6.33-19.06-9.23-1.17-2.08-1.16-15.46-1.78-19.07,1.44-1.69,15.65,10.93,18.5,12.02,4.32,1.66,7.2,1,11.29,1.38Z"/>
  <path class="st10" d="M367.73,434.93c.22,5.43-.23,10.95,0,16.39-2.57-.31-13.72.45-14.73,1.65-.74.87-.03,7.36-.16,9.6-.16,2.86,1.56,5.97-2.99,5.14-.24-6.97-1.39-14.57-1.49-20.86,5.22.74,1.27-4.06,5.36-7.31,2.96-2.34,9.97-4.91,14.01-4.61Z"/>
  <path class="st5" d="M443.71,680.74h-1.49c-2.85-3.19-5.39-6.9-5.82-11.31l-.87-31.91c1.85-.08,4.44,2.31,5.26,3.67,2.95,4.9,6.48,35.24,2.91,39.54Z"/>
  <path class="st5" d="M737.19,442.37c-.14,9.04-1.13,17.81-1.49,26.82-4.5.83-2.88-2.27-2.98-5.14-.08-2.23.44-10.64-.08-11.17-.41-.42-10.78-2.54-11.83-.08-.78-.23-2.04.16-2.98,0,.15-4.7,1.42-10.08,1.49-13.41l17.88,2.98Z"/>
  <path class="st0" d="M354.33,555.6c1.95-.06,4.03-.15,5.96,0,.32.02,1.99,1.37,4.47,1.49,1.91.09,4.06.15,5.96,0l2.98,1.49c.16.15,3.46.05,4.47,0l1.48,7.44c-8.92.1-17.89-.11-26.81,0l.02-1.96c-2.98-.74-4.2-5.25-4.49-5.49-.94-4.41,2.2-2.87,5.96-2.98Z"/>
  <path class="st10" d="M577.79,667.33v2.98c-19.24,3.49-50.87,3.78-70.02,0v-2.98c18.61,2.86,51.41,2.71,70.02,0Z"/>
  <path class="st6" d="M643.34,573.47c.05-6.4.66-17.86,4.43-23.13.99-1.38,24.58-20.86,26.13-21.55,2.85-1.27,2.09,1.63,2.22,2.97-4.77,7.21-21.54,16.92-25.37,23.05-3.22,5.15-2.18,13.72-4.46,17.59-.93,1.58-2.89.93-2.95,1.07Z"/>
  <path class="st5" d="M366.24,400.66c.09,4.45-.18,8.96,0,13.41-1.45.4-1.4,1.72-1.49,2.98l-13.41,2.98c-.06-2.48.06-4.98-.01-7.45l-2.96,1.49c.05-1.98-.1-3.98,0-5.96,6.17-2.45,10.45-7.77,17.88-7.45Z"/>
  <path class="st6" d="M410.94,534.74c-.59-2.11-2.31-3.87-2.98-5.94,3.8-2.95,25.84,19.61,31.35,21.51,4.35,5.9.65,10.51,1.37,14.72.21,1.23,3.38-.57,3.03,6.96-6.61-.23-3.81-12.38-6.79-16.3l-25.98-20.95Z"/>
  <path class="st10" d="M698.46,445.35c.83,21.48-2.85,42.72-4.48,64.06l-2.96-1.49c1.29-3.62.03-7.04,0-10.43,6.35.9,1.58-4.6,1.49-5.96-.52-7.48.69-21.26,1.5-29.04.55-5.29,1.4-12.17,2.97-17.14h1.49Z"/>
  <path class="st8" d="M348.37,408.11c.78-15.96,2.37-14.59,17.87-19.36.08,3.96-.07,7.95,0,11.91-7.43-.32-11.7,5-17.88,7.45Z"/>
  <path class="st6" d="M598.65,643.49v14.9c-.14.07.28,2.08-1.05,2.99-6.19,4.25-12.39,7.58-19.81,8.93v-2.98c2.36-.34,4.84.73,7.41-.76,1.84-1.07,7.02-11.73,5.99-12.64-2.65,1.57-6.57-.04-7.44,0,2.79-2.63,7.43-6.92,10.43-8.94,1.46-.99,3.11-.93,4.47-1.49Z"/>
  <path class="st8" d="M719.32,399.17c.4-3.31-.3-7.05,0-10.43,1.3-1.31,12.31,3.05,13.92,4.39,1.12.94.83,2.62,1.57,3.9.37.64,2.2.75,2.4,1.71.58,2.8-1.57,5.49-1.51,6.39l-16.39-5.96Z"/>
  <path class="st9" d="M296.23,478.13c1.4,1.11,1.62,4.35,5.18,4.45,5.39.14,4.19-6.32,9.72,1.51-1,1.05-2.08,3.85-2.98,4.47-7.93,5.4-19.02-.39-19.37-10.43,3.71-3.28,3.87-2.83,7.45,0Z"/>
  <path class="st10" d="M732.72,521.33c-2.49,17.72-2.92,16-20.85,20.85-1.17-3.15,1.33-6.79,1.48-8.93,3.24-.54,11.18-1.93,13.38-3.75,3.01-2.49.79-8.86,5.99-8.17Z"/>
  <path class="st0" d="M308.14,467.7c.91.58,3.46-.29,4.27,2.4.27.89,1.71,11.73,1.76,13.15.06,1.67-2.74.51-3.05.83-5.52-7.83-4.33-1.37-9.72-1.51-3.56-.09-3.78-3.34-5.18-4.45.73-9.24,10.94-2.36,11.92-10.43Z"/>
  <path class="st6" d="M352.84,525.8c3.57-.35,3.15,2.87,6.54,4.6,3.77,1.92,9.99,3.02,14.31,2.85.41,2.93,2.05,5.78,1.48,8.93-.65.69-16.52-3.62-18.36-4.71-4.13-2.45-3.27-7.75-3.98-11.67Z"/>
  <path class="st0" d="M467.55,448.33c-2.43-2.38-3.54-6.02-7.45-5.96-.34-3.77-2.59-6.24-1.15-12.34s7.37-8.96,7.91-1.04c.43,6.38.27,12.98.69,19.35Z"/>
  <path class="st7" d="M416.9,668.82c1.07-.51,5.64-1.84,5.95-1.48-.07,3.46.13,6.97,0,10.42-5.06,1.83-9.87,4-14.9,5.96-.07-2.16-.48-9.38.23-10.22,4.04.3,6.47-3.6,8.71-4.68Z"/>
  <path class="st5" d="M302.19,464.72c3.59.36,3.69,1.53,5.96,2.98-.98,8.07-11.19,1.18-11.92,10.43-3.58-2.83-3.74-3.28-7.45,0-.3-8.75,4.46-14.3,13.41-13.41Z"/>
  <path class="st9" d="M720.81,452.8c1.88.56,9.89,2.77,10.26,3.15s-1.4,8.27.17,10.24h-13.42c.07-1.97-.09-3.96,0-5.94,2.32-.62,2.23-5.48,0-5.96.02-.5-.02-.99,0-1.49.93.16,2.2-.23,2.98,0Z"/>
  <path class="st9" d="M369.22,466.21c.04,1.48.03,2.99,0,4.47-3.48.8-3.58-1.12-2.98-4.47.99-.05,1.99.03,2.98,0Z"/>
  <path class="st9" d="M367.73,455.78c.03.97,1.34,3.5,1.49,5.96-1.33,1.04-2.69,2.83-2.98,4.47-3.69.18-6.82,1.14-10.42,1.48-1.2-11.45.6-13.03,11.91-11.91Z"/>
  <path class="st3" d="M337.94,545.17c.26.03,1.46-2.1,2.7-1.33.36.22.33,2.35,1.3,2.83,4.16,2.05,13.89,2.41,12.39,8.93-3.76.11-6.89-1.43-5.96,2.98-.86-.73-5.8-1.25-7.45-1.49l-2.98-11.92Z"/>
  <path class="st0" d="M573.32,703.08c.37-4.25,2.59-9.59,1.68-14.71l6.5-1.7c1.43,4.71.77,10.05.77,14.92l-8.94,1.49Z"/>
  <path class="st0" d="M349.86,363.42c3.57,2.49,8.16,5.49,7.45,10.41-10.34,3.6-8.62-.72-14.9-7.43,1.77.78,7.22-2.25,7.45-2.98Z"/>
  <path class="st0" d="M720.82,345.54c-7.85-19.64,17.44-10.74,5-1.68-1.42,1.04-3.2,1.79-5,1.68Z"/>
  <path class="st0" d="M737.19,361.93c-.69.61-3.8,8.42-5.99,9.78-1.27.79-5.75-.61-5.93-.85-1.49-1.92,5.8-10.89,5.96-11.91l5.96,2.98Z"/>
  <path class="st9" d="M601.63,653.92c.09.7.77,1.33,1.49,1.49-.2.18.51,2.03-.29,2.71-1.1.94-3.54-.06-4.18.27v-14.9c.44-.18.92-1.16,1.49-1.49.1,2.16,1.09,8.91,1.49,11.92Z"/>
  <path class="st6" d="M385.61,445.35c-.68,4.28,2.3,11.71-2.98,10.43-.06-1.69-2.74-5.46-1.58-9.64.49-1.77,3.8-.37,4.56-.79Z"/>
  <path class="st10" d="M391.57,461.74l-2.96,1.49c.62-4.67-1.7-11.35,1.47-14.9.98,5.13.97,8.57,1.49,13.41Z"/>
  <path class="st9" d="M513.73,689.69c-2.27,2.75-2.28,7.02-5.95,5.94-2.05-4.97,2.41-8.43,5.95-5.94Z"/>
  <path class="st5" d="M692.5,491.54c.09,1.36,4.86,6.86-1.49,5.96-.02-2.25-.32-4.2,1.49-5.96Z"/>
  <path class="st7" d="M717.83,460.25c.05-1.19-.09-3.68,0-5.96,2.23.48,2.32,5.34,0,5.96Z"/>
  <path class="st3" d="M360.29,555.6l.75-1.47c3.49-.32,4.2-.56,3.72,2.96-2.47-.12-4.15-1.47-4.47-1.49Z"/>
  <path class="st3" d="M632.91,631.57v4.46s-2.98-1.48-2.98-1.48c.86-.77,1.85-1.94,2.98-2.98Z"/>
  <path class="st6" d="M445.2,577.94c-6.02,3.69-1.67-1.32-1.49-2.98,1.26.69,1.07,2.04,1.49,2.98Z"/>
  <path class="st0" d="M582.26,710.53v-7.45c3.13,2.17,1.55,5.03,0,7.45Z"/>
  <path class="st10" d="M382.63,490.05c3.41-.53,4.17.58,1.49,2.98-.01-.17-1.28-.33-1.49-2.98Z"/>
  <path class="st3" d="M370.71,557.09c.17-.01,1.4-2.08,2.97-1.48.18.86-.25,2.73.01,2.97l-2.98-1.49Z"/>
  <path class="st10" d="M704.42,475.15c-.04,1.27-.06,2.58-1.49,2.98-.05-.68-4.4-3.58,1.49-2.98Z"/>
  <polygon class="st10" points="382.63 440.88 381.16 442.37 381.14 437.91 382.63 440.88"/>
  <path class="st7" d="M522.67,445.35c-1.26-.1-2.58-.03-2.98-1.49,1.24.16,2.61-.01,2.98,1.49Z"/>
  <path class="st7" d="M442.22,680.74h1.49c-.69,2.89-.93.63-1.49,0Z"/>
  <path class="st5" d="M410.94,534.74l25.98,20.95c2.99,3.92.18,16.06,6.79,16.3-.05.98.1,2.01,0,2.98-.18,1.66-4.53,6.67,1.49,2.98,3.93,8.91,3.56,22.66,7.63,30.36,4.93,9.31,28.83,24.2,31.82,30.75,2.39,5.25-1.15,11.97,2.23,17.12-.76,1.27-1.75-.34-2.95-.76.55-3.61-.93-4.45-3.07-6.61-12.28-12.39-41.94-31.67-47.64-46.22-5.92-15.12-6.58-34.65-17.82-46.98-1.51-6.76-2.63-14.31-4.47-20.86Z"/>
  <path class="st9" d="M384.12,585.39c6.51,1.51,3,4.71,10.43,5.96.46,3.04.72,5.08,2.98,7.45-4.71,1.75-5.6,1.28-10.43,1.49-1.26.06-2.59.07-2.98,1.49-.51.13-1.14-.17-1.49,0-9.34,4.6-19,21.73-27.62,28.37-1.94,4.4,4.01,9.5-2.14,17.1-9.83,12.15-29.03.08-22.73-15.3,4.59-11.21,14.36-5.48,18.2-7.04,1.27-.51,16.83-17.76,18.67-20.15,1.15-1.49,2.89-1.89,2.22-4.47-10.68-1.11-21.43.89-31.86,1.34-2.51.11-5.42-1.95-9.02-1.39-4.09.63-6.25,6.8-12.23,7.06-3.22.14-6.41-2.63-9.45-2.56-.57-5.58-3.34-8.52.64-13.53,5.39-6.78,9.89-3.26,15.75-2.86.29.58-.59,1.97,1.06,2.96,6.29,3.76,15.65.06,21.96-.04,6.95-.11,27.42,1.43,32.07-.71.4-.19,5.27-4.43,5.99-5.19ZM340.48,633.29c-7.1,2.03-3.71,12.1,3.83,9.99,6.74-1.88,3.34-12.04-3.83-9.99Z"/>
  <path class="st9" d="M317.08,326.17c-1.34,1.51-5.68,2.46-6.04,4.03-.75,3.26,1.62,6.78,1.57,9.38-.13,7-.25,11.1.07,18.55.1,2.39-1.8,5.14-1.61,7.54.3,3.77,6.68,4.45,8.32,9.59,5.4,16.93-15.32,26.44-23.77,11.87-7.42-12.8,6.86-16,7.86-20.25.53-2.25-1.46-4.89-1.3-7.19.58-8.62.34-10.99-.13-19.36-.16-2.92,1.99-6.37,1.42-8.67-1.04-4.25-13.1-5.34-8.07-20.48,5.59-16.81,36.75-1.97,21.69,14.99ZM310.91,321.49c3.49-2.2.87-12.95-5.75-9.54-7.36,3.8-.65,13.57,5.75,9.54ZM306.2,375.5c-6.2,1.55-5.78,13.33,3.97,10.08,5.27-1.76,1.75-11.51-3.97-10.08Z"/>
  <path class="st9" d="M311.12,573.47c-8.65-2.56-10-27.28,8.05-25.29,6.93.77,7.5,5.09,11.32,7.41,2.27,1.38,1.93,1.1,4.47,1.49,1.87.29,4.08-.27,5.96,0,1.65.24,6.58.76,7.45,1.49.28.24,1.5,4.75,4.49,5.49l-.02,1.96c-5.72.08-12.38-.57-17.88,0-.88.09-2.77-.21-2.98,0l-1.49,1.49c-1.86.83-8.11,5.63-8.94,7.45-.95-.13-2.13.2-2.98,0-.17-.72-.79-1.38-1.49-1.49-1.8-.28-4.5.43-5.96,0ZM316.63,555.76c-6.2,1.55-5.78,13.33,3.97,10.08,5.27-1.76,1.75-11.51-3.97-10.08Z"/>
  <path class="st9" d="M360.29,308.3l-1.49,1.49c-.29.76.3,2.31,0,2.98l-7.45-1.49c-1.9-7.53-15.25-12.78-5.13-23.75,10.96-11.88,28.97,2.05,21.34,15.39-2.1,3.68-5.16,3.58-7.28,5.38ZM355.36,290.58c-5,1.23-6.41,11.03,1.13,10.32,8.07-.76,5.54-11.96-1.13-10.32Z"/>
  <path class="st3" d="M312.61,339.58c.05-2.6-2.32-6.11-1.57-9.38.36-1.57,4.7-2.52,6.04-4.03,8.4,3.96,3.28,12.69-4.47,13.41Z"/>
  <path class="st7" d="M358.8,312.77c-1.48,3.25-2.45,3.04-2.55,3.27-.16.37,1,8.87-3.4,5.67-1.39-1.01-1.06-8.65-1.51-10.42l7.45,1.49Z"/>
  <path class="st3" d="M334.95,545.18c1.1,3.51-2.71,4.09-5.94,4.45v-4.45s5.94,0,5.94,0Z"/>
  <path class="st3" d="M330.49,555.6l.75-1.47c3.49-.32,4.2-.56,3.72,2.96-2.54-.39-2.2-.11-4.47-1.49Z"/>
  <path class="st12" d="M352.84,352.99c.3.28,8.7,1.3,0,2.98.04-.99-.02-1.99,0-2.98Z"/>
  <path class="st7" d="M358.8,309.79l1.49-1.49c-.37.31-1.43,1.34-1.49,1.49Z"/>
  <path class="st9" d="M764.53,386.73c-12.69-12.73,8.69-34.43,21.01-15.81,8.29,12.54-9.95,26.9-21.01,15.81ZM770.18,382.57c9.17,5.83,13.34-13.24,2.32-9.98-4.45,1.32-4.8,8.4-2.32,9.98Z"/>
  <path class="st3" d="M789.33,558.58c.74.94,4.42-1.75,3.04,8.25-1.08,7.79-11.12,13.71-18.35,12.62-3.16-.48-3.77-7.11-4.05-7.46,10.75,1.78,16.86-3.21,19.37-13.41Z"/>
  <path class="st12" d="M665.69,281.48c-4.23,5.26-6.21,11.54-8.19,17.87-3.33-2.05-1.08-5.12-1.72-7.51-1.9-7.03-41.48-32.48-49.66-36.45-51.88-25.17-156.4-14.52-168.2,53.81-.64,3.68,1.55,13.36-4.36,9.12-.7-.51.68-3.2-1.75-2.56-1.07,11.79,5.9,22.57,5.93,34.25-2.02-.83-3.36-6.46-4.03-8.62-2.11-6.86-3.53-14.13-4.91-21.17-2.96-.56-3.61,1.35-4.58,3.6s-5.58,21.72-5.58,23.96c0,3.4,2.34,7.1,2.56,10.59.9,14.06.39,28.36,3.14,42.3-4.02-.08-2.8,1.82-5.23,4.46-2.46,1.13-2.69-2.71-3.71-2.98-.47-24.15-.17-47.15-10.16-69.53-1.58-3.55-2.63-9.43-7.71-7.93,5.93-16.57,10.09-23.26,19.14-38.25,4.23-7.01,7.5-9.58,14.42-15.34,64.58-53.81,176.78-53.94,234.59,10.39Z"/>
  <path class="st12" d="M692.5,330.64c-.04.97-.07,2.01,0,2.98.19,2.6,1.47,2.81,1.49,2.98,2.89,28.52,3.27,51.03,1.49,79.73-.27,4.44-2.51,1.87-4.47.72-1.9-8.27-14.06-9.55-14.98-18.54,1.56-18.86-.7-38.29,6.79-55.94,2.8-6.61,9.56-9.43,5.19-17.88-5.79-4.34-15.35,24.77-16,27.93-3.66,18.02,1.99,36.41-4.86,53.99-2.98.17-1.61-5.61-3.9-6.07-4.24-.85-15.43,4.74-19.91,6.08-9.79,2.91-25.36,9.22-34.26,10.43-1.71-6.92,4.27-12.57,10.41-14.24,7.45-2.03,6.65,2.75,10.01,3.61,1.17.3,6.2-1.04,6.39-1.3.89-1.22-3.56-10.44-7.43-5.95-1-1.12,5.36-12.12,6.41-13.04.71-.61,2.7-.03,4.07-1.36,8.05-7.86,9.16-46.72,11.89-59.04.23-1.03,2.35-.94,2.8-2.21,4.51-12.65,6.91-26.57,15.03-37.57,10.96,13.42,17.96,28.41,23.84,44.69Z"/>
  <path class="st12" d="M402,409.6c-1.09.85-1.94,2.06-2.98,2.98-2.11,1.88-4.55,2.03-4.47,5.96l-4.18-.47c.97-28.91-3.99-58.95,4.18-87.43,2.53,4.62,6.19,8.46,8.16,13.44,4.13,10.42,7.26,39.19,5.22,49.84-.89,4.65-9.89,9.62-5.93,15.67Z"/>
  <path class="st7" d="M397.53,324.68c5.08-1.5,6.13,4.39,7.71,7.93,9.99,22.39,9.7,45.39,10.16,69.53-1.11-.29-2.94.56-4.03,1.12-2.2,2.9-7.29,4.7-9.38,6.33-3.96-6.05,5.04-11.02,5.93-15.67,2.04-10.65-1.08-39.43-5.22-49.84-1.98-4.98-5.63-8.82-8.16-13.44.94-3.28,2.49-4.59,2.98-5.96Z"/>
  <path class="st10" d="M396.04,421.52c.18-1.08-1.48-2.72-1.49-2.98-.08-3.93,2.36-4.08,4.47-5.96.8,3.73-2.15,6.46-2.98,8.94Z"/>
  <path class="st5" d="M363.27,717.98c-1.36.13-2.15-1.08-2.98-1.49l2.98-4.47c.06,1.98-.03,3.97,0,5.96Z"/>
  <path class="st5" d="M363.27,709.04c-.1-.98-3.91-4.13,0-5.96v5.96Z"/>
  <path class="st0" d="M743.15,622.63c-.87-.21-2.09.2-2.98,0,.39-8.57-14.13-14.93,2.23-14.99,17.45-.06.61,7.27.74,14.99Z"/>
  <path class="st13" d="M739.72,630.24c6.32-1.57,9.1,9.85,3.98,11.58-10.22,3.45-10.11-10.05-3.98-11.58Z"/>
  <path class="st0" d="M476.49,817.79c-.49-.5-1.04-.96-1.49-1.49l1.49,1.49Z"/>
  <path class="st12" d="M407.96,683.71c.34,11.28,4.78,15.53-8.94,20.86-.05-3.96,0-7.95,0-11.92,3.22.01,5.24,1.12,4.46-2.97-1.46.09-3.01-.19-4.46,0,0-.99-.01-1.99,0-2.98,4.03,1.69,4.4-2.59,5.52-2.95,1.25-.4,2.79.21,3.41-.03Z"/>
  <path class="st3" d="M399.02,689.67c1.45-.18,3,.1,4.46,0,.78,4.09-1.25,2.98-4.46,2.97,0-.99,0-1.99,0-2.98Z"/>
  <path class="st0" d="M402,625.61c-.34-1.27-4.03-5-5.96-4.47,2.26-3.27,3.51-9.42,9.64-8.93,4.2,1.23,2.07,13.83-3.68,13.4Z"/>
  <path class="st13" d="M393.98,637.64c7.07-2.3,11.45,7.96,3.99,10.08-8.16,2.32-8.11-8.74-3.99-10.08Z"/>
  <path class="st3" d="M672.39,688.18c.97.5.97.99,0,1.49v-1.49Z"/>
  <path class="st0" d="M772.38,554.22c7.07-2.3,11.45,7.96,3.99,10.08-8.16,2.32-8.11-8.74-3.99-10.08Z"/>
  <path class="st8" d="M525.66,279.98c-.7,3.93,1.29,13.69-.66,16.49-2.29,3.28-11.04-.29-12.91,2.28-2.75,3.77,3.45,26.28-2.2,36.24-1.35,2.37-6.19,5.36-6.48,7.03-.39,2.26,4.25,5.1,5.64,7.47,6.77,11.54.05,28.3,3.94,36.29,2.46,5.05,11.86,2.17,12.68,2.97.67.65,1.04,16.51-2.45,17.68-2.48.83-16.99-1-19.98-1.95-17.86-5.66-5.5-44.15-12.89-50.07-2.07-1.66-8.87-2.69-9.2-3.07-.58-.67-.84-17.12-.19-17.72.49-.44,4.61.53,6.37.02.38-.11,5.47-5.19,5.57-5.57,2.88-10.64-4.02-29.11,2.97-39.89,7.23-11.16,18.45-7.86,29.81-8.2Z"/>
  <path class="st8" d="M605.95,333.77c.58.67.52,16.41-.49,17.84-1.36,1.94-5.91.99-8.29,2.14-7.16,3.47,1.37,33.84-6.94,45.05-4.47,6.04-21.67,11.18-27.43,7.18-1.9-1.32-2.03-16.62-1.4-17.23.81-.79,10.22,2.09,12.68-2.97,3.76-7.74-2.61-25.57,3.09-35.64,1.44-2.53,6.92-5.56,6.48-8.11-.35-2-7.23-5.58-8.48-12.47-1.12-6.19.86-29.18-.56-31.46-1.51-2.44-12.73-1.23-13.21-1.69-.59-.57.44-13.74,0-16.4,14.31-1.11,30.79-.37,32.78,17.14.98,8.56-1.84,23.9.29,31,1.59,5.31,10.66,4.69,11.49,5.64Z"/>
  <path class="st12" d="M603.12,417.05c.33,4.51-9.4,6.89-13.41,7.45.19-.19-.27-1.66.48-2.47,5.54-6.08,5.65-4.32,12.93-4.97Z"/>
  <path class="st12" d="M651.53,296.38c.97.5.97.99,0,1.49v-1.49Z"/>
  <path class="st12" d="M642.59,366.4c.97.5.97.99,0,1.49v-1.49Z"/>
  <path class="st12" d="M606.09,417.05c.49-.06,1,.06,1.49,0l-.74,1.46-.74-1.46Z"/>
  <path class="st12" d="M642.59,361.93c.97.5.97.99,0,1.49v-1.49Z"/>
  <path class="st4" d="M652.27,455.79c3.47,38.77-25.98,51.6-59.58,52.13,5.59-32.16,30.74-44.71,59.58-52.13Z"/>
  <path class="st8" d="M494.36,507.91c-34.61,1.59-64.03-13.41-61.07-52.12,2.68-2.86,40.06,15.71,44.71,20.08,8.26,7.75,11.68,21.93,16.36,32.04Z"/>
  <path class="st0" d="M334.96,566.02c2.09,13.91,17.58,7.39,26,7.39,3.57,0,7.87,2.55,11.94,1.54,6.43.68-13.28,15.57-15.58,13.42-.26-.24.35-4.1-1.4-5.3-3.53-2.42-19.68-2.38-23.91.14s-.22,5.76-8.97,5.16c-2.52-4.96-4-7.94-1.49-13.41.83-1.82,7.08-6.62,8.94-7.45.08-.04.51,1.4,1.23,1.28.49-.8,0-2.5.25-2.77.21-.21,2.09.09,2.98,0Z"/>
  <path class="st0" d="M394.55,591.35c2.2.37,8.25-.86,8.93,2.26s-3.85,4.41-5.95,5.19c-2.26-2.37-2.51-4.41-2.98-7.45-7.43-1.25-3.91-4.45-10.43-5.96,1.29-1.35,1.42-8.4,7.46-5.28,4.36,2.25,2.43,7.67,2.97,11.24Z"/>
  <path class="st0" d="M387.1,600.29c-.47,1.55-1.83,1.2-2.98,1.49.39-1.42,1.72-1.43,2.98-1.49Z"/>
  <path class="st6" d="M692.5,333.62c3.41-.53,4.18.58,1.49,2.98-.02-.17-1.3-.38-1.49-2.98Z"/>
  <path class="st12" d="M502.56,504.94c.97.5.97.99,0,1.49v-1.49Z"/>
  <path class="st0" d="M770.18,311.49c6.39-4.04,13.11,5.73,5.75,9.54-6.62,3.42-9.24-7.33-5.75-9.54Z"/>
  <path class="st0" d="M726.32,290.66c9.73-2.76,8.52,14.27-1.04,9.46-4.43-2.23-3.52-8.16,1.04-9.46Z"/>
  <path class="st10" d="M364.76,417.05c-.11,1.45.34,5.62-.01,5.94-.5.46-11.21.9-13.39,1.51-.07-1.48.03-2.98,0-4.47l13.41-2.98Z"/>
  <path class="st0" d="M340.48,633.29c7.17-2.05,10.58,8.11,3.83,9.99-7.55,2.1-10.93-7.97-3.83-9.99Z"/>
  <path class="st0" d="M306.2,375.5c5.71-1.43,9.24,8.32,3.97,10.08-9.75,3.25-10.16-8.53-3.97-10.08Z"/>
  <path class="st0" d="M310.91,321.49c-6.39,4.04-13.11-5.73-5.75-9.54,6.62-3.42,9.24,7.33,5.75,9.54Z"/>
  <path class="st0" d="M316.63,555.76c5.71-1.43,9.24,8.32,3.97,10.08-9.75,3.25-10.16-8.53-3.97-10.08Z"/>
  <path class="st3" d="M331.98,566.02c-.26.27.24,1.97-.25,2.77-.72.12-1.15-1.31-1.23-1.28l1.49-1.49Z"/>
  <path class="st0" d="M318.57,574.96c-.71-.17-1.28-.78-1.49-1.49.7.11,1.32.77,1.49,1.49Z"/>
  <path class="st0" d="M355.36,290.58c6.67-1.64,9.2,9.56,1.13,10.32-7.55.71-6.13-9.09-1.13-10.32Z"/>
  <path class="st0" d="M770.18,382.57c-2.48-1.58-2.13-8.66,2.32-9.98,11.02-3.26,6.85,15.81-2.32,9.98Z"/>
</svg>